  0
SECTION
  2
HEADER
  9
$ANGBASE
  50
0.0
  9
$ANGDIR
  70
  1
  9
$MEASUREMENT
  70
0
  0
ENDSEC
  0
SECTION
  2
TABLES
  0
TABLE
  2
LTYPE
  70
1
  0
LTYPE
  2
CONTINUOUS
  70
0
  3
Solid line
  72
65
  73
0
  40
0.0
  0
ENDTAB
  0
TABLE
  2
STYLE
  70
4
  0
STYLE
  2
KICAD
  70
0
  40
0
  41
1
  42
1
  50
0
  71
0
  3
isocp.shx
  0
STYLE
  2
KICADB
  70
0
  40
0
  41
1
  42
1
  50
0
  71
0
  3
isocp.shx
  0
STYLE
  2
KICADI
  70
0
  40
0
  41
1
  42
1
  50
15
  71
0
  3
isocp.shx
  0
STYLE
  2
KICADBI
  70
0
  40
0
  41
1
  42
1
  50
15
  71
0
  3
isocp.shx
  0
ENDTAB
  0
TABLE
  2
LAYER
  70
30
  0
LAYER
  2
BLACK
  70
0
  62
7
  6
CONTINUOUS
  0
LAYER
  2
GRAY1
  70
0
  62
251
  6
CONTINUOUS
  0
LAYER
  2
GRAY2
  70
0
  62
8
  6
CONTINUOUS
  0
LAYER
  2
GRAY3
  70
0
  62
9
  6
CONTINUOUS
  0
LAYER
  2
WHITE
  70
0
  62
7
  6
CONTINUOUS
  0
LAYER
  2
LYELLOW
  70
0
  62
51
  6
CONTINUOUS
  0
LAYER
  2
BLUE1
  70
0
  62
178
  6
CONTINUOUS
  0
LAYER
  2
GREEN1
  70
0
  62
98
  6
CONTINUOUS
  0
LAYER
  2
CYAN1
  70
0
  62
138
  6
CONTINUOUS
  0
LAYER
  2
RED1
  70
0
  62
18
  6
CONTINUOUS
  0
LAYER
  2
MAGENTA1
  70
0
  62
228
  6
CONTINUOUS
  0
LAYER
  2
BROWN1
  70
0
  62
58
  6
CONTINUOUS
  0
LAYER
  2
BLUE2
  70
0
  62
5
  6
CONTINUOUS
  0
LAYER
  2
GREEN2
  70
0
  62
3
  6
CONTINUOUS
  0
LAYER
  2
CYAN2
  70
0
  62
4
  6
CONTINUOUS
  0
LAYER
  2
RED2
  70
0
  62
1
  6
CONTINUOUS
  0
LAYER
  2
MAGENTA2
  70
0
  62
6
  6
CONTINUOUS
  0
LAYER
  2
BROWN2
  70
0
  62
54
  6
CONTINUOUS
  0
LAYER
  2
BLUE3
  70
0
  62
171
  6
CONTINUOUS
  0
LAYER
  2
GREEN3
  70
0
  62
91
  6
CONTINUOUS
  0
LAYER
  2
CYAN3
  70
0
  62
131
  6
CONTINUOUS
  0
LAYER
  2
RED3
  70
0
  62
11
  6
CONTINUOUS
  0
LAYER
  2
MAGENTA3
  70
0
  62
221
  6
CONTINUOUS
  0
LAYER
  2
YELLOW3
  70
0
  62
2
  6
CONTINUOUS
  0
LAYER
  2
BLUE4
  70
0
  62
5
  6
CONTINUOUS
  0
LAYER
  2
GREEN4
  70
0
  62
3
  6
CONTINUOUS
  0
LAYER
  2
CYAN4
  70
0
  62
4
  6
CONTINUOUS
  0
LAYER
  2
RED4
  70
0
  62
1
  6
CONTINUOUS
  0
LAYER
  2
MAGENTA4
  70
0
  62
6
  6
CONTINUOUS
  0
LAYER
  2
YELLOW4
  70
0
  62
2
  6
CONTINUOUS
  0
ENDTAB
  0
ENDSEC
  0
SECTION
  2
ENTITIES
0
LINE
8
Black
10
189.548
20
-84.8152
11
191.348
21
-84.8152
0
LINE
8
Black
10
191.348
20
-84.8152
11
191.348
21
-84.9152
0
LINE
8
Black
10
191.348
20
-84.9152
11
195.748
21
-84.9152
0
LINE
8
Black
10
195.748
20
-84.9152
11
195.748
21
-84.8152
0
LINE
8
Black
10
195.748
20
-84.8152
11
197.548
21
-84.8152
0
LINE
8
Black
10
197.548
20
-84.8152
11
197.548
21
-85.9152
0
LINE
8
Black
10
197.548
20
-85.9152
11
195.748
21
-85.9152
0
LINE
8
Black
10
195.748
20
-85.9152
11
195.748
21
-85.8152
0
LINE
8
Black
10
195.748
20
-85.8152
11
191.348
21
-85.8152
0
LINE
8
Black
10
191.348
20
-85.8152
11
191.348
21
-85.9152
0
LINE
8
Black
10
191.348
20
-85.9152
11
189.548
21
-85.9152
0
LINE
8
Black
10
189.548
20
-85.9152
11
189.548
21
-85.8956
0
LINE
8
Black
10
189.548
20
-85.8956
11
187.688
21
-85.8956
0
LINE
8
Black
10
187.688
20
-85.8956
11
187.088
21
-85.8956
0
LINE
8
Black
10
187.088
20
-85.8956
11
187.088
21
-84.9956
0
LINE
8
Black
10
187.088
20
-84.9956
11
187.238
21
-84.9956
0
LINE
8
Black
10
187.238
20
-84.9956
11
187.238
21
-80.8658
0
LINE
8
Black
10
187.238
20
-80.8658
11
187.242
21
-80.8463
0
LINE
8
Black
10
187.242
20
-80.8463
11
187.24
21
-80.8266
0
LINE
8
Black
10
187.24
20
-80.8266
11
187.255
21
-80.7698
0
LINE
8
Black
10
187.255
20
-80.7698
11
187.266
21
-80.7119
0
LINE
8
Black
10
187.266
20
-80.7119
11
187.275
21
-80.6947
0
LINE
8
Black
10
187.275
20
-80.6947
11
187.281
21
-80.6756
0
LINE
8
Black
10
187.281
20
-80.6756
11
187.314
21
-80.6275
0
LINE
8
Black
10
187.314
20
-80.6275
11
187.344
21
-80.5765
0
LINE
8
Black
10
187.344
20
-80.5765
11
187.359
21
-80.5638
0
LINE
8
Black
10
187.359
20
-80.5638
11
187.37
21
-80.5476
0
LINE
8
Black
10
187.37
20
-80.5476
11
188.353
21
-79.5648
0
LINE
8
Black
10
188.353
20
-79.5648
11
188.369
21
-79.5534
0
LINE
8
Black
10
188.369
20
-79.5534
11
188.382
21
-79.5383
0
LINE
8
Black
10
188.382
20
-79.5383
11
188.433
21
-79.5089
0
LINE
8
Black
10
188.433
20
-79.5089
11
188.481
21
-79.4752
0
LINE
8
Black
10
188.481
20
-79.4752
11
188.5
21
-79.47
0
LINE
8
Black
10
188.5
20
-79.47
11
188.517
21
-79.4601
0
LINE
8
Black
10
188.517
20
-79.4601
11
188.575
21
-79.4499
0
LINE
8
Black
10
188.575
20
-79.4499
11
188.632
21
-79.4347
0
LINE
8
Black
10
188.632
20
-79.4347
11
188.652
21
-79.4364
0
LINE
8
Black
10
188.652
20
-79.4364
11
188.671
21
-79.433
0
LINE
8
Black
10
188.671
20
-79.433
11
198.026
21
-79.433
0
LINE
8
Black
10
198.026
20
-79.433
11
198.045
21
-79.4364
0
LINE
8
Black
10
198.045
20
-79.4364
11
198.065
21
-79.4347
0
LINE
8
Black
10
198.065
20
-79.4347
11
198.122
21
-79.4499
0
LINE
8
Black
10
198.122
20
-79.4499
11
198.18
21
-79.4601
0
LINE
8
Black
10
198.18
20
-79.4601
11
198.197
21
-79.47
0
LINE
8
Black
10
198.197
20
-79.47
11
198.216
21
-79.4752
0
LINE
8
Black
10
198.216
20
-79.4752
11
198.264
21
-79.5089
0
LINE
8
Black
10
198.264
20
-79.5089
11
198.315
21
-79.5383
0
LINE
8
Black
10
198.315
20
-79.5383
11
198.328
21
-79.5534
0
LINE
8
Black
10
198.328
20
-79.5534
11
198.344
21
-79.5648
0
LINE
8
Black
10
198.344
20
-79.5648
11
207.404
21
-88.6252
0
LINE
8
Black
10
207.404
20
-88.6252
11
207.416
21
-88.6414
0
LINE
8
Black
10
207.416
20
-88.6414
11
207.431
21
-88.6541
0
LINE
8
Black
10
207.431
20
-88.6541
11
207.46
21
-88.7051
0
LINE
8
Black
10
207.46
20
-88.7051
11
207.494
21
-88.7532
0
LINE
8
Black
10
207.494
20
-88.7532
11
207.499
21
-88.7723
0
LINE
8
Black
10
207.499
20
-88.7723
11
207.509
21
-88.7895
0
LINE
8
Black
10
207.509
20
-88.7895
11
207.519
21
-88.8474
0
LINE
8
Black
10
207.519
20
-88.8474
11
207.534
21
-88.9042
0
LINE
8
Black
10
207.534
20
-88.9042
11
207.533
21
-88.9239
0
LINE
8
Black
10
207.533
20
-88.9239
11
207.536
21
-88.9434
0
LINE
8
Black
10
207.536
20
-88.9434
11
207.536
21
-94.8858
0
LINE
8
Black
10
207.536
20
-94.8858
11
208.924
21
-96.2732
0
LINE
8
Black
10
208.924
20
-96.2732
11
212.801
21
-96.2732
0
LINE
8
Black
10
212.801
20
-96.2732
11
212.821
21
-96.2766
0
LINE
8
Black
10
212.821
20
-96.2766
11
212.84
21
-96.2749
0
LINE
8
Black
10
212.84
20
-96.2749
11
212.897
21
-96.2901
0
LINE
8
Black
10
212.897
20
-96.2901
11
212.955
21
-96.3003
0
LINE
8
Black
10
212.955
20
-96.3003
11
212.972
21
-96.3102
0
LINE
8
Black
10
212.972
20
-96.3102
11
212.991
21
-96.3154
0
LINE
8
Black
10
212.991
20
-96.3154
11
213.04
21
-96.3491
0
LINE
8
Black
10
213.04
20
-96.3491
11
213.09
21
-96.3785
0
LINE
8
Black
10
213.09
20
-96.3785
11
213.103
21
-96.3936
0
LINE
8
Black
10
213.103
20
-96.3936
11
213.119
21
-96.405
0
LINE
8
Black
10
213.119
20
-96.405
11
215.609
21
-98.8942
0
LINE
8
Black
10
215.609
20
-98.8942
11
215.62
21
-98.9104
0
LINE
8
Black
10
215.62
20
-98.9104
11
215.635
21
-98.9231
0
LINE
8
Black
10
215.635
20
-98.9231
11
215.665
21
-98.9741
0
LINE
8
Black
10
215.665
20
-98.9741
11
215.698
21
-99.0222
0
LINE
8
Black
10
215.698
20
-99.0222
11
215.703
21
-99.0413
0
LINE
8
Black
10
215.703
20
-99.0413
11
215.713
21
-99.0585
0
LINE
8
Black
10
215.713
20
-99.0585
11
215.723
21
-99.1164
0
LINE
8
Black
10
215.723
20
-99.1164
11
215.739
21
-99.1732
0
LINE
8
Black
10
215.739
20
-99.1732
11
215.737
21
-99.1929
0
LINE
8
Black
10
215.737
20
-99.1929
11
215.74
21
-99.2124
0
LINE
8
Black
10
215.74
20
-99.2124
11
215.74
21
-106.824
0
LINE
8
Black
10
215.74
20
-106.824
11
221.979
21
-113.063
0
LINE
8
Black
10
221.979
20
-113.063
11
223.063
21
-113.063
0
LINE
8
Black
10
223.063
20
-113.063
11
223.082
21
-113.066
0
LINE
8
Black
10
223.082
20
-113.066
11
223.102
21
-113.064
0
LINE
8
Black
10
223.102
20
-113.064
11
223.159
21
-113.08
0
LINE
8
Black
10
223.159
20
-113.08
11
223.217
21
-113.09
0
LINE
8
Black
10
223.217
20
-113.09
11
223.234
21
-113.1
0
LINE
8
Black
10
223.234
20
-113.1
11
223.253
21
-113.105
0
LINE
8
Black
10
223.253
20
-113.105
11
223.301
21
-113.138
0
LINE
8
Black
10
223.301
20
-113.138
11
223.352
21
-113.168
0
LINE
8
Black
10
223.352
20
-113.168
11
223.365
21
-113.183
0
LINE
8
Black
10
223.365
20
-113.183
11
223.381
21
-113.194
0
LINE
8
Black
10
223.381
20
-113.194
11
224.118
21
-113.931
0
LINE
8
Black
10
224.118
20
-113.931
11
224.129
21
-113.947
0
LINE
8
Black
10
224.129
20
-113.947
11
224.144
21
-113.96
0
LINE
8
Black
10
224.144
20
-113.96
11
224.174
21
-114.011
0
LINE
8
Black
10
224.174
20
-114.011
11
224.207
21
-114.059
0
LINE
8
Black
10
224.207
20
-114.059
11
224.212
21
-114.078
0
LINE
8
Black
10
224.212
20
-114.078
11
224.222
21
-114.095
0
LINE
8
Black
10
224.222
20
-114.095
11
224.232
21
-114.153
0
LINE
8
Black
10
224.232
20
-114.153
11
224.248
21
-114.21
0
LINE
8
Black
10
224.248
20
-114.21
11
224.246
21
-114.23
0
LINE
8
Black
10
224.246
20
-114.23
11
224.249
21
-114.249
0
LINE
8
Black
10
224.249
20
-114.249
11
224.249
21
-120.066
0
LINE
8
Black
10
224.249
20
-120.066
11
224.246
21
-120.085
0
LINE
8
Black
10
224.246
20
-120.085
11
224.248
21
-120.105
0
LINE
8
Black
10
224.248
20
-120.105
11
224.232
21
-120.162
0
LINE
8
Black
10
224.232
20
-120.162
11
224.222
21
-120.22
0
LINE
8
Black
10
224.222
20
-120.22
11
224.212
21
-120.237
0
LINE
8
Black
10
224.212
20
-120.237
11
224.207
21
-120.256
0
LINE
8
Black
10
224.207
20
-120.256
11
224.174
21
-120.304
0
LINE
8
Black
10
224.174
20
-120.304
11
224.144
21
-120.355
0
LINE
8
Black
10
224.144
20
-120.355
11
224.129
21
-120.368
0
LINE
8
Black
10
224.129
20
-120.368
11
224.118
21
-120.384
0
LINE
8
Black
10
224.118
20
-120.384
11
223.305
21
-121.197
0
LINE
8
Black
10
223.305
20
-121.197
11
223.289
21
-121.208
0
LINE
8
Black
10
223.289
20
-121.208
11
223.276
21
-121.223
0
LINE
8
Black
10
223.276
20
-121.223
11
223.225
21
-121.253
0
LINE
8
Black
10
223.225
20
-121.253
11
223.177
21
-121.286
0
LINE
8
Black
10
223.177
20
-121.286
11
223.158
21
-121.292
0
LINE
8
Black
10
223.158
20
-121.292
11
223.141
21
-121.301
0
LINE
8
Black
10
223.141
20
-121.301
11
223.083
21
-121.312
0
LINE
8
Black
10
223.083
20
-121.312
11
223.026
21
-121.327
0
LINE
8
Black
10
223.026
20
-121.327
11
223.006
21
-121.325
0
LINE
8
Black
10
223.006
20
-121.325
11
222.987
21
-121.329
0
LINE
8
Black
10
222.987
20
-121.329
11
185.699
21
-121.329
0
LINE
8
Black
10
185.699
20
-121.329
11
185.68
21
-121.325
0
LINE
8
Black
10
185.68
20
-121.325
11
185.66
21
-121.327
0
LINE
8
Black
10
185.66
20
-121.327
11
185.603
21
-121.312
0
LINE
8
Black
10
185.603
20
-121.312
11
185.545
21
-121.301
0
LINE
8
Black
10
185.545
20
-121.301
11
185.528
21
-121.292
0
LINE
8
Black
10
185.528
20
-121.292
11
185.509
21
-121.286
0
LINE
8
Black
10
185.509
20
-121.286
11
185.461
21
-121.253
0
LINE
8
Black
10
185.461
20
-121.253
11
185.41
21
-121.223
0
LINE
8
Black
10
185.41
20
-121.223
11
185.397
21
-121.208
0
LINE
8
Black
10
185.397
20
-121.208
11
185.381
21
-121.197
0
LINE
8
Black
10
185.381
20
-121.197
11
184.34
21
-120.155
0
LINE
8
Black
10
184.34
20
-120.155
11
184.328
21
-120.139
0
LINE
8
Black
10
184.328
20
-120.139
11
184.313
21
-120.126
0
LINE
8
Black
10
184.313
20
-120.126
11
184.284
21
-120.076
0
LINE
8
Black
10
184.284
20
-120.076
11
184.25
21
-120.027
0
LINE
8
Black
10
184.25
20
-120.027
11
184.245
21
-120.008
0
LINE
8
Black
10
184.245
20
-120.008
11
184.235
21
-119.991
0
LINE
8
Black
10
184.235
20
-119.991
11
184.225
21
-119.933
0
LINE
8
Black
10
184.225
20
-119.933
11
184.21
21
-119.876
0
LINE
8
Black
10
184.21
20
-119.876
11
184.211
21
-119.857
0
LINE
8
Black
10
184.211
20
-119.857
11
184.208
21
-119.837
0
LINE
8
Black
10
184.208
20
-119.837
11
184.208
21
-106.79
0
LINE
8
Black
10
184.208
20
-106.79
11
182.211
21
-104.793
0
LINE
8
Black
10
182.211
20
-104.793
11
175.819
21
-104.793
0
LINE
8
Black
10
175.819
20
-104.793
11
175.799
21
-104.79
0
LINE
8
Black
10
175.799
20
-104.79
11
175.78
21
-104.791
0
LINE
8
Black
10
175.78
20
-104.791
11
175.723
21
-104.776
0
LINE
8
Black
10
175.723
20
-104.776
11
175.665
21
-104.766
0
LINE
8
Black
10
175.665
20
-104.766
11
175.648
21
-104.756
0
LINE
8
Black
10
175.648
20
-104.756
11
175.629
21
-104.751
0
LINE
8
Black
10
175.629
20
-104.751
11
175.58
21
-104.717
0
LINE
8
Black
10
175.58
20
-104.717
11
175.53
21
-104.688
0
LINE
8
Black
10
175.53
20
-104.688
11
175.517
21
-104.673
0
LINE
8
Black
10
175.517
20
-104.673
11
175.501
21
-104.661
0
LINE
8
Black
10
175.501
20
-104.661
11
174.586
21
-103.747
0
LINE
8
Black
10
174.586
20
-103.747
11
174.575
21
-103.731
0
LINE
8
Black
10
174.575
20
-103.731
11
174.56
21
-103.718
0
LINE
8
Black
10
174.56
20
-103.718
11
174.53
21
-103.667
0
LINE
8
Black
10
174.53
20
-103.667
11
174.497
21
-103.619
0
LINE
8
Black
10
174.497
20
-103.619
11
174.491
21
-103.6
0
LINE
8
Black
10
174.491
20
-103.6
11
174.482
21
-103.583
0
LINE
8
Black
10
174.482
20
-103.583
11
174.471
21
-103.525
0
LINE
8
Black
10
174.471
20
-103.525
11
174.456
21
-103.468
0
LINE
8
Black
10
174.456
20
-103.468
11
174.458
21
-103.448
0
LINE
8
Black
10
174.458
20
-103.448
11
174.454
21
-103.429
0
LINE
8
Black
10
174.454
20
-103.429
11
174.454
21
-90.9152
0
LINE
8
Black
10
174.454
20
-90.9152
11
171.137
21
-87.5974
0
LINE
8
Black
10
171.137
20
-87.5974
11
150.91
21
-87.5974
0
LINE
8
Black
10
150.91
20
-87.5974
11
149.65
21
-88.8578
0
LINE
8
Black
10
149.65
20
-88.8578
11
149.65
21
-90.3392
0
LINE
8
Black
10
149.65
20
-90.3392
11
155.482
21
-96.1716
0
LINE
8
Black
10
155.482
20
-96.1716
11
164.851
21
-96.1716
0
LINE
8
Black
10
164.851
20
-96.1716
11
164.871
21
-96.175
0
LINE
8
Black
10
164.871
20
-96.175
11
164.89
21
-96.1733
0
LINE
8
Black
10
164.89
20
-96.1733
11
164.947
21
-96.1885
0
LINE
8
Black
10
164.947
20
-96.1885
11
165.005
21
-96.1987
0
LINE
8
Black
10
165.005
20
-96.1987
11
165.022
21
-96.2086
0
LINE
8
Black
10
165.022
20
-96.2086
11
165.041
21
-96.2138
0
LINE
8
Black
10
165.041
20
-96.2138
11
165.09
21
-96.2475
0
LINE
8
Black
10
165.09
20
-96.2475
11
165.14
21
-96.2769
0
LINE
8
Black
10
165.14
20
-96.2769
11
165.153
21
-96.292
0
LINE
8
Black
10
165.153
20
-96.292
11
165.169
21
-96.3034
0
LINE
8
Black
10
165.169
20
-96.3034
11
166.231
21
-97.365
0
LINE
8
Black
10
166.231
20
-97.365
11
166.242
21
-97.3812
0
LINE
8
Black
10
166.242
20
-97.3812
11
166.258
21
-97.3939
0
LINE
8
Black
10
166.258
20
-97.3939
11
166.287
21
-97.4449
0
LINE
8
Black
10
166.287
20
-97.4449
11
166.321
21
-97.493
0
LINE
8
Black
10
166.321
20
-97.493
11
166.326
21
-97.5121
0
LINE
8
Black
10
166.326
20
-97.5121
11
166.336
21
-97.5293
0
LINE
8
Black
10
166.336
20
-97.5293
11
166.346
21
-97.5872
0
LINE
8
Black
10
166.346
20
-97.5872
11
166.361
21
-97.644
0
LINE
8
Black
10
166.361
20
-97.644
11
166.359
21
-97.6637
0
LINE
8
Black
10
166.359
20
-97.6637
11
166.363
21
-97.6832
0
LINE
8
Black
10
166.363
20
-97.6832
11
166.363
21
-104.868
0
LINE
8
Black
10
166.363
20
-104.868
11
168.034
21
-106.54
0
LINE
8
Black
10
168.034
20
-106.54
11
168.046
21
-106.556
0
LINE
8
Black
10
168.046
20
-106.556
11
168.061
21
-106.569
0
LINE
8
Black
10
168.061
20
-106.569
11
168.09
21
-106.619
0
LINE
8
Black
10
168.09
20
-106.619
11
168.124
21
-106.668
0
LINE
8
Black
10
168.124
20
-106.668
11
168.129
21
-106.687
0
LINE
8
Black
10
168.129
20
-106.687
11
168.139
21
-106.704
0
LINE
8
Black
10
168.139
20
-106.704
11
168.149
21
-106.762
0
LINE
8
Black
10
168.149
20
-106.762
11
168.164
21
-106.819
0
LINE
8
Black
10
168.164
20
-106.819
11
168.163
21
-106.838
0
LINE
8
Black
10
168.163
20
-106.838
11
168.166
21
-106.858
0
LINE
8
Black
10
168.166
20
-106.858
11
168.166
21
-112.717
0
LINE
8
Black
10
168.166
20
-112.717
11
168.309
21
-112.859
0
LINE
8
Black
10
168.309
20
-112.859
11
174.785
21
-112.859
0
LINE
8
Black
10
174.785
20
-112.859
11
174.804
21
-112.863
0
LINE
8
Black
10
174.804
20
-112.863
11
174.824
21
-112.861
0
LINE
8
Black
10
174.824
20
-112.861
11
174.881
21
-112.876
0
LINE
8
Black
10
174.881
20
-112.876
11
174.939
21
-112.887
0
LINE
8
Black
10
174.939
20
-112.887
11
174.956
21
-112.896
0
LINE
8
Black
10
174.956
20
-112.896
11
174.975
21
-112.902
0
LINE
8
Black
10
174.975
20
-112.902
11
175.023
21
-112.935
0
LINE
8
Black
10
175.023
20
-112.935
11
175.074
21
-112.965
0
LINE
8
Black
10
175.074
20
-112.965
11
175.087
21
-112.98
0
LINE
8
Black
10
175.087
20
-112.98
11
175.103
21
-112.991
0
LINE
8
Black
10
175.103
20
-112.991
11
175.985
21
-113.873
0
LINE
8
Black
10
175.985
20
-113.873
11
175.996
21
-113.889
0
LINE
8
Black
10
175.996
20
-113.889
11
176.011
21
-113.902
0
LINE
8
Black
10
176.011
20
-113.902
11
176.041
21
-113.953
0
LINE
8
Black
10
176.041
20
-113.953
11
176.074
21
-114.001
0
LINE
8
Black
10
176.074
20
-114.001
11
176.079
21
-114.02
0
LINE
8
Black
10
176.079
20
-114.02
11
176.089
21
-114.037
0
LINE
8
Black
10
176.089
20
-114.037
11
176.099
21
-114.095
0
LINE
8
Black
10
176.099
20
-114.095
11
176.115
21
-114.152
0
LINE
8
Black
10
176.115
20
-114.152
11
176.113
21
-114.171
0
LINE
8
Black
10
176.113
20
-114.171
11
176.116
21
-114.191
0
LINE
8
Black
10
176.116
20
-114.191
11
176.116
21
-120.251
0
LINE
8
Black
10
176.116
20
-120.251
11
176.113
21
-120.271
0
LINE
8
Black
10
176.113
20
-120.271
11
176.115
21
-120.29
0
LINE
8
Black
10
176.115
20
-120.29
11
176.099
21
-120.347
0
LINE
8
Black
10
176.099
20
-120.347
11
176.089
21
-120.405
0
LINE
8
Black
10
176.089
20
-120.405
11
176.079
21
-120.422
0
LINE
8
Black
10
176.079
20
-120.422
11
176.074
21
-120.441
0
LINE
8
Black
10
176.074
20
-120.441
11
176.041
21
-120.489
0
LINE
8
Black
10
176.041
20
-120.489
11
176.011
21
-120.54
0
LINE
8
Black
10
176.011
20
-120.54
11
175.996
21
-120.553
0
LINE
8
Black
10
175.996
20
-120.553
11
175.985
21
-120.569
0
LINE
8
Black
10
175.985
20
-120.569
11
175.665
21
-120.889
0
LINE
8
Black
10
175.665
20
-120.889
11
175.648
21
-120.901
0
LINE
8
Black
10
175.648
20
-120.901
11
175.636
21
-120.916
0
LINE
8
Black
10
175.636
20
-120.916
11
175.585
21
-120.945
0
LINE
8
Black
10
175.585
20
-120.945
11
175.537
21
-120.979
0
LINE
8
Black
10
175.537
20
-120.979
11
175.517
21
-120.984
0
LINE
8
Black
10
175.517
20
-120.984
11
175.504
21
-120.992
0
LINE
8
Black
10
175.504
20
-120.992
11
174.003
21
-122.492
0
LINE
8
Black
10
174.003
20
-122.492
11
173.987
21
-122.504
0
LINE
8
Black
10
173.987
20
-122.504
11
173.974
21
-122.519
0
LINE
8
Black
10
173.974
20
-122.519
11
173.924
21
-122.548
0
LINE
8
Black
10
173.924
20
-122.548
11
173.875
21
-122.582
0
LINE
8
Black
10
173.875
20
-122.582
11
173.856
21
-122.587
0
LINE
8
Black
10
173.856
20
-122.587
11
173.839
21
-122.597
0
LINE
8
Black
10
173.839
20
-122.597
11
173.781
21
-122.607
0
LINE
8
Black
10
173.781
20
-122.607
11
173.724
21
-122.622
0
LINE
8
Black
10
173.724
20
-122.622
11
173.705
21
-122.621
0
LINE
8
Black
10
173.705
20
-122.621
11
173.685
21
-122.624
0
LINE
8
Black
10
173.685
20
-122.624
11
138.43
21
-122.624
0
LINE
8
Black
10
138.43
20
-122.624
11
138.41
21
-122.621
0
LINE
8
Black
10
138.41
20
-122.621
11
138.391
21
-122.622
0
LINE
8
Black
10
138.391
20
-122.622
11
138.334
21
-122.607
0
LINE
8
Black
10
138.334
20
-122.607
11
138.276
21
-122.597
0
LINE
8
Black
10
138.276
20
-122.597
11
138.259
21
-122.587
0
LINE
8
Black
10
138.259
20
-122.587
11
138.24
21
-122.582
0
LINE
8
Black
10
138.24
20
-122.582
11
138.192
21
-122.548
0
LINE
8
Black
10
138.192
20
-122.548
11
138.141
21
-122.519
0
LINE
8
Black
10
138.141
20
-122.519
11
138.128
21
-122.504
0
LINE
8
Black
10
138.128
20
-122.504
11
138.112
21
-122.492
0
LINE
8
Black
10
138.112
20
-122.492
11
136.706
21
-121.087
0
LINE
8
Black
10
136.706
20
-121.087
11
136.695
21
-121.071
0
LINE
8
Black
10
136.695
20
-121.071
11
136.68
21
-121.058
0
LINE
8
Black
10
136.68
20
-121.058
11
136.65
21
-121.007
0
LINE
8
Black
10
136.65
20
-121.007
11
136.617
21
-120.959
0
LINE
8
Black
10
136.617
20
-120.959
11
136.612
21
-120.94
0
LINE
8
Black
10
136.612
20
-120.94
11
136.602
21
-120.923
0
LINE
8
Black
10
136.602
20
-120.923
11
136.592
21
-120.865
0
LINE
8
Black
10
136.592
20
-120.865
11
136.576
21
-120.808
0
LINE
8
Black
10
136.576
20
-120.808
11
136.578
21
-120.788
0
LINE
8
Black
10
136.578
20
-120.788
11
136.575
21
-120.769
0
LINE
8
Black
10
136.575
20
-120.769
11
136.575
21
-107.849
0
LINE
8
Black
10
136.575
20
-107.849
11
133.341
21
-104.615
0
LINE
8
Black
10
133.341
20
-104.615
11
127.787
21
-104.615
0
LINE
8
Black
10
127.787
20
-104.615
11
127.768
21
-104.612
0
LINE
8
Black
10
127.768
20
-104.612
11
127.748
21
-104.614
0
LINE
8
Black
10
127.748
20
-104.614
11
127.691
21
-104.598
0
LINE
8
Black
10
127.691
20
-104.598
11
127.633
21
-104.588
0
LINE
8
Black
10
127.633
20
-104.588
11
127.616
21
-104.578
0
LINE
8
Black
10
127.616
20
-104.578
11
127.597
21
-104.573
0
LINE
8
Black
10
127.597
20
-104.573
11
127.549
21
-104.54
0
LINE
8
Black
10
127.549
20
-104.54
11
127.498
21
-104.51
0
LINE
8
Black
10
127.498
20
-104.51
11
127.485
21
-104.495
0
LINE
8
Black
10
127.485
20
-104.495
11
127.469
21
-104.484
0
LINE
8
Black
10
127.469
20
-104.484
11
126.656
21
-103.671
0
LINE
8
Black
10
126.656
20
-103.671
11
126.645
21
-103.655
0
LINE
8
Black
10
126.645
20
-103.655
11
126.63
21
-103.642
0
LINE
8
Black
10
126.63
20
-103.642
11
126.6
21
-103.591
0
LINE
8
Black
10
126.6
20
-103.591
11
126.567
21
-103.543
0
LINE
8
Black
10
126.567
20
-103.543
11
126.562
21
-103.524
0
LINE
8
Black
10
126.562
20
-103.524
11
126.552
21
-103.507
0
LINE
8
Black
10
126.552
20
-103.507
11
126.542
21
-103.449
0
LINE
8
Black
10
126.542
20
-103.449
11
126.526
21
-103.392
0
LINE
8
Black
10
126.526
20
-103.392
11
126.528
21
-103.372
0
LINE
8
Black
10
126.528
20
-103.372
11
126.525
21
-103.353
0
LINE
8
Black
10
126.525
20
-103.353
11
126.525
21
-90.0262
0
LINE
8
Black
10
126.525
20
-90.0262
11
124.197
21
-87.699
0
LINE
8
Black
10
124.197
20
-87.699
11
110.118
21
-87.699
0
LINE
8
Black
10
110.118
20
-87.699
11
109.492
21
-88.3244
0
LINE
8
Black
10
109.492
20
-88.3244
11
109.492
21
-89.374
0
LINE
8
Black
10
109.492
20
-89.374
11
110.275
21
-90.1566
0
LINE
8
Black
10
110.275
20
-90.1566
11
110.286
21
-90.1728
0
LINE
8
Black
10
110.286
20
-90.1728
11
110.301
21
-90.1855
0
LINE
8
Black
10
110.301
20
-90.1855
11
110.331
21
-90.2365
0
LINE
8
Black
10
110.331
20
-90.2365
11
110.364
21
-90.2846
0
LINE
8
Black
10
110.364
20
-90.2846
11
110.37
21
-90.3037
0
LINE
8
Black
10
110.37
20
-90.3037
11
110.379
21
-90.3209
0
LINE
8
Black
10
110.379
20
-90.3209
11
110.39
21
-90.3788
0
LINE
8
Black
10
110.39
20
-90.3788
11
110.405
21
-90.4356
0
LINE
8
Black
10
110.405
20
-90.4356
11
110.403
21
-90.4553
0
LINE
8
Black
10
110.403
20
-90.4553
11
110.407
21
-90.4748
0
LINE
8
Black
10
110.407
20
-90.4748
11
110.407
21
-95.1652
0
LINE
8
Black
10
110.407
20
-95.1652
11
111.464
21
-96.2224
0
LINE
8
Black
10
111.464
20
-96.2224
11
117.602
21
-96.2224
0
LINE
8
Black
10
117.602
20
-96.2224
11
117.621
21
-96.2258
0
LINE
8
Black
10
117.621
20
-96.2258
11
117.641
21
-96.2241
0
LINE
8
Black
10
117.641
20
-96.2241
11
117.698
21
-96.2393
0
LINE
8
Black
10
117.698
20
-96.2393
11
117.756
21
-96.2495
0
LINE
8
Black
10
117.756
20
-96.2495
11
117.773
21
-96.2594
0
LINE
8
Black
10
117.773
20
-96.2594
11
117.792
21
-96.2646
0
LINE
8
Black
10
117.792
20
-96.2646
11
117.84
21
-96.2983
0
LINE
8
Black
10
117.84
20
-96.2983
11
117.891
21
-96.3277
0
LINE
8
Black
10
117.891
20
-96.3277
11
117.904
21
-96.3428
0
LINE
8
Black
10
117.904
20
-96.3428
11
117.92
21
-96.3542
0
LINE
8
Black
10
117.92
20
-96.3542
11
119.774
21
-98.2084
0
LINE
8
Black
10
119.774
20
-98.2084
11
119.786
21
-98.2246
0
LINE
8
Black
10
119.786
20
-98.2246
11
119.801
21
-98.2373
0
LINE
8
Black
10
119.801
20
-98.2373
11
119.83
21
-98.2883
0
LINE
8
Black
10
119.83
20
-98.2883
11
119.864
21
-98.3364
0
LINE
8
Black
10
119.864
20
-98.3364
11
119.869
21
-98.3555
0
LINE
8
Black
10
119.869
20
-98.3555
11
119.879
21
-98.3727
0
LINE
8
Black
10
119.879
20
-98.3727
11
119.889
21
-98.4306
0
LINE
8
Black
10
119.889
20
-98.4306
11
119.904
21
-98.4874
0
LINE
8
Black
10
119.904
20
-98.4874
11
119.903
21
-98.5071
0
LINE
8
Black
10
119.903
20
-98.5071
11
119.906
21
-98.5266
0
LINE
8
Black
10
119.906
20
-98.5266
11
119.906
21
-105.249
0
LINE
8
Black
10
119.906
20
-105.249
11
128.156
21
-113.499
0
LINE
8
Black
10
128.156
20
-113.499
11
128.168
21
-113.515
0
LINE
8
Black
10
128.168
20
-113.515
11
128.183
21
-113.528
0
LINE
8
Black
10
128.183
20
-113.528
11
128.212
21
-113.579
0
LINE
8
Black
10
128.212
20
-113.579
11
128.246
21
-113.627
0
LINE
8
Black
10
128.246
20
-113.627
11
128.251
21
-113.646
0
LINE
8
Black
10
128.251
20
-113.646
11
128.261
21
-113.663
0
LINE
8
Black
10
128.261
20
-113.663
11
128.271
21
-113.721
0
LINE
8
Black
10
128.271
20
-113.721
11
128.286
21
-113.778
0
LINE
8
Black
10
128.286
20
-113.778
11
128.285
21
-113.798
0
LINE
8
Black
10
128.285
20
-113.798
11
128.288
21
-113.817
0
LINE
8
Black
10
128.288
20
-113.817
11
128.288
21
-120.244
0
LINE
8
Black
10
128.288
20
-120.244
11
128.285
21
-120.263
0
LINE
8
Black
10
128.285
20
-120.263
11
128.286
21
-120.283
0
LINE
8
Black
10
128.286
20
-120.283
11
128.271
21
-120.34
0
LINE
8
Black
10
128.271
20
-120.34
11
128.261
21
-120.398
0
LINE
8
Black
10
128.261
20
-120.398
11
128.251
21
-120.415
0
LINE
8
Black
10
128.251
20
-120.415
11
128.246
21
-120.434
0
LINE
8
Black
10
128.246
20
-120.434
11
128.212
21
-120.482
0
LINE
8
Black
10
128.212
20
-120.482
11
128.183
21
-120.533
0
LINE
8
Black
10
128.183
20
-120.533
11
128.168
21
-120.546
0
LINE
8
Black
10
128.168
20
-120.546
11
128.156
21
-120.562
0
LINE
8
Black
10
128.156
20
-120.562
11
127.598
21
-121.121
0
LINE
8
Black
10
127.598
20
-121.121
11
127.581
21
-121.132
0
LINE
8
Black
10
127.581
20
-121.132
11
127.569
21
-121.147
0
LINE
8
Black
10
127.569
20
-121.147
11
127.518
21
-121.177
0
LINE
8
Black
10
127.518
20
-121.177
11
127.47
21
-121.21
0
LINE
8
Black
10
127.47
20
-121.21
11
127.45
21
-121.215
0
LINE
8
Black
10
127.45
20
-121.215
11
127.433
21
-121.225
0
LINE
8
Black
10
127.433
20
-121.225
11
127.375
21
-121.235
0
LINE
8
Black
10
127.375
20
-121.235
11
127.319
21
-121.251
0
LINE
8
Black
10
127.319
20
-121.251
11
127.299
21
-121.249
0
LINE
8
Black
10
127.299
20
-121.249
11
127.279
21
-121.252
0
LINE
8
Black
10
127.279
20
-121.252
11
95.024
21
-121.252
0
LINE
8
Black
10
95.024
20
-121.252
11
95.0045
21
-121.249
0
LINE
8
Black
10
95.0045
20
-121.249
11
94.9848
21
-121.251
0
LINE
8
Black
10
94.9848
20
-121.251
11
94.928
21
-121.235
0
LINE
8
Black
10
94.928
20
-121.235
11
94.8701
21
-121.225
0
LINE
8
Black
10
94.8701
20
-121.225
11
94.8529
21
-121.215
0
LINE
8
Black
10
94.8529
20
-121.215
11
94.8338
21
-121.21
0
LINE
8
Black
10
94.8338
20
-121.21
11
94.7856
21
-121.177
0
LINE
8
Black
10
94.7856
20
-121.177
11
94.7347
21
-121.147
0
LINE
8
Black
10
94.7347
20
-121.147
11
94.722
21
-121.132
0
LINE
8
Black
10
94.722
20
-121.132
11
94.7058
21
-121.121
0
LINE
8
Black
10
94.7058
20
-121.121
11
87.726
21
-114.141
0
LINE
8
Black
10
87.726
20
-114.141
11
87.7146
21
-114.125
0
LINE
8
Black
10
87.7146
20
-114.125
11
87.6995
21
-114.112
0
LINE
8
Black
10
87.6995
20
-114.112
11
87.6701
21
-114.061
0
LINE
8
Black
10
87.6701
20
-114.061
11
87.6364
21
-114.013
0
LINE
8
Black
10
87.6364
20
-114.013
11
87.6312
21
-113.994
0
LINE
8
Black
10
87.6312
20
-113.994
11
87.6213
21
-113.977
0
LINE
8
Black
10
87.6213
20
-113.977
11
87.6111
21
-113.919
0
LINE
8
Black
10
87.6111
20
-113.919
11
87.5959
21
-113.862
0
LINE
8
Black
10
87.5959
20
-113.862
11
87.5976
21
-113.842
0
LINE
8
Black
10
87.5976
20
-113.842
11
87.5942
21
-113.823
0
LINE
8
Black
10
87.5942
20
-113.823
11
87.5942
21
-104.144
0
LINE
8
Black
10
87.5942
20
-104.144
11
87.5942
21
-103.244
0
LINE
8
Black
10
87.5942
20
-103.244
11
87.4442
21
-103.244
0
LINE
8
Black
10
87.4442
20
-103.244
11
87.4442
21
-102.344
0
LINE
8
Black
10
87.4442
20
-102.344
11
88.6442
21
-102.344
0
LINE
8
Black
10
88.6442
20
-102.344
11
88.6442
21
-103.244
0
LINE
8
Black
10
88.6442
20
-103.244
11
88.4942
21
-103.244
0
LINE
8
Black
10
88.4942
20
-103.244
11
88.4942
21
-104.144
0
LINE
8
Black
10
88.4942
20
-104.144
11
88.4942
21
-113.636
0
LINE
8
Black
10
88.4942
20
-113.636
11
95.2104
21
-120.352
0
LINE
8
Black
10
95.2104
20
-120.352
11
127.093
21
-120.352
0
LINE
8
Black
10
127.093
20
-120.352
11
127.388
21
-120.057
0
LINE
8
Black
10
127.388
20
-120.057
11
127.388
21
-114.004
0
LINE
8
Black
10
127.388
20
-114.004
11
119.138
21
-105.754
0
LINE
8
Black
10
119.138
20
-105.754
11
119.127
21
-105.737
0
LINE
8
Black
10
119.127
20
-105.737
11
119.111
21
-105.725
0
LINE
8
Black
10
119.111
20
-105.725
11
119.082
21
-105.674
0
LINE
8
Black
10
119.082
20
-105.674
11
119.048
21
-105.626
0
LINE
8
Black
10
119.048
20
-105.626
11
119.043
21
-105.606
0
LINE
8
Black
10
119.043
20
-105.606
11
119.033
21
-105.589
0
LINE
8
Black
10
119.033
20
-105.589
11
119.023
21
-105.531
0
LINE
8
Black
10
119.023
20
-105.531
11
119.008
21
-105.475
0
LINE
8
Black
10
119.008
20
-105.475
11
119.01
21
-105.455
0
LINE
8
Black
10
119.01
20
-105.455
11
119.006
21
-105.435
0
LINE
8
Black
10
119.006
20
-105.435
11
119.006
21
-98.713
0
LINE
8
Black
10
119.006
20
-98.713
11
117.416
21
-97.1224
0
LINE
8
Black
10
117.416
20
-97.1224
11
111.277
21
-97.1224
0
LINE
8
Black
10
111.277
20
-97.1224
11
111.258
21
-97.119
0
LINE
8
Black
10
111.258
20
-97.119
11
111.238
21
-97.1207
0
LINE
8
Black
10
111.238
20
-97.1207
11
111.181
21
-97.1055
0
LINE
8
Black
10
111.181
20
-97.1055
11
111.123
21
-97.0953
0
LINE
8
Black
10
111.123
20
-97.0953
11
111.106
21
-97.0854
0
LINE
8
Black
10
111.106
20
-97.0854
11
111.087
21
-97.0802
0
LINE
8
Black
10
111.087
20
-97.0802
11
111.039
21
-97.0465
0
LINE
8
Black
10
111.039
20
-97.0465
11
110.988
21
-97.0171
0
LINE
8
Black
10
110.988
20
-97.0171
11
110.975
21
-97.002
0
LINE
8
Black
10
110.975
20
-97.002
11
110.959
21
-96.9906
0
LINE
8
Black
10
110.959
20
-96.9906
11
109.638
21
-95.6698
0
LINE
8
Black
10
109.638
20
-95.6698
11
109.627
21
-95.6536
0
LINE
8
Black
10
109.627
20
-95.6536
11
109.612
21
-95.6409
0
LINE
8
Black
10
109.612
20
-95.6409
11
109.582
21
-95.5899
0
LINE
8
Black
10
109.582
20
-95.5899
11
109.549
21
-95.5418
0
LINE
8
Black
10
109.549
20
-95.5418
11
109.544
21
-95.5227
0
LINE
8
Black
10
109.544
20
-95.5227
11
109.534
21
-95.5055
0
LINE
8
Black
10
109.534
20
-95.5055
11
109.524
21
-95.4476
0
LINE
8
Black
10
109.524
20
-95.4476
11
109.508
21
-95.3908
0
LINE
8
Black
10
109.508
20
-95.3908
11
109.51
21
-95.3711
0
LINE
8
Black
10
109.51
20
-95.3711
11
109.507
21
-95.3516
0
LINE
8
Black
10
109.507
20
-95.3516
11
109.507
21
-90.6612
0
LINE
8
Black
10
109.507
20
-90.6612
11
108.724
21
-89.8786
0
LINE
8
Black
10
108.724
20
-89.8786
11
108.713
21
-89.8624
0
LINE
8
Black
10
108.713
20
-89.8624
11
108.697
21
-89.8497
0
LINE
8
Black
10
108.697
20
-89.8497
11
108.668
21
-89.7987
0
LINE
8
Black
10
108.668
20
-89.7987
11
108.634
21
-89.7506
0
LINE
8
Black
10
108.634
20
-89.7506
11
108.629
21
-89.7315
0
LINE
8
Black
10
108.629
20
-89.7315
11
108.619
21
-89.7143
0
LINE
8
Black
10
108.619
20
-89.7143
11
108.609
21
-89.6564
0
LINE
8
Black
10
108.609
20
-89.6564
11
108.594
21
-89.5996
0
LINE
8
Black
10
108.594
20
-89.5996
11
108.596
21
-89.5799
0
LINE
8
Black
10
108.596
20
-89.5799
11
108.592
21
-89.5604
0
LINE
8
Black
10
108.592
20
-89.5604
11
108.592
21
-88.138
0
LINE
8
Black
10
108.592
20
-88.138
11
108.596
21
-88.1185
0
LINE
8
Black
10
108.596
20
-88.1185
11
108.594
21
-88.0988
0
LINE
8
Black
10
108.594
20
-88.0988
11
108.609
21
-88.042
0
LINE
8
Black
10
108.609
20
-88.042
11
108.619
21
-87.9841
0
LINE
8
Black
10
108.619
20
-87.9841
11
108.629
21
-87.9669
0
LINE
8
Black
10
108.629
20
-87.9669
11
108.634
21
-87.9478
0
LINE
8
Black
10
108.634
20
-87.9478
11
108.668
21
-87.8997
0
LINE
8
Black
10
108.668
20
-87.8997
11
108.697
21
-87.8487
0
LINE
8
Black
10
108.697
20
-87.8487
11
108.713
21
-87.836
0
LINE
8
Black
10
108.713
20
-87.836
11
108.724
21
-87.8198
0
LINE
8
Black
10
108.724
20
-87.8198
11
109.613
21
-86.9308
0
LINE
8
Black
10
109.613
20
-86.9308
11
109.629
21
-86.9194
0
LINE
8
Black
10
109.629
20
-86.9194
11
109.642
21
-86.9043
0
LINE
8
Black
10
109.642
20
-86.9043
11
109.693
21
-86.8749
0
LINE
8
Black
10
109.693
20
-86.8749
11
109.741
21
-86.8412
0
LINE
8
Black
10
109.741
20
-86.8412
11
109.76
21
-86.836
0
LINE
8
Black
10
109.76
20
-86.836
11
109.777
21
-86.8261
0
LINE
8
Black
10
109.777
20
-86.8261
11
109.835
21
-86.8159
0
LINE
8
Black
10
109.835
20
-86.8159
11
109.892
21
-86.8007
0
LINE
8
Black
10
109.892
20
-86.8007
11
109.912
21
-86.8024
0
LINE
8
Black
10
109.912
20
-86.8024
11
109.931
21
-86.799
0
LINE
8
Black
10
109.931
20
-86.799
11
124.384
21
-86.799
0
LINE
8
Black
10
124.384
20
-86.799
11
124.403
21
-86.8024
0
LINE
8
Black
10
124.403
20
-86.8024
11
124.423
21
-86.8007
0
LINE
8
Black
10
124.423
20
-86.8007
11
124.48
21
-86.8159
0
LINE
8
Black
10
124.48
20
-86.8159
11
124.538
21
-86.8261
0
LINE
8
Black
10
124.538
20
-86.8261
11
124.555
21
-86.836
0
LINE
8
Black
10
124.555
20
-86.836
11
124.574
21
-86.8412
0
LINE
8
Black
10
124.574
20
-86.8412
11
124.622
21
-86.8749
0
LINE
8
Black
10
124.622
20
-86.8749
11
124.673
21
-86.9043
0
LINE
8
Black
10
124.673
20
-86.9043
11
124.686
21
-86.9194
0
LINE
8
Black
10
124.686
20
-86.9194
11
124.702
21
-86.9308
0
LINE
8
Black
10
124.702
20
-86.9308
11
127.293
21
-89.5216
0
LINE
8
Black
10
127.293
20
-89.5216
11
127.304
21
-89.5378
0
LINE
8
Black
10
127.304
20
-89.5378
11
127.319
21
-89.5505
0
LINE
8
Black
10
127.319
20
-89.5505
11
127.349
21
-89.6015
0
LINE
8
Black
10
127.349
20
-89.6015
11
127.382
21
-89.6496
0
LINE
8
Black
10
127.382
20
-89.6496
11
127.388
21
-89.6687
0
LINE
8
Black
10
127.388
20
-89.6687
11
127.397
21
-89.6859
0
LINE
8
Black
10
127.397
20
-89.6859
11
127.408
21
-89.7438
0
LINE
8
Black
10
127.408
20
-89.7438
11
127.423
21
-89.8006
0
LINE
8
Black
10
127.423
20
-89.8006
11
127.421
21
-89.8203
0
LINE
8
Black
10
127.421
20
-89.8203
11
127.425
21
-89.8398
0
LINE
8
Black
10
127.425
20
-89.8398
11
127.425
21
-103.166
0
LINE
8
Black
10
127.425
20
-103.166
11
127.974
21
-103.715
0
LINE
8
Black
10
127.974
20
-103.715
11
133.528
21
-103.715
0
LINE
8
Black
10
133.528
20
-103.715
11
133.547
21
-103.719
0
LINE
8
Black
10
133.547
20
-103.719
11
133.567
21
-103.717
0
LINE
8
Black
10
133.567
20
-103.717
11
133.624
21
-103.732
0
LINE
8
Black
10
133.624
20
-103.732
11
133.682
21
-103.743
0
LINE
8
Black
10
133.682
20
-103.743
11
133.699
21
-103.752
0
LINE
8
Black
10
133.699
20
-103.752
11
133.718
21
-103.758
0
LINE
8
Black
10
133.718
20
-103.758
11
133.766
21
-103.791
0
LINE
8
Black
10
133.766
20
-103.791
11
133.817
21
-103.821
0
LINE
8
Black
10
133.817
20
-103.821
11
133.83
21
-103.836
0
LINE
8
Black
10
133.83
20
-103.836
11
133.846
21
-103.847
0
LINE
8
Black
10
133.846
20
-103.847
11
137.343
21
-107.344
0
LINE
8
Black
10
137.343
20
-107.344
11
137.354
21
-107.36
0
LINE
8
Black
10
137.354
20
-107.36
11
137.369
21
-107.373
0
LINE
8
Black
10
137.369
20
-107.373
11
137.399
21
-107.424
0
LINE
8
Black
10
137.399
20
-107.424
11
137.432
21
-107.472
0
LINE
8
Black
10
137.432
20
-107.472
11
137.438
21
-107.491
0
LINE
8
Black
10
137.438
20
-107.491
11
137.447
21
-107.508
0
LINE
8
Black
10
137.447
20
-107.508
11
137.458
21
-107.566
0
LINE
8
Black
10
137.458
20
-107.566
11
137.473
21
-107.623
0
LINE
8
Black
10
137.473
20
-107.623
11
137.471
21
-107.643
0
LINE
8
Black
10
137.471
20
-107.643
11
137.475
21
-107.662
0
LINE
8
Black
10
137.475
20
-107.662
11
137.475
21
-120.582
0
LINE
8
Black
10
137.475
20
-120.582
11
138.616
21
-121.724
0
LINE
8
Black
10
138.616
20
-121.724
11
173.499
21
-121.724
0
LINE
8
Black
10
173.499
20
-121.724
11
174.97
21
-120.253
0
LINE
8
Black
10
174.97
20
-120.253
11
174.986
21
-120.241
0
LINE
8
Black
10
174.986
20
-120.241
11
174.999
21
-120.226
0
LINE
8
Black
10
174.999
20
-120.226
11
175.05
21
-120.197
0
LINE
8
Black
10
175.05
20
-120.197
11
175.098
21
-120.163
0
LINE
8
Black
10
175.098
20
-120.163
11
175.117
21
-120.158
0
LINE
8
Black
10
175.117
20
-120.158
11
175.131
21
-120.15
0
LINE
8
Black
10
175.131
20
-120.15
11
175.216
21
-120.065
0
LINE
8
Black
10
175.216
20
-120.065
11
175.216
21
-114.377
0
LINE
8
Black
10
175.216
20
-114.377
11
174.598
21
-113.759
0
LINE
8
Black
10
174.598
20
-113.759
11
168.123
21
-113.759
0
LINE
8
Black
10
168.123
20
-113.759
11
168.103
21
-113.756
0
LINE
8
Black
10
168.103
20
-113.756
11
168.083
21
-113.758
0
LINE
8
Black
10
168.083
20
-113.758
11
168.027
21
-113.742
0
LINE
8
Black
10
168.027
20
-113.742
11
167.969
21
-113.732
0
LINE
8
Black
10
167.969
20
-113.732
11
167.952
21
-113.722
0
LINE
8
Black
10
167.952
20
-113.722
11
167.932
21
-113.717
0
LINE
8
Black
10
167.932
20
-113.717
11
167.884
21
-113.684
0
LINE
8
Black
10
167.884
20
-113.684
11
167.833
21
-113.654
0
LINE
8
Black
10
167.833
20
-113.654
11
167.821
21
-113.639
0
LINE
8
Black
10
167.821
20
-113.639
11
167.804
21
-113.628
0
LINE
8
Black
10
167.804
20
-113.628
11
167.398
21
-113.221
0
LINE
8
Black
10
167.398
20
-113.221
11
167.387
21
-113.205
0
LINE
8
Black
10
167.387
20
-113.205
11
167.371
21
-113.192
0
LINE
8
Black
10
167.371
20
-113.192
11
167.342
21
-113.141
0
LINE
8
Black
10
167.342
20
-113.141
11
167.308
21
-113.093
0
LINE
8
Black
10
167.308
20
-113.093
11
167.303
21
-113.074
0
LINE
8
Black
10
167.303
20
-113.074
11
167.293
21
-113.057
0
LINE
8
Black
10
167.293
20
-113.057
11
167.283
21
-112.999
0
LINE
8
Black
10
167.283
20
-112.999
11
167.268
21
-112.942
0
LINE
8
Black
10
167.268
20
-112.942
11
167.27
21
-112.922
0
LINE
8
Black
10
167.27
20
-112.922
11
167.266
21
-112.903
0
LINE
8
Black
10
167.266
20
-112.903
11
167.266
21
-107.044
0
LINE
8
Black
10
167.266
20
-107.044
11
165.595
21
-105.373
0
LINE
8
Black
10
165.595
20
-105.373
11
165.583
21
-105.356
0
LINE
8
Black
10
165.583
20
-105.356
11
165.568
21
-105.344
0
LINE
8
Black
10
165.568
20
-105.344
11
165.539
21
-105.293
0
LINE
8
Black
10
165.539
20
-105.293
11
165.505
21
-105.245
0
LINE
8
Black
10
165.505
20
-105.245
11
165.5
21
-105.225
0
LINE
8
Black
10
165.5
20
-105.225
11
165.49
21
-105.208
0
LINE
8
Black
10
165.49
20
-105.208
11
165.48
21
-105.15
0
LINE
8
Black
10
165.48
20
-105.15
11
165.465
21
-105.094
0
LINE
8
Black
10
165.465
20
-105.094
11
165.466
21
-105.074
0
LINE
8
Black
10
165.466
20
-105.074
11
165.463
21
-105.054
0
LINE
8
Black
10
165.463
20
-105.054
11
165.463
21
-97.8696
0
LINE
8
Black
10
165.463
20
-97.8696
11
164.665
21
-97.0716
0
LINE
8
Black
10
164.665
20
-97.0716
11
155.296
21
-97.0716
0
LINE
8
Black
10
155.296
20
-97.0716
11
155.276
21
-97.0682
0
LINE
8
Black
10
155.276
20
-97.0682
11
155.256
21
-97.0699
0
LINE
8
Black
10
155.256
20
-97.0699
11
155.2
21
-97.0547
0
LINE
8
Black
10
155.2
20
-97.0547
11
155.142
21
-97.0445
0
LINE
8
Black
10
155.142
20
-97.0445
11
155.125
21
-97.0346
0
LINE
8
Black
10
155.125
20
-97.0346
11
155.105
21
-97.0294
0
LINE
8
Black
10
155.105
20
-97.0294
11
155.057
21
-96.9957
0
LINE
8
Black
10
155.057
20
-96.9957
11
155.006
21
-96.9663
0
LINE
8
Black
10
155.006
20
-96.9663
11
154.994
21
-96.9512
0
LINE
8
Black
10
154.994
20
-96.9512
11
154.977
21
-96.9398
0
LINE
8
Black
10
154.977
20
-96.9398
11
148.881
21
-90.8438
0
LINE
8
Black
10
148.881
20
-90.8438
11
148.87
21
-90.8276
0
LINE
8
Black
10
148.87
20
-90.8276
11
148.855
21
-90.8149
0
LINE
8
Black
10
148.855
20
-90.8149
11
148.825
21
-90.7639
0
LINE
8
Black
10
148.825
20
-90.7639
11
148.792
21
-90.7158
0
LINE
8
Black
10
148.792
20
-90.7158
11
148.787
21
-90.6967
0
LINE
8
Black
10
148.787
20
-90.6967
11
148.777
21
-90.6795
0
LINE
8
Black
10
148.777
20
-90.6795
11
148.767
21
-90.6216
0
LINE
8
Black
10
148.767
20
-90.6216
11
148.751
21
-90.5648
0
LINE
8
Black
10
148.751
20
-90.5648
11
148.753
21
-90.5451
0
LINE
8
Black
10
148.753
20
-90.5451
11
148.75
21
-90.5256
0
LINE
8
Black
10
148.75
20
-90.5256
11
148.75
21
-88.6714
0
LINE
8
Black
10
148.75
20
-88.6714
11
148.753
21
-88.6519
0
LINE
8
Black
10
148.753
20
-88.6519
11
148.751
21
-88.6322
0
LINE
8
Black
10
148.751
20
-88.6322
11
148.767
21
-88.5754
0
LINE
8
Black
10
148.767
20
-88.5754
11
148.777
21
-88.5175
0
LINE
8
Black
10
148.777
20
-88.5175
11
148.787
21
-88.5003
0
LINE
8
Black
10
148.787
20
-88.5003
11
148.792
21
-88.4812
0
LINE
8
Black
10
148.792
20
-88.4812
11
148.825
21
-88.4331
0
LINE
8
Black
10
148.825
20
-88.4331
11
148.855
21
-88.3821
0
LINE
8
Black
10
148.855
20
-88.3821
11
148.87
21
-88.3694
0
LINE
8
Black
10
148.87
20
-88.3694
11
148.881
21
-88.3532
0
LINE
8
Black
10
148.881
20
-88.3532
11
150.405
21
-86.8292
0
LINE
8
Black
10
150.405
20
-86.8292
11
150.422
21
-86.8178
0
LINE
8
Black
10
150.422
20
-86.8178
11
150.434
21
-86.8027
0
LINE
8
Black
10
150.434
20
-86.8027
11
150.485
21
-86.7733
0
LINE
8
Black
10
150.485
20
-86.7733
11
150.533
21
-86.7396
0
LINE
8
Black
10
150.533
20
-86.7396
11
150.553
21
-86.7344
0
LINE
8
Black
10
150.553
20
-86.7344
11
150.57
21
-86.7245
0
LINE
8
Black
10
150.57
20
-86.7245
11
150.628
21
-86.7143
0
LINE
8
Black
10
150.628
20
-86.7143
11
150.684
21
-86.6991
0
LINE
8
Black
10
150.684
20
-86.6991
11
150.704
21
-86.7008
0
LINE
8
Black
10
150.704
20
-86.7008
11
150.724
21
-86.6974
0
LINE
8
Black
10
150.724
20
-86.6974
11
171.323
21
-86.6974
0
LINE
8
Black
10
171.323
20
-86.6974
11
171.343
21
-86.7008
0
LINE
8
Black
10
171.343
20
-86.7008
11
171.362
21
-86.6991
0
LINE
8
Black
10
171.362
20
-86.6991
11
171.419
21
-86.7143
0
LINE
8
Black
10
171.419
20
-86.7143
11
171.477
21
-86.7245
0
LINE
8
Black
10
171.477
20
-86.7245
11
171.494
21
-86.7344
0
LINE
8
Black
10
171.494
20
-86.7344
11
171.513
21
-86.7396
0
LINE
8
Black
10
171.513
20
-86.7396
11
171.561
21
-86.7733
0
LINE
8
Black
10
171.561
20
-86.7733
11
171.612
21
-86.8027
0
LINE
8
Black
10
171.612
20
-86.8027
11
171.625
21
-86.8178
0
LINE
8
Black
10
171.625
20
-86.8178
11
171.641
21
-86.8292
0
LINE
8
Black
10
171.641
20
-86.8292
11
175.223
21
-90.4106
0
LINE
8
Black
10
175.223
20
-90.4106
11
175.234
21
-90.4268
0
LINE
8
Black
10
175.234
20
-90.4268
11
175.249
21
-90.4395
0
LINE
8
Black
10
175.249
20
-90.4395
11
175.279
21
-90.4905
0
LINE
8
Black
10
175.279
20
-90.4905
11
175.312
21
-90.5386
0
LINE
8
Black
10
175.312
20
-90.5386
11
175.317
21
-90.5577
0
LINE
8
Black
10
175.317
20
-90.5577
11
175.327
21
-90.5749
0
LINE
8
Black
10
175.327
20
-90.5749
11
175.337
21
-90.6328
0
LINE
8
Black
10
175.337
20
-90.6328
11
175.353
21
-90.6896
0
LINE
8
Black
10
175.353
20
-90.6896
11
175.351
21
-90.7093
0
LINE
8
Black
10
175.351
20
-90.7093
11
175.354
21
-90.7288
0
LINE
8
Black
10
175.354
20
-90.7288
11
175.354
21
-103.242
0
LINE
8
Black
10
175.354
20
-103.242
11
176.005
21
-103.893
0
LINE
8
Black
10
176.005
20
-103.893
11
182.397
21
-103.893
0
LINE
8
Black
10
182.397
20
-103.893
11
182.417
21
-103.897
0
LINE
8
Black
10
182.417
20
-103.897
11
182.437
21
-103.895
0
LINE
8
Black
10
182.437
20
-103.895
11
182.493
21
-103.91
0
LINE
8
Black
10
182.493
20
-103.91
11
182.551
21
-103.92
0
LINE
8
Black
10
182.551
20
-103.92
11
182.568
21
-103.93
0
LINE
8
Black
10
182.568
20
-103.93
11
182.588
21
-103.935
0
LINE
8
Black
10
182.588
20
-103.935
11
182.636
21
-103.969
0
LINE
8
Black
10
182.636
20
-103.969
11
182.687
21
-103.998
0
LINE
8
Black
10
182.687
20
-103.998
11
182.699
21
-104.014
0
LINE
8
Black
10
182.699
20
-104.014
11
182.716
21
-104.025
0
LINE
8
Black
10
182.716
20
-104.025
11
184.976
21
-106.286
0
LINE
8
Black
10
184.976
20
-106.286
11
184.988
21
-106.302
0
LINE
8
Black
10
184.988
20
-106.302
11
185.003
21
-106.315
0
LINE
8
Black
10
185.003
20
-106.315
11
185.032
21
-106.365
0
LINE
8
Black
10
185.032
20
-106.365
11
185.066
21
-106.414
0
LINE
8
Black
10
185.066
20
-106.414
11
185.071
21
-106.433
0
LINE
8
Black
10
185.071
20
-106.433
11
185.081
21
-106.45
0
LINE
8
Black
10
185.081
20
-106.45
11
185.091
21
-106.508
0
LINE
8
Black
10
185.091
20
-106.508
11
185.106
21
-106.565
0
LINE
8
Black
10
185.106
20
-106.565
11
185.105
21
-106.584
0
LINE
8
Black
10
185.105
20
-106.584
11
185.108
21
-106.604
0
LINE
8
Black
10
185.108
20
-106.604
11
185.108
21
-119.651
0
LINE
8
Black
10
185.108
20
-119.651
11
185.886
21
-120.429
0
LINE
8
Black
10
185.886
20
-120.429
11
222.8
21
-120.429
0
LINE
8
Black
10
222.8
20
-120.429
11
223.349
21
-119.879
0
LINE
8
Black
10
223.349
20
-119.879
11
223.349
21
-114.436
0
LINE
8
Black
10
223.349
20
-114.436
11
222.876
21
-113.963
0
LINE
8
Black
10
222.876
20
-113.963
11
221.793
21
-113.963
0
LINE
8
Black
10
221.793
20
-113.963
11
221.773
21
-113.959
0
LINE
8
Black
10
221.773
20
-113.959
11
221.754
21
-113.961
0
LINE
8
Black
10
221.754
20
-113.961
11
221.697
21
-113.946
0
LINE
8
Black
10
221.697
20
-113.946
11
221.639
21
-113.935
0
LINE
8
Black
10
221.639
20
-113.935
11
221.622
21
-113.926
0
LINE
8
Black
10
221.622
20
-113.926
11
221.603
21
-113.92
0
LINE
8
Black
10
221.603
20
-113.92
11
221.554
21
-113.887
0
LINE
8
Black
10
221.554
20
-113.887
11
221.504
21
-113.857
0
LINE
8
Black
10
221.504
20
-113.857
11
221.491
21
-113.842
0
LINE
8
Black
10
221.491
20
-113.842
11
221.475
21
-113.831
0
LINE
8
Black
10
221.475
20
-113.831
11
214.972
21
-107.328
0
LINE
8
Black
10
214.972
20
-107.328
11
214.961
21
-107.312
0
LINE
8
Black
10
214.961
20
-107.312
11
214.946
21
-107.299
0
LINE
8
Black
10
214.946
20
-107.299
11
214.916
21
-107.249
0
LINE
8
Black
10
214.916
20
-107.249
11
214.883
21
-107.2
0
LINE
8
Black
10
214.883
20
-107.2
11
214.877
21
-107.181
0
LINE
8
Black
10
214.877
20
-107.181
11
214.868
21
-107.164
0
LINE
8
Black
10
214.868
20
-107.164
11
214.857
21
-107.106
0
LINE
8
Black
10
214.857
20
-107.106
11
214.842
21
-107.049
0
LINE
8
Black
10
214.842
20
-107.049
11
214.844
21
-107.03
0
LINE
8
Black
10
214.844
20
-107.03
11
214.84
21
-107.01
0
LINE
8
Black
10
214.84
20
-107.01
11
214.84
21
-99.3988
0
LINE
8
Black
10
214.84
20
-99.3988
11
212.615
21
-97.1732
0
LINE
8
Black
10
212.615
20
-97.1732
11
208.737
21
-97.1732
0
LINE
8
Black
10
208.737
20
-97.1732
11
208.718
21
-97.1698
0
LINE
8
Black
10
208.718
20
-97.1698
11
208.698
21
-97.1715
0
LINE
8
Black
10
208.698
20
-97.1715
11
208.641
21
-97.1563
0
LINE
8
Black
10
208.641
20
-97.1563
11
208.583
21
-97.1461
0
LINE
8
Black
10
208.583
20
-97.1461
11
208.566
21
-97.1362
0
LINE
8
Black
10
208.566
20
-97.1362
11
208.547
21
-97.131
0
LINE
8
Black
10
208.547
20
-97.131
11
208.499
21
-97.0973
0
LINE
8
Black
10
208.499
20
-97.0973
11
208.448
21
-97.0679
0
LINE
8
Black
10
208.448
20
-97.0679
11
208.435
21
-97.0528
0
LINE
8
Black
10
208.435
20
-97.0528
11
208.419
21
-97.0414
0
LINE
8
Black
10
208.419
20
-97.0414
11
206.768
21
-95.3904
0
LINE
8
Black
10
206.768
20
-95.3904
11
206.757
21
-95.3742
0
LINE
8
Black
10
206.757
20
-95.3742
11
206.741
21
-95.3615
0
LINE
8
Black
10
206.741
20
-95.3615
11
206.712
21
-95.3105
0
LINE
8
Black
10
206.712
20
-95.3105
11
206.678
21
-95.2624
0
LINE
8
Black
10
206.678
20
-95.2624
11
206.673
21
-95.2433
0
LINE
8
Black
10
206.673
20
-95.2433
11
206.663
21
-95.2261
0
LINE
8
Black
10
206.663
20
-95.2261
11
206.653
21
-95.1682
0
LINE
8
Black
10
206.653
20
-95.1682
11
206.638
21
-95.1114
0
LINE
8
Black
10
206.638
20
-95.1114
11
206.64
21
-95.0917
0
LINE
8
Black
10
206.64
20
-95.0917
11
206.636
21
-95.0722
0
LINE
8
Black
10
206.636
20
-95.0722
11
206.636
21
-89.1298
0
LINE
8
Black
10
206.636
20
-89.1298
11
197.839
21
-80.333
0
LINE
8
Black
10
197.839
20
-80.333
11
188.858
21
-80.333
0
LINE
8
Black
10
188.858
20
-80.333
11
188.138
21
-81.0522
0
LINE
8
Black
10
188.138
20
-81.0522
11
188.138
21
-84.9956
0
LINE
8
Black
10
188.138
20
-84.9956
11
188.288
21
-84.9956
0
LINE
8
Black
10
188.288
20
-84.9956
11
189.548
21
-84.9956
0
LINE
8
Black
10
189.548
20
-84.9956
11
189.548
21
-84.8152
0
LINE
8
Black
10
156.757
20
-98.057
11
158.557
21
-98.057
0
LINE
8
Black
10
158.557
20
-98.057
11
158.557
21
-98.157
0
LINE
8
Black
10
158.557
20
-98.157
11
162.957
21
-98.157
0
LINE
8
Black
10
162.957
20
-98.157
11
162.957
21
-98.057
0
LINE
8
Black
10
162.957
20
-98.057
11
164.757
21
-98.057
0
LINE
8
Black
10
164.757
20
-98.057
11
164.757
21
-99.157
0
LINE
8
Black
10
164.757
20
-99.157
11
162.957
21
-99.157
0
LINE
8
Black
10
162.957
20
-99.157
11
162.957
21
-99.057
0
LINE
8
Black
10
162.957
20
-99.057
11
159.093
21
-99.057
0
LINE
8
Black
10
159.093
20
-99.057
11
159.775
21
-99.7388
0
LINE
8
Black
10
159.775
20
-99.7388
11
159.786
21
-99.755
0
LINE
8
Black
10
159.786
20
-99.755
11
159.801
21
-99.7677
0
LINE
8
Black
10
159.801
20
-99.7677
11
159.831
21
-99.8187
0
LINE
8
Black
10
159.831
20
-99.8187
11
159.864
21
-99.8668
0
LINE
8
Black
10
159.864
20
-99.8668
11
159.87
21
-99.8859
0
LINE
8
Black
10
159.87
20
-99.8859
11
159.879
21
-99.9031
0
LINE
8
Black
10
159.879
20
-99.9031
11
159.89
21
-99.961
0
LINE
8
Black
10
159.89
20
-99.961
11
159.905
21
-100.018
0
LINE
8
Black
10
159.905
20
-100.018
11
159.903
21
-100.038
0
LINE
8
Black
10
159.903
20
-100.038
11
159.907
21
-100.057
0
LINE
8
Black
10
159.907
20
-100.057
11
159.907
21
-100.941
0
LINE
8
Black
10
159.907
20
-100.941
11
166.434
21
-107.468
0
LINE
8
Black
10
166.434
20
-107.468
11
166.446
21
-107.484
0
LINE
8
Black
10
166.446
20
-107.484
11
166.461
21
-107.497
0
LINE
8
Black
10
166.461
20
-107.497
11
166.49
21
-107.548
0
LINE
8
Black
10
166.49
20
-107.548
11
166.524
21
-107.596
0
LINE
8
Black
10
166.524
20
-107.596
11
166.529
21
-107.615
0
LINE
8
Black
10
166.529
20
-107.615
11
166.539
21
-107.632
0
LINE
8
Black
10
166.539
20
-107.632
11
166.549
21
-107.69
0
LINE
8
Black
10
166.549
20
-107.69
11
166.564
21
-107.747
0
LINE
8
Black
10
166.564
20
-107.747
11
166.563
21
-107.767
0
LINE
8
Black
10
166.563
20
-107.767
11
166.566
21
-107.786
0
LINE
8
Black
10
166.566
20
-107.786
11
166.566
21
-113.814
0
LINE
8
Black
10
166.566
20
-113.814
11
167.573
21
-114.821
0
LINE
8
Black
10
167.573
20
-114.821
11
168.386
21
-114.821
0
LINE
8
Black
10
168.386
20
-114.821
11
168.386
21
-114.921
0
LINE
8
Black
10
168.386
20
-114.921
11
172.786
21
-114.921
0
LINE
8
Black
10
172.786
20
-114.921
11
172.786
21
-114.821
0
LINE
8
Black
10
172.786
20
-114.821
11
174.586
21
-114.821
0
LINE
8
Black
10
174.586
20
-114.821
11
174.586
21
-115.921
0
LINE
8
Black
10
174.586
20
-115.921
11
172.786
21
-115.921
0
LINE
8
Black
10
172.786
20
-115.921
11
172.786
21
-115.821
0
LINE
8
Black
10
172.786
20
-115.821
11
168.923
21
-115.821
0
LINE
8
Black
10
168.923
20
-115.821
11
169.655
21
-116.553
0
LINE
8
Black
10
169.655
20
-116.553
11
169.666
21
-116.569
0
LINE
8
Black
10
169.666
20
-116.569
11
169.681
21
-116.582
0
LINE
8
Black
10
169.681
20
-116.582
11
169.711
21
-116.633
0
LINE
8
Black
10
169.711
20
-116.633
11
169.744
21
-116.681
0
LINE
8
Black
10
169.744
20
-116.681
11
169.749
21
-116.7
0
LINE
8
Black
10
169.749
20
-116.7
11
169.759
21
-116.717
0
LINE
8
Black
10
169.759
20
-116.717
11
169.769
21
-116.775
0
LINE
8
Black
10
169.769
20
-116.775
11
169.785
21
-116.832
0
LINE
8
Black
10
169.785
20
-116.832
11
169.783
21
-116.852
0
LINE
8
Black
10
169.783
20
-116.852
11
169.786
21
-116.871
0
LINE
8
Black
10
169.786
20
-116.871
11
169.786
21
-120.381
0
LINE
8
Black
10
169.786
20
-120.381
11
169.783
21
-120.401
0
LINE
8
Black
10
169.783
20
-120.401
11
169.785
21
-120.42
0
LINE
8
Black
10
169.785
20
-120.42
11
169.769
21
-120.477
0
LINE
8
Black
10
169.769
20
-120.477
11
169.759
21
-120.535
0
LINE
8
Black
10
169.759
20
-120.535
11
169.749
21
-120.552
0
LINE
8
Black
10
169.749
20
-120.552
11
169.744
21
-120.571
0
LINE
8
Black
10
169.744
20
-120.571
11
169.711
21
-120.619
0
LINE
8
Black
10
169.711
20
-120.619
11
169.681
21
-120.67
0
LINE
8
Black
10
169.681
20
-120.67
11
169.666
21
-120.683
0
LINE
8
Black
10
169.666
20
-120.683
11
169.655
21
-120.699
0
LINE
8
Black
10
169.655
20
-120.699
11
169.262
21
-121.092
0
LINE
8
Black
10
169.262
20
-121.092
11
169.245
21
-121.104
0
LINE
8
Black
10
169.245
20
-121.104
11
169.233
21
-121.119
0
LINE
8
Black
10
169.233
20
-121.119
11
169.182
21
-121.148
0
LINE
8
Black
10
169.182
20
-121.148
11
169.134
21
-121.182
0
LINE
8
Black
10
169.134
20
-121.182
11
169.114
21
-121.187
0
LINE
8
Black
10
169.114
20
-121.187
11
169.097
21
-121.197
0
LINE
8
Black
10
169.097
20
-121.197
11
169.039
21
-121.207
0
LINE
8
Black
10
169.039
20
-121.207
11
168.983
21
-121.222
0
LINE
8
Black
10
168.983
20
-121.222
11
168.963
21
-121.221
0
LINE
8
Black
10
168.963
20
-121.221
11
168.943
21
-121.224
0
LINE
8
Black
10
168.943
20
-121.224
11
148.406
21
-121.224
0
LINE
8
Black
10
148.406
20
-121.224
11
148.387
21
-121.221
0
LINE
8
Black
10
148.387
20
-121.221
11
148.367
21
-121.222
0
LINE
8
Black
10
148.367
20
-121.222
11
148.31
21
-121.207
0
LINE
8
Black
10
148.31
20
-121.207
11
148.252
21
-121.197
0
LINE
8
Black
10
148.252
20
-121.197
11
148.235
21
-121.187
0
LINE
8
Black
10
148.235
20
-121.187
11
148.216
21
-121.182
0
LINE
8
Black
10
148.216
20
-121.182
11
148.168
21
-121.148
0
LINE
8
Black
10
148.168
20
-121.148
11
148.117
21
-121.119
0
LINE
8
Black
10
148.117
20
-121.119
11
148.104
21
-121.104
0
LINE
8
Black
10
148.104
20
-121.104
11
148.088
21
-121.092
0
LINE
8
Black
10
148.088
20
-121.092
11
146.722
21
-119.726
0
LINE
8
Black
10
146.722
20
-119.726
11
146.711
21
-119.71
0
LINE
8
Black
10
146.711
20
-119.71
11
146.696
21
-119.697
0
LINE
8
Black
10
146.696
20
-119.697
11
146.666
21
-119.647
0
LINE
8
Black
10
146.666
20
-119.647
11
146.633
21
-119.598
0
LINE
8
Black
10
146.633
20
-119.598
11
146.628
21
-119.579
0
LINE
8
Black
10
146.628
20
-119.579
11
146.618
21
-119.562
0
LINE
8
Black
10
146.618
20
-119.562
11
146.608
21
-119.504
0
LINE
8
Black
10
146.608
20
-119.504
11
146.592
21
-119.447
0
LINE
8
Black
10
146.592
20
-119.447
11
146.594
21
-119.428
0
LINE
8
Black
10
146.594
20
-119.428
11
146.591
21
-119.408
0
LINE
8
Black
10
146.591
20
-119.408
11
146.591
21
-117.715
0
LINE
8
Black
10
146.591
20
-117.715
11
146.594
21
-117.695
0
LINE
8
Black
10
146.594
20
-117.695
11
146.592
21
-117.675
0
LINE
8
Black
10
146.592
20
-117.675
11
146.608
21
-117.619
0
LINE
8
Black
10
146.608
20
-117.619
11
146.618
21
-117.561
0
LINE
8
Black
10
146.618
20
-117.561
11
146.628
21
-117.544
0
LINE
8
Black
10
146.628
20
-117.544
11
146.633
21
-117.524
0
LINE
8
Black
10
146.633
20
-117.524
11
146.666
21
-117.476
0
LINE
8
Black
10
146.666
20
-117.476
11
146.696
21
-117.425
0
LINE
8
Black
10
146.696
20
-117.425
11
146.711
21
-117.413
0
LINE
8
Black
10
146.711
20
-117.413
11
146.722
21
-117.396
0
LINE
8
Black
10
146.722
20
-117.396
11
148.272
21
-115.846
0
LINE
8
Black
10
148.272
20
-115.846
11
144.409
21
-115.846
0
LINE
8
Black
10
144.409
20
-115.846
11
144.409
21
-115.946
0
LINE
8
Black
10
144.409
20
-115.946
11
142.609
21
-115.946
0
LINE
8
Black
10
142.609
20
-115.946
11
142.609
21
-115.842
0
LINE
8
Black
10
142.609
20
-115.842
11
141.021
21
-115.842
0
LINE
8
Black
10
141.021
20
-115.842
11
141.001
21
-115.839
0
LINE
8
Black
10
141.001
20
-115.839
11
140.982
21
-115.84
0
LINE
8
Black
10
140.982
20
-115.84
11
140.925
21
-115.825
0
LINE
8
Black
10
140.925
20
-115.825
11
140.867
21
-115.815
0
LINE
8
Black
10
140.867
20
-115.815
11
140.85
21
-115.805
0
LINE
8
Black
10
140.85
20
-115.805
11
140.831
21
-115.8
0
LINE
8
Black
10
140.831
20
-115.8
11
140.782
21
-115.766
0
LINE
8
Black
10
140.782
20
-115.766
11
140.732
21
-115.737
0
LINE
8
Black
10
140.732
20
-115.737
11
140.719
21
-115.722
0
LINE
8
Black
10
140.719
20
-115.722
11
140.703
21
-115.71
0
LINE
8
Black
10
140.703
20
-115.71
11
139.56
21
-114.567
0
LINE
8
Black
10
139.56
20
-114.567
11
139.548
21
-114.551
0
LINE
8
Black
10
139.548
20
-114.551
11
139.533
21
-114.538
0
LINE
8
Black
10
139.533
20
-114.538
11
139.504
21
-114.488
0
LINE
8
Black
10
139.504
20
-114.488
11
139.47
21
-114.439
0
LINE
8
Black
10
139.47
20
-114.439
11
139.465
21
-114.42
0
LINE
8
Black
10
139.465
20
-114.42
11
139.455
21
-114.403
0
LINE
8
Black
10
139.455
20
-114.403
11
139.445
21
-114.345
0
LINE
8
Black
10
139.445
20
-114.345
11
139.43
21
-114.288
0
LINE
8
Black
10
139.43
20
-114.288
11
139.431
21
-114.269
0
LINE
8
Black
10
139.431
20
-114.269
11
139.428
21
-114.249
0
LINE
8
Black
10
139.428
20
-114.249
11
139.428
21
-105.893
0
LINE
8
Black
10
139.428
20
-105.893
11
139.431
21
-105.873
0
LINE
8
Black
10
139.431
20
-105.873
11
139.43
21
-105.853
0
LINE
8
Black
10
139.43
20
-105.853
11
139.445
21
-105.797
0
LINE
8
Black
10
139.445
20
-105.797
11
139.455
21
-105.739
0
LINE
8
Black
10
139.455
20
-105.739
11
139.465
21
-105.722
0
LINE
8
Black
10
139.465
20
-105.722
11
139.47
21
-105.702
0
LINE
8
Black
10
139.47
20
-105.702
11
139.504
21
-105.654
0
LINE
8
Black
10
139.504
20
-105.654
11
139.533
21
-105.603
0
LINE
8
Black
10
139.533
20
-105.603
11
139.548
21
-105.591
0
LINE
8
Black
10
139.548
20
-105.591
11
139.56
21
-105.574
0
LINE
8
Black
10
139.56
20
-105.574
11
141.688
21
-103.446
0
LINE
8
Black
10
141.688
20
-103.446
11
141.688
21
-99.2528
0
LINE
8
Black
10
141.688
20
-99.2528
11
141.467
21
-99.0316
0
LINE
8
Black
10
141.467
20
-99.0316
11
140.754
21
-99.0316
0
LINE
8
Black
10
140.754
20
-99.0316
11
140.754
21
-99.1316
0
LINE
8
Black
10
140.754
20
-99.1316
11
138.954
21
-99.1316
0
LINE
8
Black
10
138.954
20
-99.1316
11
138.954
21
-99.0316
0
LINE
8
Black
10
138.954
20
-99.0316
11
134.554
21
-99.0316
0
LINE
8
Black
10
134.554
20
-99.0316
11
134.554
21
-99.1316
0
LINE
8
Black
10
134.554
20
-99.1316
11
132.754
21
-99.1316
0
LINE
8
Black
10
132.754
20
-99.1316
11
132.754
21
-99.0316
0
LINE
8
Black
10
132.754
20
-99.0316
11
130.967
21
-99.0316
0
LINE
8
Black
10
130.967
20
-99.0316
11
130.947
21
-99.0282
0
LINE
8
Black
10
130.947
20
-99.0282
11
130.927
21
-99.0299
0
LINE
8
Black
10
130.927
20
-99.0299
11
130.871
21
-99.0147
0
LINE
8
Black
10
130.871
20
-99.0147
11
130.813
21
-99.0045
0
LINE
8
Black
10
130.813
20
-99.0045
11
130.796
21
-98.9946
0
LINE
8
Black
10
130.796
20
-98.9946
11
130.776
21
-98.9894
0
LINE
8
Black
10
130.776
20
-98.9894
11
130.728
21
-98.9557
0
LINE
8
Black
10
130.728
20
-98.9557
11
130.677
21
-98.9263
0
LINE
8
Black
10
130.677
20
-98.9263
11
130.665
21
-98.9112
0
LINE
8
Black
10
130.665
20
-98.9112
11
130.648
21
-98.8998
0
LINE
8
Black
10
130.648
20
-98.8998
11
129.552
21
-97.8034
0
LINE
8
Black
10
129.552
20
-97.8034
11
129.541
21
-97.7872
0
LINE
8
Black
10
129.541
20
-97.7872
11
129.525
21
-97.7745
0
LINE
8
Black
10
129.525
20
-97.7745
11
129.496
21
-97.7235
0
LINE
8
Black
10
129.496
20
-97.7235
11
129.462
21
-97.6754
0
LINE
8
Black
10
129.462
20
-97.6754
11
129.457
21
-97.6563
0
LINE
8
Black
10
129.457
20
-97.6563
11
129.447
21
-97.6391
0
LINE
8
Black
10
129.447
20
-97.6391
11
129.437
21
-97.5812
0
LINE
8
Black
10
129.437
20
-97.5812
11
129.422
21
-97.5244
0
LINE
8
Black
10
129.422
20
-97.5244
11
129.424
21
-97.5047
0
LINE
8
Black
10
129.424
20
-97.5047
11
129.42
21
-97.4852
0
LINE
8
Black
10
129.42
20
-97.4852
11
129.42
21
-87.0036
0
LINE
8
Black
10
129.42
20
-87.0036
11
124.632
21
-82.2152
0
LINE
8
Black
10
124.632
20
-82.2152
11
123.764
21
-82.2152
0
LINE
8
Black
10
123.764
20
-82.2152
11
123.764
21
-82.1152
0
LINE
8
Black
10
123.764
20
-82.1152
11
119.364
21
-82.1152
0
LINE
8
Black
10
119.364
20
-82.1152
11
119.364
21
-82.2152
0
LINE
8
Black
10
119.364
20
-82.2152
11
117.564
21
-82.2152
0
LINE
8
Black
10
117.564
20
-82.2152
11
117.564
21
-82.0898
0
LINE
8
Black
10
117.564
20
-82.0898
11
101.561
21
-82.0898
0
LINE
8
Black
10
101.561
20
-82.0898
11
101.561
21
-82.1898
0
LINE
8
Black
10
101.561
20
-82.1898
11
99.7614
21
-82.1898
0
LINE
8
Black
10
99.7614
20
-82.1898
11
99.7614
21
-82.0898
0
LINE
8
Black
10
99.7614
20
-82.0898
11
95.8978
21
-82.0898
0
LINE
8
Black
10
95.8978
20
-82.0898
11
97.9304
21
-84.1224
0
LINE
8
Black
10
97.9304
20
-84.1224
11
97.9418
21
-84.1386
0
LINE
8
Black
10
97.9418
20
-84.1386
11
97.9569
21
-84.1513
0
LINE
8
Black
10
97.9569
20
-84.1513
11
97.9863
21
-84.2023
0
LINE
8
Black
10
97.9863
20
-84.2023
11
98.02
21
-84.2504
0
LINE
8
Black
10
98.02
20
-84.2504
11
98.0252
21
-84.2695
0
LINE
8
Black
10
98.0252
20
-84.2695
11
98.0351
21
-84.2867
0
LINE
8
Black
10
98.0351
20
-84.2867
11
98.0453
21
-84.3446
0
LINE
8
Black
10
98.0453
20
-84.3446
11
98.0605
21
-84.4014
0
LINE
8
Black
10
98.0605
20
-84.4014
11
98.0588
21
-84.4211
0
LINE
8
Black
10
98.0588
20
-84.4211
11
98.0622
21
-84.4406
0
LINE
8
Black
10
98.0622
20
-84.4406
11
98.0622
21
-85.9958
0
LINE
8
Black
10
98.0622
20
-85.9958
11
98.6846
21
-86.6182
0
LINE
8
Black
10
98.6846
20
-86.6182
11
103.679
21
-86.6182
0
LINE
8
Black
10
103.679
20
-86.6182
11
103.698
21
-86.6216
0
LINE
8
Black
10
103.698
20
-86.6216
11
103.718
21
-86.6199
0
LINE
8
Black
10
103.718
20
-86.6199
11
103.775
21
-86.6351
0
LINE
8
Black
10
103.775
20
-86.6351
11
103.832
21
-86.6453
0
LINE
8
Black
10
103.832
20
-86.6453
11
103.85
21
-86.6552
0
LINE
8
Black
10
103.85
20
-86.6552
11
103.869
21
-86.6604
0
LINE
8
Black
10
103.869
20
-86.6604
11
103.917
21
-86.6941
0
LINE
8
Black
10
103.917
20
-86.6941
11
103.968
21
-86.7235
0
LINE
8
Black
10
103.968
20
-86.7235
11
103.98
21
-86.7386
0
LINE
8
Black
10
103.98
20
-86.7386
11
103.997
21
-86.75
0
LINE
8
Black
10
103.997
20
-86.75
11
108.802
21
-91.5549
0
LINE
8
Black
10
108.802
20
-91.5549
11
108.813
21
-91.5711
0
LINE
8
Black
10
108.813
20
-91.5711
11
108.828
21
-91.5838
0
LINE
8
Black
10
108.828
20
-91.5838
11
108.858
21
-91.6347
0
LINE
8
Black
10
108.858
20
-91.6347
11
108.891
21
-91.6829
0
LINE
8
Black
10
108.891
20
-91.6829
11
108.896
21
-91.702
0
LINE
8
Black
10
108.896
20
-91.702
11
108.906
21
-91.7192
0
LINE
8
Black
10
108.906
20
-91.7192
11
108.916
21
-91.7771
0
LINE
8
Black
10
108.916
20
-91.7771
11
108.932
21
-91.8339
0
LINE
8
Black
10
108.932
20
-91.8339
11
108.93
21
-91.8536
0
LINE
8
Black
10
108.93
20
-91.8536
11
108.933
21
-91.8731
0
LINE
8
Black
10
108.933
20
-91.8731
11
108.933
21
-95.7526
0
LINE
8
Black
10
108.933
20
-95.7526
11
109.994
21
-96.8134
0
LINE
8
Black
10
109.994
20
-96.8134
11
110.006
21
-96.8296
0
LINE
8
Black
10
110.006
20
-96.8296
11
110.021
21
-96.8423
0
LINE
8
Black
10
110.021
20
-96.8423
11
110.05
21
-96.8933
0
LINE
8
Black
10
110.05
20
-96.8933
11
110.084
21
-96.9414
0
LINE
8
Black
10
110.084
20
-96.9414
11
110.089
21
-96.9605
0
LINE
8
Black
10
110.089
20
-96.9605
11
110.099
21
-96.9777
0
LINE
8
Black
10
110.099
20
-96.9777
11
110.109
21
-97.0356
0
LINE
8
Black
10
110.109
20
-97.0356
11
110.124
21
-97.0924
0
LINE
8
Black
10
110.124
20
-97.0924
11
110.123
21
-97.1121
0
LINE
8
Black
10
110.123
20
-97.1121
11
110.126
21
-97.1316
0
LINE
8
Black
10
110.126
20
-97.1316
11
110.126
21
-98.0316
0
LINE
8
Black
10
110.126
20
-98.0316
11
110.576
21
-98.0316
0
LINE
8
Black
10
110.576
20
-98.0316
11
110.576
21
-98.1316
0
LINE
8
Black
10
110.576
20
-98.1316
11
114.976
21
-98.1316
0
LINE
8
Black
10
114.976
20
-98.1316
11
114.976
21
-98.0316
0
LINE
8
Black
10
114.976
20
-98.0316
11
116.776
21
-98.0316
0
LINE
8
Black
10
116.776
20
-98.0316
11
116.776
21
-98.4952
0
LINE
8
Black
10
116.776
20
-98.4952
11
118.374
21
-100.094
0
LINE
8
Black
10
118.374
20
-100.094
11
118.386
21
-100.11
0
LINE
8
Black
10
118.386
20
-100.11
11
118.401
21
-100.123
0
LINE
8
Black
10
118.401
20
-100.123
11
118.43
21
-100.173
0
LINE
8
Black
10
118.43
20
-100.173
11
118.464
21
-100.222
0
LINE
8
Black
10
118.464
20
-100.222
11
118.469
21
-100.241
0
LINE
8
Black
10
118.469
20
-100.241
11
118.479
21
-100.258
0
LINE
8
Black
10
118.479
20
-100.258
11
118.489
21
-100.316
0
LINE
8
Black
10
118.489
20
-100.316
11
118.504
21
-100.373
0
LINE
8
Black
10
118.504
20
-100.373
11
118.503
21
-100.392
0
LINE
8
Black
10
118.503
20
-100.392
11
118.506
21
-100.412
0
LINE
8
Black
10
118.506
20
-100.412
11
118.506
21
-105.829
0
LINE
8
Black
10
118.506
20
-105.829
11
126.024
21
-113.347
0
LINE
8
Black
10
126.024
20
-113.347
11
126.035
21
-113.363
0
LINE
8
Black
10
126.035
20
-113.363
11
126.051
21
-113.376
0
LINE
8
Black
10
126.051
20
-113.376
11
126.08
21
-113.427
0
LINE
8
Black
10
126.08
20
-113.427
11
126.114
21
-113.475
0
LINE
8
Black
10
126.114
20
-113.475
11
126.119
21
-113.494
0
LINE
8
Black
10
126.119
20
-113.494
11
126.129
21
-113.511
0
LINE
8
Black
10
126.129
20
-113.511
11
126.139
21
-113.569
0
LINE
8
Black
10
126.139
20
-113.569
11
126.154
21
-113.626
0
LINE
8
Black
10
126.154
20
-113.626
11
126.152
21
-113.645
0
LINE
8
Black
10
126.152
20
-113.645
11
126.156
21
-113.665
0
LINE
8
Black
10
126.156
20
-113.665
11
126.156
21
-113.946
0
LINE
8
Black
10
126.156
20
-113.946
11
126.156
21
-114.846
0
LINE
8
Black
10
126.156
20
-114.846
11
126.606
21
-114.846
0
LINE
8
Black
10
126.606
20
-114.846
11
126.606
21
-115.946
0
LINE
8
Black
10
126.606
20
-115.946
11
124.806
21
-115.946
0
LINE
8
Black
10
124.806
20
-115.946
11
124.806
21
-114.846
0
LINE
8
Black
10
124.806
20
-114.846
11
125.256
21
-114.846
0
LINE
8
Black
10
125.256
20
-114.846
11
125.256
21
-113.946
0
LINE
8
Black
10
125.256
20
-113.946
11
125.256
21
-113.851
0
LINE
8
Black
10
125.256
20
-113.851
11
117.738
21
-106.334
0
LINE
8
Black
10
117.738
20
-106.334
11
117.727
21
-106.317
0
LINE
8
Black
10
117.727
20
-106.317
11
117.711
21
-106.305
0
LINE
8
Black
10
117.711
20
-106.305
11
117.682
21
-106.254
0
LINE
8
Black
10
117.682
20
-106.254
11
117.648
21
-106.205
0
LINE
8
Black
10
117.648
20
-106.205
11
117.643
21
-106.186
0
LINE
8
Black
10
117.643
20
-106.186
11
117.633
21
-106.169
0
LINE
8
Black
10
117.633
20
-106.169
11
117.623
21
-106.111
0
LINE
8
Black
10
117.623
20
-106.111
11
117.608
21
-106.055
0
LINE
8
Black
10
117.608
20
-106.055
11
117.61
21
-106.035
0
LINE
8
Black
10
117.61
20
-106.035
11
117.606
21
-106.015
0
LINE
8
Black
10
117.606
20
-106.015
11
117.606
21
-100.598
0
LINE
8
Black
10
117.606
20
-100.598
11
116.14
21
-99.1316
0
LINE
8
Black
10
116.14
20
-99.1316
11
114.976
21
-99.1316
0
LINE
8
Black
10
114.976
20
-99.1316
11
114.976
21
-99.0316
0
LINE
8
Black
10
114.976
20
-99.0316
11
110.576
21
-99.0316
0
LINE
8
Black
10
110.576
20
-99.0316
11
110.576
21
-99.1316
0
LINE
8
Black
10
110.576
20
-99.1316
11
108.776
21
-99.1316
0
LINE
8
Black
10
108.776
20
-99.1316
11
108.776
21
-98.0316
0
LINE
8
Black
10
108.776
20
-98.0316
11
109.226
21
-98.0316
0
LINE
8
Black
10
109.226
20
-98.0316
11
109.226
21
-97.318
0
LINE
8
Black
10
109.226
20
-97.318
11
108.165
21
-96.2572
0
LINE
8
Black
10
108.165
20
-96.2572
11
108.154
21
-96.241
0
LINE
8
Black
10
108.154
20
-96.241
11
108.139
21
-96.2283
0
LINE
8
Black
10
108.139
20
-96.2283
11
108.109
21
-96.1773
0
LINE
8
Black
10
108.109
20
-96.1773
11
108.076
21
-96.1292
0
LINE
8
Black
10
108.076
20
-96.1292
11
108.07
21
-96.1101
0
LINE
8
Black
10
108.07
20
-96.1101
11
108.061
21
-96.0929
0
LINE
8
Black
10
108.061
20
-96.0929
11
108.05
21
-96.035
0
LINE
8
Black
10
108.05
20
-96.035
11
108.035
21
-95.9782
0
LINE
8
Black
10
108.035
20
-95.9782
11
108.037
21
-95.9585
0
LINE
8
Black
10
108.037
20
-95.9585
11
108.033
21
-95.939
0
LINE
8
Black
10
108.033
20
-95.939
11
108.033
21
-92.0595
0
LINE
8
Black
10
108.033
20
-92.0595
11
103.492
21
-87.5182
0
LINE
8
Black
10
103.492
20
-87.5182
11
98.4982
21
-87.5182
0
LINE
8
Black
10
98.4982
20
-87.5182
11
98.4787
21
-87.5148
0
LINE
8
Black
10
98.4787
20
-87.5148
11
98.459
21
-87.5165
0
LINE
8
Black
10
98.459
20
-87.5165
11
98.4022
21
-87.5013
0
LINE
8
Black
10
98.4022
20
-87.5013
11
98.3443
21
-87.4911
0
LINE
8
Black
10
98.3443
20
-87.4911
11
98.3271
21
-87.4812
0
LINE
8
Black
10
98.3271
20
-87.4812
11
98.308
21
-87.476
0
LINE
8
Black
10
98.308
20
-87.476
11
98.2598
21
-87.4423
0
LINE
8
Black
10
98.2598
20
-87.4423
11
98.2089
21
-87.4129
0
LINE
8
Black
10
98.2089
20
-87.4129
11
98.1962
21
-87.3977
0
LINE
8
Black
10
98.1962
20
-87.3977
11
98.18
21
-87.3864
0
LINE
8
Black
10
98.18
20
-87.3864
11
97.294
21
-86.5004
0
LINE
8
Black
10
97.294
20
-86.5004
11
97.2826
21
-86.4842
0
LINE
8
Black
10
97.2826
20
-86.4842
11
97.2675
21
-86.4715
0
LINE
8
Black
10
97.2675
20
-86.4715
11
97.2381
21
-86.4205
0
LINE
8
Black
10
97.2381
20
-86.4205
11
97.2044
21
-86.3724
0
LINE
8
Black
10
97.2044
20
-86.3724
11
97.1992
21
-86.3533
0
LINE
8
Black
10
97.1992
20
-86.3533
11
97.1893
21
-86.3361
0
LINE
8
Black
10
97.1893
20
-86.3361
11
97.1791
21
-86.2782
0
LINE
8
Black
10
97.1791
20
-86.2782
11
97.1639
21
-86.2214
0
LINE
8
Black
10
97.1639
20
-86.2214
11
97.1656
21
-86.2017
0
LINE
8
Black
10
97.1656
20
-86.2017
11
97.1622
21
-86.1822
0
LINE
8
Black
10
97.1622
20
-86.1822
11
97.1622
21
-84.627
0
LINE
8
Black
10
97.1622
20
-84.627
11
94.725
21
-82.1898
0
LINE
8
Black
10
94.725
20
-82.1898
11
93.5614
21
-82.1898
0
LINE
8
Black
10
93.5614
20
-82.1898
11
93.5614
21
-81.0898
0
LINE
8
Black
10
93.5614
20
-81.0898
11
95.3614
21
-81.0898
0
LINE
8
Black
10
95.3614
20
-81.0898
11
95.3614
21
-81.1898
0
LINE
8
Black
10
95.3614
20
-81.1898
11
99.7614
21
-81.1898
0
LINE
8
Black
10
99.7614
20
-81.1898
11
99.7614
21
-81.0898
0
LINE
8
Black
10
99.7614
20
-81.0898
11
101.561
21
-81.0898
0
LINE
8
Black
10
101.561
20
-81.0898
11
101.561
21
-81.1898
0
LINE
8
Black
10
101.561
20
-81.1898
11
117.564
21
-81.1898
0
LINE
8
Black
10
117.564
20
-81.1898
11
117.564
21
-81.1152
0
LINE
8
Black
10
117.564
20
-81.1152
11
119.364
21
-81.1152
0
LINE
8
Black
10
119.364
20
-81.1152
11
119.364
21
-81.2152
0
LINE
8
Black
10
119.364
20
-81.2152
11
123.764
21
-81.2152
0
LINE
8
Black
10
123.764
20
-81.2152
11
123.764
21
-81.1152
0
LINE
8
Black
10
123.764
20
-81.1152
11
125.564
21
-81.1152
0
LINE
8
Black
10
125.564
20
-81.1152
11
125.564
21
-81.875
0
LINE
8
Black
10
125.564
20
-81.875
11
130.188
21
-86.499
0
LINE
8
Black
10
130.188
20
-86.499
11
130.2
21
-86.5152
0
LINE
8
Black
10
130.2
20
-86.5152
11
130.215
21
-86.5279
0
LINE
8
Black
10
130.215
20
-86.5279
11
130.244
21
-86.5789
0
LINE
8
Black
10
130.244
20
-86.5789
11
130.278
21
-86.627
0
LINE
8
Black
10
130.278
20
-86.627
11
130.283
21
-86.6461
0
LINE
8
Black
10
130.283
20
-86.6461
11
130.293
21
-86.6633
0
LINE
8
Black
10
130.293
20
-86.6633
11
130.303
21
-86.7212
0
LINE
8
Black
10
130.303
20
-86.7212
11
130.318
21
-86.778
0
LINE
8
Black
10
130.318
20
-86.778
11
130.317
21
-86.7977
0
LINE
8
Black
10
130.317
20
-86.7977
11
130.32
21
-86.8172
0
LINE
8
Black
10
130.32
20
-86.8172
11
130.32
21
-97.2988
0
LINE
8
Black
10
130.32
20
-97.2988
11
131.153
21
-98.1316
0
LINE
8
Black
10
131.153
20
-98.1316
11
132.754
21
-98.1316
0
LINE
8
Black
10
132.754
20
-98.1316
11
132.754
21
-98.0316
0
LINE
8
Black
10
132.754
20
-98.0316
11
134.554
21
-98.0316
0
LINE
8
Black
10
134.554
20
-98.0316
11
134.554
21
-98.1316
0
LINE
8
Black
10
134.554
20
-98.1316
11
138.954
21
-98.1316
0
LINE
8
Black
10
138.954
20
-98.1316
11
138.954
21
-98.0316
0
LINE
8
Black
10
138.954
20
-98.0316
11
140.754
21
-98.0316
0
LINE
8
Black
10
140.754
20
-98.0316
11
140.754
21
-98.1316
0
LINE
8
Black
10
140.754
20
-98.1316
11
141.654
21
-98.1316
0
LINE
8
Black
10
141.654
20
-98.1316
11
141.673
21
-98.135
0
LINE
8
Black
10
141.673
20
-98.135
11
141.693
21
-98.1333
0
LINE
8
Black
10
141.693
20
-98.1333
11
141.75
21
-98.1485
0
LINE
8
Black
10
141.75
20
-98.1485
11
141.808
21
-98.1587
0
LINE
8
Black
10
141.808
20
-98.1587
11
141.825
21
-98.1686
0
LINE
8
Black
10
141.825
20
-98.1686
11
141.844
21
-98.1738
0
LINE
8
Black
10
141.844
20
-98.1738
11
141.892
21
-98.2075
0
LINE
8
Black
10
141.892
20
-98.2075
11
141.943
21
-98.2369
0
LINE
8
Black
10
141.943
20
-98.2369
11
141.956
21
-98.252
0
LINE
8
Black
10
141.956
20
-98.252
11
141.972
21
-98.2634
0
LINE
8
Black
10
141.972
20
-98.2634
11
142.457
21
-98.7482
0
LINE
8
Black
10
142.457
20
-98.7482
11
142.468
21
-98.7644
0
LINE
8
Black
10
142.468
20
-98.7644
11
142.483
21
-98.7771
0
LINE
8
Black
10
142.483
20
-98.7771
11
142.513
21
-98.8281
0
LINE
8
Black
10
142.513
20
-98.8281
11
142.546
21
-98.8762
0
LINE
8
Black
10
142.546
20
-98.8762
11
142.551
21
-98.8953
0
LINE
8
Black
10
142.551
20
-98.8953
11
142.561
21
-98.9125
0
LINE
8
Black
10
142.561
20
-98.9125
11
142.571
21
-98.9704
0
LINE
8
Black
10
142.571
20
-98.9704
11
142.587
21
-99.0272
0
LINE
8
Black
10
142.587
20
-99.0272
11
142.585
21
-99.0469
0
LINE
8
Black
10
142.585
20
-99.0469
11
142.588
21
-99.0664
0
LINE
8
Black
10
142.588
20
-99.0664
11
142.588
21
-103.632
0
LINE
8
Black
10
142.588
20
-103.632
11
142.585
21
-103.651
0
LINE
8
Black
10
142.585
20
-103.651
11
142.587
21
-103.671
0
LINE
8
Black
10
142.587
20
-103.671
11
142.571
21
-103.728
0
LINE
8
Black
10
142.571
20
-103.728
11
142.561
21
-103.786
0
LINE
8
Black
10
142.561
20
-103.786
11
142.551
21
-103.803
0
LINE
8
Black
10
142.551
20
-103.803
11
142.546
21
-103.822
0
LINE
8
Black
10
142.546
20
-103.822
11
142.513
21
-103.87
0
LINE
8
Black
10
142.513
20
-103.87
11
142.483
21
-103.921
0
LINE
8
Black
10
142.483
20
-103.921
11
142.468
21
-103.934
0
LINE
8
Black
10
142.468
20
-103.934
11
142.457
21
-103.95
0
LINE
8
Black
10
142.457
20
-103.95
11
140.328
21
-106.079
0
LINE
8
Black
10
140.328
20
-106.079
11
140.328
21
-114.063
0
LINE
8
Black
10
140.328
20
-114.063
11
141.207
21
-114.942
0
LINE
8
Black
10
141.207
20
-114.942
11
142.609
21
-114.942
0
LINE
8
Black
10
142.609
20
-114.942
11
142.609
21
-114.846
0
LINE
8
Black
10
142.609
20
-114.846
11
144.409
21
-114.846
0
LINE
8
Black
10
144.409
20
-114.846
11
144.409
21
-114.946
0
LINE
8
Black
10
144.409
20
-114.946
11
148.809
21
-114.946
0
LINE
8
Black
10
148.809
20
-114.946
11
148.809
21
-114.846
0
LINE
8
Black
10
148.809
20
-114.846
11
150.609
21
-114.846
0
LINE
8
Black
10
150.609
20
-114.846
11
150.609
21
-115.946
0
LINE
8
Black
10
150.609
20
-115.946
11
149.445
21
-115.946
0
LINE
8
Black
10
149.445
20
-115.946
11
147.491
21
-117.901
0
LINE
8
Black
10
147.491
20
-117.901
11
147.491
21
-119.222
0
LINE
8
Black
10
147.491
20
-119.222
11
148.593
21
-120.324
0
LINE
8
Black
10
148.593
20
-120.324
11
168.757
21
-120.324
0
LINE
8
Black
10
168.757
20
-120.324
11
168.886
21
-120.195
0
LINE
8
Black
10
168.886
20
-120.195
11
168.886
21
-117.057
0
LINE
8
Black
10
168.886
20
-117.057
11
167.75
21
-115.921
0
LINE
8
Black
10
167.75
20
-115.921
11
166.586
21
-115.921
0
LINE
8
Black
10
166.586
20
-115.921
11
166.586
21
-115.107
0
LINE
8
Black
10
166.586
20
-115.107
11
165.798
21
-114.319
0
LINE
8
Black
10
165.798
20
-114.319
11
165.786
21
-114.303
0
LINE
8
Black
10
165.786
20
-114.303
11
165.771
21
-114.29
0
LINE
8
Black
10
165.771
20
-114.29
11
165.742
21
-114.239
0
LINE
8
Black
10
165.742
20
-114.239
11
165.708
21
-114.191
0
LINE
8
Black
10
165.708
20
-114.191
11
165.703
21
-114.172
0
LINE
8
Black
10
165.703
20
-114.172
11
165.693
21
-114.155
0
LINE
8
Black
10
165.693
20
-114.155
11
165.683
21
-114.097
0
LINE
8
Black
10
165.683
20
-114.097
11
165.668
21
-114.04
0
LINE
8
Black
10
165.668
20
-114.04
11
165.669
21
-114.02
0
LINE
8
Black
10
165.669
20
-114.02
11
165.666
21
-114.001
0
LINE
8
Black
10
165.666
20
-114.001
11
165.666
21
-107.973
0
LINE
8
Black
10
165.666
20
-107.973
11
159.138
21
-101.445
0
LINE
8
Black
10
159.138
20
-101.445
11
159.127
21
-101.429
0
LINE
8
Black
10
159.127
20
-101.429
11
159.112
21
-101.416
0
LINE
8
Black
10
159.112
20
-101.416
11
159.082
21
-101.365
0
LINE
8
Black
10
159.082
20
-101.365
11
159.049
21
-101.317
0
LINE
8
Black
10
159.049
20
-101.317
11
159.044
21
-101.298
0
LINE
8
Black
10
159.044
20
-101.298
11
159.034
21
-101.281
0
LINE
8
Black
10
159.034
20
-101.281
11
159.024
21
-101.223
0
LINE
8
Black
10
159.024
20
-101.223
11
159.008
21
-101.166
0
LINE
8
Black
10
159.008
20
-101.166
11
159.01
21
-101.146
0
LINE
8
Black
10
159.01
20
-101.146
11
159.007
21
-101.127
0
LINE
8
Black
10
159.007
20
-101.127
11
159.007
21
-100.243
0
LINE
8
Black
10
159.007
20
-100.243
11
157.92
21
-99.157
0
LINE
8
Black
10
157.92
20
-99.157
11
156.757
21
-99.157
0
LINE
8
Black
10
156.757
20
-99.157
11
156.757
21
-99.057
0
LINE
8
Black
10
156.757
20
-99.057
11
155.857
21
-99.057
0
LINE
8
Black
10
155.857
20
-99.057
11
155.274
21
-99.057
0
LINE
8
Black
10
155.274
20
-99.057
11
155.255
21
-99.0536
0
LINE
8
Black
10
155.255
20
-99.0536
11
155.235
21
-99.0553
0
LINE
8
Black
10
155.235
20
-99.0553
11
155.178
21
-99.0401
0
LINE
8
Black
10
155.178
20
-99.0401
11
155.12
21
-99.0299
0
LINE
8
Black
10
155.12
20
-99.0299
11
155.103
21
-99.02
0
LINE
8
Black
10
155.103
20
-99.02
11
155.084
21
-99.0148
0
LINE
8
Black
10
155.084
20
-99.0148
11
155.036
21
-98.9811
0
LINE
8
Black
10
155.036
20
-98.9811
11
154.985
21
-98.9517
0
LINE
8
Black
10
154.985
20
-98.9517
11
154.972
21
-98.9366
0
LINE
8
Black
10
154.972
20
-98.9366
11
154.956
21
-98.9252
0
LINE
8
Black
10
154.956
20
-98.9252
11
144.538
21
-88.507
0
LINE
8
Black
10
144.538
20
-88.507
11
144.527
21
-88.4908
0
LINE
8
Black
10
144.527
20
-88.4908
11
144.511
21
-88.4781
0
LINE
8
Black
10
144.511
20
-88.4781
11
144.482
21
-88.4271
0
LINE
8
Black
10
144.482
20
-88.4271
11
144.448
21
-88.379
0
LINE
8
Black
10
144.448
20
-88.379
11
144.443
21
-88.3599
0
LINE
8
Black
10
144.443
20
-88.3599
11
144.433
21
-88.3427
0
LINE
8
Black
10
144.433
20
-88.3427
11
144.423
21
-88.2848
0
LINE
8
Black
10
144.423
20
-88.2848
11
144.408
21
-88.228
0
LINE
8
Black
10
144.408
20
-88.228
11
144.41
21
-88.2083
0
LINE
8
Black
10
144.41
20
-88.2083
11
144.406
21
-88.1888
0
LINE
8
Black
10
144.406
20
-88.1888
11
144.406
21
-83.8904
0
LINE
8
Black
10
144.406
20
-83.8904
11
142.731
21
-82.2152
0
LINE
8
Black
10
142.731
20
-82.2152
11
141.567
21
-82.2152
0
LINE
8
Black
10
141.567
20
-82.2152
11
141.567
21
-81.1152
0
LINE
8
Black
10
141.567
20
-81.1152
11
143.367
21
-81.1152
0
LINE
8
Black
10
143.367
20
-81.1152
11
143.367
21
-81.2152
0
LINE
8
Black
10
143.367
20
-81.2152
11
147.767
21
-81.2152
0
LINE
8
Black
10
147.767
20
-81.2152
11
147.767
21
-81.1152
0
LINE
8
Black
10
147.767
20
-81.1152
11
149.567
21
-81.1152
0
LINE
8
Black
10
149.567
20
-81.1152
11
149.567
21
-81.2152
0
LINE
8
Black
10
149.567
20
-81.2152
11
165.545
21
-81.2152
0
LINE
8
Black
10
165.545
20
-81.2152
11
165.545
21
-81.039
0
LINE
8
Black
10
165.545
20
-81.039
11
167.345
21
-81.039
0
LINE
8
Black
10
167.345
20
-81.039
11
167.345
21
-81.139
0
LINE
8
Black
10
167.345
20
-81.139
11
171.745
21
-81.139
0
LINE
8
Black
10
171.745
20
-81.139
11
171.745
21
-81.039
0
LINE
8
Black
10
171.745
20
-81.039
11
173.545
21
-81.039
0
LINE
8
Black
10
173.545
20
-81.039
11
173.545
21
-81.5026
0
LINE
8
Black
10
173.545
20
-81.5026
11
178.067
21
-86.025
0
LINE
8
Black
10
178.067
20
-86.025
11
178.079
21
-86.0412
0
LINE
8
Black
10
178.079
20
-86.0412
11
178.094
21
-86.0539
0
LINE
8
Black
10
178.094
20
-86.0539
11
178.123
21
-86.1049
0
LINE
8
Black
10
178.123
20
-86.1049
11
178.157
21
-86.153
0
LINE
8
Black
10
178.157
20
-86.153
11
178.162
21
-86.1721
0
LINE
8
Black
10
178.162
20
-86.1721
11
178.172
21
-86.1893
0
LINE
8
Black
10
178.172
20
-86.1893
11
178.182
21
-86.2472
0
LINE
8
Black
10
178.182
20
-86.2472
11
178.197
21
-86.304
0
LINE
8
Black
10
178.197
20
-86.304
11
178.196
21
-86.3237
0
LINE
8
Black
10
178.196
20
-86.3237
11
178.199
21
-86.3432
0
LINE
8
Black
10
178.199
20
-86.3432
11
178.199
21
-96.0288
0
LINE
8
Black
10
178.199
20
-96.0288
11
180.302
21
-98.1316
0
LINE
8
Black
10
180.302
20
-98.1316
11
180.76
21
-98.1316
0
LINE
8
Black
10
180.76
20
-98.1316
11
180.76
21
-98.0316
0
LINE
8
Black
10
180.76
20
-98.0316
11
182.56
21
-98.0316
0
LINE
8
Black
10
182.56
20
-98.0316
11
182.56
21
-98.1316
0
LINE
8
Black
10
182.56
20
-98.1316
11
186.96
21
-98.1316
0
LINE
8
Black
10
186.96
20
-98.1316
11
186.96
21
-98.0316
0
LINE
8
Black
10
186.96
20
-98.0316
11
188.76
21
-98.0316
0
LINE
8
Black
10
188.76
20
-98.0316
11
188.76
21
-98.4952
0
LINE
8
Black
10
188.76
20
-98.4952
11
190.336
21
-100.071
0
LINE
8
Black
10
190.336
20
-100.071
11
190.347
21
-100.087
0
LINE
8
Black
10
190.347
20
-100.087
11
190.362
21
-100.1
0
LINE
8
Black
10
190.362
20
-100.1
11
190.392
21
-100.151
0
LINE
8
Black
10
190.392
20
-100.151
11
190.425
21
-100.199
0
LINE
8
Black
10
190.425
20
-100.199
11
190.43
21
-100.218
0
LINE
8
Black
10
190.43
20
-100.218
11
190.44
21
-100.235
0
LINE
8
Black
10
190.44
20
-100.235
11
190.45
21
-100.293
0
LINE
8
Black
10
190.45
20
-100.293
11
190.466
21
-100.35
0
LINE
8
Black
10
190.466
20
-100.35
11
190.464
21
-100.37
0
LINE
8
Black
10
190.464
20
-100.37
11
190.467
21
-100.389
0
LINE
8
Black
10
190.467
20
-100.389
11
190.467
21
-103.657
0
LINE
8
Black
10
190.467
20
-103.657
11
190.464
21
-103.677
0
LINE
8
Black
10
190.464
20
-103.677
11
190.466
21
-103.697
0
LINE
8
Black
10
190.466
20
-103.697
11
190.45
21
-103.753
0
LINE
8
Black
10
190.45
20
-103.753
11
190.44
21
-103.811
0
LINE
8
Black
10
190.44
20
-103.811
11
190.43
21
-103.828
0
LINE
8
Black
10
190.43
20
-103.828
11
190.425
21
-103.848
0
LINE
8
Black
10
190.425
20
-103.848
11
190.392
21
-103.896
0
LINE
8
Black
10
190.392
20
-103.896
11
190.362
21
-103.947
0
LINE
8
Black
10
190.362
20
-103.947
11
190.347
21
-103.959
0
LINE
8
Black
10
190.347
20
-103.959
11
190.336
21
-103.976
0
LINE
8
Black
10
190.336
20
-103.976
11
188.08
21
-106.231
0
LINE
8
Black
10
188.08
20
-106.231
11
188.08
21
-114.088
0
LINE
8
Black
10
188.08
20
-114.088
11
188.913
21
-114.921
0
LINE
8
Black
10
188.913
20
-114.921
11
190.615
21
-114.921
0
LINE
8
Black
10
190.615
20
-114.921
11
190.615
21
-114.821
0
LINE
8
Black
10
190.615
20
-114.821
11
192.415
21
-114.821
0
LINE
8
Black
10
192.415
20
-114.821
11
192.415
21
-114.921
0
LINE
8
Black
10
192.415
20
-114.921
11
196.815
21
-114.921
0
LINE
8
Black
10
196.815
20
-114.921
11
196.815
21
-114.821
0
LINE
8
Black
10
196.815
20
-114.821
11
198.615
21
-114.821
0
LINE
8
Black
10
198.615
20
-114.821
11
198.615
21
-115.635
0
LINE
8
Black
10
198.615
20
-115.635
11
200.056
21
-117.076
0
LINE
8
Black
10
200.056
20
-117.076
11
213.58
21
-117.076
0
LINE
8
Black
10
213.58
20
-117.076
11
214.709
21
-115.946
0
LINE
8
Black
10
214.709
20
-115.946
11
214.618
21
-115.946
0
LINE
8
Black
10
214.618
20
-115.946
11
214.618
21
-114.846
0
LINE
8
Black
10
214.618
20
-114.846
11
216.418
21
-114.846
0
LINE
8
Black
10
216.418
20
-114.846
11
216.418
21
-115.946
0
LINE
8
Black
10
216.418
20
-115.946
11
215.931
21
-115.946
0
LINE
8
Black
10
215.931
20
-115.946
11
215.926
21
-115.965
0
LINE
8
Black
10
215.926
20
-115.965
11
215.892
21
-116.013
0
LINE
8
Black
10
215.892
20
-116.013
11
215.863
21
-116.064
0
LINE
8
Black
10
215.863
20
-116.064
11
215.847
21
-116.076
0
LINE
8
Black
10
215.847
20
-116.076
11
215.836
21
-116.093
0
LINE
8
Black
10
215.836
20
-116.093
11
214.085
21
-117.844
0
LINE
8
Black
10
214.085
20
-117.844
11
214.068
21
-117.855
0
LINE
8
Black
10
214.068
20
-117.855
11
214.056
21
-117.871
0
LINE
8
Black
10
214.056
20
-117.871
11
214.005
21
-117.9
0
LINE
8
Black
10
214.005
20
-117.9
11
213.957
21
-117.934
0
LINE
8
Black
10
213.957
20
-117.934
11
213.937
21
-117.939
0
LINE
8
Black
10
213.937
20
-117.939
11
213.92
21
-117.949
0
LINE
8
Black
10
213.92
20
-117.949
11
213.862
21
-117.959
0
LINE
8
Black
10
213.862
20
-117.959
11
213.806
21
-117.974
0
LINE
8
Black
10
213.806
20
-117.974
11
213.786
21
-117.972
0
LINE
8
Black
10
213.786
20
-117.972
11
213.766
21
-117.976
0
LINE
8
Black
10
213.766
20
-117.976
11
199.87
21
-117.976
0
LINE
8
Black
10
199.87
20
-117.976
11
199.85
21
-117.972
0
LINE
8
Black
10
199.85
20
-117.972
11
199.83
21
-117.974
0
LINE
8
Black
10
199.83
20
-117.974
11
199.774
21
-117.959
0
LINE
8
Black
10
199.774
20
-117.959
11
199.716
21
-117.949
0
LINE
8
Black
10
199.716
20
-117.949
11
199.699
21
-117.939
0
LINE
8
Black
10
199.699
20
-117.939
11
199.679
21
-117.934
0
LINE
8
Black
10
199.679
20
-117.934
11
199.631
21
-117.9
0
LINE
8
Black
10
199.631
20
-117.9
11
199.58
21
-117.871
0
LINE
8
Black
10
199.58
20
-117.871
11
199.568
21
-117.855
0
LINE
8
Black
10
199.568
20
-117.855
11
199.551
21
-117.844
0
LINE
8
Black
10
199.551
20
-117.844
11
197.628
21
-115.921
0
LINE
8
Black
10
197.628
20
-115.921
11
196.815
21
-115.921
0
LINE
8
Black
10
196.815
20
-115.921
11
196.815
21
-115.821
0
LINE
8
Black
10
196.815
20
-115.821
11
192.415
21
-115.821
0
LINE
8
Black
10
192.415
20
-115.821
11
192.415
21
-115.921
0
LINE
8
Black
10
192.415
20
-115.921
11
190.615
21
-115.921
0
LINE
8
Black
10
190.615
20
-115.921
11
190.615
21
-115.821
0
LINE
8
Black
10
190.615
20
-115.821
11
188.726
21
-115.821
0
LINE
8
Black
10
188.726
20
-115.821
11
188.707
21
-115.818
0
LINE
8
Black
10
188.707
20
-115.818
11
188.687
21
-115.819
0
LINE
8
Black
10
188.687
20
-115.819
11
188.63
21
-115.804
0
LINE
8
Black
10
188.63
20
-115.804
11
188.572
21
-115.794
0
LINE
8
Black
10
188.572
20
-115.794
11
188.555
21
-115.784
0
LINE
8
Black
10
188.555
20
-115.784
11
188.536
21
-115.779
0
LINE
8
Black
10
188.536
20
-115.779
11
188.488
21
-115.745
0
LINE
8
Black
10
188.488
20
-115.745
11
188.437
21
-115.716
0
LINE
8
Black
10
188.437
20
-115.716
11
188.424
21
-115.701
0
LINE
8
Black
10
188.424
20
-115.701
11
188.408
21
-115.689
0
LINE
8
Black
10
188.408
20
-115.689
11
187.312
21
-114.593
0
LINE
8
Black
10
187.312
20
-114.593
11
187.3
21
-114.577
0
LINE
8
Black
10
187.3
20
-114.577
11
187.285
21
-114.564
0
LINE
8
Black
10
187.285
20
-114.564
11
187.256
21
-114.513
0
LINE
8
Black
10
187.256
20
-114.513
11
187.222
21
-114.465
0
LINE
8
Black
10
187.222
20
-114.465
11
187.217
21
-114.446
0
LINE
8
Black
10
187.217
20
-114.446
11
187.207
21
-114.429
0
LINE
8
Black
10
187.207
20
-114.429
11
187.197
21
-114.371
0
LINE
8
Black
10
187.197
20
-114.371
11
187.182
21
-114.314
0
LINE
8
Black
10
187.182
20
-114.314
11
187.183
21
-114.294
0
LINE
8
Black
10
187.183
20
-114.294
11
187.18
21
-114.275
0
LINE
8
Black
10
187.18
20
-114.275
11
187.18
21
-106.045
0
LINE
8
Black
10
187.18
20
-106.045
11
187.183
21
-106.025
0
LINE
8
Black
10
187.183
20
-106.025
11
187.182
21
-106.006
0
LINE
8
Black
10
187.182
20
-106.006
11
187.197
21
-105.949
0
LINE
8
Black
10
187.197
20
-105.949
11
187.207
21
-105.891
0
LINE
8
Black
10
187.207
20
-105.891
11
187.217
21
-105.874
0
LINE
8
Black
10
187.217
20
-105.874
11
187.222
21
-105.855
0
LINE
8
Black
10
187.222
20
-105.855
11
187.256
21
-105.807
0
LINE
8
Black
10
187.256
20
-105.807
11
187.285
21
-105.756
0
LINE
8
Black
10
187.285
20
-105.756
11
187.3
21
-105.743
0
LINE
8
Black
10
187.3
20
-105.743
11
187.312
21
-105.727
0
LINE
8
Black
10
187.312
20
-105.727
11
189.567
21
-103.471
0
LINE
8
Black
10
189.567
20
-103.471
11
189.567
21
-100.576
0
LINE
8
Black
10
189.567
20
-100.576
11
188.123
21
-99.1316
0
LINE
8
Black
10
188.123
20
-99.1316
11
186.96
21
-99.1316
0
LINE
8
Black
10
186.96
20
-99.1316
11
186.96
21
-99.0316
0
LINE
8
Black
10
186.96
20
-99.0316
11
182.56
21
-99.0316
0
LINE
8
Black
10
182.56
20
-99.0316
11
182.56
21
-99.1316
0
LINE
8
Black
10
182.56
20
-99.1316
11
180.76
21
-99.1316
0
LINE
8
Black
10
180.76
20
-99.1316
11
180.76
21
-99.0316
0
LINE
8
Black
10
180.76
20
-99.0316
11
180.116
21
-99.0316
0
LINE
8
Black
10
180.116
20
-99.0316
11
180.096
21
-99.0282
0
LINE
8
Black
10
180.096
20
-99.0282
11
180.076
21
-99.0299
0
LINE
8
Black
10
180.076
20
-99.0299
11
180.02
21
-99.0147
0
LINE
8
Black
10
180.02
20
-99.0147
11
179.962
21
-99.0045
0
LINE
8
Black
10
179.962
20
-99.0045
11
179.945
21
-98.9946
0
LINE
8
Black
10
179.945
20
-98.9946
11
179.925
21
-98.9894
0
LINE
8
Black
10
179.925
20
-98.9894
11
179.877
21
-98.9557
0
LINE
8
Black
10
179.877
20
-98.9557
11
179.826
21
-98.9263
0
LINE
8
Black
10
179.826
20
-98.9263
11
179.814
21
-98.9112
0
LINE
8
Black
10
179.814
20
-98.9112
11
179.797
21
-98.8998
0
LINE
8
Black
10
179.797
20
-98.8998
11
177.431
21
-96.5334
0
LINE
8
Black
10
177.431
20
-96.5334
11
177.42
21
-96.5172
0
LINE
8
Black
10
177.42
20
-96.5172
11
177.404
21
-96.5045
0
LINE
8
Black
10
177.404
20
-96.5045
11
177.375
21
-96.4535
0
LINE
8
Black
10
177.375
20
-96.4535
11
177.341
21
-96.4054
0
LINE
8
Black
10
177.341
20
-96.4054
11
177.336
21
-96.3863
0
LINE
8
Black
10
177.336
20
-96.3863
11
177.326
21
-96.3691
0
LINE
8
Black
10
177.326
20
-96.3691
11
177.316
21
-96.3112
0
LINE
8
Black
10
177.316
20
-96.3112
11
177.301
21
-96.2544
0
LINE
8
Black
10
177.301
20
-96.2544
11
177.303
21
-96.2347
0
LINE
8
Black
10
177.303
20
-96.2347
11
177.299
21
-96.2152
0
LINE
8
Black
10
177.299
20
-96.2152
11
177.299
21
-86.5296
0
LINE
8
Black
10
177.299
20
-86.5296
11
172.909
21
-82.139
0
LINE
8
Black
10
172.909
20
-82.139
11
171.745
21
-82.139
0
LINE
8
Black
10
171.745
20
-82.139
11
171.745
21
-82.039
0
LINE
8
Black
10
171.745
20
-82.039
11
167.345
21
-82.039
0
LINE
8
Black
10
167.345
20
-82.039
11
167.345
21
-82.139
0
LINE
8
Black
10
167.345
20
-82.139
11
165.545
21
-82.139
0
LINE
8
Black
10
165.545
20
-82.139
11
165.545
21
-82.1152
0
LINE
8
Black
10
165.545
20
-82.1152
11
149.567
21
-82.1152
0
LINE
8
Black
10
149.567
20
-82.1152
11
149.567
21
-82.2152
0
LINE
8
Black
10
149.567
20
-82.2152
11
147.767
21
-82.2152
0
LINE
8
Black
10
147.767
20
-82.2152
11
147.767
21
-82.1152
0
LINE
8
Black
10
147.767
20
-82.1152
11
143.904
21
-82.1152
0
LINE
8
Black
10
143.904
20
-82.1152
11
145.174
21
-83.3858
0
LINE
8
Black
10
145.174
20
-83.3858
11
145.186
21
-83.402
0
LINE
8
Black
10
145.186
20
-83.402
11
145.201
21
-83.4147
0
LINE
8
Black
10
145.201
20
-83.4147
11
145.23
21
-83.4657
0
LINE
8
Black
10
145.23
20
-83.4657
11
145.264
21
-83.5138
0
LINE
8
Black
10
145.264
20
-83.5138
11
145.269
21
-83.5329
0
LINE
8
Black
10
145.269
20
-83.5329
11
145.279
21
-83.5501
0
LINE
8
Black
10
145.279
20
-83.5501
11
145.289
21
-83.608
0
LINE
8
Black
10
145.289
20
-83.608
11
145.304
21
-83.6648
0
LINE
8
Black
10
145.304
20
-83.6648
11
145.303
21
-83.6845
0
LINE
8
Black
10
145.303
20
-83.6845
11
145.306
21
-83.704
0
LINE
8
Black
10
145.306
20
-83.704
11
145.306
21
-88.0024
0
LINE
8
Black
10
145.306
20
-88.0024
11
155.461
21
-98.157
0
LINE
8
Black
10
155.461
20
-98.157
11
155.857
21
-98.157
0
LINE
8
Black
10
155.857
20
-98.157
11
156.757
21
-98.157
0
LINE
8
Black
10
156.757
20
-98.157
11
156.757
21
-98.057
0
LINE
8
Black
10
115.375
20
-119.703
11
114.175
21
-119.703
0
LINE
8
Black
10
114.175
20
-119.703
11
95.4545
21
-119.703
0
LINE
8
Black
10
95.4545
20
-119.703
11
95.435
21
-119.7
0
LINE
8
Black
10
95.435
20
-119.7
11
95.4153
21
-119.701
0
LINE
8
Black
10
95.4153
20
-119.701
11
95.3585
21
-119.686
0
LINE
8
Black
10
95.3585
20
-119.686
11
95.3006
21
-119.676
0
LINE
8
Black
10
95.3006
20
-119.676
11
95.2834
21
-119.666
0
LINE
8
Black
10
95.2834
20
-119.666
11
95.2643
21
-119.661
0
LINE
8
Black
10
95.2643
20
-119.661
11
95.2161
21
-119.627
0
LINE
8
Black
10
95.2161
20
-119.627
11
95.1652
21
-119.598
0
LINE
8
Black
10
95.1652
20
-119.598
11
95.1525
21
-119.583
0
LINE
8
Black
10
95.1525
20
-119.583
11
95.1363
21
-119.571
0
LINE
8
Black
10
95.1363
20
-119.571
11
90.9156
21
-115.351
0
LINE
8
Black
10
90.9156
20
-115.351
11
90.9042
21
-115.334
0
LINE
8
Black
10
90.9042
20
-115.334
11
90.8891
21
-115.322
0
LINE
8
Black
10
90.8891
20
-115.322
11
90.8597
21
-115.271
0
LINE
8
Black
10
90.8597
20
-115.271
11
90.826
21
-115.222
0
LINE
8
Black
10
90.826
20
-115.222
11
90.8208
21
-115.203
0
LINE
8
Black
10
90.8208
20
-115.203
11
90.8109
21
-115.186
0
LINE
8
Black
10
90.8109
20
-115.186
11
90.8007
21
-115.128
0
LINE
8
Black
10
90.8007
20
-115.128
11
90.7855
21
-115.072
0
LINE
8
Black
10
90.7855
20
-115.072
11
90.7872
21
-115.052
0
LINE
8
Black
10
90.7872
20
-115.052
11
90.7838
21
-115.032
0
LINE
8
Black
10
90.7838
20
-115.032
11
90.7838
21
-103.463
0
LINE
8
Black
10
90.7838
20
-103.463
11
88.0758
21
-100.755
0
LINE
8
Black
10
88.0758
20
-100.755
11
84.528
21
-100.755
0
LINE
8
Black
10
84.528
20
-100.755
11
79.2226
21
-100.755
0
LINE
8
Black
10
79.2226
20
-100.755
11
79.2226
21
-101.168
0
LINE
8
Black
10
79.2226
20
-101.168
11
77.1906
21
-101.168
0
LINE
8
Black
10
77.1906
20
-101.168
11
77.1906
21
-99.441
0
LINE
8
Black
10
77.1906
20
-99.441
11
79.2226
21
-99.441
0
LINE
8
Black
10
79.2226
20
-99.441
11
79.2226
21
-99.8546
0
LINE
8
Black
10
79.2226
20
-99.8546
11
84.3416
21
-99.8546
0
LINE
8
Black
10
84.3416
20
-99.8546
11
85.2204
21
-98.9758
0
LINE
8
Black
10
85.2204
20
-98.9758
11
85.2204
21
-98.2622
0
LINE
8
Black
10
85.2204
20
-98.2622
11
84.9204
21
-98.2622
0
LINE
8
Black
10
84.9204
20
-98.2622
11
84.9204
21
-96.9622
0
LINE
8
Black
10
84.9204
20
-96.9622
11
86.4204
21
-96.9622
0
LINE
8
Black
10
86.4204
20
-96.9622
11
86.4204
21
-98.2622
0
LINE
8
Black
10
86.4204
20
-98.2622
11
86.1204
21
-98.2622
0
LINE
8
Black
10
86.1204
20
-98.2622
11
86.1204
21
-99.1622
0
LINE
8
Black
10
86.1204
20
-99.1622
11
86.117
21
-99.1817
0
LINE
8
Black
10
86.117
20
-99.1817
11
86.1187
21
-99.2014
0
LINE
8
Black
10
86.1187
20
-99.2014
11
86.1035
21
-99.2582
0
LINE
8
Black
10
86.1035
20
-99.2582
11
86.0933
21
-99.3161
0
LINE
8
Black
10
86.0933
20
-99.3161
11
86.0834
21
-99.3333
0
LINE
8
Black
10
86.0834
20
-99.3333
11
86.0782
21
-99.3524
0
LINE
8
Black
10
86.0782
20
-99.3524
11
86.0445
21
-99.4005
0
LINE
8
Black
10
86.0445
20
-99.4005
11
86.0151
21
-99.4515
0
LINE
8
Black
10
86.0151
20
-99.4515
11
86
21
-99.4642
0
LINE
8
Black
10
86
20
-99.4642
11
85.9886
21
-99.4804
0
LINE
8
Black
10
85.9886
20
-99.4804
11
85.6144
21
-99.8546
0
LINE
8
Black
10
85.6144
20
-99.8546
11
88.2622
21
-99.8546
0
LINE
8
Black
10
88.2622
20
-99.8546
11
88.2817
21
-99.858
0
LINE
8
Black
10
88.2817
20
-99.858
11
88.3014
21
-99.8563
0
LINE
8
Black
10
88.3014
20
-99.8563
11
88.3582
21
-99.8715
0
LINE
8
Black
10
88.3582
20
-99.8715
11
88.4161
21
-99.8817
0
LINE
8
Black
10
88.4161
20
-99.8817
11
88.4333
21
-99.8916
0
LINE
8
Black
10
88.4333
20
-99.8916
11
88.4524
21
-99.8968
0
LINE
8
Black
10
88.4524
20
-99.8968
11
88.5005
21
-99.9305
0
LINE
8
Black
10
88.5005
20
-99.9305
11
88.5515
21
-99.9599
0
LINE
8
Black
10
88.5515
20
-99.9599
11
88.5642
21
-99.975
0
LINE
8
Black
10
88.5642
20
-99.975
11
88.5804
21
-99.9864
0
LINE
8
Black
10
88.5804
20
-99.9864
11
91.552
21
-102.958
0
LINE
8
Black
10
91.552
20
-102.958
11
91.5633
21
-102.974
0
LINE
8
Black
10
91.5633
20
-102.974
11
91.5785
21
-102.987
0
LINE
8
Black
10
91.5785
20
-102.987
11
91.6079
21
-103.038
0
LINE
8
Black
10
91.6079
20
-103.038
11
91.6416
21
-103.086
0
LINE
8
Black
10
91.6416
20
-103.086
11
91.6468
21
-103.105
0
LINE
8
Black
10
91.6468
20
-103.105
11
91.6567
21
-103.122
0
LINE
8
Black
10
91.6567
20
-103.122
11
91.6669
21
-103.18
0
LINE
8
Black
10
91.6669
20
-103.18
11
91.6821
21
-103.237
0
LINE
8
Black
10
91.6821
20
-103.237
11
91.6804
21
-103.257
0
LINE
8
Black
10
91.6804
20
-103.257
11
91.6838
21
-103.276
0
LINE
8
Black
10
91.6838
20
-103.276
11
91.6838
21
-114.846
0
LINE
8
Black
10
91.6838
20
-114.846
11
95.6409
21
-118.803
0
LINE
8
Black
10
95.6409
20
-118.803
11
114.775
21
-118.803
0
LINE
8
Black
10
114.775
20
-118.803
11
115.375
21
-118.803
0
LINE
8
Black
10
115.375
20
-118.803
11
115.375
21
-119.703
0
LINE
8
Black
10
140.175
20
-118.803
11
141.375
21
-118.803
0
LINE
8
Black
10
141.375
20
-118.803
11
142.609
21
-118.803
0
LINE
8
Black
10
142.609
20
-118.803
11
142.609
21
-118.546
0
LINE
8
Black
10
142.609
20
-118.546
11
144.409
21
-118.546
0
LINE
8
Black
10
144.409
20
-118.546
11
144.409
21
-119.646
0
LINE
8
Black
10
144.409
20
-119.646
11
143.563
21
-119.646
0
LINE
8
Black
10
143.563
20
-119.646
11
143.542
21
-119.661
0
LINE
8
Black
10
143.542
20
-119.661
11
143.523
21
-119.666
0
LINE
8
Black
10
143.523
20
-119.666
11
143.506
21
-119.676
0
LINE
8
Black
10
143.506
20
-119.676
11
143.448
21
-119.686
0
LINE
8
Black
10
143.448
20
-119.686
11
143.391
21
-119.701
0
LINE
8
Black
10
143.391
20
-119.701
11
143.372
21
-119.7
0
LINE
8
Black
10
143.372
20
-119.7
11
143.352
21
-119.703
0
LINE
8
Black
10
143.352
20
-119.703
11
141.375
21
-119.703
0
LINE
8
Black
10
141.375
20
-119.703
11
140.775
21
-119.703
0
LINE
8
Black
10
140.775
20
-119.703
11
140.175
21
-119.703
0
LINE
8
Black
10
140.175
20
-119.703
11
140.175
21
-118.803
0
LINE
8
Black
10
116.375
20
-118.803
11
117.575
21
-118.803
0
LINE
8
Black
10
117.575
20
-118.803
11
118.606
21
-118.803
0
LINE
8
Black
10
118.606
20
-118.803
11
118.606
21
-118.546
0
LINE
8
Black
10
118.606
20
-118.546
11
119.419
21
-118.546
0
LINE
8
Black
10
119.419
20
-118.546
11
122.207
21
-115.759
0
LINE
8
Black
10
122.207
20
-115.759
11
122.207
21
-112.886
0
LINE
8
Black
10
122.207
20
-112.886
11
114.622
21
-105.301
0
LINE
8
Black
10
114.622
20
-105.301
11
106.375
21
-105.301
0
LINE
8
Black
10
106.375
20
-105.301
11
106.356
21
-105.298
0
LINE
8
Black
10
106.356
20
-105.298
11
106.336
21
-105.299
0
LINE
8
Black
10
106.336
20
-105.299
11
106.279
21
-105.284
0
LINE
8
Black
10
106.279
20
-105.284
11
106.221
21
-105.274
0
LINE
8
Black
10
106.221
20
-105.274
11
106.204
21
-105.264
0
LINE
8
Black
10
106.204
20
-105.264
11
106.185
21
-105.259
0
LINE
8
Black
10
106.185
20
-105.259
11
106.137
21
-105.225
0
LINE
8
Black
10
106.137
20
-105.225
11
106.086
21
-105.196
0
LINE
8
Black
10
106.086
20
-105.196
11
106.073
21
-105.181
0
LINE
8
Black
10
106.073
20
-105.181
11
106.057
21
-105.169
0
LINE
8
Black
10
106.057
20
-105.169
11
104.551
21
-103.663
0
LINE
8
Black
10
104.551
20
-103.663
11
104.539
21
-103.647
0
LINE
8
Black
10
104.539
20
-103.647
11
104.524
21
-103.634
0
LINE
8
Black
10
104.524
20
-103.634
11
104.495
21
-103.583
0
LINE
8
Black
10
104.495
20
-103.583
11
104.461
21
-103.535
0
LINE
8
Black
10
104.461
20
-103.535
11
104.456
21
-103.516
0
LINE
8
Black
10
104.456
20
-103.516
11
104.446
21
-103.499
0
LINE
8
Black
10
104.446
20
-103.499
11
104.436
21
-103.441
0
LINE
8
Black
10
104.436
20
-103.441
11
104.421
21
-103.384
0
LINE
8
Black
10
104.421
20
-103.384
11
104.422
21
-103.364
0
LINE
8
Black
10
104.422
20
-103.364
11
104.419
21
-103.345
0
LINE
8
Black
10
104.419
20
-103.345
11
104.419
21
-102.837
0
LINE
8
Black
10
104.419
20
-102.837
11
104.269
21
-102.837
0
LINE
8
Black
10
104.269
20
-102.837
11
104.269
21
-101.937
0
LINE
8
Black
10
104.269
20
-101.937
11
105.469
21
-101.937
0
LINE
8
Black
10
105.469
20
-101.937
11
105.469
21
-102.837
0
LINE
8
Black
10
105.469
20
-102.837
11
105.319
21
-102.837
0
LINE
8
Black
10
105.319
20
-102.837
11
105.319
21
-103.158
0
LINE
8
Black
10
105.319
20
-103.158
11
106.562
21
-104.401
0
LINE
8
Black
10
106.562
20
-104.401
11
114.808
21
-104.401
0
LINE
8
Black
10
114.808
20
-104.401
11
114.828
21
-104.405
0
LINE
8
Black
10
114.828
20
-104.405
11
114.847
21
-104.403
0
LINE
8
Black
10
114.847
20
-104.403
11
114.904
21
-104.418
0
LINE
8
Black
10
114.904
20
-104.418
11
114.962
21
-104.428
0
LINE
8
Black
10
114.962
20
-104.428
11
114.979
21
-104.438
0
LINE
8
Black
10
114.979
20
-104.438
11
114.998
21
-104.443
0
LINE
8
Black
10
114.998
20
-104.443
11
115.046
21
-104.477
0
LINE
8
Black
10
115.046
20
-104.477
11
115.097
21
-104.506
0
LINE
8
Black
10
115.097
20
-104.506
11
115.11
21
-104.522
0
LINE
8
Black
10
115.11
20
-104.522
11
115.126
21
-104.533
0
LINE
8
Black
10
115.126
20
-104.533
11
122.975
21
-112.382
0
LINE
8
Black
10
122.975
20
-112.382
11
122.986
21
-112.398
0
LINE
8
Black
10
122.986
20
-112.398
11
123.001
21
-112.411
0
LINE
8
Black
10
123.001
20
-112.411
11
123.031
21
-112.461
0
LINE
8
Black
10
123.031
20
-112.461
11
123.064
21
-112.51
0
LINE
8
Black
10
123.064
20
-112.51
11
123.07
21
-112.529
0
LINE
8
Black
10
123.07
20
-112.529
11
123.079
21
-112.546
0
LINE
8
Black
10
123.079
20
-112.546
11
123.09
21
-112.604
0
LINE
8
Black
10
123.09
20
-112.604
11
123.105
21
-112.661
0
LINE
8
Black
10
123.105
20
-112.661
11
123.103
21
-112.68
0
LINE
8
Black
10
123.103
20
-112.68
11
123.107
21
-112.7
0
LINE
8
Black
10
123.107
20
-112.7
11
123.107
21
-115.946
0
LINE
8
Black
10
123.107
20
-115.946
11
123.103
21
-115.965
0
LINE
8
Black
10
123.103
20
-115.965
11
123.105
21
-115.985
0
LINE
8
Black
10
123.105
20
-115.985
11
123.09
21
-116.042
0
LINE
8
Black
10
123.09
20
-116.042
11
123.079
21
-116.1
0
LINE
8
Black
10
123.079
20
-116.1
11
123.07
21
-116.117
0
LINE
8
Black
10
123.07
20
-116.117
11
123.064
21
-116.136
0
LINE
8
Black
10
123.064
20
-116.136
11
123.031
21
-116.184
0
LINE
8
Black
10
123.031
20
-116.184
11
123.001
21
-116.235
0
LINE
8
Black
10
123.001
20
-116.235
11
122.986
21
-116.248
0
LINE
8
Black
10
122.986
20
-116.248
11
122.975
21
-116.264
0
LINE
8
Black
10
122.975
20
-116.264
11
120.592
21
-118.646
0
LINE
8
Black
10
120.592
20
-118.646
11
124.806
21
-118.646
0
LINE
8
Black
10
124.806
20
-118.646
11
124.806
21
-118.546
0
LINE
8
Black
10
124.806
20
-118.546
11
126.606
21
-118.546
0
LINE
8
Black
10
126.606
20
-118.546
11
126.606
21
-119.646
0
LINE
8
Black
10
126.606
20
-119.646
11
124.806
21
-119.646
0
LINE
8
Black
10
124.806
20
-119.646
11
124.806
21
-119.546
0
LINE
8
Black
10
124.806
20
-119.546
11
120.406
21
-119.546
0
LINE
8
Black
10
120.406
20
-119.546
11
120.406
21
-119.646
0
LINE
8
Black
10
120.406
20
-119.646
11
119.56
21
-119.646
0
LINE
8
Black
10
119.56
20
-119.646
11
119.539
21
-119.661
0
LINE
8
Black
10
119.539
20
-119.661
11
119.52
21
-119.666
0
LINE
8
Black
10
119.52
20
-119.666
11
119.503
21
-119.676
0
LINE
8
Black
10
119.503
20
-119.676
11
119.445
21
-119.686
0
LINE
8
Black
10
119.445
20
-119.686
11
119.388
21
-119.701
0
LINE
8
Black
10
119.388
20
-119.701
11
119.369
21
-119.7
0
LINE
8
Black
10
119.369
20
-119.7
11
119.349
21
-119.703
0
LINE
8
Black
10
119.349
20
-119.703
11
116.975
21
-119.703
0
LINE
8
Black
10
116.975
20
-119.703
11
116.375
21
-119.703
0
LINE
8
Black
10
116.375
20
-119.703
11
116.375
21
-118.803
0
LINE
8
Black
10
130.243
20
-101.963
11
131.443
21
-101.963
0
LINE
8
Black
10
131.443
20
-101.963
11
132.754
21
-101.963
0
LINE
8
Black
10
132.754
20
-101.963
11
132.754
21
-101.732
0
LINE
8
Black
10
132.754
20
-101.732
11
134.554
21
-101.732
0
LINE
8
Black
10
134.554
20
-101.732
11
134.554
21
-101.832
0
LINE
8
Black
10
134.554
20
-101.832
11
138.954
21
-101.832
0
LINE
8
Black
10
138.954
20
-101.832
11
138.954
21
-101.732
0
LINE
8
Black
10
138.954
20
-101.732
11
140.754
21
-101.732
0
LINE
8
Black
10
140.754
20
-101.732
11
140.754
21
-102.832
0
LINE
8
Black
10
140.754
20
-102.832
11
138.954
21
-102.832
0
LINE
8
Black
10
138.954
20
-102.832
11
138.954
21
-102.732
0
LINE
8
Black
10
138.954
20
-102.732
11
135.09
21
-102.732
0
LINE
8
Black
10
135.09
20
-102.732
11
138.796
21
-106.438
0
LINE
8
Black
10
138.796
20
-106.438
11
138.807
21
-106.454
0
LINE
8
Black
10
138.807
20
-106.454
11
138.823
21
-106.467
0
LINE
8
Black
10
138.823
20
-106.467
11
138.852
21
-106.517
0
LINE
8
Black
10
138.852
20
-106.517
11
138.886
21
-106.566
0
LINE
8
Black
10
138.886
20
-106.566
11
138.891
21
-106.585
0
LINE
8
Black
10
138.891
20
-106.585
11
138.901
21
-106.602
0
LINE
8
Black
10
138.901
20
-106.602
11
138.911
21
-106.66
0
LINE
8
Black
10
138.911
20
-106.66
11
138.926
21
-106.717
0
LINE
8
Black
10
138.926
20
-106.717
11
138.924
21
-106.736
0
LINE
8
Black
10
138.924
20
-106.736
11
138.928
21
-106.756
0
LINE
8
Black
10
138.928
20
-106.756
11
138.928
21
-117.628
0
LINE
8
Black
10
138.928
20
-117.628
11
138.949
21
-117.665
0
LINE
8
Black
10
138.949
20
-117.665
11
138.982
21
-117.713
0
LINE
8
Black
10
138.982
20
-117.713
11
138.988
21
-117.732
0
LINE
8
Black
10
138.988
20
-117.732
11
138.997
21
-117.749
0
LINE
8
Black
10
138.997
20
-117.749
11
139.008
21
-117.807
0
LINE
8
Black
10
139.008
20
-117.807
11
139.023
21
-117.864
0
LINE
8
Black
10
139.023
20
-117.864
11
139.021
21
-117.883
0
LINE
8
Black
10
139.021
20
-117.883
11
139.025
21
-117.903
0
LINE
8
Black
10
139.025
20
-117.903
11
139.025
21
-118.803
0
LINE
8
Black
10
139.025
20
-118.803
11
139.175
21
-118.803
0
LINE
8
Black
10
139.175
20
-118.803
11
139.175
21
-119.703
0
LINE
8
Black
10
139.175
20
-119.703
11
137.975
21
-119.703
0
LINE
8
Black
10
137.975
20
-119.703
11
137.975
21
-118.803
0
LINE
8
Black
10
137.975
20
-118.803
11
138.125
21
-118.803
0
LINE
8
Black
10
138.125
20
-118.803
11
138.125
21
-118.081
0
LINE
8
Black
10
138.125
20
-118.081
11
138.104
21
-118.045
0
LINE
8
Black
10
138.104
20
-118.045
11
138.07
21
-117.996
0
LINE
8
Black
10
138.07
20
-117.996
11
138.065
21
-117.977
0
LINE
8
Black
10
138.065
20
-117.977
11
138.055
21
-117.96
0
LINE
8
Black
10
138.055
20
-117.96
11
138.045
21
-117.902
0
LINE
8
Black
10
138.045
20
-117.902
11
138.03
21
-117.845
0
LINE
8
Black
10
138.03
20
-117.845
11
138.031
21
-117.826
0
LINE
8
Black
10
138.031
20
-117.826
11
138.028
21
-117.806
0
LINE
8
Black
10
138.028
20
-117.806
11
138.028
21
-106.942
0
LINE
8
Black
10
138.028
20
-106.942
11
133.917
21
-102.832
0
LINE
8
Black
10
133.917
20
-102.832
11
133.683
21
-102.832
0
LINE
8
Black
10
133.683
20
-102.832
11
133.676
21
-102.836
0
LINE
8
Black
10
133.676
20
-102.836
11
133.618
21
-102.846
0
LINE
8
Black
10
133.618
20
-102.846
11
133.562
21
-102.861
0
LINE
8
Black
10
133.562
20
-102.861
11
133.542
21
-102.859
0
LINE
8
Black
10
133.542
20
-102.859
11
133.522
21
-102.863
0
LINE
8
Black
10
133.522
20
-102.863
11
130.843
21
-102.863
0
LINE
8
Black
10
130.843
20
-102.863
11
130.243
21
-102.863
0
LINE
8
Black
10
130.243
20
-102.863
11
130.243
21
-101.963
0
LINE
8
Black
10
188.308
20
-118.778
11
189.508
21
-118.778
0
LINE
8
Black
10
189.508
20
-118.778
11
190.615
21
-118.778
0
LINE
8
Black
10
190.615
20
-118.778
11
190.615
21
-118.521
0
LINE
8
Black
10
190.615
20
-118.521
11
192.415
21
-118.521
0
LINE
8
Black
10
192.415
20
-118.521
11
192.415
21
-118.621
0
LINE
8
Black
10
192.415
20
-118.621
11
196.815
21
-118.621
0
LINE
8
Black
10
196.815
20
-118.621
11
196.815
21
-118.521
0
LINE
8
Black
10
196.815
20
-118.521
11
198.615
21
-118.521
0
LINE
8
Black
10
198.615
20
-118.521
11
198.615
21
-118.621
0
LINE
8
Black
10
198.615
20
-118.621
11
210.656
21
-118.621
0
LINE
8
Black
10
210.656
20
-118.621
11
210.675
21
-118.624
0
LINE
8
Black
10
210.675
20
-118.624
11
210.695
21
-118.623
0
LINE
8
Black
10
210.695
20
-118.623
11
210.752
21
-118.638
0
LINE
8
Black
10
210.752
20
-118.638
11
210.81
21
-118.648
0
LINE
8
Black
10
210.81
20
-118.648
11
210.827
21
-118.658
0
LINE
8
Black
10
210.827
20
-118.658
11
210.846
21
-118.663
0
LINE
8
Black
10
210.846
20
-118.663
11
210.894
21
-118.697
0
LINE
8
Black
10
210.894
20
-118.697
11
210.902
21
-118.701
0
LINE
8
Black
10
210.902
20
-118.701
11
211.336
21
-118.701
0
LINE
8
Black
10
211.336
20
-118.701
11
211.336
21
-119.601
0
LINE
8
Black
10
211.336
20
-119.601
11
210.136
21
-119.601
0
LINE
8
Black
10
210.136
20
-119.601
11
210.136
21
-119.521
0
LINE
8
Black
10
210.136
20
-119.521
11
198.615
21
-119.521
0
LINE
8
Black
10
198.615
20
-119.521
11
198.615
21
-119.621
0
LINE
8
Black
10
198.615
20
-119.621
11
196.815
21
-119.621
0
LINE
8
Black
10
196.815
20
-119.621
11
196.815
21
-119.521
0
LINE
8
Black
10
196.815
20
-119.521
11
192.415
21
-119.521
0
LINE
8
Black
10
192.415
20
-119.521
11
192.415
21
-119.621
0
LINE
8
Black
10
192.415
20
-119.621
11
191.569
21
-119.621
0
LINE
8
Black
10
191.569
20
-119.621
11
191.548
21
-119.635
0
LINE
8
Black
10
191.548
20
-119.635
11
191.529
21
-119.641
0
LINE
8
Black
10
191.529
20
-119.641
11
191.512
21
-119.65
0
LINE
8
Black
10
191.512
20
-119.65
11
191.454
21
-119.661
0
LINE
8
Black
10
191.454
20
-119.661
11
191.397
21
-119.676
0
LINE
8
Black
10
191.397
20
-119.676
11
191.378
21
-119.674
0
LINE
8
Black
10
191.378
20
-119.674
11
191.358
21
-119.678
0
LINE
8
Black
10
191.358
20
-119.678
11
189.508
21
-119.678
0
LINE
8
Black
10
189.508
20
-119.678
11
188.908
21
-119.678
0
LINE
8
Black
10
188.908
20
-119.678
11
188.308
21
-119.678
0
LINE
8
Black
10
188.308
20
-119.678
11
188.308
21
-118.778
0
LINE
8
Black
10
178.351
20
-101.937
11
179.551
21
-101.937
0
LINE
8
Black
10
179.551
20
-101.937
11
180.76
21
-101.937
0
LINE
8
Black
10
180.76
20
-101.937
11
180.76
21
-101.732
0
LINE
8
Black
10
180.76
20
-101.732
11
182.56
21
-101.732
0
LINE
8
Black
10
182.56
20
-101.732
11
182.56
21
-101.832
0
LINE
8
Black
10
182.56
20
-101.832
11
186.96
21
-101.832
0
LINE
8
Black
10
186.96
20
-101.832
11
186.96
21
-101.732
0
LINE
8
Black
10
186.96
20
-101.732
11
188.76
21
-101.732
0
LINE
8
Black
10
188.76
20
-101.732
11
188.76
21
-102.832
0
LINE
8
Black
10
188.76
20
-102.832
11
187.596
21
-102.832
0
LINE
8
Black
10
187.596
20
-102.832
11
186.51
21
-103.918
0
LINE
8
Black
10
186.51
20
-103.918
11
186.51
21
-117.043
0
LINE
8
Black
10
186.51
20
-117.043
11
187.026
21
-117.559
0
LINE
8
Black
10
187.026
20
-117.559
11
187.037
21
-117.576
0
LINE
8
Black
10
187.037
20
-117.576
11
187.052
21
-117.588
0
LINE
8
Black
10
187.052
20
-117.588
11
187.082
21
-117.639
0
LINE
8
Black
10
187.082
20
-117.639
11
187.115
21
-117.687
0
LINE
8
Black
10
187.115
20
-117.687
11
187.121
21
-117.707
0
LINE
8
Black
10
187.121
20
-117.707
11
187.13
21
-117.724
0
LINE
8
Black
10
187.13
20
-117.724
11
187.141
21
-117.782
0
LINE
8
Black
10
187.141
20
-117.782
11
187.156
21
-117.838
0
LINE
8
Black
10
187.156
20
-117.838
11
187.154
21
-117.858
0
LINE
8
Black
10
187.154
20
-117.858
11
187.158
21
-117.878
0
LINE
8
Black
10
187.158
20
-117.878
11
187.158
21
-118.778
0
LINE
8
Black
10
187.158
20
-118.778
11
187.308
21
-118.778
0
LINE
8
Black
10
187.308
20
-118.778
11
187.308
21
-119.678
0
LINE
8
Black
10
187.308
20
-119.678
11
186.108
21
-119.678
0
LINE
8
Black
10
186.108
20
-119.678
11
186.108
21
-118.778
0
LINE
8
Black
10
186.108
20
-118.778
11
186.258
21
-118.778
0
LINE
8
Black
10
186.258
20
-118.778
11
186.258
21
-118.064
0
LINE
8
Black
10
186.258
20
-118.064
11
185.741
21
-117.548
0
LINE
8
Black
10
185.741
20
-117.548
11
185.73
21
-117.532
0
LINE
8
Black
10
185.73
20
-117.532
11
185.715
21
-117.519
0
LINE
8
Black
10
185.715
20
-117.519
11
185.685
21
-117.468
0
LINE
8
Black
10
185.685
20
-117.468
11
185.652
21
-117.42
0
LINE
8
Black
10
185.652
20
-117.42
11
185.647
21
-117.401
0
LINE
8
Black
10
185.647
20
-117.401
11
185.637
21
-117.384
0
LINE
8
Black
10
185.637
20
-117.384
11
185.627
21
-117.326
0
LINE
8
Black
10
185.627
20
-117.326
11
185.611
21
-117.269
0
LINE
8
Black
10
185.611
20
-117.269
11
185.613
21
-117.249
0
LINE
8
Black
10
185.613
20
-117.249
11
185.61
21
-117.23
0
LINE
8
Black
10
185.61
20
-117.23
11
185.61
21
-103.732
0
LINE
8
Black
10
185.61
20
-103.732
11
185.613
21
-103.712
0
LINE
8
Black
10
185.613
20
-103.712
11
185.611
21
-103.692
0
LINE
8
Black
10
185.611
20
-103.692
11
185.627
21
-103.636
0
LINE
8
Black
10
185.627
20
-103.636
11
185.637
21
-103.578
0
LINE
8
Black
10
185.637
20
-103.578
11
185.647
21
-103.561
0
LINE
8
Black
10
185.647
20
-103.561
11
185.652
21
-103.541
0
LINE
8
Black
10
185.652
20
-103.541
11
185.685
21
-103.493
0
LINE
8
Black
10
185.685
20
-103.493
11
185.715
21
-103.442
0
LINE
8
Black
10
185.715
20
-103.442
11
185.73
21
-103.43
0
LINE
8
Black
10
185.73
20
-103.43
11
185.741
21
-103.413
0
LINE
8
Black
10
185.741
20
-103.413
11
186.423
21
-102.732
0
LINE
8
Black
10
186.423
20
-102.732
11
182.56
21
-102.732
0
LINE
8
Black
10
182.56
20
-102.732
11
182.56
21
-102.832
0
LINE
8
Black
10
182.56
20
-102.832
11
181.608
21
-102.832
0
LINE
8
Black
10
181.608
20
-102.832
11
181.593
21
-102.836
0
LINE
8
Black
10
181.593
20
-102.836
11
181.573
21
-102.834
0
LINE
8
Black
10
181.573
20
-102.834
11
181.554
21
-102.837
0
LINE
8
Black
10
181.554
20
-102.837
11
178.951
21
-102.837
0
LINE
8
Black
10
178.951
20
-102.837
11
178.351
21
-102.837
0
LINE
8
Black
10
178.351
20
-102.837
11
178.351
21
-101.937
0
LINE
8
Black
10
163.101
20
-119.627
11
161.901
21
-119.627
0
LINE
8
Black
10
161.901
20
-119.627
11
150.609
21
-119.627
0
LINE
8
Black
10
150.609
20
-119.627
11
150.609
21
-119.646
0
LINE
8
Black
10
150.609
20
-119.646
11
148.809
21
-119.646
0
LINE
8
Black
10
148.809
20
-119.646
11
148.809
21
-118.546
0
LINE
8
Black
10
148.809
20
-118.546
11
150.609
21
-118.546
0
LINE
8
Black
10
150.609
20
-118.546
11
150.609
21
-118.727
0
LINE
8
Black
10
150.609
20
-118.727
11
162.501
21
-118.727
0
LINE
8
Black
10
162.501
20
-118.727
11
163.101
21
-118.727
0
LINE
8
Black
10
163.101
20
-118.727
11
163.101
21
-119.627
0
LINE
8
Black
10
212.336
20
-119.601
11
212.336
21
-118.701
0
LINE
8
Black
10
212.336
20
-118.701
11
213.536
21
-118.701
0
LINE
8
Black
10
213.536
20
-118.701
11
214.436
21
-118.701
0
LINE
8
Black
10
214.436
20
-118.701
11
214.618
21
-118.701
0
LINE
8
Black
10
214.618
20
-118.701
11
214.618
21
-118.546
0
LINE
8
Black
10
214.618
20
-118.546
11
215.781
21
-118.546
0
LINE
8
Black
10
215.781
20
-118.546
11
217.177
21
-117.151
0
LINE
8
Black
10
217.177
20
-117.151
11
217.177
21
-113.496
0
LINE
8
Black
10
217.177
20
-113.496
11
209.11
21
-105.428
0
LINE
8
Black
10
209.11
20
-105.428
11
201.868
21
-105.428
0
LINE
8
Black
10
201.868
20
-105.428
11
201.848
21
-105.425
0
LINE
8
Black
10
201.848
20
-105.425
11
201.828
21
-105.426
0
LINE
8
Black
10
201.828
20
-105.426
11
201.772
21
-105.411
0
LINE
8
Black
10
201.772
20
-105.411
11
201.714
21
-105.401
0
LINE
8
Black
10
201.714
20
-105.401
11
201.697
21
-105.391
0
LINE
8
Black
10
201.697
20
-105.391
11
201.677
21
-105.386
0
LINE
8
Black
10
201.677
20
-105.386
11
201.629
21
-105.352
0
LINE
8
Black
10
201.629
20
-105.352
11
201.578
21
-105.323
0
LINE
8
Black
10
201.578
20
-105.323
11
201.566
21
-105.308
0
LINE
8
Black
10
201.566
20
-105.308
11
201.549
21
-105.296
0
LINE
8
Black
10
201.549
20
-105.296
11
200.41
21
-104.157
0
LINE
8
Black
10
200.41
20
-104.157
11
200.399
21
-104.141
0
LINE
8
Black
10
200.399
20
-104.141
11
200.384
21
-104.128
0
LINE
8
Black
10
200.384
20
-104.128
11
200.354
21
-104.077
0
LINE
8
Black
10
200.354
20
-104.077
11
200.321
21
-104.029
0
LINE
8
Black
10
200.321
20
-104.029
11
200.315
21
-104.01
0
LINE
8
Black
10
200.315
20
-104.01
11
200.306
21
-103.993
0
LINE
8
Black
10
200.306
20
-103.993
11
200.295
21
-103.935
0
LINE
8
Black
10
200.295
20
-103.935
11
200.28
21
-103.878
0
LINE
8
Black
10
200.28
20
-103.878
11
200.282
21
-103.858
0
LINE
8
Black
10
200.282
20
-103.858
11
200.278
21
-103.839
0
LINE
8
Black
10
200.278
20
-103.839
11
200.278
21
-102.939
0
LINE
8
Black
10
200.278
20
-102.939
11
200.128
21
-102.939
0
LINE
8
Black
10
200.128
20
-102.939
11
200.128
21
-102.039
0
LINE
8
Black
10
200.128
20
-102.039
11
201.328
21
-102.039
0
LINE
8
Black
10
201.328
20
-102.039
11
201.328
21
-102.939
0
LINE
8
Black
10
201.328
20
-102.939
11
201.178
21
-102.939
0
LINE
8
Black
10
201.178
20
-102.939
11
201.178
21
-103.653
0
LINE
8
Black
10
201.178
20
-103.653
11
202.054
21
-104.528
0
LINE
8
Black
10
202.054
20
-104.528
11
209.296
21
-104.528
0
LINE
8
Black
10
209.296
20
-104.528
11
209.315
21
-104.532
0
LINE
8
Black
10
209.315
20
-104.532
11
209.335
21
-104.53
0
LINE
8
Black
10
209.335
20
-104.53
11
209.392
21
-104.545
0
LINE
8
Black
10
209.392
20
-104.545
11
209.45
21
-104.555
0
LINE
8
Black
10
209.45
20
-104.555
11
209.467
21
-104.565
0
LINE
8
Black
10
209.467
20
-104.565
11
209.486
21
-104.57
0
LINE
8
Black
10
209.486
20
-104.57
11
209.534
21
-104.604
0
LINE
8
Black
10
209.534
20
-104.604
11
209.585
21
-104.633
0
LINE
8
Black
10
209.585
20
-104.633
11
209.598
21
-104.649
0
LINE
8
Black
10
209.598
20
-104.649
11
209.614
21
-104.66
0
LINE
8
Black
10
209.614
20
-104.66
11
217.945
21
-112.991
0
LINE
8
Black
10
217.945
20
-112.991
11
217.957
21
-113.007
0
LINE
8
Black
10
217.957
20
-113.007
11
217.972
21
-113.02
0
LINE
8
Black
10
217.972
20
-113.02
11
218.001
21
-113.071
0
LINE
8
Black
10
218.001
20
-113.071
11
218.035
21
-113.119
0
LINE
8
Black
10
218.035
20
-113.119
11
218.04
21
-113.138
0
LINE
8
Black
10
218.04
20
-113.138
11
218.05
21
-113.155
0
LINE
8
Black
10
218.05
20
-113.155
11
218.06
21
-113.213
0
LINE
8
Black
10
218.06
20
-113.213
11
218.075
21
-113.27
0
LINE
8
Black
10
218.075
20
-113.27
11
218.074
21
-113.29
0
LINE
8
Black
10
218.074
20
-113.29
11
218.077
21
-113.309
0
LINE
8
Black
10
218.077
20
-113.309
11
218.077
21
-117.337
0
LINE
8
Black
10
218.077
20
-117.337
11
218.074
21
-117.356
0
LINE
8
Black
10
218.074
20
-117.356
11
218.075
21
-117.376
0
LINE
8
Black
10
218.075
20
-117.376
11
218.06
21
-117.433
0
LINE
8
Black
10
218.06
20
-117.433
11
218.05
21
-117.491
0
LINE
8
Black
10
218.05
20
-117.491
11
218.04
21
-117.508
0
LINE
8
Black
10
218.04
20
-117.508
11
218.035
21
-117.527
0
LINE
8
Black
10
218.035
20
-117.527
11
218.001
21
-117.575
0
LINE
8
Black
10
218.001
20
-117.575
11
217.972
21
-117.626
0
LINE
8
Black
10
217.972
20
-117.626
11
217.957
21
-117.639
0
LINE
8
Black
10
217.957
20
-117.639
11
217.945
21
-117.655
0
LINE
8
Black
10
217.945
20
-117.655
11
216.954
21
-118.646
0
LINE
8
Black
10
216.954
20
-118.646
11
220.818
21
-118.646
0
LINE
8
Black
10
220.818
20
-118.646
11
220.818
21
-118.546
0
LINE
8
Black
10
220.818
20
-118.546
11
222.618
21
-118.546
0
LINE
8
Black
10
222.618
20
-118.546
11
222.618
21
-119.646
0
LINE
8
Black
10
222.618
20
-119.646
11
220.818
21
-119.646
0
LINE
8
Black
10
220.818
20
-119.646
11
220.818
21
-119.601
0
LINE
8
Black
10
220.818
20
-119.601
11
216.418
21
-119.601
0
LINE
8
Black
10
216.418
20
-119.601
11
216.418
21
-119.646
0
LINE
8
Black
10
216.418
20
-119.646
11
214.618
21
-119.646
0
LINE
8
Black
10
214.618
20
-119.646
11
214.618
21
-119.601
0
LINE
8
Black
10
214.618
20
-119.601
11
214.436
21
-119.601
0
LINE
8
Black
10
214.436
20
-119.601
11
212.936
21
-119.601
0
LINE
8
Black
10
212.936
20
-119.601
11
212.336
21
-119.601
0
LINE
8
Black
10
166.586
20
-118.521
11
168.386
21
-118.521
0
LINE
8
Black
10
168.386
20
-118.521
11
168.386
21
-119.621
0
LINE
8
Black
10
168.386
20
-119.621
11
167.435
21
-119.621
0
LINE
8
Black
10
167.435
20
-119.621
11
167.42
21
-119.625
0
LINE
8
Black
10
167.42
20
-119.625
11
167.4
21
-119.623
0
LINE
8
Black
10
167.4
20
-119.623
11
167.381
21
-119.627
0
LINE
8
Black
10
167.381
20
-119.627
11
164.701
21
-119.627
0
LINE
8
Black
10
164.701
20
-119.627
11
164.101
21
-119.627
0
LINE
8
Black
10
164.101
20
-119.627
11
164.101
21
-118.727
0
LINE
8
Black
10
164.101
20
-118.727
11
164.251
21
-118.727
0
LINE
8
Black
10
164.251
20
-118.727
11
164.251
21
-117.827
0
LINE
8
Black
10
164.251
20
-117.827
11
164.251
21
-108.703
0
LINE
8
Black
10
164.251
20
-108.703
11
160.164
21
-104.615
0
LINE
8
Black
10
160.164
20
-104.615
11
153.15
21
-104.615
0
LINE
8
Black
10
153.15
20
-104.615
11
153.131
21
-104.612
0
LINE
8
Black
10
153.131
20
-104.612
11
153.111
21
-104.614
0
LINE
8
Black
10
153.111
20
-104.614
11
153.054
21
-104.598
0
LINE
8
Black
10
153.054
20
-104.598
11
152.996
21
-104.588
0
LINE
8
Black
10
152.996
20
-104.588
11
152.979
21
-104.578
0
LINE
8
Black
10
152.979
20
-104.578
11
152.96
21
-104.573
0
LINE
8
Black
10
152.96
20
-104.573
11
152.912
21
-104.54
0
LINE
8
Black
10
152.912
20
-104.54
11
152.861
21
-104.51
0
LINE
8
Black
10
152.861
20
-104.51
11
152.848
21
-104.495
0
LINE
8
Black
10
152.848
20
-104.495
11
152.832
21
-104.484
0
LINE
8
Black
10
152.832
20
-104.484
11
152.379
21
-104.03
0
LINE
8
Black
10
152.379
20
-104.03
11
152.367
21
-104.014
0
LINE
8
Black
10
152.367
20
-104.014
11
152.352
21
-104.001
0
LINE
8
Black
10
152.352
20
-104.001
11
152.323
21
-103.95
0
LINE
8
Black
10
152.323
20
-103.95
11
152.289
21
-103.902
0
LINE
8
Black
10
152.289
20
-103.902
11
152.284
21
-103.883
0
LINE
8
Black
10
152.284
20
-103.883
11
152.274
21
-103.866
0
LINE
8
Black
10
152.274
20
-103.866
11
152.264
21
-103.808
0
LINE
8
Black
10
152.264
20
-103.808
11
152.249
21
-103.751
0
LINE
8
Black
10
152.249
20
-103.751
11
152.25
21
-103.731
0
LINE
8
Black
10
152.25
20
-103.731
11
152.247
21
-103.712
0
LINE
8
Black
10
152.247
20
-103.712
11
152.247
21
-102.812
0
LINE
8
Black
10
152.247
20
-102.812
11
152.097
21
-102.812
0
LINE
8
Black
10
152.097
20
-102.812
11
152.097
21
-101.912
0
LINE
8
Black
10
152.097
20
-101.912
11
153.297
21
-101.912
0
LINE
8
Black
10
153.297
20
-101.912
11
153.297
21
-102.812
0
LINE
8
Black
10
153.297
20
-102.812
11
153.147
21
-102.812
0
LINE
8
Black
10
153.147
20
-102.812
11
153.147
21
-103.526
0
LINE
8
Black
10
153.147
20
-103.526
11
153.337
21
-103.715
0
LINE
8
Black
10
153.337
20
-103.715
11
160.35
21
-103.715
0
LINE
8
Black
10
160.35
20
-103.715
11
160.37
21
-103.719
0
LINE
8
Black
10
160.37
20
-103.719
11
160.389
21
-103.717
0
LINE
8
Black
10
160.389
20
-103.717
11
160.446
21
-103.732
0
LINE
8
Black
10
160.446
20
-103.732
11
160.504
21
-103.743
0
LINE
8
Black
10
160.504
20
-103.743
11
160.521
21
-103.752
0
LINE
8
Black
10
160.521
20
-103.752
11
160.54
21
-103.758
0
LINE
8
Black
10
160.54
20
-103.758
11
160.589
21
-103.791
0
LINE
8
Black
10
160.589
20
-103.791
11
160.639
21
-103.821
0
LINE
8
Black
10
160.639
20
-103.821
11
160.652
21
-103.836
0
LINE
8
Black
10
160.652
20
-103.836
11
160.668
21
-103.847
0
LINE
8
Black
10
160.668
20
-103.847
11
165.02
21
-108.198
0
LINE
8
Black
10
165.02
20
-108.198
11
165.031
21
-108.215
0
LINE
8
Black
10
165.031
20
-108.215
11
165.046
21
-108.227
0
LINE
8
Black
10
165.046
20
-108.227
11
165.076
21
-108.278
0
LINE
8
Black
10
165.076
20
-108.278
11
165.109
21
-108.326
0
LINE
8
Black
10
165.109
20
-108.326
11
165.114
21
-108.346
0
LINE
8
Black
10
165.114
20
-108.346
11
165.124
21
-108.363
0
LINE
8
Black
10
165.124
20
-108.363
11
165.134
21
-108.421
0
LINE
8
Black
10
165.134
20
-108.421
11
165.15
21
-108.477
0
LINE
8
Black
10
165.15
20
-108.477
11
165.148
21
-108.497
0
LINE
8
Black
10
165.148
20
-108.497
11
165.151
21
-108.517
0
LINE
8
Black
10
165.151
20
-108.517
11
165.151
21
-117.827
0
LINE
8
Black
10
165.151
20
-117.827
11
165.151
21
-118.727
0
LINE
8
Black
10
165.151
20
-118.727
11
165.301
21
-118.727
0
LINE
8
Black
10
165.301
20
-118.727
11
166.586
21
-118.727
0
LINE
8
Black
10
166.586
20
-118.727
11
166.586
21
-118.521
0
LINE
8
Black
10
174.586
20
-119.621
11
172.786
21
-119.621
0
LINE
8
Black
10
172.786
20
-119.621
11
172.786
21
-118.521
0
LINE
8
Black
10
172.786
20
-118.521
11
174.586
21
-118.521
0
LINE
8
Black
10
174.586
20
-118.521
11
174.586
21
-119.621
0
LINE
8
Black
10
79.2226
20
-94.7746
11
87.5328
21
-94.7746
0
LINE
8
Black
10
87.5328
20
-94.7746
11
87.5523
21
-94.778
0
LINE
8
Black
10
87.5523
20
-94.778
11
87.572
21
-94.7763
0
LINE
8
Black
10
87.572
20
-94.7763
11
87.6288
21
-94.7915
0
LINE
8
Black
10
87.6288
20
-94.7915
11
87.6867
21
-94.8017
0
LINE
8
Black
10
87.6867
20
-94.8017
11
87.7039
21
-94.8116
0
LINE
8
Black
10
87.7039
20
-94.8116
11
87.723
21
-94.8168
0
LINE
8
Black
10
87.723
20
-94.8168
11
87.7711
21
-94.8505
0
LINE
8
Black
10
87.7711
20
-94.8505
11
87.8221
21
-94.8799
0
LINE
8
Black
10
87.8221
20
-94.8799
11
87.8348
21
-94.895
0
LINE
8
Black
10
87.8348
20
-94.895
11
87.851
21
-94.9064
0
LINE
8
Black
10
87.851
20
-94.9064
11
88.6886
21
-95.744
0
LINE
8
Black
10
88.6886
20
-95.744
11
88.7
21
-95.7602
0
LINE
8
Black
10
88.7
20
-95.7602
11
88.7151
21
-95.7729
0
LINE
8
Black
10
88.7151
20
-95.7729
11
88.7445
21
-95.8239
0
LINE
8
Black
10
88.7445
20
-95.8239
11
88.7782
21
-95.872
0
LINE
8
Black
10
88.7782
20
-95.872
11
88.7834
21
-95.8911
0
LINE
8
Black
10
88.7834
20
-95.8911
11
88.7933
21
-95.9083
0
LINE
8
Black
10
88.7933
20
-95.9083
11
88.8035
21
-95.9662
0
LINE
8
Black
10
88.8035
20
-95.9662
11
88.8187
21
-96.023
0
LINE
8
Black
10
88.8187
20
-96.023
11
88.817
21
-96.0427
0
LINE
8
Black
10
88.817
20
-96.0427
11
88.8204
21
-96.0622
0
LINE
8
Black
10
88.8204
20
-96.0622
11
88.8204
21
-96.9622
0
LINE
8
Black
10
88.8204
20
-96.9622
11
89.1204
21
-96.9622
0
LINE
8
Black
10
89.1204
20
-96.9622
11
89.1204
21
-97.6258
0
LINE
8
Black
10
89.1204
20
-97.6258
11
92.952
21
-101.457
0
LINE
8
Black
10
92.952
20
-101.457
11
92.9634
21
-101.474
0
LINE
8
Black
10
92.9634
20
-101.474
11
92.9785
21
-101.486
0
LINE
8
Black
10
92.9785
20
-101.486
11
93.0079
21
-101.537
0
LINE
8
Black
10
93.0079
20
-101.537
11
93.0416
21
-101.585
0
LINE
8
Black
10
93.0416
20
-101.585
11
93.0468
21
-101.605
0
LINE
8
Black
10
93.0468
20
-101.605
11
93.0567
21
-101.622
0
LINE
8
Black
10
93.0567
20
-101.622
11
93.0669
21
-101.68
0
LINE
8
Black
10
93.0669
20
-101.68
11
93.0821
21
-101.736
0
LINE
8
Black
10
93.0821
20
-101.736
11
93.0804
21
-101.756
0
LINE
8
Black
10
93.0804
20
-101.756
11
93.0838
21
-101.776
0
LINE
8
Black
10
93.0838
20
-101.776
11
93.0838
21
-114.266
0
LINE
8
Black
10
93.0838
20
-114.266
11
96.0206
21
-117.203
0
LINE
8
Black
10
96.0206
20
-117.203
11
115.263
21
-117.203
0
LINE
8
Black
10
115.263
20
-117.203
11
117.388
21
-115.078
0
LINE
8
Black
10
117.388
20
-115.078
11
117.404
21
-115.067
0
LINE
8
Black
10
117.404
20
-115.067
11
117.417
21
-115.052
0
LINE
8
Black
10
117.417
20
-115.052
11
117.467
21
-115.022
0
LINE
8
Black
10
117.467
20
-115.022
11
117.516
21
-114.989
0
LINE
8
Black
10
117.516
20
-114.989
11
117.535
21
-114.983
0
LINE
8
Black
10
117.535
20
-114.983
11
117.552
21
-114.974
0
LINE
8
Black
10
117.552
20
-114.974
11
117.61
21
-114.963
0
LINE
8
Black
10
117.61
20
-114.963
11
117.667
21
-114.948
0
LINE
8
Black
10
117.667
20
-114.948
11
117.686
21
-114.95
0
LINE
8
Black
10
117.686
20
-114.95
11
117.706
21
-114.946
0
LINE
8
Black
10
117.706
20
-114.946
11
118.606
21
-114.946
0
LINE
8
Black
10
118.606
20
-114.946
11
118.606
21
-114.846
0
LINE
8
Black
10
118.606
20
-114.846
11
120.406
21
-114.846
0
LINE
8
Black
10
120.406
20
-114.846
11
120.406
21
-115.946
0
LINE
8
Black
10
120.406
20
-115.946
11
118.606
21
-115.946
0
LINE
8
Black
10
118.606
20
-115.946
11
118.606
21
-115.846
0
LINE
8
Black
10
118.606
20
-115.846
11
117.892
21
-115.846
0
LINE
8
Black
10
117.892
20
-115.846
11
115.768
21
-117.971
0
LINE
8
Black
10
115.768
20
-117.971
11
115.751
21
-117.982
0
LINE
8
Black
10
115.751
20
-117.982
11
115.739
21
-117.998
0
LINE
8
Black
10
115.739
20
-117.998
11
115.688
21
-118.027
0
LINE
8
Black
10
115.688
20
-118.027
11
115.64
21
-118.061
0
LINE
8
Black
10
115.64
20
-118.061
11
115.62
21
-118.066
0
LINE
8
Black
10
115.62
20
-118.066
11
115.603
21
-118.076
0
LINE
8
Black
10
115.603
20
-118.076
11
115.545
21
-118.086
0
LINE
8
Black
10
115.545
20
-118.086
11
115.489
21
-118.101
0
LINE
8
Black
10
115.489
20
-118.101
11
115.469
21
-118.099
0
LINE
8
Black
10
115.469
20
-118.099
11
115.449
21
-118.103
0
LINE
8
Black
10
115.449
20
-118.103
11
95.8342
21
-118.103
0
LINE
8
Black
10
95.8342
20
-118.103
11
95.8147
21
-118.099
0
LINE
8
Black
10
95.8147
20
-118.099
11
95.795
21
-118.101
0
LINE
8
Black
10
95.795
20
-118.101
11
95.7382
21
-118.086
0
LINE
8
Black
10
95.7382
20
-118.086
11
95.6803
21
-118.076
0
LINE
8
Black
10
95.6803
20
-118.076
11
95.6631
21
-118.066
0
LINE
8
Black
10
95.6631
20
-118.066
11
95.644
21
-118.061
0
LINE
8
Black
10
95.644
20
-118.061
11
95.5959
21
-118.027
0
LINE
8
Black
10
95.5959
20
-118.027
11
95.5449
21
-117.998
0
LINE
8
Black
10
95.5449
20
-117.998
11
95.5322
21
-117.982
0
LINE
8
Black
10
95.5322
20
-117.982
11
95.516
21
-117.971
0
LINE
8
Black
10
95.516
20
-117.971
11
92.3156
21
-114.771
0
LINE
8
Black
10
92.3156
20
-114.771
11
92.3042
21
-114.754
0
LINE
8
Black
10
92.3042
20
-114.754
11
92.2891
21
-114.742
0
LINE
8
Black
10
92.2891
20
-114.742
11
92.2597
21
-114.691
0
LINE
8
Black
10
92.2597
20
-114.691
11
92.226
21
-114.643
0
LINE
8
Black
10
92.226
20
-114.643
11
92.2208
21
-114.623
0
LINE
8
Black
10
92.2208
20
-114.623
11
92.2109
21
-114.606
0
LINE
8
Black
10
92.2109
20
-114.606
11
92.2007
21
-114.548
0
LINE
8
Black
10
92.2007
20
-114.548
11
92.1855
21
-114.492
0
LINE
8
Black
10
92.1855
20
-114.492
11
92.1872
21
-114.472
0
LINE
8
Black
10
92.1872
20
-114.472
11
92.1838
21
-114.452
0
LINE
8
Black
10
92.1838
20
-114.452
11
92.1838
21
-101.962
0
LINE
8
Black
10
92.1838
20
-101.962
11
88.484
21
-98.2622
0
LINE
8
Black
10
88.484
20
-98.2622
11
87.6204
21
-98.2622
0
LINE
8
Black
10
87.6204
20
-98.2622
11
87.6204
21
-96.9622
0
LINE
8
Black
10
87.6204
20
-96.9622
11
87.9204
21
-96.9622
0
LINE
8
Black
10
87.9204
20
-96.9622
11
87.9204
21
-96.2486
0
LINE
8
Black
10
87.9204
20
-96.2486
11
87.3464
21
-95.6746
0
LINE
8
Black
10
87.3464
20
-95.6746
11
79.2226
21
-95.6746
0
LINE
8
Black
10
79.2226
20
-95.6746
11
79.2226
21
-96.0882
0
LINE
8
Black
10
79.2226
20
-96.0882
11
77.1906
21
-96.0882
0
LINE
8
Black
10
77.1906
20
-96.0882
11
77.1906
21
-94.361
0
LINE
8
Black
10
77.1906
20
-94.361
11
79.2226
21
-94.361
0
LINE
8
Black
10
79.2226
20
-94.361
11
79.2226
21
-94.7746
0
LINE
8
Black
10
191.348
20
-81.2152
11
195.748
21
-81.2152
0
LINE
8
Black
10
195.748
20
-81.2152
11
195.748
21
-81.1152
0
LINE
8
Black
10
195.748
20
-81.1152
11
197.548
21
-81.1152
0
LINE
8
Black
10
197.548
20
-81.1152
11
197.548
21
-81.5788
0
LINE
8
Black
10
197.548
20
-81.5788
11
205.981
21
-90.0116
0
LINE
8
Black
10
205.981
20
-90.0116
11
205.992
21
-90.0278
0
LINE
8
Black
10
205.992
20
-90.0278
11
206.007
21
-90.0405
0
LINE
8
Black
10
206.007
20
-90.0405
11
206.037
21
-90.0915
0
LINE
8
Black
10
206.037
20
-90.0915
11
206.07
21
-90.1396
0
LINE
8
Black
10
206.07
20
-90.1396
11
206.076
21
-90.1587
0
LINE
8
Black
10
206.076
20
-90.1587
11
206.085
21
-90.1759
0
LINE
8
Black
10
206.085
20
-90.1759
11
206.096
21
-90.2338
0
LINE
8
Black
10
206.096
20
-90.2338
11
206.111
21
-90.2906
0
LINE
8
Black
10
206.111
20
-90.2906
11
206.109
21
-90.3103
0
LINE
8
Black
10
206.109
20
-90.3103
11
206.113
21
-90.3298
0
LINE
8
Black
10
206.113
20
-90.3298
11
206.113
21
-97.157
0
LINE
8
Black
10
206.113
20
-97.157
11
206.113
21
-98.057
0
LINE
8
Black
10
206.113
20
-98.057
11
206.563
21
-98.057
0
LINE
8
Black
10
206.563
20
-98.057
11
206.563
21
-98.157
0
LINE
8
Black
10
206.563
20
-98.157
11
210.963
21
-98.157
0
LINE
8
Black
10
210.963
20
-98.157
11
210.963
21
-98.057
0
LINE
8
Black
10
210.963
20
-98.057
11
212.763
21
-98.057
0
LINE
8
Black
10
212.763
20
-98.057
11
212.763
21
-98.1763
0
LINE
8
Black
10
212.763
20
-98.1763
11
212.807
21
-98.1841
0
LINE
8
Black
10
212.807
20
-98.1841
11
212.942
21
-98.2623
0
LINE
8
Black
10
212.942
20
-98.2623
11
213.043
21
-98.382
0
LINE
8
Black
10
213.043
20
-98.382
11
213.096
21
-98.5289
0
LINE
8
Black
10
213.096
20
-98.5289
11
213.096
21
-98.6851
0
LINE
8
Black
10
213.096
20
-98.6851
11
213.051
21
-98.8091
0
LINE
8
Black
10
213.051
20
-98.8091
11
214.209
21
-99.9666
0
LINE
8
Black
10
214.209
20
-99.9666
11
214.22
21
-99.9828
0
LINE
8
Black
10
214.22
20
-99.9828
11
214.235
21
-99.9955
0
LINE
8
Black
10
214.235
20
-99.9955
11
214.265
21
-100.046
0
LINE
8
Black
10
214.265
20
-100.046
11
214.298
21
-100.095
0
LINE
8
Black
10
214.298
20
-100.095
11
214.303
21
-100.114
0
LINE
8
Black
10
214.303
20
-100.114
11
214.313
21
-100.131
0
LINE
8
Black
10
214.313
20
-100.131
11
214.323
21
-100.189
0
LINE
8
Black
10
214.323
20
-100.189
11
214.339
21
-100.246
0
LINE
8
Black
10
214.339
20
-100.246
11
214.337
21
-100.265
0
LINE
8
Black
10
214.337
20
-100.265
11
214.34
21
-100.285
0
LINE
8
Black
10
214.34
20
-100.285
11
214.34
21
-107.404
0
LINE
8
Black
10
214.34
20
-107.404
11
220.236
21
-113.299
0
LINE
8
Black
10
220.236
20
-113.299
11
220.247
21
-113.316
0
LINE
8
Black
10
220.247
20
-113.316
11
220.263
21
-113.328
0
LINE
8
Black
10
220.263
20
-113.328
11
220.292
21
-113.379
0
LINE
8
Black
10
220.292
20
-113.379
11
220.326
21
-113.427
0
LINE
8
Black
10
220.326
20
-113.427
11
220.331
21
-113.446
0
LINE
8
Black
10
220.331
20
-113.446
11
220.341
21
-113.464
0
LINE
8
Black
10
220.341
20
-113.464
11
220.351
21
-113.522
0
LINE
8
Black
10
220.351
20
-113.522
11
220.366
21
-113.578
0
LINE
8
Black
10
220.366
20
-113.578
11
220.364
21
-113.598
0
LINE
8
Black
10
220.364
20
-113.598
11
220.368
21
-113.618
0
LINE
8
Black
10
220.368
20
-113.618
11
220.368
21
-113.76
0
LINE
8
Black
10
220.368
20
-113.76
11
221.454
21
-114.846
0
LINE
8
Black
10
221.454
20
-114.846
11
222.618
21
-114.846
0
LINE
8
Black
10
222.618
20
-114.846
11
222.618
21
-115.946
0
LINE
8
Black
10
222.618
20
-115.946
11
220.818
21
-115.946
0
LINE
8
Black
10
220.818
20
-115.946
11
220.818
21
-115.483
0
LINE
8
Black
10
220.818
20
-115.483
11
219.6
21
-114.265
0
LINE
8
Black
10
219.6
20
-114.265
11
219.588
21
-114.248
0
LINE
8
Black
10
219.588
20
-114.248
11
219.573
21
-114.236
0
LINE
8
Black
10
219.573
20
-114.236
11
219.544
21
-114.185
0
LINE
8
Black
10
219.544
20
-114.185
11
219.51
21
-114.137
0
LINE
8
Black
10
219.51
20
-114.137
11
219.505
21
-114.117
0
LINE
8
Black
10
219.505
20
-114.117
11
219.495
21
-114.1
0
LINE
8
Black
10
219.495
20
-114.1
11
219.485
21
-114.042
0
LINE
8
Black
10
219.485
20
-114.042
11
219.47
21
-113.986
0
LINE
8
Black
10
219.47
20
-113.986
11
219.471
21
-113.966
0
LINE
8
Black
10
219.471
20
-113.966
11
219.468
21
-113.946
0
LINE
8
Black
10
219.468
20
-113.946
11
219.468
21
-113.804
0
LINE
8
Black
10
219.468
20
-113.804
11
213.572
21
-107.908
0
LINE
8
Black
10
213.572
20
-107.908
11
213.561
21
-107.892
0
LINE
8
Black
10
213.561
20
-107.892
11
213.546
21
-107.879
0
LINE
8
Black
10
213.546
20
-107.879
11
213.516
21
-107.828
0
LINE
8
Black
10
213.516
20
-107.828
11
213.483
21
-107.78
0
LINE
8
Black
10
213.483
20
-107.78
11
213.477
21
-107.761
0
LINE
8
Black
10
213.477
20
-107.761
11
213.468
21
-107.744
0
LINE
8
Black
10
213.468
20
-107.744
11
213.457
21
-107.686
0
LINE
8
Black
10
213.457
20
-107.686
11
213.442
21
-107.629
0
LINE
8
Black
10
213.442
20
-107.629
11
213.444
21
-107.61
0
LINE
8
Black
10
213.444
20
-107.61
11
213.44
21
-107.59
0
LINE
8
Black
10
213.44
20
-107.59
11
213.44
21
-100.471
0
LINE
8
Black
10
213.44
20
-100.471
11
212.126
21
-99.157
0
LINE
8
Black
10
212.126
20
-99.157
11
210.963
21
-99.157
0
LINE
8
Black
10
210.963
20
-99.157
11
210.963
21
-99.057
0
LINE
8
Black
10
210.963
20
-99.057
11
206.563
21
-99.057
0
LINE
8
Black
10
206.563
20
-99.057
11
206.563
21
-99.157
0
LINE
8
Black
10
206.563
20
-99.157
11
204.763
21
-99.157
0
LINE
8
Black
10
204.763
20
-99.157
11
204.763
21
-98.057
0
LINE
8
Black
10
204.763
20
-98.057
11
205.213
21
-98.057
0
LINE
8
Black
10
205.213
20
-98.057
11
205.213
21
-97.157
0
LINE
8
Black
10
205.213
20
-97.157
11
205.213
21
-90.5162
0
LINE
8
Black
10
205.213
20
-90.5162
11
196.912
21
-82.2152
0
LINE
8
Black
10
196.912
20
-82.2152
11
195.748
21
-82.2152
0
LINE
8
Black
10
195.748
20
-82.2152
11
195.748
21
-82.1152
0
LINE
8
Black
10
195.748
20
-82.1152
11
191.348
21
-82.1152
0
LINE
8
Black
10
191.348
20
-82.1152
11
191.348
21
-82.2152
0
LINE
8
Black
10
191.348
20
-82.2152
11
189.548
21
-82.2152
0
LINE
8
Black
10
189.548
20
-82.2152
11
189.548
21
-81.1152
0
LINE
8
Black
10
189.548
20
-81.1152
11
191.348
21
-81.1152
0
LINE
8
Black
10
191.348
20
-81.1152
11
191.348
21
-81.2152
0
LINE
8
Black
10
79.2226
20
-106.248
11
77.1906
21
-106.248
0
LINE
8
Black
10
77.1906
20
-106.248
11
77.1906
21
-104.521
0
LINE
8
Black
10
77.1906
20
-104.521
11
79.2226
21
-104.521
0
LINE
8
Black
10
79.2226
20
-104.521
11
79.2226
21
-106.248
0
LINE
8
Black
10
86.4442
20
-103.244
11
85.8442
21
-103.244
0
LINE
8
Black
10
85.8442
20
-103.244
11
85.2442
21
-103.244
0
LINE
8
Black
10
85.2442
20
-103.244
11
79.2226
21
-103.244
0
LINE
8
Black
10
79.2226
20
-103.244
11
79.2226
21
-103.708
0
LINE
8
Black
10
79.2226
20
-103.708
11
77.1906
21
-103.708
0
LINE
8
Black
10
77.1906
20
-103.708
11
77.1906
21
-101.981
0
LINE
8
Black
10
77.1906
20
-101.981
11
79.2226
21
-101.981
0
LINE
8
Black
10
79.2226
20
-101.981
11
79.2226
21
-102.344
0
LINE
8
Black
10
79.2226
20
-102.344
11
85.8442
21
-102.344
0
LINE
8
Black
10
85.8442
20
-102.344
11
86.4442
21
-102.344
0
LINE
8
Black
10
86.4442
20
-102.344
11
86.4442
21
-103.244
0
LINE
8
Black
10
202.328
20
-102.039
11
202.742
21
-102.039
0
LINE
8
Black
10
202.742
20
-102.039
11
202.953
21
-101.828
0
LINE
8
Black
10
202.953
20
-101.828
11
202.953
21
-90.458
0
LINE
8
Black
10
202.953
20
-90.458
11
200.22
21
-87.7244
0
LINE
8
Black
10
200.22
20
-87.7244
11
185.953
21
-87.7244
0
LINE
8
Black
10
185.953
20
-87.7244
11
185.934
21
-87.721
0
LINE
8
Black
10
185.934
20
-87.721
11
185.914
21
-87.7227
0
LINE
8
Black
10
185.914
20
-87.7227
11
185.857
21
-87.7075
0
LINE
8
Black
10
185.857
20
-87.7075
11
185.799
21
-87.6973
0
LINE
8
Black
10
185.799
20
-87.6973
11
185.782
21
-87.6874
0
LINE
8
Black
10
185.782
20
-87.6874
11
185.763
21
-87.6822
0
LINE
8
Black
10
185.763
20
-87.6822
11
185.715
21
-87.6485
0
LINE
8
Black
10
185.715
20
-87.6485
11
185.664
21
-87.6191
0
LINE
8
Black
10
185.664
20
-87.6191
11
185.651
21
-87.604
0
LINE
8
Black
10
185.651
20
-87.604
11
185.635
21
-87.5926
0
LINE
8
Black
10
185.635
20
-87.5926
11
185.17
21
-87.1276
0
LINE
8
Black
10
185.17
20
-87.1276
11
185.159
21
-87.1114
0
LINE
8
Black
10
185.159
20
-87.1114
11
185.144
21
-87.0987
0
LINE
8
Black
10
185.144
20
-87.0987
11
185.114
21
-87.0477
0
LINE
8
Black
10
185.114
20
-87.0477
11
185.081
21
-86.9996
0
LINE
8
Black
10
185.081
20
-86.9996
11
185.075
21
-86.9805
0
LINE
8
Black
10
185.075
20
-86.9805
11
185.066
21
-86.9633
0
LINE
8
Black
10
185.066
20
-86.9633
11
185.055
21
-86.9054
0
LINE
8
Black
10
185.055
20
-86.9054
11
185.04
21
-86.8486
0
LINE
8
Black
10
185.04
20
-86.8486
11
185.042
21
-86.8289
0
LINE
8
Black
10
185.042
20
-86.8289
11
185.038
21
-86.8094
0
LINE
8
Black
10
185.038
20
-86.8094
11
185.038
21
-85.8956
0
LINE
8
Black
10
185.038
20
-85.8956
11
184.888
21
-85.8956
0
LINE
8
Black
10
184.888
20
-85.8956
11
184.888
21
-84.9956
0
LINE
8
Black
10
184.888
20
-84.9956
11
186.088
21
-84.9956
0
LINE
8
Black
10
186.088
20
-84.9956
11
186.088
21
-85.8956
0
LINE
8
Black
10
186.088
20
-85.8956
11
185.938
21
-85.8956
0
LINE
8
Black
10
185.938
20
-85.8956
11
185.938
21
-86.623
0
LINE
8
Black
10
185.938
20
-86.623
11
186.14
21
-86.8244
0
LINE
8
Black
10
186.14
20
-86.8244
11
200.406
21
-86.8244
0
LINE
8
Black
10
200.406
20
-86.8244
11
200.425
21
-86.8278
0
LINE
8
Black
10
200.425
20
-86.8278
11
200.445
21
-86.8261
0
LINE
8
Black
10
200.445
20
-86.8261
11
200.502
21
-86.8413
0
LINE
8
Black
10
200.502
20
-86.8413
11
200.56
21
-86.8515
0
LINE
8
Black
10
200.56
20
-86.8515
11
200.577
21
-86.8614
0
LINE
8
Black
10
200.577
20
-86.8614
11
200.596
21
-86.8666
0
LINE
8
Black
10
200.596
20
-86.8666
11
200.644
21
-86.9003
0
LINE
8
Black
10
200.644
20
-86.9003
11
200.695
21
-86.9297
0
LINE
8
Black
10
200.695
20
-86.9297
11
200.708
21
-86.9448
0
LINE
8
Black
10
200.708
20
-86.9448
11
200.724
21
-86.9562
0
LINE
8
Black
10
200.724
20
-86.9562
11
203.721
21
-89.9534
0
LINE
8
Black
10
203.721
20
-89.9534
11
203.733
21
-89.9696
0
LINE
8
Black
10
203.733
20
-89.9696
11
203.748
21
-89.9823
0
LINE
8
Black
10
203.748
20
-89.9823
11
203.777
21
-90.0333
0
LINE
8
Black
10
203.777
20
-90.0333
11
203.811
21
-90.0814
0
LINE
8
Black
10
203.811
20
-90.0814
11
203.816
21
-90.1005
0
LINE
8
Black
10
203.816
20
-90.1005
11
203.826
21
-90.1177
0
LINE
8
Black
10
203.826
20
-90.1177
11
203.836
21
-90.1756
0
LINE
8
Black
10
203.836
20
-90.1756
11
203.851
21
-90.2324
0
LINE
8
Black
10
203.851
20
-90.2324
11
203.85
21
-90.2521
0
LINE
8
Black
10
203.85
20
-90.2521
11
203.853
21
-90.2716
0
LINE
8
Black
10
203.853
20
-90.2716
11
203.853
21
-102.014
0
LINE
8
Black
10
203.853
20
-102.014
11
203.85
21
-102.034
0
LINE
8
Black
10
203.85
20
-102.034
11
203.85
21
-102.039
0
LINE
8
Black
10
203.85
20
-102.039
11
204.763
21
-102.039
0
LINE
8
Black
10
204.763
20
-102.039
11
204.763
21
-101.757
0
LINE
8
Black
10
204.763
20
-101.757
11
206.563
21
-101.757
0
LINE
8
Black
10
206.563
20
-101.757
11
206.563
21
-101.857
0
LINE
8
Black
10
206.563
20
-101.857
11
210.963
21
-101.857
0
LINE
8
Black
10
210.963
20
-101.857
11
210.963
21
-101.757
0
LINE
8
Black
10
210.963
20
-101.757
11
212.763
21
-101.757
0
LINE
8
Black
10
212.763
20
-101.757
11
212.763
21
-102.857
0
LINE
8
Black
10
212.763
20
-102.857
11
210.963
21
-102.857
0
LINE
8
Black
10
210.963
20
-102.857
11
210.963
21
-102.757
0
LINE
8
Black
10
210.963
20
-102.757
11
206.563
21
-102.757
0
LINE
8
Black
10
206.563
20
-102.757
11
206.563
21
-102.857
0
LINE
8
Black
10
206.563
20
-102.857
11
205.73
21
-102.857
0
LINE
8
Black
10
205.73
20
-102.857
11
205.719
21
-102.863
0
LINE
8
Black
10
205.719
20
-102.863
11
205.671
21
-102.897
0
LINE
8
Black
10
205.671
20
-102.897
11
205.652
21
-102.902
0
LINE
8
Black
10
205.652
20
-102.902
11
205.635
21
-102.912
0
LINE
8
Black
10
205.635
20
-102.912
11
205.577
21
-102.922
0
LINE
8
Black
10
205.577
20
-102.922
11
205.52
21
-102.937
0
LINE
8
Black
10
205.52
20
-102.937
11
205.5
21
-102.936
0
LINE
8
Black
10
205.5
20
-102.936
11
205.481
21
-102.939
0
LINE
8
Black
10
205.481
20
-102.939
11
203.528
21
-102.939
0
LINE
8
Black
10
203.528
20
-102.939
11
202.928
21
-102.939
0
LINE
8
Black
10
202.928
20
-102.939
11
202.328
21
-102.939
0
LINE
8
Black
10
202.328
20
-102.939
11
202.328
21
-102.039
0
LINE
8
Black
10
114.851
20
-85.1226
11
116.051
21
-85.1226
0
LINE
8
Black
10
116.051
20
-85.1226
11
117.564
21
-85.1226
0
LINE
8
Black
10
117.564
20
-85.1226
11
117.564
21
-84.8152
0
LINE
8
Black
10
117.564
20
-84.8152
11
119.364
21
-84.8152
0
LINE
8
Black
10
119.364
20
-84.8152
11
119.364
21
-84.9152
0
LINE
8
Black
10
119.364
20
-84.9152
11
123.764
21
-84.9152
0
LINE
8
Black
10
123.764
20
-84.9152
11
123.764
21
-84.8152
0
LINE
8
Black
10
123.764
20
-84.8152
11
125.564
21
-84.8152
0
LINE
8
Black
10
125.564
20
-84.8152
11
125.564
21
-85.2788
0
LINE
8
Black
10
125.564
20
-85.2788
11
128.788
21
-88.5028
0
LINE
8
Black
10
128.788
20
-88.5028
11
128.8
21
-88.519
0
LINE
8
Black
10
128.8
20
-88.519
11
128.815
21
-88.5317
0
LINE
8
Black
10
128.815
20
-88.5317
11
128.844
21
-88.5826
0
LINE
8
Black
10
128.844
20
-88.5826
11
128.878
21
-88.6308
0
LINE
8
Black
10
128.878
20
-88.6308
11
128.883
21
-88.6499
0
LINE
8
Black
10
128.883
20
-88.6499
11
128.893
21
-88.6671
0
LINE
8
Black
10
128.893
20
-88.6671
11
128.903
21
-88.725
0
LINE
8
Black
10
128.903
20
-88.725
11
128.918
21
-88.7818
0
LINE
8
Black
10
128.918
20
-88.7818
11
128.917
21
-88.8015
0
LINE
8
Black
10
128.917
20
-88.8015
11
128.92
21
-88.821
0
LINE
8
Black
10
128.92
20
-88.821
11
128.92
21
-100.703
0
LINE
8
Black
10
128.92
20
-100.703
11
128.961
21
-100.745
0
LINE
8
Black
10
128.961
20
-100.745
11
128.973
21
-100.761
0
LINE
8
Black
10
128.973
20
-100.761
11
128.988
21
-100.774
0
LINE
8
Black
10
128.988
20
-100.774
11
129.017
21
-100.824
0
LINE
8
Black
10
129.017
20
-100.824
11
129.051
21
-100.873
0
LINE
8
Black
10
129.051
20
-100.873
11
129.056
21
-100.892
0
LINE
8
Black
10
129.056
20
-100.892
11
129.066
21
-100.909
0
LINE
8
Black
10
129.066
20
-100.909
11
129.076
21
-100.967
0
LINE
8
Black
10
129.076
20
-100.967
11
129.091
21
-101.024
0
LINE
8
Black
10
129.091
20
-101.024
11
129.09
21
-101.043
0
LINE
8
Black
10
129.09
20
-101.043
11
129.093
21
-101.063
0
LINE
8
Black
10
129.093
20
-101.063
11
129.093
21
-101.963
0
LINE
8
Black
10
129.093
20
-101.963
11
129.243
21
-101.963
0
LINE
8
Black
10
129.243
20
-101.963
11
129.243
21
-102.863
0
LINE
8
Black
10
129.243
20
-102.863
11
128.043
21
-102.863
0
LINE
8
Black
10
128.043
20
-102.863
11
128.043
21
-101.963
0
LINE
8
Black
10
128.043
20
-101.963
11
128.193
21
-101.963
0
LINE
8
Black
10
128.193
20
-101.963
11
128.193
21
-101.249
0
LINE
8
Black
10
128.193
20
-101.249
11
128.152
21
-101.208
0
LINE
8
Black
10
128.152
20
-101.208
11
128.141
21
-101.192
0
LINE
8
Black
10
128.141
20
-101.192
11
128.125
21
-101.179
0
LINE
8
Black
10
128.125
20
-101.179
11
128.096
21
-101.128
0
LINE
8
Black
10
128.096
20
-101.128
11
128.062
21
-101.08
0
LINE
8
Black
10
128.062
20
-101.08
11
128.057
21
-101.061
0
LINE
8
Black
10
128.057
20
-101.061
11
128.047
21
-101.044
0
LINE
8
Black
10
128.047
20
-101.044
11
128.037
21
-100.986
0
LINE
8
Black
10
128.037
20
-100.986
11
128.022
21
-100.929
0
LINE
8
Black
10
128.022
20
-100.929
11
128.024
21
-100.909
0
LINE
8
Black
10
128.024
20
-100.909
11
128.02
21
-100.89
0
LINE
8
Black
10
128.02
20
-100.89
11
128.02
21
-89.0074
0
LINE
8
Black
10
128.02
20
-89.0074
11
124.928
21
-85.9152
0
LINE
8
Black
10
124.928
20
-85.9152
11
123.764
21
-85.9152
0
LINE
8
Black
10
123.764
20
-85.9152
11
123.764
21
-85.8152
0
LINE
8
Black
10
123.764
20
-85.8152
11
119.364
21
-85.8152
0
LINE
8
Black
10
119.364
20
-85.8152
11
119.364
21
-85.9152
0
LINE
8
Black
10
119.364
20
-85.9152
11
118.548
21
-85.9152
0
LINE
8
Black
10
118.548
20
-85.9152
11
118.546
21
-85.9173
0
LINE
8
Black
10
118.546
20
-85.9173
11
118.495
21
-85.9467
0
LINE
8
Black
10
118.495
20
-85.9467
11
118.447
21
-85.9804
0
LINE
8
Black
10
118.447
20
-85.9804
11
118.428
21
-85.9856
0
LINE
8
Black
10
118.428
20
-85.9856
11
118.411
21
-85.9955
0
LINE
8
Black
10
118.411
20
-85.9955
11
118.353
21
-86.0057
0
LINE
8
Black
10
118.353
20
-86.0057
11
118.296
21
-86.0209
0
LINE
8
Black
10
118.296
20
-86.0209
11
118.276
21
-86.0192
0
LINE
8
Black
10
118.276
20
-86.0192
11
118.257
21
-86.0226
0
LINE
8
Black
10
118.257
20
-86.0226
11
115.451
21
-86.0226
0
LINE
8
Black
10
115.451
20
-86.0226
11
114.851
21
-86.0226
0
LINE
8
Black
10
114.851
20
-86.0226
11
114.851
21
-85.1226
0
LINE
8
Black
10
156.757
20
-101.757
11
158.557
21
-101.757
0
LINE
8
Black
10
158.557
20
-101.757
11
158.557
21
-102.857
0
LINE
8
Black
10
158.557
20
-102.857
11
156.757
21
-102.857
0
LINE
8
Black
10
156.757
20
-102.857
11
156.757
21
-102.812
0
LINE
8
Black
10
156.757
20
-102.812
11
155.497
21
-102.812
0
LINE
8
Black
10
155.497
20
-102.812
11
154.897
21
-102.812
0
LINE
8
Black
10
154.897
20
-102.812
11
154.297
21
-102.812
0
LINE
8
Black
10
154.297
20
-102.812
11
154.297
21
-101.912
0
LINE
8
Black
10
154.297
20
-101.912
11
154.447
21
-101.912
0
LINE
8
Black
10
154.447
20
-101.912
11
154.447
21
-101.012
0
LINE
8
Black
10
154.447
20
-101.012
11
154.447
21
-100.397
0
LINE
8
Black
10
154.447
20
-100.397
11
142.231
21
-88.1816
0
LINE
8
Black
10
142.231
20
-88.1816
11
138.633
21
-88.1816
0
LINE
8
Black
10
138.633
20
-88.1816
11
138.614
21
-88.1782
0
LINE
8
Black
10
138.614
20
-88.1782
11
138.594
21
-88.1799
0
LINE
8
Black
10
138.594
20
-88.1799
11
138.537
21
-88.1647
0
LINE
8
Black
10
138.537
20
-88.1647
11
138.479
21
-88.1545
0
LINE
8
Black
10
138.479
20
-88.1545
11
138.462
21
-88.1446
0
LINE
8
Black
10
138.462
20
-88.1446
11
138.443
21
-88.1394
0
LINE
8
Black
10
138.443
20
-88.1394
11
138.395
21
-88.1057
0
LINE
8
Black
10
138.395
20
-88.1057
11
138.344
21
-88.0763
0
LINE
8
Black
10
138.344
20
-88.0763
11
138.331
21
-88.0612
0
LINE
8
Black
10
138.331
20
-88.0612
11
138.315
21
-88.0498
0
LINE
8
Black
10
138.315
20
-88.0498
11
136.791
21
-86.5258
0
LINE
8
Black
10
136.791
20
-86.5258
11
136.78
21
-86.5096
0
LINE
8
Black
10
136.78
20
-86.5096
11
136.764
21
-86.4969
0
LINE
8
Black
10
136.764
20
-86.4969
11
136.735
21
-86.4459
0
LINE
8
Black
10
136.735
20
-86.4459
11
136.701
21
-86.3978
0
LINE
8
Black
10
136.701
20
-86.3978
11
136.696
21
-86.3787
0
LINE
8
Black
10
136.696
20
-86.3787
11
136.686
21
-86.3615
0
LINE
8
Black
10
136.686
20
-86.3615
11
136.676
21
-86.3036
0
LINE
8
Black
10
136.676
20
-86.3036
11
136.661
21
-86.2468
0
LINE
8
Black
10
136.661
20
-86.2468
11
136.663
21
-86.2271
0
LINE
8
Black
10
136.663
20
-86.2271
11
136.659
21
-86.2076
0
LINE
8
Black
10
136.659
20
-86.2076
11
136.659
21
-86.0232
0
LINE
8
Black
10
136.659
20
-86.0232
11
136.663
21
-86.0037
0
LINE
8
Black
10
136.663
20
-86.0037
11
136.661
21
-85.984
0
LINE
8
Black
10
136.661
20
-85.984
11
136.676
21
-85.9272
0
LINE
8
Black
10
136.676
20
-85.9272
11
136.677
21
-85.9234
0
LINE
8
Black
10
136.677
20
-85.9234
11
136.677
21
-85.8956
0
LINE
8
Black
10
136.677
20
-85.8956
11
136.527
21
-85.8956
0
LINE
8
Black
10
136.527
20
-85.8956
11
136.527
21
-84.9956
0
LINE
8
Black
10
136.527
20
-84.9956
11
137.727
21
-84.9956
0
LINE
8
Black
10
137.727
20
-84.9956
11
137.727
21
-85.8956
0
LINE
8
Black
10
137.727
20
-85.8956
11
137.577
21
-85.8956
0
LINE
8
Black
10
137.577
20
-85.8956
11
137.577
21
-86.0056
0
LINE
8
Black
10
137.577
20
-86.0056
11
137.573
21
-86.0251
0
LINE
8
Black
10
137.573
20
-86.0251
11
137.574
21
-86.0363
0
LINE
8
Black
10
137.574
20
-86.0363
11
138.82
21
-87.2816
0
LINE
8
Black
10
138.82
20
-87.2816
11
142.418
21
-87.2816
0
LINE
8
Black
10
142.418
20
-87.2816
11
142.437
21
-87.285
0
LINE
8
Black
10
142.437
20
-87.285
11
142.457
21
-87.2833
0
LINE
8
Black
10
142.457
20
-87.2833
11
142.514
21
-87.2985
0
LINE
8
Black
10
142.514
20
-87.2985
11
142.572
21
-87.3087
0
LINE
8
Black
10
142.572
20
-87.3087
11
142.589
21
-87.3186
0
LINE
8
Black
10
142.589
20
-87.3186
11
142.608
21
-87.3238
0
LINE
8
Black
10
142.608
20
-87.3238
11
142.656
21
-87.3575
0
LINE
8
Black
10
142.656
20
-87.3575
11
142.707
21
-87.3869
0
LINE
8
Black
10
142.707
20
-87.3869
11
142.72
21
-87.402
0
LINE
8
Black
10
142.72
20
-87.402
11
142.736
21
-87.4134
0
LINE
8
Black
10
142.736
20
-87.4134
11
155.215
21
-99.8926
0
LINE
8
Black
10
155.215
20
-99.8926
11
155.227
21
-99.9088
0
LINE
8
Black
10
155.227
20
-99.9088
11
155.242
21
-99.9215
0
LINE
8
Black
10
155.242
20
-99.9215
11
155.271
21
-99.9725
0
LINE
8
Black
10
155.271
20
-99.9725
11
155.305
21
-100.021
0
LINE
8
Black
10
155.305
20
-100.021
11
155.31
21
-100.04
0
LINE
8
Black
10
155.31
20
-100.04
11
155.32
21
-100.057
0
LINE
8
Black
10
155.32
20
-100.057
11
155.33
21
-100.115
0
LINE
8
Black
10
155.33
20
-100.115
11
155.345
21
-100.172
0
LINE
8
Black
10
155.345
20
-100.172
11
155.344
21
-100.191
0
LINE
8
Black
10
155.344
20
-100.191
11
155.347
21
-100.211
0
LINE
8
Black
10
155.347
20
-100.211
11
155.347
21
-101.012
0
LINE
8
Black
10
155.347
20
-101.012
11
155.347
21
-101.912
0
LINE
8
Black
10
155.347
20
-101.912
11
155.497
21
-101.912
0
LINE
8
Black
10
155.497
20
-101.912
11
156.757
21
-101.912
0
LINE
8
Black
10
156.757
20
-101.912
11
156.757
21
-101.757
0
LINE
8
Black
10
164.757
20
-102.857
11
162.957
21
-102.857
0
LINE
8
Black
10
162.957
20
-102.857
11
162.957
21
-101.757
0
LINE
8
Black
10
162.957
20
-101.757
11
164.757
21
-101.757
0
LINE
8
Black
10
164.757
20
-101.757
11
164.757
21
-102.857
0
LINE
8
Black
10
108.776
20
-101.732
11
110.576
21
-101.732
0
LINE
8
Black
10
110.576
20
-101.732
11
110.576
21
-101.832
0
LINE
8
Black
10
110.576
20
-101.832
11
114.976
21
-101.832
0
LINE
8
Black
10
114.976
20
-101.832
11
114.976
21
-101.732
0
LINE
8
Black
10
114.976
20
-101.732
11
116.776
21
-101.732
0
LINE
8
Black
10
116.776
20
-101.732
11
116.776
21
-102.832
0
LINE
8
Black
10
116.776
20
-102.832
11
114.976
21
-102.832
0
LINE
8
Black
10
114.976
20
-102.832
11
114.976
21
-102.732
0
LINE
8
Black
10
114.976
20
-102.732
11
110.576
21
-102.732
0
LINE
8
Black
10
110.576
20
-102.732
11
110.576
21
-102.832
0
LINE
8
Black
10
110.576
20
-102.832
11
109.625
21
-102.832
0
LINE
8
Black
10
109.625
20
-102.832
11
109.609
21
-102.836
0
LINE
8
Black
10
109.609
20
-102.836
11
109.59
21
-102.834
0
LINE
8
Black
10
109.59
20
-102.834
11
109.57
21
-102.837
0
LINE
8
Black
10
109.57
20
-102.837
11
107.669
21
-102.837
0
LINE
8
Black
10
107.669
20
-102.837
11
107.069
21
-102.837
0
LINE
8
Black
10
107.069
20
-102.837
11
106.469
21
-102.837
0
LINE
8
Black
10
106.469
20
-102.837
11
106.469
21
-101.937
0
LINE
8
Black
10
106.469
20
-101.937
11
106.619
21
-101.937
0
LINE
8
Black
10
106.619
20
-101.937
11
106.619
21
-101.037
0
LINE
8
Black
10
106.619
20
-101.037
11
106.619
21
-92.6248
0
LINE
8
Black
10
106.619
20
-92.6248
11
102.912
21
-88.9182
0
LINE
8
Black
10
102.912
20
-88.9182
11
91.3522
21
-88.9182
0
LINE
8
Black
10
91.3522
20
-88.9182
11
91.3327
21
-88.9148
0
LINE
8
Black
10
91.3327
20
-88.9148
11
91.313
21
-88.9165
0
LINE
8
Black
10
91.313
20
-88.9165
11
91.2562
21
-88.9013
0
LINE
8
Black
10
91.2562
20
-88.9013
11
91.1983
21
-88.8911
0
LINE
8
Black
10
91.1983
20
-88.8911
11
91.1811
21
-88.8812
0
LINE
8
Black
10
91.1811
20
-88.8812
11
91.162
21
-88.876
0
LINE
8
Black
10
91.162
20
-88.876
11
91.1139
21
-88.8423
0
LINE
8
Black
10
91.1139
20
-88.8423
11
91.0629
21
-88.8129
0
LINE
8
Black
10
91.0629
20
-88.8129
11
91.0502
21
-88.7978
0
LINE
8
Black
10
91.0502
20
-88.7978
11
91.034
21
-88.7864
0
LINE
8
Black
10
91.034
20
-88.7864
11
89.3106
21
-87.063
0
LINE
8
Black
10
89.3106
20
-87.063
11
89.2992
21
-87.0468
0
LINE
8
Black
10
89.2992
20
-87.0468
11
89.2841
21
-87.0341
0
LINE
8
Black
10
89.2841
20
-87.0341
11
89.2547
21
-86.9831
0
LINE
8
Black
10
89.2547
20
-86.9831
11
89.221
21
-86.935
0
LINE
8
Black
10
89.221
20
-86.935
11
89.2158
21
-86.9159
0
LINE
8
Black
10
89.2158
20
-86.9159
11
89.2059
21
-86.8987
0
LINE
8
Black
10
89.2059
20
-86.8987
11
89.1957
21
-86.8408
0
LINE
8
Black
10
89.1957
20
-86.8408
11
89.1805
21
-86.784
0
LINE
8
Black
10
89.1805
20
-86.784
11
89.1822
21
-86.7643
0
LINE
8
Black
10
89.1822
20
-86.7643
11
89.1788
21
-86.7448
0
LINE
8
Black
10
89.1788
20
-86.7448
11
89.1788
21
-85.8448
0
LINE
8
Black
10
89.1788
20
-85.8448
11
89.0288
21
-85.8448
0
LINE
8
Black
10
89.0288
20
-85.8448
11
89.0288
21
-84.9448
0
LINE
8
Black
10
89.0288
20
-84.9448
11
90.2288
21
-84.9448
0
LINE
8
Black
10
90.2288
20
-84.9448
11
90.2288
21
-85.8448
0
LINE
8
Black
10
90.2288
20
-85.8448
11
90.0788
21
-85.8448
0
LINE
8
Black
10
90.0788
20
-85.8448
11
90.0788
21
-86.5584
0
LINE
8
Black
10
90.0788
20
-86.5584
11
91.5386
21
-88.0182
0
LINE
8
Black
10
91.5386
20
-88.0182
11
103.099
21
-88.0182
0
LINE
8
Black
10
103.099
20
-88.0182
11
103.118
21
-88.0216
0
LINE
8
Black
10
103.118
20
-88.0216
11
103.138
21
-88.0199
0
LINE
8
Black
10
103.138
20
-88.0199
11
103.195
21
-88.0351
0
LINE
8
Black
10
103.195
20
-88.0351
11
103.253
21
-88.0453
0
LINE
8
Black
10
103.253
20
-88.0453
11
103.27
21
-88.0552
0
LINE
8
Black
10
103.27
20
-88.0552
11
103.289
21
-88.0604
0
LINE
8
Black
10
103.289
20
-88.0604
11
103.337
21
-88.0941
0
LINE
8
Black
10
103.337
20
-88.0941
11
103.388
21
-88.1235
0
LINE
8
Black
10
103.388
20
-88.1235
11
103.401
21
-88.1386
0
LINE
8
Black
10
103.401
20
-88.1386
11
103.417
21
-88.15
0
LINE
8
Black
10
103.417
20
-88.15
11
107.387
21
-92.1202
0
LINE
8
Black
10
107.387
20
-92.1202
11
107.398
21
-92.1364
0
LINE
8
Black
10
107.398
20
-92.1364
11
107.414
21
-92.1491
0
LINE
8
Black
10
107.414
20
-92.1491
11
107.443
21
-92.2001
0
LINE
8
Black
10
107.443
20
-92.2001
11
107.477
21
-92.2482
0
LINE
8
Black
10
107.477
20
-92.2482
11
107.482
21
-92.2673
0
LINE
8
Black
10
107.482
20
-92.2673
11
107.492
21
-92.2845
0
LINE
8
Black
10
107.492
20
-92.2845
11
107.502
21
-92.3424
0
LINE
8
Black
10
107.502
20
-92.3424
11
107.517
21
-92.3992
0
LINE
8
Black
10
107.517
20
-92.3992
11
107.515
21
-92.4189
0
LINE
8
Black
10
107.515
20
-92.4189
11
107.519
21
-92.4384
0
LINE
8
Black
10
107.519
20
-92.4384
11
107.519
21
-101.037
0
LINE
8
Black
10
107.519
20
-101.037
11
107.519
21
-101.937
0
LINE
8
Black
10
107.519
20
-101.937
11
107.669
21
-101.937
0
LINE
8
Black
10
107.669
20
-101.937
11
108.776
21
-101.937
0
LINE
8
Black
10
108.776
20
-101.937
11
108.776
21
-101.732
0
LINE
8
Black
10
163.263
20
-84.894
11
164.463
21
-84.894
0
LINE
8
Black
10
164.463
20
-84.894
11
165.545
21
-84.894
0
LINE
8
Black
10
165.545
20
-84.894
11
165.545
21
-84.739
0
LINE
8
Black
10
165.545
20
-84.739
11
167.345
21
-84.739
0
LINE
8
Black
10
167.345
20
-84.739
11
167.345
21
-84.839
0
LINE
8
Black
10
167.345
20
-84.839
11
171.745
21
-84.839
0
LINE
8
Black
10
171.745
20
-84.839
11
171.745
21
-84.739
0
LINE
8
Black
10
171.745
20
-84.739
11
173.545
21
-84.739
0
LINE
8
Black
10
173.545
20
-84.739
11
173.545
21
-85.2026
0
LINE
8
Black
10
173.545
20
-85.2026
11
176.667
21
-88.325
0
LINE
8
Black
10
176.667
20
-88.325
11
176.679
21
-88.3412
0
LINE
8
Black
10
176.679
20
-88.3412
11
176.694
21
-88.3539
0
LINE
8
Black
10
176.694
20
-88.3539
11
176.723
21
-88.4048
0
LINE
8
Black
10
176.723
20
-88.4048
11
176.757
21
-88.453
0
LINE
8
Black
10
176.757
20
-88.453
11
176.762
21
-88.4721
0
LINE
8
Black
10
176.762
20
-88.4721
11
176.772
21
-88.4893
0
LINE
8
Black
10
176.772
20
-88.4893
11
176.782
21
-88.5472
0
LINE
8
Black
10
176.782
20
-88.5472
11
176.797
21
-88.604
0
LINE
8
Black
10
176.797
20
-88.604
11
176.796
21
-88.6237
0
LINE
8
Black
10
176.796
20
-88.6237
11
176.799
21
-88.6432
0
LINE
8
Black
10
176.799
20
-88.6432
11
176.799
21
-100.449
0
LINE
8
Black
10
176.799
20
-100.449
11
177.069
21
-100.719
0
LINE
8
Black
10
177.069
20
-100.719
11
177.08
21
-100.735
0
LINE
8
Black
10
177.08
20
-100.735
11
177.096
21
-100.748
0
LINE
8
Black
10
177.096
20
-100.748
11
177.125
21
-100.799
0
LINE
8
Black
10
177.125
20
-100.799
11
177.159
21
-100.847
0
LINE
8
Black
10
177.159
20
-100.847
11
177.164
21
-100.866
0
LINE
8
Black
10
177.164
20
-100.866
11
177.174
21
-100.883
0
LINE
8
Black
10
177.174
20
-100.883
11
177.184
21
-100.941
0
LINE
8
Black
10
177.184
20
-100.941
11
177.199
21
-100.998
0
LINE
8
Black
10
177.199
20
-100.998
11
177.197
21
-101.018
0
LINE
8
Black
10
177.197
20
-101.018
11
177.201
21
-101.037
0
LINE
8
Black
10
177.201
20
-101.037
11
177.201
21
-101.937
0
LINE
8
Black
10
177.201
20
-101.937
11
177.351
21
-101.937
0
LINE
8
Black
10
177.351
20
-101.937
11
177.351
21
-102.837
0
LINE
8
Black
10
177.351
20
-102.837
11
176.151
21
-102.837
0
LINE
8
Black
10
176.151
20
-102.837
11
176.151
21
-101.937
0
LINE
8
Black
10
176.151
20
-101.937
11
176.301
21
-101.937
0
LINE
8
Black
10
176.301
20
-101.937
11
176.301
21
-101.224
0
LINE
8
Black
10
176.301
20
-101.224
11
176.031
21
-100.954
0
LINE
8
Black
10
176.031
20
-100.954
11
176.02
21
-100.938
0
LINE
8
Black
10
176.02
20
-100.938
11
176.004
21
-100.925
0
LINE
8
Black
10
176.004
20
-100.925
11
175.975
21
-100.874
0
LINE
8
Black
10
175.975
20
-100.874
11
175.941
21
-100.826
0
LINE
8
Black
10
175.941
20
-100.826
11
175.936
21
-100.807
0
LINE
8
Black
10
175.936
20
-100.807
11
175.926
21
-100.79
0
LINE
8
Black
10
175.926
20
-100.79
11
175.916
21
-100.732
0
LINE
8
Black
10
175.916
20
-100.732
11
175.901
21
-100.675
0
LINE
8
Black
10
175.901
20
-100.675
11
175.903
21
-100.655
0
LINE
8
Black
10
175.903
20
-100.655
11
175.899
21
-100.636
0
LINE
8
Black
10
175.899
20
-100.636
11
175.899
21
-88.8296
0
LINE
8
Black
10
175.899
20
-88.8296
11
172.909
21
-85.839
0
LINE
8
Black
10
172.909
20
-85.839
11
171.745
21
-85.839
0
LINE
8
Black
10
171.745
20
-85.839
11
171.745
21
-85.739
0
LINE
8
Black
10
171.745
20
-85.739
11
167.345
21
-85.739
0
LINE
8
Black
10
167.345
20
-85.739
11
167.345
21
-85.839
0
LINE
8
Black
10
167.345
20
-85.839
11
165.545
21
-85.839
0
LINE
8
Black
10
165.545
20
-85.839
11
165.545
21
-85.794
0
LINE
8
Black
10
165.545
20
-85.794
11
163.863
21
-85.794
0
LINE
8
Black
10
163.863
20
-85.794
11
163.263
21
-85.794
0
LINE
8
Black
10
163.263
20
-85.794
11
163.263
21
-84.894
0
LINE
8
Black
10
79.2226
20
-98.6282
11
77.1906
21
-98.6282
0
LINE
8
Black
10
77.1906
20
-98.6282
11
77.1906
21
-96.901
0
LINE
8
Black
10
77.1906
20
-96.901
11
79.2226
21
-96.901
0
LINE
8
Black
10
79.2226
20
-96.901
11
79.2226
21
-98.6282
0
LINE
8
Black
10
113.851
20
-86.0226
11
113.251
21
-86.0226
0
LINE
8
Black
10
113.251
20
-86.0226
11
112.651
21
-86.0226
0
LINE
8
Black
10
112.651
20
-86.0226
11
100.894
21
-86.0226
0
LINE
8
Black
10
100.894
20
-86.0226
11
100.875
21
-86.0192
0
LINE
8
Black
10
100.875
20
-86.0192
11
100.855
21
-86.0209
0
LINE
8
Black
10
100.855
20
-86.0209
11
100.798
21
-86.0057
0
LINE
8
Black
10
100.798
20
-86.0057
11
100.74
21
-85.9955
0
LINE
8
Black
10
100.74
20
-85.9955
11
100.723
21
-85.9856
0
LINE
8
Black
10
100.723
20
-85.9856
11
100.704
21
-85.9804
0
LINE
8
Black
10
100.704
20
-85.9804
11
100.656
21
-85.9467
0
LINE
8
Black
10
100.656
20
-85.9467
11
100.605
21
-85.9173
0
LINE
8
Black
10
100.605
20
-85.9173
11
100.592
21
-85.9022
0
LINE
8
Black
10
100.592
20
-85.9022
11
100.576
21
-85.8908
0
LINE
8
Black
10
100.576
20
-85.8908
11
100.575
21
-85.8898
0
LINE
8
Black
10
100.575
20
-85.8898
11
99.7614
21
-85.8898
0
LINE
8
Black
10
99.7614
20
-85.8898
11
99.7614
21
-84.7898
0
LINE
8
Black
10
99.7614
20
-84.7898
11
101.561
21
-84.7898
0
LINE
8
Black
10
101.561
20
-84.7898
11
101.561
21
-85.1226
0
LINE
8
Black
10
101.561
20
-85.1226
11
113.251
21
-85.1226
0
LINE
8
Black
10
113.251
20
-85.1226
11
113.851
21
-85.1226
0
LINE
8
Black
10
113.851
20
-85.1226
11
113.851
21
-86.0226
0
LINE
8
Black
10
138.727
20
-84.9956
11
139.927
21
-84.9956
0
LINE
8
Black
10
139.927
20
-84.9956
11
141.567
21
-84.9956
0
LINE
8
Black
10
141.567
20
-84.9956
11
141.567
21
-84.8152
0
LINE
8
Black
10
141.567
20
-84.8152
11
143.367
21
-84.8152
0
LINE
8
Black
10
143.367
20
-84.8152
11
143.367
21
-85.9152
0
LINE
8
Black
10
143.367
20
-85.9152
11
141.567
21
-85.9152
0
LINE
8
Black
10
141.567
20
-85.9152
11
141.567
21
-85.8956
0
LINE
8
Black
10
141.567
20
-85.8956
11
139.927
21
-85.8956
0
LINE
8
Black
10
139.927
20
-85.8956
11
139.327
21
-85.8956
0
LINE
8
Black
10
139.327
20
-85.8956
11
138.727
21
-85.8956
0
LINE
8
Black
10
138.727
20
-85.8956
11
138.727
21
-84.9956
0
LINE
8
Black
10
162.263
20
-85.794
11
161.663
21
-85.794
0
LINE
8
Black
10
161.663
20
-85.794
11
161.063
21
-85.794
0
LINE
8
Black
10
161.063
20
-85.794
11
149.567
21
-85.794
0
LINE
8
Black
10
149.567
20
-85.794
11
149.567
21
-85.9152
0
LINE
8
Black
10
149.567
20
-85.9152
11
147.767
21
-85.9152
0
LINE
8
Black
10
147.767
20
-85.9152
11
147.767
21
-84.8152
0
LINE
8
Black
10
147.767
20
-84.8152
11
149.567
21
-84.8152
0
LINE
8
Black
10
149.567
20
-84.8152
11
149.567
21
-84.894
0
LINE
8
Black
10
149.567
20
-84.894
11
161.663
21
-84.894
0
LINE
8
Black
10
161.663
20
-84.894
11
162.263
21
-84.894
0
LINE
8
Black
10
162.263
20
-84.894
11
162.263
21
-85.794
0
LINE
8
Black
10
91.2288
20
-84.9448
11
92.4288
21
-84.9448
0
LINE
8
Black
10
92.4288
20
-84.9448
11
93.5614
21
-84.9448
0
LINE
8
Black
10
93.5614
20
-84.9448
11
93.5614
21
-84.7898
0
LINE
8
Black
10
93.5614
20
-84.7898
11
95.3614
21
-84.7898
0
LINE
8
Black
10
95.3614
20
-84.7898
11
95.3614
21
-85.8898
0
LINE
8
Black
10
95.3614
20
-85.8898
11
93.5614
21
-85.8898
0
LINE
8
Black
10
93.5614
20
-85.8898
11
93.5614
21
-85.8448
0
LINE
8
Black
10
93.5614
20
-85.8448
11
92.4288
21
-85.8448
0
LINE
8
Black
10
92.4288
20
-85.8448
11
91.8288
21
-85.8448
0
LINE
8
Black
10
91.8288
20
-85.8448
11
91.2288
21
-85.8448
0
LINE
8
Black
10
91.2288
20
-85.8448
11
91.2288
21
-84.9448
  0
ENDSEC
  0
EOF
