G04 #@! TF.FileFunction,Profile,NP*
%FSLAX46Y46*%
G04 Gerber Fmt 4.6, Leading zero omitted, Abs format (unit mm)*
G04 Created by KiCad (PCBNEW 4.0.4-stable) date 12/18/16 15:48:06*
%MOMM*%
%LPD*%
G01*
G04 APERTURE LIST*
%ADD10C,0.100000*%
G04 APERTURE END LIST*
D10*
X121754900Y-98428177D02*
X121708924Y-98089841D01*
X129774562Y-121479229D02*
X129802049Y-121436271D01*
X129768676Y-112598076D02*
X129539175Y-112299910D01*
X129967286Y-121121156D02*
X130077973Y-120765980D01*
X121832511Y-104227471D02*
X121815211Y-104161406D01*
X122250919Y-105002285D02*
X122206923Y-104950053D01*
X130012330Y-113081371D02*
X129990807Y-113023108D01*
X122296673Y-105052984D02*
X122250919Y-105002285D01*
X130113455Y-113492582D02*
X130103170Y-113436777D01*
X129990807Y-113023108D02*
X129967286Y-112965622D01*
X130136877Y-113718208D02*
X130133693Y-113661552D01*
X130136877Y-120368570D02*
X130139478Y-120312756D01*
X121982575Y-104608007D02*
X121952196Y-104546844D01*
X130140345Y-113829889D02*
X130139478Y-113774021D01*
X121758345Y-103687877D02*
X121758345Y-98539489D01*
X121787426Y-104027698D02*
X121776973Y-103960211D01*
X121759511Y-103756160D02*
X121758345Y-103687877D01*
X122344132Y-105102091D02*
X122296673Y-105052984D01*
X129481137Y-112239097D02*
X122344132Y-105102091D01*
X121776973Y-103960211D02*
X121768831Y-103892406D01*
X121923923Y-104484680D02*
X121897788Y-104421586D01*
X130128724Y-113605026D02*
X130121975Y-113548684D01*
X130091131Y-113381325D02*
X130077973Y-113320798D01*
X121897788Y-104421586D02*
X121873823Y-104357637D01*
X129737459Y-121536666D02*
X129774562Y-121479229D01*
X129802049Y-121436271D02*
X129967286Y-121121156D01*
X121758345Y-98539489D02*
X121757484Y-98483806D01*
X121768831Y-103892406D02*
X121763008Y-103824362D01*
X130031830Y-113140343D02*
X130012330Y-113081371D01*
X122164735Y-104896350D02*
X122124405Y-104841238D01*
X130049284Y-113199952D02*
X130031830Y-113140343D01*
X122124405Y-104841238D02*
X122085981Y-104784781D01*
X130103170Y-113436777D02*
X130091131Y-113381325D01*
X130139478Y-113774021D02*
X130136877Y-113718208D01*
X121852056Y-104292906D02*
X121832511Y-104227471D01*
X130133693Y-113661552D02*
X130128724Y-113605026D01*
X121952196Y-104546844D02*
X121923923Y-104484680D01*
X129539175Y-112299910D02*
X129481137Y-112239097D01*
X130064671Y-113260127D02*
X130049284Y-113199952D01*
X122085981Y-104784781D02*
X122049506Y-104727045D01*
X121800177Y-104094789D02*
X121787426Y-104027698D01*
X122049506Y-104727045D02*
X122015024Y-104668098D01*
X129967286Y-112965622D02*
X129801834Y-112650181D01*
X121631346Y-97793983D02*
X121610295Y-97736646D01*
X121757484Y-98483806D02*
X121754900Y-98428177D01*
X121650439Y-97852002D02*
X121631346Y-97793983D01*
X129698414Y-121592800D02*
X129737459Y-121536666D01*
X130121975Y-113548684D02*
X130113455Y-113492582D01*
X121667553Y-97910634D02*
X121650439Y-97852002D01*
X121682668Y-97969814D02*
X121667553Y-97910634D01*
X121873823Y-104357637D02*
X121852056Y-104292906D01*
X130077973Y-113320798D02*
X130064671Y-113260127D01*
X121695766Y-98029472D02*
X121682668Y-97969814D01*
X121708924Y-98089841D02*
X121695766Y-98029472D01*
X121763008Y-103824362D02*
X121759511Y-103756160D01*
X121815211Y-104161406D02*
X121800177Y-104094789D01*
X129801834Y-112650181D02*
X129768676Y-112598076D01*
X130140345Y-120256889D02*
X130140345Y-113829889D01*
X130077973Y-120765980D02*
X130091131Y-120705453D01*
X130091131Y-120705453D02*
X130136877Y-120368570D01*
X130139478Y-120312756D02*
X130140345Y-120256889D01*
X122015024Y-104668098D02*
X121982575Y-104608007D01*
X122206923Y-104950053D02*
X122164735Y-104896350D01*
X93452622Y-122373523D02*
X93490276Y-122411773D01*
X127947943Y-122977430D02*
X128006952Y-122960656D01*
X129570096Y-121752745D02*
X129614683Y-121700903D01*
X129482276Y-121846541D02*
X129523762Y-121803032D01*
X128837356Y-122487035D02*
X128881491Y-122447008D01*
X127583116Y-123050938D02*
X127644977Y-123042516D01*
X128564159Y-122693220D02*
X128837356Y-122487035D01*
X128237779Y-122874601D02*
X128294625Y-122848799D01*
X128180073Y-122898417D02*
X128237779Y-122874601D01*
X127767679Y-123019484D02*
X127828383Y-123004899D01*
X127828383Y-123004899D02*
X127888397Y-122992183D01*
X127396328Y-123063715D02*
X127458722Y-123061543D01*
X127331345Y-123064889D02*
X127396328Y-123063715D01*
X94895905Y-123058339D02*
X94953332Y-123061937D01*
X93999901Y-122789596D02*
X94052815Y-122818370D01*
X94838622Y-123052908D02*
X94895905Y-123058339D01*
X86503696Y-115425011D02*
X86538711Y-115459413D01*
X94052815Y-122818370D02*
X94106662Y-122845358D01*
X94437915Y-122971449D02*
X94494597Y-122986301D01*
X93748489Y-122630059D02*
X93796209Y-122662634D01*
X128123084Y-122921126D02*
X128180073Y-122898417D01*
X127644977Y-123042516D02*
X127706521Y-123032028D01*
X95010845Y-123063697D02*
X95076345Y-123064889D01*
X94494597Y-122986301D02*
X94551733Y-122999301D01*
X94668224Y-123025677D02*
X94724723Y-123036568D01*
X94953332Y-123061937D02*
X95010845Y-123063697D01*
X129657473Y-121647567D02*
X129698414Y-121592800D01*
X128459322Y-122759793D02*
X128512053Y-122726377D01*
X129614683Y-121700903D02*
X129657473Y-121647567D01*
X127521008Y-123057282D02*
X127583116Y-123050938D01*
X93529007Y-122448933D02*
X93568785Y-122484971D01*
X129523762Y-121803032D02*
X129570096Y-121752745D01*
X128924276Y-122405541D02*
X129482276Y-121846541D01*
X128512053Y-122726377D02*
X128564159Y-122693220D01*
X128065355Y-122941881D02*
X128123084Y-122921126D01*
X127888397Y-122992183D02*
X127947943Y-122977430D01*
X94381746Y-122954759D02*
X94437915Y-122971449D01*
X93611941Y-122523388D02*
X93656307Y-122560400D01*
X128350542Y-122821041D02*
X128405463Y-122791360D01*
X93844950Y-122693661D02*
X93897108Y-122726819D01*
X128006952Y-122960656D02*
X128065355Y-122941881D01*
X127458722Y-123061543D02*
X127521008Y-123057282D01*
X93796209Y-122662634D02*
X93844950Y-122693661D01*
X94781542Y-123045648D02*
X94838622Y-123052908D01*
X94106662Y-122845358D02*
X94161381Y-122870529D01*
X93897108Y-122726819D02*
X93947979Y-122759067D01*
X93568785Y-122484971D02*
X93611941Y-122523388D01*
X93490276Y-122411773D02*
X93529007Y-122448933D01*
X94551733Y-122999301D02*
X94612101Y-123012985D01*
X94161381Y-122870529D02*
X94216913Y-122893855D01*
X94216913Y-122893855D02*
X94271186Y-122915942D01*
X93656307Y-122560400D02*
X93701839Y-122595970D01*
X93701839Y-122595970D02*
X93748489Y-122630059D01*
X86538711Y-115459413D02*
X93452622Y-122373523D01*
X94271186Y-122915942D02*
X94326150Y-122936251D01*
X128881491Y-122447008D02*
X128924276Y-122405541D01*
X94724723Y-123036568D02*
X94781542Y-123045648D01*
X127706521Y-123032028D02*
X127767679Y-123019484D01*
X94612101Y-123012985D02*
X94668224Y-123025677D01*
X93947979Y-122759067D02*
X93999901Y-122789596D01*
X128294625Y-122848799D02*
X128350542Y-122821041D01*
X128405463Y-122791360D02*
X128459322Y-122759793D01*
X95076345Y-123064889D02*
X127331345Y-123064889D01*
X94326150Y-122936251D02*
X94381746Y-122954759D01*
X86469583Y-115389714D02*
X86503696Y-115425011D01*
X86436397Y-115353545D02*
X86469583Y-115389714D01*
X86396319Y-115309181D02*
X86436397Y-115353545D01*
X84186366Y-109408870D02*
X84253457Y-109421621D01*
X85055018Y-109786179D02*
X85108721Y-109828366D01*
X86285226Y-115168454D02*
X86320692Y-115216584D01*
X86124322Y-114916158D02*
X86154325Y-114966928D01*
X86095998Y-114864433D02*
X86124322Y-114916158D01*
X85308217Y-110014683D02*
X85353971Y-110065382D01*
X86021396Y-114704082D02*
X86044507Y-114758338D01*
X84643347Y-109545366D02*
X84705512Y-109573639D01*
X85910202Y-114350814D02*
X86021396Y-114704082D01*
X85397968Y-110117613D02*
X85440156Y-110171316D01*
X84451574Y-109473499D02*
X84516305Y-109495267D01*
X85827917Y-111107456D02*
X85836060Y-111175261D01*
X85160953Y-109872363D02*
X85211652Y-109918117D01*
X85789679Y-110906260D02*
X85804713Y-110972877D01*
X85652695Y-110520822D02*
X85680968Y-110582987D01*
X85589866Y-110399568D02*
X85622316Y-110459659D01*
X85480485Y-110226428D02*
X85518910Y-110282885D01*
X85846545Y-111379789D02*
X85846545Y-111454026D01*
X85622316Y-110459659D02*
X85652695Y-110520822D01*
X84826766Y-109636468D02*
X84885713Y-109670950D01*
X86251378Y-115119172D02*
X86285226Y-115168454D01*
X86219186Y-115068793D02*
X86251378Y-115119172D01*
X86069383Y-114811807D02*
X86095998Y-114864433D01*
X85896833Y-114290288D02*
X85910202Y-114350814D01*
X85804713Y-110972877D02*
X85817464Y-111039968D01*
X85707102Y-110646080D02*
X85731067Y-110710030D01*
X84386139Y-109453954D02*
X84451574Y-109473499D01*
X84705512Y-109573639D02*
X84766675Y-109604018D01*
X84999906Y-109745849D02*
X85055018Y-109786179D01*
X84253457Y-109421621D02*
X84320074Y-109436655D01*
X84885713Y-109670950D02*
X84943449Y-109707425D01*
X85847211Y-113884848D02*
X85849209Y-113933771D01*
X85841883Y-111243304D02*
X85845379Y-111311507D01*
X84580254Y-109519232D02*
X84643347Y-109545366D01*
X85731067Y-110710030D02*
X85752835Y-110774760D01*
X84516305Y-109495267D02*
X84580254Y-109519232D01*
X86185975Y-115016688D02*
X86219186Y-115068793D01*
X85846545Y-111454026D02*
X85846545Y-113835889D01*
X85836060Y-111175261D02*
X85841883Y-111243304D01*
X84118879Y-109398417D02*
X84186366Y-109408870D01*
X85680968Y-110582987D02*
X85707102Y-110646080D01*
X84943449Y-109707425D02*
X84999906Y-109745849D01*
X85211652Y-109918117D02*
X85260759Y-109965575D01*
X86044507Y-114758338D02*
X86069383Y-114811807D01*
X85817464Y-111039968D02*
X85827917Y-111107456D01*
X84320074Y-109436655D02*
X84386139Y-109453954D01*
X85555384Y-110340621D02*
X85589866Y-110399568D01*
X85353971Y-110065382D02*
X85397968Y-110117613D01*
X85440156Y-110171316D02*
X85480485Y-110226428D01*
X84766675Y-109604018D02*
X84826766Y-109636468D01*
X85846545Y-113835889D02*
X85847211Y-113884848D01*
X86357736Y-115263511D02*
X86396319Y-115309181D01*
X85260759Y-109965575D02*
X85308217Y-110014683D01*
X85772380Y-110840195D02*
X85789679Y-110906260D01*
X86320692Y-115216584D02*
X86357736Y-115263511D01*
X86154325Y-114966928D02*
X86185975Y-115016688D01*
X85845379Y-111311507D02*
X85846545Y-111379789D01*
X85849209Y-113933771D02*
X85896833Y-114290288D01*
X85518910Y-110282885D02*
X85555384Y-110340621D01*
X85108721Y-109828366D02*
X85160953Y-109872363D01*
X85752835Y-110774760D02*
X85772380Y-110840195D01*
X112701964Y-94159549D02*
X112677333Y-94135263D01*
X112808433Y-94247753D02*
X112780688Y-94227096D01*
X112956938Y-94336002D02*
X112926051Y-94320429D01*
X112988345Y-94350497D02*
X112956938Y-94336002D01*
X118682889Y-94684741D02*
X118630263Y-94658127D01*
X113085308Y-94387351D02*
X113052568Y-94376187D01*
X121387117Y-97308094D02*
X121357944Y-97262170D01*
X113118414Y-94397376D02*
X113085308Y-94387351D01*
X118576794Y-94633251D02*
X118522539Y-94610140D01*
X118734614Y-94713065D02*
X118682889Y-94684741D01*
X121065980Y-96915764D02*
X119277868Y-95127456D01*
X119172001Y-95025140D02*
X118887249Y-94807929D01*
X121511826Y-97515958D02*
X121483052Y-97463044D01*
X121192037Y-97046900D02*
X121155060Y-97006992D01*
X121587311Y-97680056D02*
X121563985Y-97624525D01*
X121327397Y-97217149D02*
X121295503Y-97173072D01*
X121610295Y-97736646D02*
X121587311Y-97680056D01*
X121227792Y-97087908D02*
X121192037Y-97046900D01*
X121357944Y-97262170D02*
X121327397Y-97217149D01*
X118108744Y-94485577D02*
X117752228Y-94437952D01*
X113322504Y-94433032D02*
X113288043Y-94430044D01*
X112587632Y-94030051D02*
X112567548Y-94001889D01*
X112630662Y-94084209D02*
X112608679Y-94057503D01*
X112753673Y-94205493D02*
X112727421Y-94182968D01*
X112780688Y-94227096D02*
X112753673Y-94205493D01*
X113020234Y-94363897D02*
X112988345Y-94350497D01*
X121563985Y-97624525D02*
X121538814Y-97569805D01*
X118522539Y-94610140D02*
X118169271Y-94498945D01*
X121262291Y-97129978D02*
X121227792Y-97087908D01*
X112653556Y-94110140D02*
X112630662Y-94084209D01*
X112836877Y-94267437D02*
X112808433Y-94247753D01*
X113151847Y-94406250D02*
X113118414Y-94397376D01*
X121538814Y-97569805D02*
X121511826Y-97515958D01*
X113219533Y-94420504D02*
X113185567Y-94413962D01*
X113391634Y-94435424D02*
X113357048Y-94434826D01*
X121420275Y-97360252D02*
X121387117Y-97308094D01*
X119277868Y-95127456D02*
X119243467Y-95092440D01*
X121155060Y-97006992D02*
X121111274Y-96960642D01*
X121111274Y-96960642D02*
X121065980Y-96915764D01*
X112865985Y-94286126D02*
X112836877Y-94267437D01*
X113288043Y-94430044D02*
X113253706Y-94425867D01*
X112895721Y-94303797D02*
X112865985Y-94286126D01*
X118887249Y-94807929D02*
X118835144Y-94774719D01*
X121452524Y-97411123D02*
X121420275Y-97360252D01*
X117752228Y-94437952D02*
X113391634Y-94435424D01*
X119243467Y-95092440D02*
X119208170Y-95058327D01*
X119208170Y-95058327D02*
X119172001Y-95025140D01*
X113052568Y-94376187D02*
X113020234Y-94363897D01*
X118785384Y-94743069D02*
X118734614Y-94713065D01*
X112530360Y-93943565D02*
X112513301Y-93913473D01*
X118169271Y-94498945D02*
X118108744Y-94485577D01*
X112548449Y-93973049D02*
X112530360Y-93943565D01*
X112567548Y-94001889D02*
X112548449Y-93973049D01*
X113253706Y-94425867D02*
X113219533Y-94420504D01*
X112608679Y-94057503D02*
X112587632Y-94030051D01*
X112727421Y-94182968D02*
X112701964Y-94159549D01*
X112926051Y-94320429D02*
X112895721Y-94303797D01*
X113357048Y-94434826D02*
X113322504Y-94433032D01*
X118835144Y-94774719D02*
X118785384Y-94743069D01*
X121295503Y-97173072D02*
X121262291Y-97129978D01*
X113185567Y-94413962D02*
X113151847Y-94406250D01*
X121483052Y-97463044D02*
X121452524Y-97411123D01*
X118630263Y-94658127D02*
X118576794Y-94633251D01*
X112677333Y-94135263D02*
X112653556Y-94110140D01*
X76176415Y-91744018D02*
X76116325Y-91776468D01*
X85937089Y-91784883D02*
X85876273Y-91751392D01*
X86274346Y-92028149D02*
X86221770Y-91982805D01*
X85218885Y-91539041D02*
X85149969Y-91530626D01*
X76237578Y-91713639D02*
X76176415Y-91744018D01*
X85687370Y-91663853D02*
X85622504Y-91639102D01*
X76689633Y-91561621D02*
X76623016Y-91576655D01*
X76960060Y-91524451D02*
X76892017Y-91530274D01*
X86221770Y-91982805D02*
X86167652Y-91939314D01*
X85876273Y-91751392D02*
X85814331Y-91720031D01*
X86055052Y-91858095D02*
X85996706Y-91820465D01*
X85011468Y-91520994D02*
X84942051Y-91519789D01*
X77096545Y-91519789D02*
X77028263Y-91520955D01*
X86167652Y-91939314D02*
X86112057Y-91897727D01*
X75834369Y-91968366D02*
X75782138Y-92012363D01*
X92825564Y-98745915D02*
X86374619Y-92124172D01*
X75888073Y-91926179D02*
X75834369Y-91968366D01*
X85423302Y-91578553D02*
X85355634Y-91563019D01*
X75634873Y-92154683D02*
X75589119Y-92205382D01*
X75589119Y-92205382D02*
X75545123Y-92257613D01*
X76556952Y-91593954D02*
X76491516Y-91613499D01*
X76824212Y-91538417D02*
X76756725Y-91548870D01*
X85287468Y-91549843D02*
X85218885Y-91539041D01*
X85622504Y-91639102D02*
X85556817Y-91616617D01*
X85556817Y-91616617D02*
X85490390Y-91596426D01*
X86374619Y-92124172D02*
X86325316Y-92075290D01*
X75545123Y-92257613D02*
X75502935Y-92311316D01*
X76299743Y-91685366D02*
X76237578Y-91713639D01*
X76362837Y-91659232D02*
X76299743Y-91685366D01*
X86325316Y-92075290D02*
X86274346Y-92028149D01*
X86112057Y-91897727D02*
X86055052Y-91858095D01*
X75235988Y-92786080D02*
X75212023Y-92850030D01*
X76623016Y-91576655D02*
X76556952Y-91593954D01*
X77028263Y-91520955D02*
X76960060Y-91524451D01*
X75290396Y-92660822D02*
X75262123Y-92722987D01*
X76892017Y-91530274D02*
X76824212Y-91538417D01*
X85814331Y-91720031D02*
X85751338Y-91690840D01*
X75943185Y-91885849D02*
X75888073Y-91926179D01*
X76426786Y-91635267D02*
X76362837Y-91659232D01*
X75262123Y-92722987D02*
X75235988Y-92786080D01*
X75320775Y-92599659D02*
X75290396Y-92660822D01*
X85996706Y-91820465D02*
X85937089Y-91784883D01*
X76116325Y-91776468D02*
X76057377Y-91810950D01*
X85751338Y-91690840D02*
X85687370Y-91663853D01*
X75353224Y-92539568D02*
X75320775Y-92599659D01*
X75387706Y-92480621D02*
X75353224Y-92539568D01*
X75424181Y-92422885D02*
X75387706Y-92480621D01*
X76756725Y-91548870D02*
X76689633Y-91561621D01*
X75462605Y-92366428D02*
X75424181Y-92422885D01*
X75502935Y-92311316D02*
X75462605Y-92366428D01*
X85490390Y-91596426D02*
X85423302Y-91578553D01*
X76491516Y-91613499D02*
X76426786Y-91635267D01*
X75682332Y-92105575D02*
X75634873Y-92154683D01*
X75731439Y-92058117D02*
X75682332Y-92105575D01*
X76057377Y-91810950D02*
X75999642Y-91847425D01*
X94243978Y-100164366D02*
X92825564Y-98745915D01*
X82995028Y-91519789D02*
X77096545Y-91519789D01*
X85080802Y-91524608D02*
X85011468Y-91520994D01*
X85149969Y-91530626D02*
X85080802Y-91524608D01*
X85355634Y-91563019D02*
X85287468Y-91549843D01*
X84942051Y-91519789D02*
X82995028Y-91519789D01*
X75782138Y-92012363D02*
X75731439Y-92058117D01*
X75999642Y-91847425D02*
X75943185Y-91885849D01*
X94788325Y-100986801D02*
X94767951Y-100936295D01*
X94977973Y-113111848D02*
X94965224Y-113044759D01*
X94386372Y-100314597D02*
X94346294Y-100270233D01*
X94424954Y-100360267D02*
X94386372Y-100314597D01*
X96384811Y-114967274D02*
X96332578Y-114923274D01*
X95101709Y-113501723D02*
X95075576Y-113438631D01*
X94661309Y-100712806D02*
X94629922Y-100659392D01*
X94890982Y-101355723D02*
X94877739Y-101300641D01*
X94920226Y-101523087D02*
X94912236Y-101467002D01*
X95029848Y-113309957D02*
X95010304Y-113244524D01*
X94497465Y-100455324D02*
X94461999Y-100407193D01*
X94854287Y-101194287D02*
X94840159Y-101141691D01*
X95010304Y-113244524D02*
X94993006Y-113178462D01*
X95227282Y-113744081D02*
X95192803Y-113685135D01*
X95192803Y-113685135D02*
X95160356Y-113625046D01*
X94937311Y-112773232D02*
X94936145Y-112704953D01*
X94940807Y-112841432D02*
X94937311Y-112773232D01*
X96281879Y-114877516D02*
X96232771Y-114830054D01*
X94690839Y-100767268D02*
X94661309Y-100712806D01*
X94866818Y-101247287D02*
X94854287Y-101194287D01*
X94946630Y-112909473D02*
X94940807Y-112841432D01*
X95075576Y-113438631D02*
X95051614Y-113374684D01*
X96607824Y-115124703D02*
X96550087Y-115088226D01*
X95302175Y-113858270D02*
X95263753Y-113801815D01*
X94807163Y-101037900D02*
X94788325Y-100986801D01*
X95342501Y-113913381D02*
X95302175Y-113858270D01*
X94278994Y-100198767D02*
X94243978Y-100164366D01*
X94933561Y-101692463D02*
X94930894Y-101635874D01*
X94313107Y-100234064D02*
X94278994Y-100198767D01*
X94346294Y-100270233D02*
X94313107Y-100234064D01*
X94531312Y-100504606D02*
X94497465Y-100455324D01*
X94767951Y-100936295D02*
X94744191Y-100879079D01*
X96438515Y-115009465D02*
X96384811Y-114967274D01*
X96550087Y-115088226D02*
X96493628Y-115049798D01*
X94954772Y-112977275D02*
X94946630Y-112909473D01*
X94993006Y-113178462D02*
X94977973Y-113111848D01*
X95428678Y-114019314D02*
X95384685Y-113967083D01*
X94461999Y-100407193D02*
X94424954Y-100360267D01*
X94563505Y-100554985D02*
X94531312Y-100504606D01*
X94629922Y-100659392D02*
X94596715Y-100607090D01*
X94824446Y-101089546D02*
X94807163Y-101037900D01*
X94930894Y-101635874D02*
X94926448Y-101579396D01*
X95474429Y-114070012D02*
X95428678Y-114019314D01*
X95160356Y-113625046D02*
X95129979Y-113563885D01*
X96493628Y-115049798D02*
X96438515Y-115009465D01*
X94936145Y-101788889D02*
X94935499Y-101740658D01*
X95521884Y-114119119D02*
X95474429Y-114070012D01*
X95384685Y-113967083D02*
X95342501Y-113913381D01*
X94718477Y-100822714D02*
X94690839Y-100767268D01*
X94744191Y-100879079D02*
X94718477Y-100822714D01*
X94840159Y-101141691D02*
X94824446Y-101089546D01*
X94877739Y-101300641D02*
X94866818Y-101247287D01*
X94902485Y-101411195D02*
X94890982Y-101355723D01*
X94912236Y-101467002D02*
X94902485Y-101411195D01*
X94965224Y-113044759D02*
X94954772Y-112977275D01*
X94926448Y-101579396D02*
X94920226Y-101523087D01*
X94935499Y-101740658D02*
X94933561Y-101692463D01*
X94936145Y-112704953D02*
X94936145Y-101788889D01*
X95051614Y-113374684D02*
X95029848Y-113309957D01*
X95129979Y-113563885D02*
X95101709Y-113501723D01*
X96232771Y-114830054D02*
X95521884Y-114119119D01*
X95263753Y-113801815D02*
X95227282Y-113744081D01*
X96332578Y-114923274D02*
X96281879Y-114877516D01*
X94596715Y-100607090D02*
X94563505Y-100554985D01*
X114382795Y-113740950D02*
X114370475Y-113808492D01*
X113729564Y-114918265D02*
X113677219Y-114962693D01*
X114008935Y-114616493D02*
X113966783Y-114670687D01*
X113082586Y-115299185D02*
X113017548Y-115321182D01*
X112751007Y-115386497D02*
X112683168Y-115397061D01*
X113511476Y-115084841D02*
X113453542Y-115121685D01*
X113017548Y-115321182D02*
X112951793Y-115340933D01*
X113966783Y-114670687D02*
X113922796Y-114723403D01*
X114400446Y-113604795D02*
X114392789Y-113673024D01*
X113677219Y-114962693D02*
X113623380Y-115005298D01*
X113829526Y-114824153D02*
X113780353Y-114872067D01*
X114298270Y-114073250D02*
X114274594Y-114137695D01*
X96850198Y-115250297D02*
X96788031Y-115222022D01*
X113922796Y-114723403D02*
X113877026Y-114774579D01*
X114338919Y-113942111D02*
X114319720Y-114008029D01*
X114123892Y-114445683D02*
X114087535Y-114503924D01*
X114274594Y-114137695D02*
X114248720Y-114201291D01*
X113272638Y-115219995D02*
X113210206Y-115248562D01*
X97307197Y-115386805D02*
X97240103Y-115374053D01*
X97510542Y-115411226D02*
X97442495Y-115405403D01*
X112546601Y-115411176D02*
X112478035Y-115414710D01*
X113146831Y-115274969D02*
X113082586Y-115299185D01*
X113394378Y-115156519D02*
X113334053Y-115189302D01*
X113453542Y-115121685D02*
X113394378Y-115156519D01*
X114087535Y-114503924D02*
X114049201Y-114560883D01*
X114405757Y-113536343D02*
X114400446Y-113604795D01*
X97173484Y-115359018D02*
X97107416Y-115341717D01*
X112951793Y-115340933D02*
X112885399Y-115358416D01*
X114049201Y-114560883D02*
X114008935Y-114616493D01*
X114190503Y-114325631D02*
X114158227Y-114386229D01*
X113877026Y-114774579D02*
X113829526Y-114824153D01*
X114407562Y-113330461D02*
X114409317Y-113399095D01*
X114355844Y-113875573D02*
X114338919Y-113942111D01*
X112478035Y-115414710D02*
X112409388Y-115415889D01*
X96913294Y-115276434D02*
X96850198Y-115250297D01*
X97578747Y-115414723D02*
X97510542Y-115411226D01*
X112409388Y-115415889D02*
X97647033Y-115415889D01*
X113623380Y-115005298D02*
X113568111Y-115046030D01*
X96977245Y-115300401D02*
X96913294Y-115276434D01*
X114248720Y-114201291D02*
X114220679Y-114263960D01*
X112818444Y-115373610D02*
X112751007Y-115386497D01*
X113780353Y-114872067D02*
X113729564Y-114918265D01*
X114319720Y-114008029D02*
X114298270Y-114073250D01*
X114370475Y-113808492D02*
X114355844Y-113875573D01*
X113568111Y-115046030D02*
X113511476Y-115084841D01*
X96666773Y-115159188D02*
X96607824Y-115124703D01*
X96726866Y-115191640D02*
X96666773Y-115159188D01*
X97442495Y-115405403D02*
X97374688Y-115397259D01*
X112615005Y-115405291D02*
X112546601Y-115411176D01*
X114408715Y-113467750D02*
X114405757Y-113536343D01*
X113334053Y-115189302D02*
X113272638Y-115219995D01*
X96788031Y-115222022D02*
X96726866Y-115191640D01*
X97041978Y-115322170D02*
X96977245Y-115300401D01*
X97374688Y-115397259D02*
X97307197Y-115386805D01*
X114158227Y-114386229D02*
X114123892Y-114445683D01*
X114392789Y-113673024D02*
X114382795Y-113740950D01*
X114409317Y-113399095D02*
X114408715Y-113467750D01*
X97107416Y-115341717D02*
X97041978Y-115322170D01*
X112885399Y-115358416D02*
X112818444Y-115373610D01*
X113210206Y-115248562D02*
X113146831Y-115274969D01*
X97240103Y-115374053D02*
X97173484Y-115359018D01*
X97647033Y-115415889D02*
X97578747Y-115414723D01*
X112683168Y-115397061D02*
X112615005Y-115405291D01*
X114220679Y-114263960D02*
X114190503Y-114325631D01*
X75125626Y-93179968D02*
X75115173Y-93247456D01*
X75212023Y-92850030D02*
X75190256Y-92914760D01*
X76426786Y-109264311D02*
X76491516Y-109286078D01*
X76299743Y-109214211D02*
X76362837Y-109240346D01*
X76176415Y-109155559D02*
X76237578Y-109185938D01*
X75320775Y-108299919D02*
X75353224Y-108360009D01*
X75101208Y-107516274D02*
X75107031Y-107584317D01*
X75096545Y-107379789D02*
X75097711Y-107448071D01*
X76237578Y-109185938D02*
X76299743Y-109214211D01*
X76116325Y-109123110D02*
X76176415Y-109155559D01*
X75682332Y-108794002D02*
X75731439Y-108841461D01*
X75888073Y-108973399D02*
X75943185Y-109013729D01*
X75212023Y-108049548D02*
X75235988Y-108113497D01*
X75545123Y-108641965D02*
X75589119Y-108694196D01*
X75153411Y-107853318D02*
X75170711Y-107919382D01*
X75387706Y-108418957D02*
X75424181Y-108476693D01*
X75138377Y-107786701D02*
X75153411Y-107853318D01*
X75502935Y-108588262D02*
X75545123Y-108641965D01*
X75353224Y-108360009D02*
X75387706Y-108418957D01*
X76362837Y-109240346D02*
X76426786Y-109264311D01*
X75096545Y-93519789D02*
X75096545Y-107379789D01*
X76824212Y-109361161D02*
X76892017Y-109369303D01*
X75107031Y-93315261D02*
X75101208Y-93383304D01*
X75170711Y-92980195D02*
X75153411Y-93046260D01*
X75125626Y-107719610D02*
X75138377Y-107786701D01*
X75170711Y-107919382D02*
X75190256Y-107984818D01*
X75097711Y-107448071D02*
X75101208Y-107516274D01*
X76756725Y-109350708D02*
X76824212Y-109361161D01*
X75462605Y-108533150D02*
X75502935Y-108588262D01*
X76623016Y-109322923D02*
X76689633Y-109337957D01*
X76491516Y-109286078D02*
X76556952Y-109305623D01*
X75731439Y-108841461D02*
X75782138Y-108887215D01*
X75190256Y-107984818D02*
X75212023Y-108049548D01*
X75153411Y-93046260D02*
X75138377Y-93112877D01*
X75290396Y-108238756D02*
X75320775Y-108299919D01*
X75115173Y-93247456D02*
X75107031Y-93315261D01*
X75138377Y-93112877D02*
X75125626Y-93179968D01*
X75589119Y-108694196D02*
X75634873Y-108744895D01*
X75634873Y-108744895D02*
X75682332Y-108794002D01*
X82995028Y-109379789D02*
X83846545Y-109379789D01*
X75943185Y-109013729D02*
X75999642Y-109052153D01*
X75424181Y-108476693D02*
X75462605Y-108533150D01*
X75115173Y-107652122D02*
X75125626Y-107719610D01*
X75262123Y-108176591D02*
X75290396Y-108238756D01*
X76556952Y-109305623D02*
X76623016Y-109322923D01*
X75782138Y-108887215D02*
X75834369Y-108931211D01*
X75834369Y-108931211D02*
X75888073Y-108973399D01*
X76057377Y-109088628D02*
X76116325Y-109123110D01*
X75101208Y-93383304D02*
X75097711Y-93451507D01*
X75190256Y-92914760D02*
X75170711Y-92980195D01*
X84051074Y-109390274D02*
X84118879Y-109398417D01*
X83983030Y-109384451D02*
X84051074Y-109390274D01*
X77028263Y-109378623D02*
X77096545Y-109379789D01*
X83914828Y-109380955D02*
X83983030Y-109384451D01*
X75097711Y-93451507D02*
X75096545Y-93519789D01*
X83846545Y-109379789D02*
X83914828Y-109380955D01*
X78624542Y-109379789D02*
X82995028Y-109379789D01*
X77096545Y-109379789D02*
X78624542Y-109379789D01*
X76960060Y-109375126D02*
X77028263Y-109378623D01*
X75999642Y-109052153D02*
X76057377Y-109088628D01*
X76892017Y-109369303D02*
X76960060Y-109375126D01*
X75235988Y-108113497D02*
X75262123Y-108176591D01*
X76689633Y-109337957D02*
X76756725Y-109350708D01*
X75107031Y-107584317D02*
X75115173Y-107652122D01*
X190388056Y-97174353D02*
X190357201Y-97120682D01*
X190048085Y-96735693D02*
X190002347Y-96693972D01*
X188997750Y-96254063D02*
X188936070Y-96248746D01*
X189181183Y-96282683D02*
X189120379Y-96271042D01*
X190002347Y-96693972D02*
X189955201Y-96653848D01*
X190253830Y-96966471D02*
X190215906Y-96917538D01*
X189645995Y-96449174D02*
X189590641Y-96421450D01*
X189955201Y-96653848D02*
X189906703Y-96615370D01*
X189241550Y-96296409D02*
X189181183Y-96282683D01*
X190092362Y-96778962D02*
X190048085Y-96735693D01*
X189856910Y-96578582D02*
X189805882Y-96543528D01*
X189059210Y-96261498D02*
X188997750Y-96254063D01*
X188874244Y-96245553D02*
X188812345Y-96244489D01*
X189700362Y-96478786D02*
X189645995Y-96449174D01*
X189301410Y-96312203D02*
X189241550Y-96296409D01*
X189590641Y-96421450D02*
X189534367Y-96395645D01*
X189805882Y-96543528D02*
X189753679Y-96510249D01*
X189419324Y-96349916D02*
X189360691Y-96330045D01*
X182051345Y-96244489D02*
G75*
G02X180051345Y-94244489I0J2000000D01*
G01*
X190357201Y-97120682D02*
X190324519Y-97068103D01*
X187919427Y-96244489D02*
X182051345Y-96244489D01*
X189534367Y-96395645D02*
X189477239Y-96371792D01*
X188812345Y-96244489D02*
X187919427Y-96244489D01*
X189906703Y-96615370D02*
X189856910Y-96578582D01*
X190215906Y-96917538D02*
X190176322Y-96869939D01*
X189120379Y-96271042D02*
X189059210Y-96261498D01*
X190324519Y-97068103D02*
X190290049Y-97016679D01*
X190290049Y-97016679D02*
X190253830Y-96966471D01*
X189753679Y-96510249D02*
X189700362Y-96478786D01*
X190135124Y-96823728D02*
X190092362Y-96778962D01*
X189477239Y-96371792D02*
X189419324Y-96349916D01*
X188936070Y-96248746D02*
X188874244Y-96245553D01*
X190176322Y-96869939D02*
X190135124Y-96823728D01*
X189360691Y-96330045D02*
X189301410Y-96312203D01*
X190265031Y-111739923D02*
X190228009Y-111681895D01*
X190526936Y-112058322D02*
X190478803Y-112009119D01*
X189974839Y-111045441D02*
X189961887Y-110977839D01*
X189933530Y-110704180D02*
X189932345Y-110635359D01*
X190129220Y-111500656D02*
X190100513Y-111438097D01*
X189937082Y-110772921D02*
X189933530Y-110704180D01*
X190228009Y-111681895D02*
X190193006Y-111622628D01*
X190478803Y-112009119D02*
X190432392Y-111958287D01*
X192423964Y-112995057D02*
X192357966Y-112976050D01*
X189942997Y-110841498D02*
X189937082Y-110772921D01*
X190027531Y-111245016D02*
X190007680Y-111179109D01*
X191027583Y-112419008D02*
X190966742Y-112386819D01*
X190432392Y-111958287D02*
X190387757Y-111905889D01*
X190681085Y-112195599D02*
X190628137Y-112151618D01*
X191152407Y-112477015D02*
X191089496Y-112449086D01*
X192292660Y-112954789D02*
X192228122Y-112931298D01*
X190966742Y-112386819D02*
X190907045Y-112352554D01*
X190071866Y-107084488D02*
X190098015Y-107021380D01*
X189942837Y-107613808D02*
X189950984Y-107545984D01*
X190047888Y-107148453D02*
X190071866Y-107084488D01*
X189974201Y-107411369D02*
X189989243Y-107344734D01*
X189990109Y-111112557D02*
X189974839Y-111045441D01*
X190100513Y-111438097D02*
X190073974Y-111374587D01*
X190073974Y-111374587D02*
X190049638Y-111310201D01*
X190628137Y-112151618D02*
X190576734Y-112105841D01*
X190026108Y-107213199D02*
X190047888Y-107148453D01*
X190344952Y-111851986D02*
X190304027Y-111796642D01*
X190576734Y-112105841D02*
X190526936Y-112058322D01*
X190791363Y-112277966D02*
X190735515Y-112237732D01*
X190156699Y-106898024D02*
X190189166Y-106837921D01*
X189932345Y-107818394D02*
X189933512Y-107750092D01*
X192164429Y-112905604D02*
X191152407Y-112477015D01*
X189937010Y-107681871D02*
X189942837Y-107613808D01*
X190470963Y-106452978D02*
X190518445Y-106403867D01*
X190425185Y-106503681D02*
X190470963Y-106452978D01*
X190193006Y-111622628D02*
X190160064Y-111562191D01*
X190381166Y-106555919D02*
X190425185Y-106503681D01*
X190338956Y-106609629D02*
X190381166Y-106555919D01*
X190006552Y-107278652D02*
X190026108Y-107213199D01*
X190907045Y-112352554D02*
X190848562Y-112316256D01*
X190304027Y-111796642D02*
X190265031Y-111739923D01*
X191089496Y-112449086D02*
X191027583Y-112419008D01*
X190160064Y-111562191D02*
X190129220Y-111500656D01*
X192228122Y-112931298D02*
X192164429Y-112905604D01*
X189950984Y-107545984D02*
X189961443Y-107478478D01*
X190298606Y-106664750D02*
X190338956Y-106609629D01*
X190260161Y-106721216D02*
X190298606Y-106664750D01*
X190387757Y-111905889D02*
X190344952Y-111851986D01*
X190223667Y-106778962D02*
X190260161Y-106721216D01*
X190049638Y-111310201D02*
X190027531Y-111245016D01*
X190189166Y-106837921D02*
X190223667Y-106778962D01*
X190126303Y-106959201D02*
X190156699Y-106898024D01*
X190098015Y-107021380D02*
X190126303Y-106959201D01*
X189989243Y-107344734D02*
X190006552Y-107278652D01*
X190735515Y-112237732D02*
X190681085Y-112195599D01*
X189951269Y-110909831D02*
X189942997Y-110841498D01*
X192357966Y-112976050D02*
X192292660Y-112954789D01*
X189961887Y-110977839D02*
X189951269Y-110909831D01*
X190007680Y-111179109D02*
X189990109Y-111112557D01*
X189961443Y-107478478D02*
X189974201Y-107411369D01*
X189933512Y-107750092D02*
X189937010Y-107681871D01*
X189932345Y-110635359D02*
X189932345Y-107818394D01*
X190848562Y-112316256D02*
X190791363Y-112277966D01*
X192755096Y-113057038D02*
X192693303Y-113048128D01*
X196766429Y-113037626D02*
X196701060Y-113042630D01*
X192557722Y-113026219D02*
X192490575Y-113011787D01*
X192816542Y-113068085D02*
X192755096Y-113057038D01*
X193006385Y-113106978D02*
X192941765Y-113095176D01*
X193071358Y-113116652D02*
X193006385Y-113106978D01*
X193202081Y-113129575D02*
X193136614Y-113124187D01*
X196062130Y-113132866D02*
X195998164Y-113133889D01*
X196442274Y-113083957D02*
X196379677Y-113097164D01*
X196907298Y-113034111D02*
X196897483Y-113034056D01*
X196506427Y-113070449D02*
X196442274Y-113083957D01*
X196897483Y-113034056D02*
X196831927Y-113034767D01*
X198970853Y-113059662D02*
X198910571Y-113050398D01*
X199030787Y-113070962D02*
X198970853Y-113059662D01*
X200055833Y-113688419D02*
X200016229Y-113642036D01*
X199265670Y-113136241D02*
X199207813Y-113116946D01*
X199322840Y-113157486D02*
X199265670Y-113136241D01*
X200016229Y-113642036D02*
X199975076Y-113597022D01*
X199698403Y-113358450D02*
X199647826Y-113324367D01*
X200229096Y-113938940D02*
X200197880Y-113886544D01*
X196570989Y-113059050D02*
X196506427Y-113070449D01*
X198728327Y-113034922D02*
X198667345Y-113033889D01*
X199149335Y-113099621D02*
X199090304Y-113084287D01*
X199647826Y-113324367D02*
X199596123Y-113292016D01*
X199489578Y-113232660D02*
X199434859Y-113205723D01*
X199207813Y-113116946D02*
X199149335Y-113099621D01*
X195998164Y-113133889D02*
X193333371Y-113133889D01*
X196189802Y-113124686D02*
X196126032Y-113129797D01*
X192625324Y-113038337D02*
X192557722Y-113026219D01*
X198850009Y-113043181D02*
X198789238Y-113038021D01*
X192693303Y-113048128D02*
X192625324Y-113038337D01*
X192877568Y-113081257D02*
X192816542Y-113068085D01*
X192941765Y-113095176D02*
X192877568Y-113081257D01*
X193136614Y-113124187D02*
X193071358Y-113116652D01*
X196635890Y-113049774D02*
X196570989Y-113059050D01*
X196831927Y-113034767D02*
X196766429Y-113037626D01*
X196126032Y-113129797D02*
X196062130Y-113132866D01*
X199747797Y-113394228D02*
X199698403Y-113358450D01*
X200164907Y-113835236D02*
X200130215Y-113785074D01*
X200286116Y-114046754D02*
X200258519Y-113992364D01*
X198910571Y-113050398D02*
X198850009Y-113043181D01*
X200197880Y-113886544D02*
X200164907Y-113835236D01*
X200258519Y-113992364D02*
X200229096Y-113938940D01*
X199379258Y-113180656D02*
X199322840Y-113157486D01*
X199795950Y-113431659D02*
X199747797Y-113394228D01*
X196316690Y-113108361D02*
X196253376Y-113117539D01*
X199975076Y-113597022D02*
X199932422Y-113553428D01*
X200130215Y-113785074D02*
X200093843Y-113736116D01*
X198789238Y-113038021D02*
X198728327Y-113034922D01*
X199932422Y-113553428D02*
X199888316Y-113511304D01*
X199888316Y-113511304D02*
X199842808Y-113470699D01*
X199543353Y-113261435D02*
X199489578Y-113232660D01*
X199596123Y-113292016D02*
X199543353Y-113261435D01*
X196701060Y-113042630D02*
X196635890Y-113049774D01*
X199842808Y-113470699D02*
X199795950Y-113431659D01*
X193267691Y-113132810D02*
X193202081Y-113129575D01*
X199434859Y-113205723D02*
X199379258Y-113180656D01*
X193333371Y-113133889D02*
X193267691Y-113132810D01*
X198667345Y-113033889D02*
X196907298Y-113034111D01*
X200093843Y-113736116D02*
X200055833Y-113688419D01*
X196379677Y-113097164D02*
X196316690Y-113108361D01*
X196253376Y-113117539D02*
X196189802Y-113124686D01*
X199090304Y-113084287D02*
X199030787Y-113070962D01*
X192490575Y-113011787D02*
X192423964Y-112995057D01*
X200311853Y-114102047D02*
X200286116Y-114046754D01*
X202139085Y-115288890D02*
G75*
G02X200311853Y-114102047I0J2000001D01*
G01*
X210937617Y-115269539D02*
X210868528Y-115277997D01*
X211006369Y-115258682D02*
X210937617Y-115269539D01*
X212495647Y-111735178D02*
X212510591Y-111802080D01*
X211074703Y-115245440D02*
X211006369Y-115258682D01*
X211717137Y-114986722D02*
X211657418Y-115022476D01*
X211888333Y-114867306D02*
X211832665Y-114909090D01*
X212650132Y-113089624D02*
X212655860Y-113158992D01*
X211942513Y-114823611D02*
X211888333Y-114867306D01*
X212533560Y-111937223D02*
X212541558Y-112005305D01*
X212659172Y-113228518D02*
X212660062Y-113298117D01*
X212413246Y-111473861D02*
X212437194Y-111538093D01*
X212389049Y-114294212D02*
X212353020Y-114353766D01*
X212328405Y-111286615D02*
X212358820Y-111348048D01*
X212523234Y-111869454D02*
X212533560Y-111937223D01*
X212295903Y-111226259D02*
X212328405Y-111286615D01*
X212614700Y-113712532D02*
X212598774Y-113780290D01*
X212639431Y-113575559D02*
X212628257Y-113644261D01*
X212658529Y-113367705D02*
X212654576Y-113437197D01*
X212232816Y-114524409D02*
X212188871Y-114578387D01*
X210660083Y-115288889D02*
X202139085Y-115288889D01*
X212628257Y-113644261D02*
X212614700Y-113712532D01*
X210799187Y-115284046D02*
X210729677Y-115287678D01*
X210729677Y-115287678D02*
X210660083Y-115288889D01*
X210868528Y-115277997D02*
X210799187Y-115284046D01*
X212358820Y-111348048D02*
X212387111Y-111410488D01*
X211775577Y-114948911D02*
X211717137Y-114986722D01*
X211342196Y-115168975D02*
X211276361Y-115191571D01*
X211596490Y-115056130D02*
X211534428Y-115087644D01*
X211995141Y-114778057D02*
X211942513Y-114823611D01*
X212580501Y-113847453D02*
X212559902Y-113913940D01*
X212387111Y-111410488D02*
X212413246Y-111473861D01*
X211407204Y-115144100D02*
X211342196Y-115168975D01*
X212095482Y-114681595D02*
X212046151Y-114730699D01*
X212478419Y-111668828D02*
X212495647Y-111735178D01*
X212314940Y-114412030D02*
X212274856Y-114468934D01*
X212559902Y-113913940D02*
X212537001Y-113979669D01*
X211142534Y-115229827D02*
X211074703Y-115245440D01*
X211209780Y-115211864D02*
X211142534Y-115229827D01*
X212188871Y-114578387D02*
X212143075Y-114630804D01*
X211471307Y-115116979D02*
X211407204Y-115144100D01*
X212484411Y-114108540D02*
X212454785Y-114171525D01*
X212458927Y-111603107D02*
X212478419Y-111668828D01*
X212598774Y-113780290D02*
X212580501Y-113847453D01*
X212353020Y-114353766D02*
X212314940Y-114412030D01*
X211534428Y-115087644D02*
X211471307Y-115116979D01*
X211832665Y-114909090D02*
X211775577Y-114948911D01*
X212422985Y-114233440D02*
X212389049Y-114294212D01*
X212454785Y-114171525D02*
X212422985Y-114233440D01*
X212655860Y-113158992D02*
X212659172Y-113228518D01*
X212648208Y-113506510D02*
X212639431Y-113575559D01*
X212660062Y-113298117D02*
X212658529Y-113367705D01*
X212143075Y-114630804D02*
X212095482Y-114681595D01*
X211657418Y-115022476D02*
X211596490Y-115056130D01*
X212541558Y-112005305D02*
X212650132Y-113089624D01*
X212511827Y-114044562D02*
X212484411Y-114108540D01*
X211276361Y-115191571D02*
X211209780Y-115211864D01*
X212046151Y-114730699D02*
X211995141Y-114778057D01*
X212274856Y-114468934D02*
X212232816Y-114524409D01*
X212654576Y-113437197D02*
X212648208Y-113506510D01*
X212437194Y-111538093D02*
X212458927Y-111603107D01*
X212510591Y-111802080D02*
X212523234Y-111869454D01*
X212537001Y-113979669D02*
X212511827Y-114044562D01*
X208850455Y-107689534D02*
X208902688Y-107733537D01*
X208568487Y-107497608D02*
X208627437Y-107532095D01*
X208902688Y-107733537D02*
X208953389Y-107779298D01*
X200528454Y-106757852D02*
X200583356Y-106798906D01*
X207656483Y-107242055D02*
X207724691Y-107245552D01*
X200792786Y-106936047D02*
X200846568Y-106967552D01*
X201543128Y-107207019D02*
X201596182Y-107216317D01*
X207588196Y-107240889D02*
X207656483Y-107242055D01*
X201173795Y-107113561D02*
X201225729Y-107130786D01*
X201596182Y-107216317D02*
X201649490Y-107224024D01*
X200957242Y-107024883D02*
X201014001Y-107050640D01*
X200697217Y-106875250D02*
X200740127Y-106902700D01*
X200740127Y-106902700D02*
X200792786Y-106936047D01*
X200846568Y-106967552D02*
X200901408Y-106997176D01*
X208741636Y-107607005D02*
X208796750Y-107647341D01*
X208447226Y-107434769D02*
X208508393Y-107465153D01*
X201920345Y-107240889D02*
X207588196Y-107240889D01*
X200372634Y-106623750D02*
X200423032Y-106670223D01*
X201865379Y-107240049D02*
X201920345Y-107240889D01*
X208127831Y-107315066D02*
X208193271Y-107334614D01*
X201278163Y-107146424D02*
X201331047Y-107160461D01*
X201071618Y-107074417D02*
X201122409Y-107094765D01*
X200474992Y-106714941D02*
X200528454Y-106757852D01*
X208685176Y-107568575D02*
X208741636Y-107607005D01*
X208321959Y-107380354D02*
X208385057Y-107406492D01*
X199189553Y-105442681D02*
X200328553Y-106581681D01*
X208258006Y-107356385D02*
X208321959Y-107380354D01*
X201756679Y-107234636D02*
X201810463Y-107237532D01*
X201490376Y-107196138D02*
X201543128Y-107207019D01*
X207860550Y-107259520D02*
X207928043Y-107269974D01*
X201437974Y-107183683D02*
X201490376Y-107196138D01*
X207792740Y-107251376D02*
X207860550Y-107259520D01*
X201225729Y-107130786D02*
X201278163Y-107146424D01*
X201703005Y-107230132D02*
X201756679Y-107234636D01*
X200901408Y-106997176D02*
X200957242Y-107024883D01*
X201014001Y-107050640D02*
X201071618Y-107074417D01*
X208796750Y-107647341D02*
X208850455Y-107689534D01*
X212224791Y-111109066D02*
X212261351Y-111167053D01*
X201384334Y-107172885D02*
X201437974Y-107183683D01*
X201810463Y-107237532D02*
X201865379Y-107240049D01*
X207928043Y-107269974D02*
X207995139Y-107282727D01*
X208193271Y-107334614D02*
X208258006Y-107356385D01*
X207995139Y-107282727D02*
X208061761Y-107297764D01*
X201649490Y-107224024D02*
X201703005Y-107230132D01*
X212261351Y-111167053D02*
X212295903Y-111226259D01*
X212186265Y-111052366D02*
X212224791Y-111109066D01*
X212145819Y-110997019D02*
X212186265Y-111052366D01*
X209002497Y-107826763D02*
X211965811Y-110790444D01*
X201122409Y-107094765D02*
X201173795Y-107113561D01*
X208627437Y-107532095D02*
X208685176Y-107568575D01*
X200328553Y-106581681D02*
X200372634Y-106623750D01*
X201331047Y-107160461D02*
X201384334Y-107172885D01*
X212103499Y-110943091D02*
X212145819Y-110997019D01*
X212059356Y-110890645D02*
X212103499Y-110943091D01*
X211965811Y-110790444D02*
X212013442Y-110839743D01*
X212013442Y-110839743D02*
X212059356Y-110890645D01*
X208953389Y-107779298D02*
X209002497Y-107826763D01*
X208385057Y-107406492D02*
X208447226Y-107434769D01*
X200583356Y-106798906D02*
X200639632Y-106838054D01*
X200423032Y-106670223D02*
X200474992Y-106714941D01*
X200639632Y-106838054D02*
X200697217Y-106875250D01*
X208508393Y-107465153D02*
X208568487Y-107497608D01*
X207724691Y-107245552D02*
X207792740Y-107251376D01*
X208061761Y-107297764D02*
X208127831Y-107315066D01*
X198510305Y-101380350D02*
X198487978Y-101438789D01*
X198619480Y-101155396D02*
X198589270Y-101210177D01*
X198661004Y-104605082D02*
X198681784Y-104660978D01*
X198869857Y-105031597D02*
X198903015Y-105083702D01*
X198837988Y-104981398D02*
X198869857Y-105031597D01*
X198779309Y-104877979D02*
X198807794Y-104930173D01*
X198752563Y-104824873D02*
X198779309Y-104877979D01*
X198681784Y-104660978D02*
X198704404Y-104716156D01*
X198419344Y-101679232D02*
X198407458Y-101740651D01*
X198704404Y-104716156D02*
X198727586Y-104770912D01*
X198609923Y-104433695D02*
X198625053Y-104491378D01*
X198380345Y-102951889D02*
X198410892Y-103282092D01*
X198410892Y-103282092D02*
X198530456Y-103866526D01*
X198381432Y-101989339D02*
X198380345Y-102051889D01*
X201162014Y-96836084D02*
X201146443Y-96903827D01*
X198397713Y-101802446D02*
X198390121Y-101864543D01*
X201148495Y-91571192D02*
X201163525Y-91637800D01*
X201146443Y-96903827D02*
X201128528Y-96970989D01*
X200973207Y-97357255D02*
X200939640Y-97418123D01*
X201204137Y-96491519D02*
X201200515Y-96560935D01*
X201131200Y-91505136D02*
X201148495Y-91571192D01*
X198625053Y-104491378D02*
X198642087Y-104548527D01*
X200939640Y-97418123D02*
X200903979Y-97477788D01*
X201176272Y-91704882D02*
X201186722Y-91772361D01*
X198534649Y-101322722D02*
X198510305Y-101380350D01*
X198433357Y-101618262D02*
X198419344Y-101679232D01*
X198727586Y-104770912D02*
X198752563Y-104824873D01*
X198642087Y-104548527D02*
X198661004Y-104605082D01*
X198596711Y-104375542D02*
X198609923Y-104433695D01*
X198583027Y-104315016D02*
X198596711Y-104375542D01*
X201194863Y-91840156D02*
X201200684Y-91908190D01*
X198487978Y-101438789D02*
X198467695Y-101497968D01*
X198384692Y-101926866D02*
X198381432Y-101989339D01*
X198530456Y-103866526D02*
X198533813Y-103963570D01*
X198380345Y-102051889D02*
X198380345Y-102951889D01*
X198390121Y-101864543D02*
X198384692Y-101926866D01*
X201004638Y-97295258D02*
X200973207Y-97357255D01*
X201204180Y-91976383D02*
X201205345Y-92044656D01*
X201194483Y-96630182D02*
X201186048Y-96699179D01*
X201205345Y-92044656D02*
X201205345Y-96422020D01*
X198560981Y-101265975D02*
X198534649Y-101322722D01*
X201200515Y-96560935D02*
X201194483Y-96630182D01*
X201205345Y-96422020D02*
X201204137Y-96491519D01*
X201033897Y-97232205D02*
X201004638Y-97295258D01*
X201128528Y-96970989D02*
X201108290Y-97037487D01*
X201186048Y-96699179D02*
X201175221Y-96767840D01*
X201200684Y-91908190D02*
X201204180Y-91976383D01*
X201186722Y-91772361D02*
X201194863Y-91840156D01*
X198449480Y-101557817D02*
X198433357Y-101618262D01*
X201108290Y-97037487D02*
X201085754Y-97103242D01*
X201085754Y-97103242D02*
X201060946Y-97168175D01*
X198651575Y-101101698D02*
X198619480Y-101155396D01*
X200903979Y-97477788D02*
X198651575Y-101101698D01*
X201163525Y-91637800D02*
X201176272Y-91704882D01*
X201060946Y-97168175D02*
X201033897Y-97232205D01*
X198407458Y-101740651D02*
X198397713Y-101802446D01*
X198467695Y-101497968D02*
X198449480Y-101557817D01*
X199148676Y-105400446D02*
X199189553Y-105442681D01*
X198589270Y-101210177D02*
X198560981Y-101265975D01*
X201175221Y-96767840D02*
X201162014Y-96836084D01*
X199109199Y-105356900D02*
X199148676Y-105400446D01*
X198903015Y-105083702D02*
X199109199Y-105356900D01*
X198807794Y-104930173D02*
X198837988Y-104981398D01*
X198533813Y-103963570D02*
X198583027Y-104315016D01*
X201089899Y-91374987D02*
X201111661Y-91439709D01*
X201065941Y-91311045D02*
X201089899Y-91374987D01*
X201011548Y-91185801D02*
X201039814Y-91247959D01*
X200981177Y-91124645D02*
X201011548Y-91185801D01*
X185550946Y-89487001D02*
X185609593Y-89499881D01*
X200948736Y-91064560D02*
X200981177Y-91124645D01*
X200799065Y-90836328D02*
X200839384Y-90891436D01*
X200667161Y-90679703D02*
X200712903Y-90730400D01*
X185847491Y-89531661D02*
X185907463Y-89534626D01*
X185728012Y-89519741D02*
X185787652Y-89526697D01*
X184414553Y-88878281D02*
X184450638Y-88913371D01*
X200619714Y-90630598D02*
X200667161Y-90679703D01*
X185956386Y-89536623D02*
X186005345Y-89537289D01*
X183871264Y-88329849D02*
X183909745Y-88372187D01*
X183401475Y-87516888D02*
X183419984Y-87572484D01*
X185668637Y-89510799D02*
X185728012Y-89519741D01*
X199618338Y-89761580D02*
X199678435Y-89794038D01*
X199037957Y-89566378D02*
X199105058Y-89579132D01*
X198902646Y-89547777D02*
X198970461Y-89555922D01*
X198698089Y-89537289D02*
X198766381Y-89538455D01*
X199851590Y-89903448D02*
X199906707Y-89943788D01*
X198970461Y-89555922D02*
X199037957Y-89566378D01*
X184772441Y-89164648D02*
X184824546Y-89197859D01*
X200914263Y-91005619D02*
X200948736Y-91064560D01*
X200877799Y-90947888D02*
X200914263Y-91005619D01*
X183440292Y-87627448D02*
X183462379Y-87681722D01*
X200756888Y-90782628D02*
X200799065Y-90836328D01*
X200112458Y-90123231D02*
X200619714Y-90630598D01*
X199171683Y-89594171D02*
X199237756Y-89611475D01*
X183662573Y-88053684D02*
X183871264Y-88329849D01*
X184450638Y-88913371D02*
X184487690Y-88947438D01*
X185490420Y-89473632D02*
X185550946Y-89487001D01*
X183462379Y-87681722D02*
X183629415Y-88001526D01*
X184824546Y-89197859D02*
X185137152Y-89362438D01*
X200012648Y-90029995D02*
X200063349Y-90075760D01*
X199737388Y-89828529D02*
X199795129Y-89865014D01*
X183949553Y-88413281D02*
X184414553Y-88878281D01*
X199237756Y-89611475D02*
X199303200Y-89631025D01*
X183909745Y-88372187D02*
X183949553Y-88413281D01*
X200712903Y-90730400D02*
X200756888Y-90782628D01*
X199906707Y-89943788D02*
X199960413Y-89985987D01*
X199431896Y-89676771D02*
X199494997Y-89702912D01*
X183419984Y-87572484D02*
X183440292Y-87627448D01*
X199105058Y-89579132D02*
X199171683Y-89594171D01*
X185137152Y-89362438D02*
X185490420Y-89473632D01*
X199678435Y-89794038D02*
X199737388Y-89828529D01*
X199557168Y-89731193D02*
X199618338Y-89761580D01*
X199494997Y-89702912D02*
X199557168Y-89731193D01*
X183629415Y-88001526D02*
X183662573Y-88053684D01*
X198834593Y-89541953D02*
X198902646Y-89547777D01*
X185907463Y-89534626D02*
X185956386Y-89536623D01*
X186005345Y-89537289D02*
X198698089Y-89537289D01*
X184487690Y-88947438D02*
X184772441Y-89164648D01*
X199960413Y-89985987D02*
X200012648Y-90029995D01*
X200839384Y-90891436D02*
X200877799Y-90947888D01*
X185787652Y-89526697D02*
X185847491Y-89531661D01*
X199367939Y-89652799D02*
X199431896Y-89676771D01*
X201111661Y-91439709D02*
X201131200Y-91505136D01*
X201039814Y-91247959D02*
X201065941Y-91311045D01*
X199795129Y-89865014D02*
X199851590Y-89903448D01*
X200063349Y-90075760D02*
X200112458Y-90123231D01*
X198766381Y-89538455D02*
X198834593Y-89541953D01*
X185609593Y-89499881D02*
X185668637Y-89510799D01*
X199303200Y-89631025D02*
X199367939Y-89652799D01*
X183338434Y-84187587D02*
X183311588Y-84242232D01*
X185735709Y-79859298D02*
X185708191Y-79914619D01*
X183293790Y-86933601D02*
X183297156Y-86992997D01*
X183291207Y-86877972D02*
X183293790Y-86933601D01*
X183205849Y-84527323D02*
X183190568Y-84586257D01*
X183266672Y-86570921D02*
X183290345Y-86627864D01*
X183166692Y-86215336D02*
X183178244Y-86275912D01*
X183177289Y-84645675D02*
X183166028Y-84705507D01*
X183244962Y-86513201D02*
X183266672Y-86570921D01*
X183191864Y-86336057D02*
X183207537Y-86395700D01*
X187542546Y-77985319D02*
X187490441Y-78018529D01*
X187855152Y-77820740D02*
X187542546Y-77985319D01*
X183141402Y-85970147D02*
X183144569Y-86031734D01*
X183178244Y-86275912D02*
X183191864Y-86336057D01*
X183141375Y-84947614D02*
X183140345Y-85008489D01*
X183140345Y-85008489D02*
X183140345Y-85908489D01*
X183144463Y-84886809D02*
X183141375Y-84947614D01*
X188208420Y-77709545D02*
X187855152Y-77820740D01*
X188268946Y-77696177D02*
X188208420Y-77709545D01*
X183149605Y-84826144D02*
X183144463Y-84886809D01*
X185796357Y-79751651D02*
X185765109Y-79804954D01*
X186144461Y-79292620D02*
X186107302Y-79331351D01*
X183286605Y-84297754D02*
X183263515Y-84354088D01*
X185680228Y-79971038D02*
X185650501Y-80026549D01*
X183190568Y-84586257D02*
X183177289Y-84645675D01*
X183223113Y-84468939D02*
X183205849Y-84527323D01*
X186071264Y-79371128D02*
X185862573Y-79647294D01*
X188674386Y-77646555D02*
X188625463Y-77648552D01*
X183290345Y-86822289D02*
X183291207Y-86877972D01*
X183157222Y-86154400D02*
X183166692Y-86215336D01*
X183140345Y-85908489D02*
X183141402Y-85970147D01*
X187205690Y-78235740D02*
X187169520Y-78268927D01*
X185862573Y-79647294D02*
X185829415Y-79699452D01*
X185650501Y-80026549D02*
X183367112Y-84133882D01*
X187169520Y-78268927D02*
X187134223Y-78303039D01*
X183311588Y-84242232D02*
X183286605Y-84297754D01*
X183367112Y-84133882D02*
X183338434Y-84187587D01*
X183290345Y-86627864D02*
X183290345Y-86822289D01*
X183149845Y-86093175D02*
X183157222Y-86154400D01*
X188625463Y-77648552D02*
X188268946Y-77696177D01*
X187134223Y-78303039D02*
X187099820Y-78338053D01*
X183156796Y-84765687D02*
X183149605Y-84826144D01*
X187099820Y-78338053D02*
X186182713Y-79254967D01*
X186107302Y-79331351D02*
X186071264Y-79371128D01*
X183384785Y-87460719D02*
X183401475Y-87516888D01*
X183297156Y-86992997D02*
X183302482Y-87052250D01*
X183302482Y-87052250D02*
X183309764Y-87111294D01*
X183343249Y-87286533D02*
X183356933Y-87346901D01*
X183263515Y-84354088D02*
X183242343Y-84411172D01*
X185708191Y-79914619D02*
X185680228Y-79971038D01*
X183369933Y-87404037D02*
X183384785Y-87460719D01*
X183356933Y-87346901D02*
X183369933Y-87404037D01*
X183330158Y-87228499D02*
X183343249Y-87286533D01*
X183318992Y-87170065D02*
X183330158Y-87228499D01*
X183242343Y-84411172D02*
X183223113Y-84468939D01*
X183309764Y-87111294D02*
X183318992Y-87170065D01*
X183225243Y-86454771D02*
X183244962Y-86513201D01*
X183207537Y-86395700D02*
X183225243Y-86454771D01*
X185829415Y-79699452D02*
X185796357Y-79751651D01*
X183144569Y-86031734D02*
X183149845Y-86093175D01*
X183166028Y-84705507D02*
X183156796Y-84765687D01*
X185765109Y-79804954D02*
X185735709Y-79859298D01*
X187490441Y-78018529D02*
X187205690Y-78235740D01*
X186182713Y-79254967D02*
X186144461Y-79292620D01*
X192259356Y-104166926D02*
X192274160Y-104106265D01*
X192175583Y-104461628D02*
X192196337Y-104403899D01*
X190577603Y-97589627D02*
X190547023Y-97526980D01*
X190645218Y-97711535D02*
X190610348Y-97651170D01*
X192316222Y-103797283D02*
X192318172Y-103734872D01*
X190610348Y-97651170D02*
X190577603Y-97589627D01*
X192221158Y-99746683D02*
X192204869Y-99693576D01*
X192319345Y-103669889D02*
X192319345Y-100401889D01*
X190682170Y-97770648D02*
X190645218Y-97711535D01*
X190805061Y-97939765D02*
X190762140Y-97884832D01*
X191666964Y-98816760D02*
X191627978Y-98778366D01*
X190849870Y-97993168D02*
X190805061Y-97939765D01*
X192274477Y-99968748D02*
X192260091Y-99908664D01*
X191947676Y-99170076D02*
X191741492Y-98896878D01*
X192305512Y-100151407D02*
X192297199Y-100090187D01*
X192186949Y-99640997D02*
X192167415Y-99588995D01*
X192311778Y-100212870D02*
X192305512Y-100151407D01*
X191980834Y-99222181D02*
X191947676Y-99170076D01*
X192204869Y-99693576D02*
X192186949Y-99640997D01*
X192297199Y-100090187D02*
X192286850Y-100029278D01*
X191980834Y-104850597D02*
X192152873Y-104518616D01*
X191815958Y-105089261D02*
X191851092Y-105044213D01*
X192286852Y-104045127D02*
X192297415Y-103983586D01*
X192215112Y-104345496D02*
X192231886Y-104286487D01*
X192315992Y-100274509D02*
X192311778Y-100212870D01*
X192312109Y-103859589D02*
X192316222Y-103797283D01*
X192318172Y-103734872D02*
X192319345Y-103669889D01*
X191884779Y-104998072D02*
X191916984Y-104950886D01*
X191627978Y-98778366D02*
X190944934Y-98095130D01*
X192235800Y-99800267D02*
X192221158Y-99746683D01*
X192286850Y-100029278D02*
X192274477Y-99968748D01*
X190518445Y-106403867D02*
X191660855Y-105261963D01*
X191916984Y-104950886D02*
X191947676Y-104902702D01*
X192231886Y-104286487D02*
X192246640Y-104226941D01*
X191660855Y-105261963D02*
X191701879Y-105219592D01*
X192274160Y-104106265D02*
X192286852Y-104045127D01*
X192246640Y-104226941D02*
X192259356Y-104166926D01*
X191741492Y-98896878D02*
X191704812Y-98856275D01*
X191704812Y-98856275D02*
X191666964Y-98816760D01*
X192248782Y-99854278D02*
X192235800Y-99800267D01*
X191701879Y-105219592D02*
X191741492Y-105175900D01*
X192318148Y-100336253D02*
X192315992Y-100274509D01*
X191741492Y-105175900D02*
X191779413Y-105133171D01*
X191851092Y-105044213D02*
X191884779Y-104998072D01*
X190469301Y-97341284D02*
X190444139Y-97284720D01*
X190944934Y-98095130D02*
X190896514Y-98044978D01*
X190896514Y-98044978D02*
X190849870Y-97993168D01*
X190721160Y-97828437D02*
X190682170Y-97770648D01*
X192297415Y-103983586D02*
X192305838Y-103921715D01*
X192196337Y-104403899D02*
X192215112Y-104345496D01*
X190417047Y-97229054D02*
X190388056Y-97174353D01*
X190444139Y-97284720D02*
X190417047Y-97229054D01*
X190492503Y-97398680D02*
X190469301Y-97341284D01*
X190518645Y-97463305D02*
X190492503Y-97398680D01*
X192305838Y-103921715D02*
X192312109Y-103859589D01*
X190547023Y-97526980D02*
X190518645Y-97463305D01*
X190762140Y-97884832D02*
X190721160Y-97828437D01*
X192146286Y-99537622D02*
X191980834Y-99222181D01*
X191947676Y-104902702D02*
X191980834Y-104850597D01*
X192167415Y-99588995D02*
X192146286Y-99537622D01*
X192260091Y-99908664D02*
X192248782Y-99854278D01*
X192319345Y-100401889D02*
X192318148Y-100336253D01*
X192152873Y-104518616D02*
X192175583Y-104461628D01*
X191779413Y-105133171D02*
X191815958Y-105089261D01*
X135311746Y-87497808D02*
X135342294Y-87542829D01*
X135374188Y-87586906D02*
X135407400Y-87630000D01*
X135342294Y-87542829D02*
X135374188Y-87586906D01*
X161600249Y-116612253D02*
X161542513Y-116648728D01*
X162246666Y-115920109D02*
X162212184Y-115979057D01*
X155446598Y-116824411D02*
X155382648Y-116800446D01*
X155576763Y-116865723D02*
X155511328Y-116846178D01*
X160910257Y-116898057D02*
X160843166Y-116910808D01*
X161423475Y-116715659D02*
X161362312Y-116746038D01*
X161656706Y-116573829D02*
X161600249Y-116612253D01*
X161765521Y-116491311D02*
X161711818Y-116533499D01*
X155979872Y-116935226D02*
X155911829Y-116929403D01*
X160503345Y-116939889D02*
X156116357Y-116939889D01*
X161173105Y-116824411D02*
X161108374Y-116846178D01*
X162279116Y-115860019D02*
X162246666Y-115920109D01*
X162054768Y-116202065D02*
X162010771Y-116254296D01*
X161362312Y-116746038D02*
X161300147Y-116774311D01*
X162446479Y-115413418D02*
X162429180Y-115479482D01*
X155642828Y-116883023D02*
X155576763Y-116865723D01*
X160775679Y-116921261D02*
X160707874Y-116929403D01*
X160571628Y-116938723D02*
X160503345Y-116939889D01*
X160843166Y-116910808D02*
X160775679Y-116921261D01*
X162429180Y-115479482D02*
X162409635Y-115544918D01*
X161817753Y-116447315D02*
X161765521Y-116491311D01*
X155911829Y-116929403D02*
X155844024Y-116921261D01*
X161965017Y-116304995D02*
X161917559Y-116354102D01*
X162175710Y-116036793D02*
X162137285Y-116093250D01*
X161483566Y-116683210D02*
X161423475Y-116715659D01*
X161300147Y-116774311D02*
X161237054Y-116800446D01*
X161711818Y-116533499D02*
X161656706Y-116573829D01*
X162387867Y-115609648D02*
X162363902Y-115673597D01*
X160639830Y-116935226D02*
X160571628Y-116938723D01*
X155511328Y-116846178D02*
X155446598Y-116824411D01*
X161237054Y-116800446D02*
X161173105Y-116824411D01*
X162137285Y-116093250D02*
X162096956Y-116148362D01*
X162363902Y-115673597D02*
X162337768Y-115736691D01*
X156048075Y-116938723D02*
X155979872Y-116935226D01*
X162010771Y-116254296D02*
X161965017Y-116304995D01*
X160976874Y-116883023D02*
X160910257Y-116898057D01*
X162096956Y-116148362D02*
X162054768Y-116202065D01*
X156116357Y-116939889D02*
X156048075Y-116938723D01*
X160707874Y-116929403D02*
X160639830Y-116935226D01*
X161542513Y-116648728D02*
X161483566Y-116683210D01*
X162474264Y-115279710D02*
X162461513Y-115346801D01*
X162309495Y-115798856D02*
X162279116Y-115860019D01*
X162461513Y-115346801D02*
X162446479Y-115413418D01*
X162409635Y-115544918D02*
X162387867Y-115609648D01*
X155776536Y-116910808D02*
X155709445Y-116898057D01*
X155844024Y-116921261D02*
X155776536Y-116910808D01*
X154854181Y-116491311D02*
X154801949Y-116447315D01*
X154907884Y-116533499D02*
X154854181Y-116491311D01*
X162212184Y-115979057D02*
X162175710Y-116036793D01*
X161917559Y-116354102D02*
X161868452Y-116401561D01*
X155319555Y-116774311D02*
X155257390Y-116746038D01*
X155709445Y-116898057D02*
X155642828Y-116883023D01*
X161042939Y-116865723D02*
X160976874Y-116883023D01*
X161868452Y-116401561D02*
X161817753Y-116447315D01*
X154962996Y-116573829D02*
X154907884Y-116533499D01*
X155019453Y-116612253D02*
X154962996Y-116573829D01*
X155077189Y-116648728D02*
X155019453Y-116612253D01*
X162337768Y-115736691D02*
X162309495Y-115798856D01*
X155136136Y-116683210D02*
X155077189Y-116648728D01*
X155196227Y-116715659D02*
X155136136Y-116683210D01*
X155257390Y-116746038D02*
X155196227Y-116715659D01*
X161108374Y-116846178D02*
X161042939Y-116865723D01*
X155382648Y-116800446D02*
X155319555Y-116774311D01*
X162492863Y-110085132D02*
X162498684Y-110153165D01*
X159904402Y-106876601D02*
X159956637Y-106920610D01*
X162461526Y-109882779D02*
X162474273Y-109949860D01*
X159956637Y-106920610D02*
X160007339Y-106966377D01*
X162446497Y-109816172D02*
X162461526Y-109882779D01*
X152739218Y-106376208D02*
X152795168Y-106388833D01*
X162279184Y-109369630D02*
X162309554Y-109430786D01*
X159438981Y-106593517D02*
X159501153Y-106621799D01*
X159247182Y-106521628D02*
X159311921Y-106543403D01*
X152908133Y-106408704D02*
X152965033Y-106415931D01*
X162137395Y-109136424D02*
X162175809Y-109192876D01*
X161917732Y-108875588D02*
X161965177Y-108924693D01*
X162337819Y-109492943D02*
X162363945Y-109556029D01*
X162054902Y-109027617D02*
X162097078Y-109081316D01*
X152965033Y-106415931D02*
X153022135Y-106421341D01*
X158778567Y-106432553D02*
X158846621Y-106438378D01*
X159795579Y-106794060D02*
X159850695Y-106834401D01*
X158710354Y-106429055D02*
X158778567Y-106432553D01*
X162246744Y-109309547D02*
X162279184Y-109369630D01*
X162212273Y-109250606D02*
X162246744Y-109309547D01*
X158642061Y-106427889D02*
X158710354Y-106429055D01*
X159562324Y-106652187D02*
X159622421Y-106684646D01*
X152795168Y-106388833D02*
X152851493Y-106399669D01*
X162484717Y-115212222D02*
X162474264Y-115279710D01*
X162492860Y-115144417D02*
X162484717Y-115212222D01*
X159681375Y-106719138D02*
X159739116Y-106755624D01*
X162498683Y-115076374D02*
X162492860Y-115144417D01*
X159049036Y-106469734D02*
X159115663Y-106484772D01*
X162429203Y-109750117D02*
X162446497Y-109816172D01*
X159622421Y-106684646D02*
X159681375Y-106719138D01*
X162502179Y-115008171D02*
X162498683Y-115076374D01*
X162309554Y-109430786D02*
X162337819Y-109492943D01*
X162175809Y-109192876D02*
X162212273Y-109250606D01*
X162097078Y-109081316D02*
X162137395Y-109136424D01*
X153202345Y-106427889D02*
X158642061Y-106427889D01*
X153022135Y-106421341D02*
X153079379Y-106424929D01*
X162503345Y-114939889D02*
X162502179Y-115008171D01*
X162503345Y-110289628D02*
X162503345Y-114939889D01*
X162387903Y-109619969D02*
X162409664Y-109684690D01*
X162498684Y-110153165D02*
X162502180Y-110221357D01*
X162474273Y-109949860D02*
X162484723Y-110017337D01*
X162409664Y-109684690D02*
X162429203Y-109750117D01*
X153079379Y-106424929D02*
X153136709Y-106426692D01*
X159115663Y-106484772D02*
X159181737Y-106502077D01*
X152620539Y-106349312D02*
X152678692Y-106362523D01*
X162484723Y-110017337D02*
X162492863Y-110085132D01*
X158914437Y-106446523D02*
X158981935Y-106456979D01*
X162363945Y-109556029D02*
X162387903Y-109619969D01*
X162010918Y-108975389D02*
X162054902Y-109027617D01*
X161965177Y-108924693D02*
X162010918Y-108975389D01*
X159739116Y-106755624D02*
X159795579Y-106794060D01*
X160056448Y-107013848D02*
X161917732Y-108875588D01*
X159501153Y-106621799D02*
X159562324Y-106652187D01*
X160007339Y-106966377D02*
X160056448Y-107013848D01*
X153136709Y-106426692D02*
X153202345Y-106427889D01*
X159850695Y-106834401D02*
X159904402Y-106876601D01*
X159375879Y-106567375D02*
X159438981Y-106593517D01*
X159311921Y-106543403D02*
X159375879Y-106567375D01*
X158846621Y-106438378D02*
X158914437Y-106446523D01*
X152851493Y-106399669D02*
X152908133Y-106408704D01*
X152678692Y-106362523D02*
X152739218Y-106376208D01*
X158981935Y-106456979D02*
X159049036Y-106469734D01*
X159181737Y-106502077D02*
X159247182Y-106521628D01*
X162502180Y-110221357D02*
X162503345Y-110289628D01*
X134865950Y-84456875D02*
X134847890Y-84516489D01*
X135016471Y-84115502D02*
X134986510Y-84170113D01*
X134798772Y-86147216D02*
X134809672Y-86216102D01*
X134986510Y-84170113D02*
X134958456Y-84225727D01*
X134847890Y-84516489D02*
X134831904Y-84576693D01*
X134908202Y-84339700D02*
X134886062Y-84397922D01*
X134856675Y-86419896D02*
X134877047Y-86486597D01*
X134958456Y-84225727D02*
X134932342Y-84282279D01*
X135082379Y-87079922D02*
X135249415Y-87399726D01*
X135037469Y-86963474D02*
X135058915Y-87022087D01*
X134984276Y-86786736D02*
X135000737Y-86844195D01*
X134780423Y-84946209D02*
X134779345Y-85008489D01*
X134877047Y-86486597D02*
X134899732Y-86552548D01*
X134789038Y-84821946D02*
X134783655Y-84884003D01*
X134796564Y-84760113D02*
X134789038Y-84821946D01*
X135282573Y-87451884D02*
X135311746Y-87497808D01*
X135249415Y-87399726D02*
X135282573Y-87451884D01*
X135048305Y-84061961D02*
X135016471Y-84115502D01*
X134932342Y-84282279D02*
X134908202Y-84339700D01*
X135058915Y-87022087D02*
X135082379Y-87079922D01*
X134899732Y-86552548D02*
X134924703Y-86617667D01*
X135018069Y-86904153D02*
X135037469Y-86963474D01*
X134966106Y-86729794D02*
X134984276Y-86786736D01*
X134924703Y-86617667D02*
X134946242Y-86673421D01*
X134831904Y-84576693D02*
X134818010Y-84637413D01*
X135000737Y-86844195D02*
X135018069Y-86904153D01*
X134818010Y-84637413D02*
X134806225Y-84698577D01*
X134886062Y-84397922D02*
X134865950Y-84456875D01*
X135081971Y-84009554D02*
X135048305Y-84061961D01*
X134946242Y-86673421D02*
X134966106Y-86729794D01*
X134838641Y-86352525D02*
X134856675Y-86419896D01*
X134783655Y-84884003D02*
X134780423Y-84946209D01*
X134822967Y-86284566D02*
X134838641Y-86352525D01*
X134809672Y-86216102D02*
X134822967Y-86284566D01*
X134790281Y-86077992D02*
X134798772Y-86147216D01*
X134784208Y-86008514D02*
X134790281Y-86077992D01*
X134780561Y-85938866D02*
X134784208Y-86008514D01*
X134779345Y-85008489D02*
X134779345Y-85869134D01*
X134779345Y-85869134D02*
X134780561Y-85938866D01*
X134806225Y-84698577D02*
X134796564Y-84760113D01*
X133636335Y-96049163D02*
X133574990Y-96018557D01*
X134606345Y-96244489D02*
X134498397Y-96244489D01*
X138773752Y-96260862D02*
X138710397Y-96270051D01*
X132575964Y-95143011D02*
X132535900Y-95088004D01*
X132661587Y-95248778D02*
X132617876Y-95196623D01*
X132754205Y-95348477D02*
X132707048Y-95299416D01*
X133698693Y-96077648D02*
X133636335Y-96049163D01*
X133826153Y-96128126D02*
X133761991Y-96103979D01*
X133232134Y-95792577D02*
X133179820Y-95748269D01*
X135016568Y-96291857D02*
X134606345Y-96244489D01*
X138459062Y-96318926D02*
X138395707Y-96328116D01*
X138522092Y-96307713D02*
X138459062Y-96318926D01*
X134225019Y-96225717D02*
X134157277Y-96215183D01*
X133397747Y-95914390D02*
X133341161Y-95875686D01*
X135472371Y-96344489D02*
X135406691Y-96343410D01*
X132707048Y-95299416D02*
X132661587Y-95248778D01*
X133455626Y-95951131D02*
X133397747Y-95914390D01*
X138584730Y-96294489D02*
X138522092Y-96307713D01*
X138647368Y-96281264D02*
X138584730Y-96294489D01*
X135406691Y-96343410D02*
X135341081Y-96340175D01*
X133891106Y-96150059D02*
X133826153Y-96128126D01*
X132617876Y-95196623D02*
X132575964Y-95143011D01*
X134089936Y-96202334D02*
X134023075Y-96187185D01*
X134429852Y-96243314D02*
X134361386Y-96239790D01*
X133514730Y-95985867D02*
X133455626Y-95951131D01*
X133341161Y-95875686D02*
X133285935Y-95835066D01*
X133761991Y-96103979D02*
X133698693Y-96077648D01*
X135275614Y-96334787D02*
X135210358Y-96327252D01*
X132803004Y-95395907D02*
X132754205Y-95348477D01*
X133285935Y-95835066D02*
X133232134Y-95792577D01*
X134361386Y-96239790D02*
X134293082Y-96233922D01*
X138332089Y-96335274D02*
X138268275Y-96340392D01*
X135210358Y-96327252D02*
X135145385Y-96317578D01*
X134157277Y-96215183D02*
X134089936Y-96202334D01*
X138268275Y-96340392D02*
X138204330Y-96343464D01*
X133574990Y-96018557D02*
X133514730Y-95985867D01*
X134293082Y-96233922D02*
X134225019Y-96225717D01*
X135080765Y-96305776D02*
X135016568Y-96291857D01*
X138710397Y-96270051D02*
X138647368Y-96281264D01*
X138395707Y-96328116D02*
X138332089Y-96335274D01*
X138204330Y-96343464D02*
X138140320Y-96344489D01*
X138140320Y-96344489D02*
X135472371Y-96344489D01*
X138901184Y-96248586D02*
X138837370Y-96253704D01*
X135341081Y-96340175D02*
X135275614Y-96334787D01*
X132228811Y-94410086D02*
X132213882Y-94343693D01*
X132245990Y-94475932D02*
X132228811Y-94410086D01*
X132265399Y-94541156D02*
X132245990Y-94475932D01*
X132287015Y-94605682D02*
X132265399Y-94541156D01*
X134498397Y-96244489D02*
X134429852Y-96243314D01*
X134023075Y-96187185D02*
X133956772Y-96169753D01*
X132310814Y-94669435D02*
X132287015Y-94605682D01*
X132336769Y-94732342D02*
X132310814Y-94669435D01*
X133129056Y-95702194D02*
X132803004Y-95395907D01*
X133956772Y-96169753D02*
X133891106Y-96150059D01*
X132364848Y-94794329D02*
X132336769Y-94732342D01*
X132395020Y-94855325D02*
X132364848Y-94794329D01*
X135145385Y-96317578D02*
X135080765Y-96305776D01*
X138837370Y-96253704D02*
X138773752Y-96260862D01*
X132427250Y-94915259D02*
X132395020Y-94855325D01*
X132461500Y-94974062D02*
X132427250Y-94915259D01*
X132497730Y-95031666D02*
X132461500Y-94974062D01*
X133179820Y-95748269D02*
X133129056Y-95702194D01*
X132535900Y-95088004D02*
X132497730Y-95031666D01*
X144395316Y-98645272D02*
X144380873Y-98585026D01*
X144440345Y-99079289D02*
X144439153Y-99013788D01*
X143296875Y-97003234D02*
X143260918Y-96968280D01*
X141864199Y-96350117D02*
X141804228Y-96347152D01*
X141541081Y-96340175D02*
X141475614Y-96334787D01*
X142574539Y-96519340D02*
X142221271Y-96408145D01*
X141706345Y-96344489D02*
X141672371Y-96344489D01*
X143260918Y-96968280D02*
X143224001Y-96934340D01*
X144418129Y-98767042D02*
X144407740Y-98705966D01*
X142734889Y-96593941D02*
X142682263Y-96567327D01*
X142887144Y-96683919D02*
X142837384Y-96652269D01*
X144326620Y-98373403D02*
X144309075Y-98321649D01*
X144374980Y-104168542D02*
X144388664Y-104108016D01*
X143224001Y-96934340D02*
X142939249Y-96717129D01*
X144356960Y-98478391D02*
X144342587Y-98425667D01*
X143860427Y-97571728D02*
X143821818Y-97529255D01*
X144309075Y-98321649D02*
X144289966Y-98270451D01*
X142043054Y-96370979D02*
X141983679Y-96362037D01*
X141042157Y-96260002D02*
X140983427Y-96253221D01*
X141216568Y-96291857D02*
X141158790Y-96279331D01*
X141280765Y-96305776D02*
X141216568Y-96291857D01*
X144361768Y-104226695D02*
X144374980Y-104168542D01*
X142160744Y-96394777D02*
X142102098Y-96381896D01*
X142221271Y-96408145D02*
X142160744Y-96394777D01*
X144440345Y-103644889D02*
X144440345Y-99079289D01*
X144426474Y-98828431D02*
X144418129Y-98767042D01*
X138965129Y-96245513D02*
X138901184Y-96248586D01*
X140806345Y-96244489D02*
X139029139Y-96244489D01*
X143781875Y-97488034D02*
X143296875Y-97003234D01*
X144102275Y-97900052D02*
X144069117Y-97847894D01*
X142939249Y-96717129D02*
X142887144Y-96683919D01*
X141100632Y-96268709D02*
X141042157Y-96260002D01*
X144369726Y-98531527D02*
X144356960Y-98478391D01*
X139029139Y-96244489D02*
X138965129Y-96245513D01*
X141475614Y-96334787D02*
X141410358Y-96327252D01*
X141345385Y-96317578D02*
X141280765Y-96305776D01*
X142682263Y-96567327D02*
X142628794Y-96542451D01*
X144439153Y-99013788D02*
X144436991Y-98951873D01*
X140924506Y-96248371D02*
X140865457Y-96245460D01*
X144289966Y-98270451D02*
X144269311Y-98219856D01*
X140865457Y-96245460D02*
X140806345Y-96244489D01*
X142837384Y-96652269D02*
X142786614Y-96622265D01*
X144342587Y-98425667D02*
X144326620Y-98373403D01*
X144380873Y-98585026D02*
X144369726Y-98531527D01*
X142628794Y-96542451D02*
X142574539Y-96519340D01*
X140983427Y-96253221D02*
X140924506Y-96248371D01*
X143821818Y-97529255D02*
X143781875Y-97488034D01*
X144439148Y-103710525D02*
X144440345Y-103644889D01*
X141158790Y-96279331D02*
X141100632Y-96268709D01*
X144432763Y-98890064D02*
X144426474Y-98828431D01*
X142102098Y-96381896D02*
X142043054Y-96370979D01*
X141410358Y-96327252D02*
X141345385Y-96317578D01*
X141606691Y-96343410D02*
X141541081Y-96340175D01*
X141672371Y-96344489D02*
X141606691Y-96343410D01*
X144069117Y-97847894D02*
X143860427Y-97571728D01*
X144407740Y-98705966D02*
X144395316Y-98645272D01*
X144436991Y-98951873D02*
X144432763Y-98890064D01*
X141804228Y-96347152D02*
X141755305Y-96345155D01*
X144388664Y-104108016D02*
X144439148Y-103710525D01*
X141983679Y-96362037D02*
X141924038Y-96355081D01*
X141755305Y-96345155D02*
X141706345Y-96344489D01*
X141924038Y-96355081D02*
X141864199Y-96350117D01*
X142786614Y-96622265D02*
X142734889Y-96593941D01*
X144269311Y-98219856D02*
X144102275Y-97900052D01*
X144267286Y-104509156D02*
X144289907Y-104453978D01*
X142507981Y-106568997D02*
X142546405Y-106512540D01*
X142718673Y-106300794D02*
X142766132Y-106251687D01*
X142672919Y-106351493D02*
X142718673Y-106300794D01*
X142319788Y-106932192D02*
X142345923Y-106869098D01*
X150845421Y-113068326D02*
X150784182Y-113063085D01*
X142628923Y-106403725D02*
X142672919Y-106351493D01*
X142437024Y-106685680D02*
X142471506Y-106626733D01*
X142404575Y-106745770D02*
X142437024Y-106685680D01*
X142254511Y-107126307D02*
X142274056Y-107060871D01*
X150784182Y-113063085D02*
X150722799Y-113059938D01*
X149475226Y-113058889D02*
X144180409Y-113059057D01*
X151205871Y-113143228D02*
X151146979Y-113125638D01*
X142237211Y-107192372D02*
X142254511Y-107126307D01*
X142190831Y-107461372D02*
X142198973Y-107393567D01*
X151844312Y-113502205D02*
X151797304Y-113462609D01*
X151434415Y-113233354D02*
X151378467Y-113207909D01*
X151596596Y-113320934D02*
X151543544Y-113289900D01*
X151889941Y-113543384D02*
X151844312Y-113502205D01*
X154702143Y-116354102D02*
X151934137Y-113586097D01*
X144180408Y-113059057D02*
G75*
G02X142180345Y-111059057I-63J2000000D01*
G01*
X142345923Y-106869098D02*
X142374196Y-106806934D01*
X151934137Y-113586097D02*
X151889941Y-113543384D01*
X144346637Y-104284378D02*
X144361768Y-104226695D01*
X144329604Y-104341527D02*
X144346637Y-104284378D01*
X142198973Y-107393567D02*
X142209426Y-107326080D01*
X143862492Y-105149900D02*
X144068676Y-104876702D01*
X150661345Y-113058889D02*
X149475226Y-113058889D01*
X151543544Y-113289900D02*
X151489462Y-113260695D01*
X144310687Y-104398082D02*
X144329604Y-104341527D01*
X142209426Y-107326080D02*
X142222177Y-107258988D01*
X151797304Y-113462609D02*
X151748971Y-113424640D01*
X150906445Y-113075654D02*
X150845421Y-113068326D01*
X142586735Y-106457428D02*
X142628923Y-106403725D01*
X151027566Y-113096538D02*
X150967184Y-113085062D01*
X142471506Y-106626733D02*
X142507981Y-106568997D01*
X151321683Y-113184388D02*
X151264129Y-113162819D01*
X151748971Y-113424640D02*
X151699370Y-113388343D01*
X144289907Y-104453978D02*
X144310687Y-104398082D01*
X142185008Y-107529416D02*
X142190831Y-107461372D01*
X151146979Y-113125638D02*
X151087521Y-113110068D01*
X144068676Y-104876702D02*
X144101834Y-104824597D01*
X142181511Y-107597618D02*
X142185008Y-107529416D01*
X143782137Y-105235681D02*
X143823015Y-105193446D01*
X142274056Y-107060871D02*
X142295823Y-106996141D01*
X151378467Y-113207909D02*
X151321683Y-113184388D01*
X142180345Y-107665900D02*
X142181511Y-107597618D01*
X144101834Y-104824597D02*
X144267286Y-104509156D01*
X150722799Y-113059938D02*
X150661345Y-113058889D01*
X143823015Y-105193446D02*
X143862492Y-105149900D01*
X151489462Y-113260695D02*
X151434415Y-113233354D01*
X154751251Y-116401561D02*
X154702143Y-116354102D01*
X142766132Y-106251687D02*
X143782137Y-105235681D01*
X151087521Y-113110068D02*
X151027566Y-113096538D01*
X142546405Y-106512540D02*
X142586735Y-106457428D01*
X142374196Y-106806934D02*
X142404575Y-106745770D01*
X151648559Y-113353761D02*
X151596596Y-113320934D01*
X142295823Y-106996141D02*
X142319788Y-106932192D01*
X142180345Y-111059057D02*
X142180345Y-107665900D01*
X151264129Y-113162819D02*
X151205871Y-113143228D01*
X150967184Y-113085062D02*
X150906445Y-113075654D01*
X154801949Y-116447315D02*
X154751251Y-116401561D01*
X142222177Y-107258988D02*
X142237211Y-107192372D01*
X151699370Y-113388343D02*
X151648559Y-113353761D01*
X126662531Y-79663338D02*
X126611449Y-79628166D01*
X93491028Y-79312856D02*
X93424245Y-79320752D01*
X101756069Y-79308356D02*
X99711127Y-79306529D01*
X132173503Y-94006242D02*
X132172345Y-93938201D01*
X132201221Y-94276831D02*
X132190842Y-94209577D01*
X132024295Y-86027246D02*
X132001311Y-85970656D01*
X125678355Y-79329157D02*
X125616345Y-79328089D01*
X125924923Y-79354736D02*
X125863649Y-79345158D01*
X126282369Y-79455841D02*
X126224365Y-79433889D01*
X132001311Y-85970656D02*
X131977985Y-85915125D01*
X132096668Y-86260414D02*
X132081553Y-86201234D01*
X131925826Y-85806558D02*
X131897052Y-85753644D01*
X132190842Y-94209577D02*
X132182757Y-94142008D01*
X132168900Y-86718777D02*
X132122924Y-86380441D01*
X132182757Y-94142008D02*
X132176975Y-94074204D01*
X126760909Y-79738853D02*
X126712370Y-79700248D01*
X126808088Y-79779108D02*
X126760909Y-79738853D01*
X132213882Y-94343693D02*
X132201221Y-94276831D01*
X126853853Y-79820964D02*
X126808088Y-79779108D01*
X131897052Y-85753644D02*
X131866524Y-85701723D01*
X132176975Y-94074204D02*
X132173503Y-94006242D01*
X93625200Y-79303819D02*
X93558038Y-79307210D01*
X132064439Y-86142602D02*
X132045346Y-86084583D01*
X99711127Y-79306529D02*
X95413745Y-79302689D01*
X95413745Y-79302689D02*
X93692439Y-79302689D01*
X123839139Y-79328089D02*
X101756069Y-79308356D01*
X125740291Y-79332361D02*
X125678355Y-79329157D01*
X131952814Y-85860405D02*
X131925826Y-85806558D01*
X126559187Y-79594775D02*
X126505804Y-79563205D01*
X132171484Y-86774406D02*
X132168900Y-86718777D01*
X132081553Y-86201234D02*
X132064439Y-86142602D01*
X132045346Y-86084583D02*
X132024295Y-86027246D01*
X132172345Y-93938201D02*
X132172345Y-86830089D01*
X131558001Y-85286024D02*
X126982124Y-79955635D01*
X125863649Y-79345158D02*
X125802080Y-79337697D01*
X131569060Y-85297592D02*
X131558001Y-85286024D01*
X132109766Y-86320072D02*
X132096668Y-86260414D01*
X126451366Y-79533492D02*
X126395937Y-79505672D01*
X132122924Y-86380441D02*
X132109766Y-86320072D01*
X126165639Y-79413949D02*
X126106261Y-79396043D01*
X126106261Y-79396043D02*
X126046302Y-79380194D01*
X126224365Y-79433889D02*
X126165639Y-79413949D01*
X131801117Y-85598694D02*
X131569060Y-85297592D01*
X126940923Y-79909280D02*
X126898149Y-79864372D01*
X126505804Y-79563205D02*
X126451366Y-79533492D01*
X126611449Y-79628166D02*
X126559187Y-79594775D01*
X131834275Y-85650852D02*
X131801117Y-85598694D01*
X131977985Y-85915125D02*
X131952814Y-85860405D01*
X132172345Y-86830089D02*
X132171484Y-86774406D01*
X125802080Y-79337697D02*
X125740291Y-79332361D01*
X126339582Y-79479778D02*
X126282369Y-79455841D01*
X126395937Y-79505672D02*
X126339582Y-79479778D01*
X126712370Y-79700248D02*
X126662531Y-79663338D01*
X126898149Y-79864372D02*
X126853853Y-79820964D01*
X93291665Y-79343255D02*
X93226017Y-79357837D01*
X93558038Y-79307210D02*
X93491028Y-79312856D01*
X125985832Y-79366419D02*
X125924923Y-79354736D01*
X93692439Y-79302689D02*
X93625200Y-79303819D01*
X126046302Y-79380194D02*
X125985832Y-79366419D01*
X126982124Y-79955635D02*
X126940923Y-79909280D01*
X131866524Y-85701723D02*
X131834275Y-85650852D01*
X93357766Y-79330889D02*
X93291665Y-79343255D01*
X93424245Y-79320752D02*
X93357766Y-79330889D01*
X125616345Y-79328089D02*
X123839139Y-79328089D01*
X173782756Y-79261463D02*
X173721074Y-79256146D01*
X135117431Y-83958343D02*
X135081971Y-84009554D01*
X135154642Y-83908389D02*
X135117431Y-83958343D01*
X135193558Y-83859753D02*
X135154642Y-83908389D01*
X135412034Y-83638312D02*
X135365325Y-83679522D01*
X135234135Y-83812492D02*
X135193558Y-83859753D01*
X135710333Y-83423709D02*
X135661794Y-83457754D01*
X135560317Y-83524716D02*
X135509589Y-83560863D01*
X140422081Y-79786584D02*
X140369610Y-79831506D01*
X174590908Y-79550945D02*
X174538704Y-79517665D01*
X140476072Y-79743500D02*
X140422081Y-79786584D01*
X140890950Y-79497425D02*
X140828214Y-79526329D01*
X141084617Y-79423940D02*
X141019228Y-79446200D01*
X141352677Y-79357838D02*
X141284846Y-79370881D01*
X173905388Y-79278443D02*
X173844218Y-79268899D01*
X143419345Y-79328089D02*
X141696350Y-79328089D01*
X174026563Y-79303812D02*
X173966193Y-79290085D01*
X173966193Y-79290085D02*
X173905388Y-79278443D01*
X174538704Y-79517665D02*
X174485386Y-79486199D01*
X135276322Y-83766664D02*
X135234135Y-83812492D01*
X140828214Y-79526329D02*
X140766514Y-79557382D01*
X135757842Y-83388240D02*
X135710333Y-83423709D01*
X140369610Y-79831506D02*
X140317056Y-79876497D01*
X135320069Y-83722323D02*
X135276322Y-83766664D01*
X135365325Y-83679522D02*
X135320069Y-83722323D01*
X135460141Y-83598743D02*
X135412034Y-83638312D01*
X135509589Y-83560863D02*
X135460141Y-83598743D01*
X135661794Y-83457754D02*
X135612266Y-83490346D01*
X173659246Y-79252954D02*
X173597345Y-79251889D01*
X140531519Y-79702307D02*
X140476072Y-79743500D01*
X140262978Y-79919643D02*
X135757842Y-83388240D01*
X174262258Y-79379199D02*
X174204341Y-79357322D01*
X140954647Y-79470705D02*
X140890950Y-79497425D01*
X174319387Y-79403054D02*
X174262258Y-79379199D01*
X171820139Y-79251889D02*
X167598948Y-79263214D01*
X140317056Y-79876497D02*
X140262978Y-79919643D01*
X140588355Y-79663053D02*
X140531519Y-79702307D01*
X141627287Y-79329282D02*
X141558305Y-79332859D01*
X140646512Y-79625785D02*
X140588355Y-79663053D01*
X141284846Y-79370881D02*
X141217505Y-79386258D01*
X174375663Y-79428860D02*
X174319387Y-79403054D01*
X174145707Y-79337450D02*
X174086424Y-79319607D01*
X173597345Y-79251889D02*
X171820139Y-79251889D01*
X174431017Y-79456586D02*
X174375663Y-79428860D01*
X173721074Y-79256146D02*
X173659246Y-79252954D01*
X141558305Y-79332859D02*
X141489489Y-79338816D01*
X140766514Y-79557382D02*
X140705922Y-79590547D01*
X141217505Y-79386258D02*
X141150736Y-79403952D01*
X167598948Y-79263214D02*
X165365120Y-79269208D01*
X173844218Y-79268899D02*
X173782756Y-79261463D01*
X174086424Y-79319607D02*
X174026563Y-79303812D01*
X165365120Y-79269208D02*
X143419345Y-79328089D01*
X140705922Y-79590547D02*
X140646512Y-79625785D01*
X141696350Y-79328089D02*
X141627287Y-79329282D01*
X141420919Y-79347145D02*
X141352677Y-79357838D01*
X141150736Y-79403952D02*
X141084617Y-79423940D01*
X141489489Y-79338816D02*
X141420919Y-79347145D01*
X174485386Y-79486199D02*
X174431017Y-79456586D01*
X174204341Y-79357322D02*
X174145707Y-79337450D01*
X135612266Y-83490346D02*
X135560317Y-83524716D01*
X141019228Y-79446200D02*
X140954647Y-79470705D01*
X175254325Y-80348741D02*
X175229164Y-80292174D01*
X179520792Y-84904508D02*
X179485037Y-84863500D01*
X179588503Y-84989672D02*
X179555291Y-84946578D01*
X179960553Y-85727234D02*
X179943439Y-85668602D01*
X180014039Y-85962129D02*
X180001924Y-85906441D01*
X175395387Y-80658679D02*
X175362637Y-80597124D01*
X175730042Y-81102716D02*
X175681611Y-81052556D01*
X179404274Y-84777242D02*
X179358980Y-84732364D01*
X179680117Y-85124694D02*
X179650944Y-85078770D01*
X179804826Y-85332558D02*
X179776052Y-85279644D01*
X180051345Y-94244489D02*
X180051345Y-93226190D01*
X180001924Y-85906441D02*
X179988766Y-85846072D01*
X180047900Y-86244777D02*
X180044716Y-86187875D01*
X179880311Y-85496656D02*
X179856985Y-85441125D01*
X175430263Y-80719056D02*
X175395387Y-80658679D01*
X175506220Y-80835979D02*
X175467222Y-80778179D01*
X179988766Y-85846072D02*
X179975668Y-85786414D01*
X180024386Y-86018173D02*
X180014039Y-85962129D01*
X175634957Y-81000738D02*
X175590138Y-80947326D01*
X179975668Y-85786414D02*
X179960553Y-85727234D01*
X180039732Y-86131102D02*
X180032953Y-86074516D01*
X175467222Y-80778179D02*
X175430263Y-80719056D01*
X179713275Y-85176852D02*
X179680117Y-85124694D01*
X174641937Y-79586001D02*
X174590908Y-79550945D01*
X174833114Y-79743120D02*
X174787375Y-79701397D01*
X175229164Y-80292174D02*
X175202073Y-80236506D01*
X180051345Y-93226190D02*
X180051345Y-86356089D01*
X175590138Y-80947326D02*
X175547208Y-80892384D01*
X175362637Y-80597124D02*
X175332053Y-80534465D01*
X179903295Y-85553246D02*
X179880311Y-85496656D01*
X180050484Y-86300406D02*
X180047900Y-86244777D01*
X179776052Y-85279644D02*
X179745524Y-85227723D01*
X179943439Y-85668602D02*
X179924346Y-85610583D01*
X179620397Y-85033749D02*
X179588503Y-84989672D01*
X174920154Y-79831161D02*
X174877391Y-79786392D01*
X174691730Y-79622791D02*
X174641937Y-79586001D01*
X175109548Y-80075547D02*
X175075078Y-80024121D01*
X175332053Y-80534465D02*
X175303671Y-80470778D01*
X179856985Y-85441125D02*
X179831814Y-85386405D01*
X175000936Y-79924975D02*
X174961352Y-79877373D01*
X175142230Y-80128129D02*
X175109548Y-80075547D01*
X179485037Y-84863500D02*
X179448060Y-84823592D01*
X179831814Y-85386405D02*
X179804826Y-85332558D01*
X180044716Y-86187875D02*
X180039732Y-86131102D01*
X179650944Y-85078770D02*
X179620397Y-85033749D01*
X180051345Y-86356089D02*
X180050484Y-86300406D01*
X175202073Y-80236506D02*
X175173083Y-80181803D01*
X179924346Y-85610583D02*
X179903295Y-85553246D01*
X180032953Y-86074516D02*
X180024386Y-86018173D01*
X175547208Y-80892384D02*
X175506220Y-80835979D01*
X179358980Y-84732364D02*
X175730042Y-81102716D01*
X175681611Y-81052556D02*
X175634957Y-81000738D01*
X179745524Y-85227723D02*
X179713275Y-85176852D01*
X174961352Y-79877373D02*
X174920154Y-79831161D01*
X174740229Y-79661271D02*
X174691730Y-79622791D01*
X179448060Y-84823592D02*
X179404274Y-84777242D01*
X175277526Y-80406140D02*
X175254325Y-80348741D01*
X174787375Y-79701397D02*
X174740229Y-79661271D01*
X174877391Y-79786392D02*
X174833114Y-79743120D01*
X175075078Y-80024121D02*
X175038859Y-79973911D01*
X175038859Y-79973911D02*
X175000936Y-79924975D01*
X175173083Y-80181803D02*
X175142230Y-80128129D01*
X179555291Y-84946578D02*
X179520792Y-84904508D01*
X175303671Y-80470778D02*
X175277526Y-80406140D01*
X92845754Y-79490749D02*
X92785317Y-79520238D01*
X87461005Y-84173376D02*
X87434784Y-84230024D01*
X87436756Y-86915481D02*
X87441734Y-86975556D01*
X87431807Y-86806498D02*
X87433792Y-86855272D01*
X87407472Y-86520121D02*
X87431145Y-86577064D01*
X87657982Y-83855598D02*
X87620624Y-83905607D01*
X87366043Y-86403971D02*
X87385762Y-86462401D01*
X87319044Y-86225112D02*
X87332664Y-86285257D01*
X87349980Y-84464670D02*
X87333926Y-84524992D01*
X87551220Y-84009359D02*
X87519258Y-84062977D01*
X87368116Y-84404941D02*
X87349980Y-84464670D01*
X87519258Y-84062977D02*
X87489175Y-84117672D01*
X87780134Y-83713755D02*
X87737785Y-83759614D01*
X87824048Y-83669393D02*
X87780134Y-83713755D01*
X93226017Y-79357837D02*
X93160896Y-79374617D01*
X92317424Y-79849443D02*
X92290203Y-79872972D01*
X92344216Y-79825429D02*
X92317424Y-79849443D01*
X93160896Y-79374617D02*
X93096377Y-79393577D01*
X92725905Y-79551742D02*
X92667586Y-79585226D01*
X87388312Y-84345876D02*
X87368116Y-84404941D01*
X92907149Y-79463309D02*
X92845754Y-79490749D01*
X87620624Y-83905607D02*
X87585022Y-83956881D01*
X87916357Y-83585366D02*
X87869474Y-83626579D01*
X92667586Y-79585226D02*
X92610426Y-79620652D01*
X92499839Y-79697166D02*
X92446536Y-79738167D01*
X92290203Y-79872972D02*
X87916357Y-83585366D01*
X87448722Y-87035432D02*
X87457710Y-87095039D01*
X87298437Y-84708788D02*
X87290879Y-84770751D01*
X87441734Y-86975556D02*
X87448722Y-87035432D01*
X87385762Y-86462401D02*
X87407472Y-86520121D01*
X87285369Y-85980934D02*
X87290645Y-86042375D01*
X87433792Y-86855272D02*
X87436756Y-86915481D01*
X87431145Y-86757689D02*
X87431807Y-86806498D01*
X87410544Y-84287547D02*
X87388312Y-84345876D01*
X87489175Y-84117672D02*
X87461005Y-84173376D01*
X87307492Y-86164536D02*
X87319044Y-86225112D01*
X87431145Y-86577064D02*
X87431145Y-86757689D01*
X92785317Y-79520238D02*
X92725905Y-79551742D01*
X87348337Y-86344900D02*
X87366043Y-86403971D01*
X87332664Y-86285257D02*
X87348337Y-86344900D01*
X87298022Y-86103600D02*
X87307492Y-86164536D01*
X87290645Y-86042375D02*
X87298022Y-86103600D01*
X87290879Y-84770751D02*
X87285473Y-84832939D01*
X92394643Y-79780938D02*
X92344216Y-79825429D01*
X87737785Y-83759614D02*
X87697051Y-83806914D01*
X87319974Y-84585835D02*
X87308139Y-84647125D01*
X93096377Y-79393577D02*
X93032531Y-79414695D01*
X87281145Y-85857689D02*
X87282202Y-85919347D01*
X87281145Y-84957689D02*
X87281145Y-85857689D01*
X93032531Y-79414695D02*
X92969431Y-79437948D01*
X92969431Y-79437948D02*
X92907149Y-79463309D01*
X92610426Y-79620652D02*
X92554489Y-79657979D01*
X87282202Y-85919347D02*
X87285369Y-85980934D01*
X87282228Y-84895276D02*
X87281145Y-84957689D01*
X87434784Y-84230024D02*
X87410544Y-84287547D01*
X87308139Y-84647125D02*
X87298437Y-84708788D01*
X92446536Y-79738167D02*
X92394643Y-79780938D01*
X87333926Y-84524992D02*
X87319974Y-84585835D01*
X92554489Y-79657979D02*
X92499839Y-79697166D01*
X87585022Y-83956881D02*
X87551220Y-84009359D01*
X87697051Y-83806914D02*
X87657982Y-83855598D01*
X87869474Y-83626579D02*
X87824048Y-83669393D01*
X87285473Y-84832939D02*
X87282228Y-84895276D01*
X113647842Y-107875674D02*
X113689899Y-107930971D01*
X112354240Y-107133166D02*
X112422866Y-107143982D01*
X114014683Y-108617632D02*
X114030750Y-108685221D01*
X113975559Y-108484330D02*
X113996279Y-108550641D01*
X113838196Y-108165736D02*
X113870064Y-108227468D01*
X106371478Y-107113022D02*
X106427345Y-107113889D01*
X113461204Y-107670070D02*
X113510514Y-107719008D01*
X113303501Y-107533934D02*
X113357635Y-107577477D01*
X113132492Y-107414942D02*
X113190861Y-107452617D01*
X112146691Y-107115095D02*
X112216070Y-107118714D01*
X105401515Y-106866062D02*
X105454537Y-106892756D01*
X105563078Y-106940830D02*
X105620564Y-106964350D01*
X112216070Y-107118714D02*
X112285281Y-107124740D01*
X106146140Y-107095519D02*
X106202482Y-107102267D01*
X106202482Y-107102267D02*
X106259009Y-107107236D01*
X112692378Y-107210841D02*
X112758102Y-107233354D01*
X114030750Y-108685221D02*
X114044459Y-108753328D01*
X112625912Y-107190624D02*
X112692378Y-107210841D01*
X114403453Y-113261926D02*
X114407562Y-113330461D01*
X112558784Y-107172728D02*
X112625912Y-107190624D01*
X105620564Y-106964350D02*
X105678828Y-106985874D01*
X113410223Y-107622874D02*
X113461204Y-107670070D01*
X106427345Y-107113889D02*
X112077229Y-107113889D01*
X106034234Y-107076713D02*
X106090039Y-107086998D01*
X113603890Y-107821872D02*
X113647842Y-107875674D01*
X113804203Y-108105148D02*
X113838196Y-108165736D01*
X112950032Y-107314385D02*
X113012004Y-107345784D01*
X105508411Y-106917688D02*
X105563078Y-106940830D01*
X114071294Y-108959926D02*
X114403453Y-113261926D01*
X114064744Y-108890763D02*
X114071294Y-108959926D01*
X114055795Y-108821869D02*
X114064744Y-108890763D01*
X114044459Y-108753328D02*
X114055795Y-108821869D01*
X113952548Y-108418779D02*
X113975559Y-108484330D01*
X105918255Y-107051516D02*
X105978781Y-107064674D01*
X112491075Y-107157174D02*
X112558784Y-107172728D01*
X112285281Y-107124740D02*
X112354240Y-107133166D01*
X105857584Y-107038215D02*
X105918255Y-107051516D01*
X113689899Y-107930971D02*
X113730010Y-107987694D01*
X113996279Y-108550641D02*
X114014683Y-108617632D01*
X113927275Y-108354066D02*
X113952548Y-108418779D01*
X113870064Y-108227468D02*
X113899769Y-108290270D01*
X113768127Y-108045776D02*
X113804203Y-108105148D01*
X105797408Y-107022828D02*
X105857584Y-107038215D01*
X113012004Y-107345784D02*
X113072849Y-107379317D01*
X106259009Y-107107236D02*
X106315664Y-107110421D01*
X112823004Y-107258136D02*
X112887007Y-107285157D01*
X105737799Y-107005374D02*
X105797408Y-107022828D01*
X113558095Y-107769629D02*
X113603890Y-107821872D01*
X105454537Y-106892756D02*
X105508411Y-106917688D01*
X113730010Y-107987694D02*
X113768127Y-108045776D01*
X113510514Y-107719008D02*
X113558095Y-107769629D01*
X113357635Y-107577477D02*
X113410223Y-107622874D01*
X113247887Y-107492297D02*
X113303501Y-107533934D01*
X113190861Y-107452617D02*
X113247887Y-107492297D01*
X112422866Y-107143982D02*
X112491075Y-107157174D01*
X113072849Y-107379317D02*
X113132492Y-107414942D01*
X112758102Y-107233354D02*
X112823004Y-107258136D01*
X112077229Y-107113889D02*
X112146691Y-107115095D01*
X106315664Y-107110421D02*
X106371478Y-107113022D01*
X105978781Y-107064674D02*
X106034234Y-107076713D01*
X105678828Y-106985874D02*
X105737799Y-107005374D01*
X112887007Y-107285157D02*
X112950032Y-107314385D01*
X106090039Y-107086998D02*
X106146140Y-107095519D01*
X113899769Y-108290270D02*
X113927275Y-108354066D01*
X101909821Y-91586108D02*
X101948155Y-91643068D01*
X101690146Y-91322835D02*
X101737646Y-91372409D01*
X105036454Y-106630852D02*
X105091356Y-106671906D01*
X104836553Y-106454681D02*
X104880634Y-106496750D01*
X102522481Y-102882801D02*
X102525886Y-102950106D01*
X103043015Y-104589702D02*
X103272516Y-104887868D01*
X102158887Y-92073748D02*
X102180337Y-92138969D01*
X102109338Y-91945705D02*
X102135212Y-92009301D01*
X102562084Y-103217035D02*
X102576727Y-103282816D01*
X102892563Y-104330873D02*
X102919309Y-104383979D01*
X102593578Y-103348066D02*
X102612617Y-103412712D01*
X101640973Y-91274920D02*
X101690146Y-91322835D01*
X102266369Y-92610660D02*
X102269326Y-92679254D01*
X102867586Y-104276912D02*
X102892563Y-104330873D01*
X102243409Y-92406052D02*
X102253403Y-92473978D01*
X102531556Y-103017258D02*
X102539486Y-103084181D01*
X102231090Y-92338508D02*
X102243409Y-92406052D01*
X102521345Y-102815420D02*
X102522481Y-102882801D01*
X102733718Y-103866980D02*
X102844404Y-104222156D01*
X102633824Y-103476679D02*
X102707904Y-103747912D01*
X102081297Y-91883035D02*
X102109338Y-91945705D01*
X102844404Y-104222156D02*
X102867586Y-104276912D01*
X101984511Y-91701309D02*
X102018847Y-91760765D01*
X101783416Y-91423585D02*
X101827403Y-91476302D01*
X102216459Y-92271427D02*
X102231090Y-92338508D01*
X102253403Y-92473978D02*
X102261059Y-92542208D01*
X102135212Y-92009301D02*
X102158887Y-92073748D01*
X101428730Y-91100954D02*
X101483999Y-91141686D01*
X103272516Y-104887868D02*
X103330553Y-104948681D01*
X105205217Y-106748250D02*
X105248127Y-106775700D01*
X102919309Y-104383979D02*
X102947794Y-104436173D01*
X102261059Y-92542208D02*
X102266369Y-92610660D01*
X101483999Y-91141686D02*
X101537838Y-91184292D01*
X101827403Y-91476302D02*
X101869554Y-91530498D01*
X104931032Y-106543223D02*
X104982992Y-106587941D01*
X101948155Y-91643068D02*
X101984511Y-91701309D01*
X101869554Y-91530498D02*
X101909821Y-91586108D01*
X102947794Y-104436173D02*
X102977988Y-104487398D01*
X105349401Y-106837633D02*
X105401515Y-106866062D01*
X105298253Y-106807501D02*
X105349401Y-106837633D01*
X105091356Y-106671906D02*
X105147632Y-106711054D01*
X104880634Y-106496750D02*
X104931032Y-106543223D01*
X102199535Y-92204888D02*
X102216459Y-92271427D01*
X102521345Y-102399889D02*
X102521345Y-102815420D01*
X101590183Y-91228721D02*
X101640973Y-91274920D01*
X102539486Y-103084181D02*
X102549665Y-103150799D01*
X105248127Y-106775700D02*
X105298253Y-106807501D01*
X103330553Y-104948681D02*
X104836553Y-106454681D01*
X102018847Y-91760765D02*
X102051121Y-91821364D01*
X101737646Y-91372409D02*
X101783416Y-91423585D01*
X102576727Y-103282816D02*
X102593578Y-103348066D01*
X102720560Y-103806453D02*
X102733718Y-103866980D01*
X102612617Y-103412712D02*
X102633824Y-103476679D01*
X105147632Y-106711054D02*
X105205217Y-106748250D01*
X102051121Y-91821364D02*
X102081297Y-91883035D01*
X102549665Y-103150799D02*
X102562084Y-103217035D01*
X103009857Y-104537597D02*
X103043015Y-104589702D01*
X104982992Y-106587941D02*
X105036454Y-106630852D01*
X101537838Y-91184292D02*
X101590183Y-91228721D01*
X102977988Y-104487398D02*
X103009857Y-104537597D01*
X102707904Y-103747912D02*
X102720560Y-103806453D01*
X102269326Y-92679254D02*
X102521345Y-102399889D01*
X102525886Y-102950106D02*
X102531556Y-103017258D01*
X102180337Y-92138969D02*
X102199535Y-92204888D01*
X90071308Y-90292143D02*
X90121123Y-90326362D01*
X87982505Y-88233094D02*
X88023087Y-88277879D01*
X87770133Y-87938017D02*
X87803344Y-87990175D01*
X90121123Y-90326362D02*
X90172059Y-90358890D01*
X90770489Y-90638765D02*
X90829344Y-90653990D01*
X89813553Y-90072081D02*
X89848500Y-90106094D01*
X90541204Y-90558284D02*
X90597473Y-90581298D01*
X90274652Y-90424134D02*
X90326122Y-90454475D01*
X87803344Y-87990175D02*
X87835872Y-88041111D01*
X88023087Y-88277879D02*
X88056140Y-88313734D01*
X87905964Y-88139565D02*
X87943449Y-88186972D01*
X87468689Y-87154313D02*
X87481646Y-87213185D01*
X90431939Y-90509951D02*
X90486171Y-90535024D01*
X87835872Y-88041111D02*
X87870091Y-88090927D01*
X100746013Y-90788562D02*
X100812408Y-90806046D01*
X87559836Y-87507747D02*
X87580936Y-87564761D01*
X87481646Y-87213185D02*
X87495015Y-87273553D01*
X89975262Y-90218785D02*
X90022669Y-90256270D01*
X100679058Y-90773368D02*
X100746013Y-90788562D01*
X101314160Y-91025297D02*
X101372094Y-91062142D01*
X101372094Y-91062142D02*
X101428730Y-91100954D01*
X90654487Y-90602398D02*
X90712181Y-90621562D01*
X90888681Y-90667219D02*
X90949049Y-90680588D01*
X89848500Y-90106094D02*
X89884355Y-90139147D01*
X101194670Y-90957679D02*
X101254996Y-90990463D01*
X89884355Y-90139147D02*
X89929140Y-90179729D01*
X101133255Y-90926986D02*
X101194670Y-90957679D01*
X91404545Y-90731089D02*
X100269998Y-90731089D01*
X87603950Y-87621030D02*
X87770133Y-87938017D01*
X87523469Y-87391746D02*
X87540673Y-87450054D01*
X87870091Y-88090927D02*
X87905964Y-88139565D01*
X101007447Y-90872011D02*
X101070823Y-90898419D01*
X90829344Y-90653990D02*
X90888681Y-90667219D01*
X101070823Y-90898419D02*
X101133255Y-90926986D01*
X90486171Y-90535024D02*
X90541204Y-90558284D01*
X90597473Y-90581298D02*
X90654487Y-90602398D01*
X100611620Y-90760481D02*
X100679058Y-90773368D01*
X88056140Y-88313734D02*
X88090153Y-88348681D01*
X91306962Y-90728442D02*
X91355736Y-90730427D01*
X87495015Y-87273553D02*
X87508244Y-87332890D01*
X100407213Y-90735801D02*
X100475618Y-90741687D01*
X87943449Y-88186972D02*
X87982505Y-88233094D01*
X87457710Y-87095039D02*
X87468689Y-87154313D01*
X91355736Y-90730427D02*
X91404545Y-90731089D01*
X88090153Y-88348681D02*
X89813553Y-90072081D01*
X101254996Y-90990463D02*
X101314160Y-91025297D01*
X100943202Y-90847795D02*
X101007447Y-90872011D01*
X87580936Y-87564761D02*
X87603950Y-87621030D01*
X90712181Y-90621562D02*
X90770489Y-90638765D01*
X100878163Y-90825797D02*
X100943202Y-90847795D01*
X89929140Y-90179729D02*
X89975262Y-90218785D01*
X90949049Y-90680588D02*
X91306962Y-90728442D01*
X100812408Y-90806046D02*
X100878163Y-90825797D01*
X100543780Y-90749917D02*
X100611620Y-90760481D01*
X100475618Y-90741687D02*
X100543780Y-90749917D01*
X87540673Y-87450054D02*
X87559836Y-87507747D01*
X90378570Y-90483091D02*
X90431939Y-90509951D01*
X90326122Y-90454475D02*
X90378570Y-90483091D01*
X90172059Y-90358890D02*
X90224217Y-90392101D01*
X90022669Y-90256270D02*
X90071308Y-90292143D01*
X90224217Y-90392101D02*
X90274652Y-90424134D01*
X100338646Y-90732267D02*
X100407213Y-90735801D01*
X100269998Y-90731089D02*
X100338646Y-90732267D01*
X87508244Y-87332890D02*
X87523469Y-87391746D01*
X153270523Y-90820594D02*
X153261710Y-90754157D01*
X155793979Y-93891874D02*
X155743279Y-93846116D01*
X153584483Y-89660973D02*
X153610696Y-89638599D01*
X153559056Y-89684237D02*
X153584483Y-89660973D01*
X153487792Y-89759086D02*
X153510682Y-89733322D01*
X153444742Y-89812903D02*
X153465803Y-89785624D01*
X153339172Y-89990287D02*
X153354184Y-89959265D01*
X153246802Y-90424888D02*
X153246893Y-90390425D01*
X153393542Y-91272225D02*
X153369527Y-91209656D01*
X155955029Y-94018398D02*
X155899915Y-93978065D01*
X153272272Y-90185568D02*
X153280594Y-90152125D01*
X153259109Y-90253216D02*
X153265108Y-90219279D01*
X153327852Y-91082279D02*
X153310238Y-91017616D01*
X153248171Y-90355985D02*
X153250635Y-90321610D01*
X155899915Y-93978065D02*
X155846211Y-93935874D01*
X153742671Y-91840669D02*
X153699414Y-91789478D01*
X153280594Y-90152125D02*
X153290064Y-90118988D01*
X153787618Y-91890382D02*
X153742671Y-91840669D01*
X153370255Y-89928779D02*
X153387368Y-89898864D01*
X153510125Y-91513418D02*
X153477964Y-91454619D01*
X153834206Y-91938562D02*
X153787618Y-91890382D01*
X153347622Y-91146317D02*
X153327852Y-91082279D01*
X156069224Y-94093303D02*
X156011487Y-94056825D01*
X153354184Y-89959265D02*
X153370255Y-89928779D01*
X153281558Y-90886700D02*
X153270523Y-90820594D01*
X153248681Y-90553595D02*
X153246802Y-90424888D01*
X153477964Y-91454619D02*
X153447791Y-91394776D01*
X153580266Y-91627619D02*
X153544239Y-91571107D01*
X153312399Y-90053791D02*
X153325239Y-90021809D01*
X153693740Y-89577078D02*
X153722779Y-89558519D01*
X153254283Y-90287340D02*
X153259109Y-90253216D01*
X153261710Y-90754157D02*
X153255127Y-90687461D01*
X153665357Y-89596627D02*
X153693740Y-89577078D01*
X155694171Y-93798654D02*
X153834206Y-91938562D01*
X155846211Y-93935874D02*
X155793979Y-93891874D01*
X153637665Y-89617142D02*
X153665357Y-89596627D01*
X153610696Y-89638599D02*
X153637665Y-89617142D01*
X153534446Y-89708363D02*
X153559056Y-89684237D01*
X153510682Y-89733322D02*
X153534446Y-89708363D01*
X153290064Y-90118988D02*
X153300670Y-90086197D01*
X153465803Y-89785624D02*
X153487792Y-89759086D01*
X153265108Y-90219279D02*
X153272272Y-90185568D01*
X153424633Y-89840892D02*
X153444742Y-89812903D01*
X153250635Y-90321610D02*
X153254283Y-90287340D01*
X153544239Y-91571107D02*
X153510125Y-91513418D01*
X153657897Y-91736867D02*
X153618166Y-91682893D01*
X153294801Y-90952398D02*
X153281558Y-90886700D01*
X153405501Y-89869557D02*
X153424633Y-89840892D01*
X153325239Y-90021809D02*
X153339172Y-89990287D01*
X153250783Y-90620582D02*
X153248681Y-90553595D01*
X153369527Y-91209656D02*
X153347622Y-91146317D01*
X156128174Y-94127788D02*
X156069224Y-94093303D01*
X153246893Y-90390425D02*
X153248171Y-90355985D01*
X153255127Y-90687461D02*
X153250783Y-90620582D01*
X155743279Y-93846116D02*
X155694171Y-93798654D01*
X153310238Y-91017616D02*
X153294801Y-90952398D01*
X153419640Y-91333955D02*
X153393542Y-91272225D01*
X153447791Y-91394776D02*
X153419640Y-91333955D01*
X153699414Y-91789478D02*
X153657897Y-91736867D01*
X156011487Y-94056825D02*
X155955029Y-94018398D01*
X153618166Y-91682893D02*
X153580266Y-91627619D01*
X153387368Y-89898864D02*
X153405501Y-89869557D01*
X153300670Y-90086197D02*
X153312399Y-90053791D01*
X199459041Y-78120035D02*
X199410910Y-78084570D01*
X209399200Y-90834989D02*
X209393172Y-90765765D01*
X209485332Y-91242156D02*
X209465108Y-91175679D01*
X209280439Y-88268802D02*
X209261346Y-88210783D01*
X208729166Y-87365325D02*
X199701869Y-78338055D01*
X209388345Y-88956289D02*
X209387484Y-88900606D01*
X209082524Y-87827923D02*
X209050275Y-87777052D01*
X209141826Y-87932758D02*
X209113052Y-87879844D01*
X209465108Y-91175679D02*
X209447206Y-91108540D01*
X209393172Y-90765765D02*
X209389552Y-90696374D01*
X209418449Y-90972598D02*
X209407629Y-90903961D01*
X209217311Y-88096856D02*
X209193985Y-88041325D01*
X209193985Y-88041325D02*
X209168814Y-87986605D01*
X209447206Y-91108540D02*
X209431646Y-91040819D01*
X198176228Y-77648552D02*
X198127305Y-77646555D01*
X209559674Y-91436815D02*
X209532644Y-91372803D01*
X199106889Y-77895341D02*
X199054263Y-77868727D01*
X209325766Y-88446272D02*
X209312668Y-88386614D01*
X199158614Y-77923665D02*
X199106889Y-77895341D01*
X198296038Y-77656481D02*
X198236199Y-77651517D01*
X199667467Y-78303040D02*
X199632170Y-78268927D01*
X209017117Y-87724894D02*
X208785060Y-87423792D01*
X209297553Y-88327434D02*
X209280439Y-88268802D01*
X209387484Y-88900606D02*
X209384900Y-88844977D01*
X209384900Y-88844977D02*
X209338924Y-88506641D01*
X209532644Y-91372803D02*
X209507853Y-91307891D01*
X198532744Y-77696177D02*
X198474098Y-77683296D01*
X199505967Y-78157080D02*
X199459041Y-78120035D01*
X209507853Y-91307891D02*
X209485332Y-91242156D01*
X209620322Y-91561830D02*
X209588912Y-91499849D01*
X199551637Y-78195662D02*
X199505967Y-78157080D01*
X198593271Y-77709545D02*
X198532744Y-77696177D01*
X199701869Y-78338055D02*
X199667467Y-78303040D01*
X199311249Y-78018529D02*
X199259144Y-77985319D01*
X209113052Y-87879844D02*
X209082524Y-87827923D01*
X209050275Y-87777052D02*
X209017117Y-87724894D01*
X198236199Y-77651517D02*
X198176228Y-77648552D01*
X209389552Y-90696374D02*
X209388345Y-90626900D01*
X199596001Y-78235740D02*
X199551637Y-78195662D01*
X199209384Y-77953669D02*
X199158614Y-77923665D01*
X198474098Y-77683296D02*
X198415054Y-77672379D01*
X209407629Y-90903961D02*
X209399200Y-90834989D01*
X198415054Y-77672379D02*
X198355679Y-77663437D01*
X199361628Y-78050722D02*
X199311249Y-78018529D01*
X209388345Y-90626900D02*
X209388345Y-88956289D01*
X188723345Y-77645889D02*
X188674386Y-77646555D01*
X198078345Y-77645889D02*
X188723345Y-77645889D01*
X198127305Y-77646555D02*
X198078345Y-77645889D01*
X208785060Y-87423792D02*
X208729166Y-87365325D01*
X209431646Y-91040819D02*
X209418449Y-90972598D01*
X209338924Y-88506641D02*
X209325766Y-88446272D01*
X199632170Y-78268927D02*
X199596001Y-78235740D01*
X198355679Y-77663437D02*
X198296038Y-77656481D01*
X198946539Y-77820740D02*
X198593271Y-77709545D01*
X199000794Y-77843851D02*
X198946539Y-77820740D01*
X209588912Y-91499849D02*
X209559674Y-91436815D01*
X199054263Y-77868727D02*
X199000794Y-77843851D01*
X209168814Y-87986605D02*
X209141826Y-87932758D01*
X209261346Y-88210783D02*
X209240295Y-88153446D01*
X209312668Y-88386614D02*
X209297553Y-88327434D01*
X209240295Y-88153446D02*
X209217311Y-88096856D01*
X199259144Y-77985319D02*
X199209384Y-77953669D01*
X199410910Y-78084570D02*
X199361628Y-78050722D01*
X209653867Y-91622682D02*
X209620322Y-91561830D01*
X213071038Y-94496681D02*
X213011199Y-94491717D01*
X217254275Y-98046052D02*
X217221117Y-97993894D01*
X209852094Y-91907498D02*
X209808536Y-91853360D01*
X209993671Y-92060386D02*
X209944717Y-92011074D01*
X210096568Y-92153763D02*
X210044308Y-92107968D01*
X212853345Y-94486089D02*
X210096568Y-92153763D01*
X213130679Y-94503637D02*
X213071038Y-94496681D01*
X213307744Y-94536377D02*
X213249098Y-94523496D01*
X213775794Y-94684051D02*
X213721539Y-94660940D01*
X217461075Y-98467649D02*
X217441966Y-98416451D01*
X213368271Y-94549745D02*
X213307744Y-94536377D01*
X214476872Y-95178252D02*
X214442468Y-95143238D01*
X217441966Y-98416451D02*
X217421311Y-98365856D01*
X217559740Y-98851966D02*
X217547316Y-98791272D01*
X217547316Y-98791272D02*
X217532873Y-98731026D01*
X216933933Y-97634092D02*
X214476872Y-95178252D01*
X217588991Y-99097873D02*
X217584763Y-99036064D01*
X217591153Y-99159788D02*
X217588991Y-99097873D01*
X217620936Y-102583283D02*
X217610659Y-102516354D01*
X213984384Y-94793869D02*
X213933614Y-94763865D01*
X216973846Y-97675285D02*
X216933933Y-97634092D01*
X217494587Y-98571667D02*
X217478620Y-98519403D01*
X217578474Y-98974431D02*
X217570129Y-98913042D01*
X217610659Y-102516354D02*
X217602654Y-102449117D01*
X217593492Y-102314021D02*
X217592345Y-102246318D01*
X217584763Y-99036064D02*
X217578474Y-98974431D01*
X213933614Y-94763865D02*
X213881889Y-94735541D01*
X214086249Y-94858729D02*
X214034144Y-94825519D01*
X209689504Y-91682333D02*
X209653867Y-91622682D01*
X217521726Y-98677527D02*
X217508960Y-98624391D01*
X209727193Y-91740709D02*
X209689504Y-91682333D01*
X213011199Y-94491717D02*
X212951228Y-94488752D01*
X209897506Y-91960090D02*
X209852094Y-91907498D01*
X209808536Y-91853360D02*
X209766886Y-91797741D01*
X217012427Y-97717728D02*
X216973846Y-97675285D01*
X217421311Y-98365856D02*
X217254275Y-98046052D01*
X209944717Y-92011074D02*
X209897506Y-91960090D01*
X217633473Y-102649825D02*
X217620936Y-102583283D01*
X210044308Y-92107968D02*
X209993671Y-92060386D01*
X212902305Y-94486755D02*
X212853345Y-94486089D01*
X212951228Y-94488752D02*
X212902305Y-94486755D01*
X214034144Y-94825519D02*
X213984384Y-94793869D01*
X217532873Y-98731026D02*
X217521726Y-98677527D01*
X217592345Y-99225289D02*
X217591153Y-99159788D01*
X217648255Y-102715904D02*
X217633473Y-102649825D01*
X213190054Y-94512579D02*
X213130679Y-94503637D01*
X214407170Y-95109127D02*
X214371001Y-95075940D01*
X213721539Y-94660940D02*
X213368271Y-94549745D01*
X217508960Y-98624391D02*
X217494587Y-98571667D01*
X217705891Y-102910614D02*
X217684484Y-102846374D01*
X217684484Y-102846374D02*
X217665265Y-102781446D01*
X217596929Y-102381646D02*
X217593492Y-102314021D01*
X217602654Y-102449117D02*
X217596929Y-102381646D01*
X217221117Y-97993894D02*
X217012427Y-97717728D01*
X217665265Y-102781446D02*
X217648255Y-102715904D01*
X213249098Y-94523496D02*
X213190054Y-94512579D01*
X217592345Y-102246318D02*
X217592345Y-99225289D01*
X213829263Y-94708927D02*
X213775794Y-94684051D01*
X213881889Y-94735541D02*
X213829263Y-94708927D01*
X217478620Y-98519403D02*
X217461075Y-98467649D01*
X214442468Y-95143238D02*
X214407170Y-95109127D01*
X214371001Y-95075940D02*
X214086249Y-94858729D01*
X217570129Y-98913042D02*
X217559740Y-98851966D01*
X209766886Y-91797741D02*
X209727193Y-91740709D01*
X217755163Y-103036737D02*
X217729459Y-102974092D01*
X220032992Y-108331125D02*
X217755163Y-103036737D01*
X220061319Y-108393960D02*
X220032992Y-108331125D01*
X220091793Y-108455781D02*
X220061319Y-108393960D01*
X220124380Y-108516515D02*
X220091793Y-108455781D01*
X220159040Y-108576091D02*
X220124380Y-108516515D01*
X220195733Y-108634436D02*
X220159040Y-108576091D01*
X222536269Y-111031790D02*
X222510358Y-111008457D01*
X225729676Y-113030076D02*
X225698984Y-112981891D01*
X222562979Y-111054206D02*
X222536269Y-111031790D01*
X223000979Y-111258639D02*
X222966876Y-111251369D01*
X222899534Y-111233287D02*
X222866376Y-111222495D01*
X225666779Y-112934705D02*
X225633092Y-112888565D01*
X222590453Y-111075677D02*
X222562979Y-111054206D01*
X223035315Y-111264716D02*
X223000979Y-111258639D01*
X225824897Y-113183605D02*
X225794703Y-113132380D01*
X223466198Y-111304109D02*
X223409557Y-111295073D01*
X224706137Y-111934097D02*
X224663903Y-111893219D01*
X225484015Y-112713331D02*
X225443137Y-112671097D01*
X225597958Y-112843517D02*
X225561413Y-112799607D01*
X223238311Y-111278848D02*
X223180981Y-111277086D01*
X220234414Y-108691483D02*
X220195733Y-108634436D01*
X225443137Y-112671097D02*
X224706137Y-111934097D01*
X222485275Y-110984234D02*
X220455961Y-108954920D01*
X220275037Y-108747163D02*
X220234414Y-108691483D01*
X220317555Y-108801410D02*
X220275037Y-108747163D01*
X220361917Y-108854160D02*
X220317555Y-108801410D01*
X222933047Y-111242915D02*
X222899534Y-111233287D01*
X223578472Y-111327570D02*
X223522522Y-111314945D01*
X220408071Y-108905350D02*
X220361917Y-108854160D01*
X220455961Y-108954920D02*
X220408071Y-108905350D01*
X224620356Y-111853742D02*
X224347159Y-111647558D01*
X223069841Y-111269591D02*
X223035315Y-111264716D01*
X222707323Y-111151609D02*
X222677130Y-111134167D01*
X223139300Y-111275718D02*
X223104517Y-111273260D01*
X222738106Y-111167989D02*
X222707323Y-111151609D01*
X223352657Y-111287847D02*
X223295556Y-111282436D01*
X224347159Y-111647558D02*
X224295053Y-111614400D01*
X222510358Y-111008457D02*
X222485275Y-110984234D01*
X222618660Y-111096178D02*
X222590453Y-111075677D01*
X223180981Y-111277086D02*
X223174147Y-111276961D01*
X222769441Y-111183285D02*
X222738106Y-111167989D01*
X223638999Y-111341254D02*
X223578472Y-111327570D01*
X223409557Y-111295073D02*
X223352657Y-111287847D01*
X224663903Y-111893219D02*
X224620356Y-111853742D01*
X225794703Y-113132380D02*
X225762834Y-113082181D01*
X222801291Y-111197479D02*
X222769441Y-111183285D01*
X222647564Y-111115682D02*
X222618660Y-111096178D01*
X222966876Y-111251369D02*
X222933047Y-111242915D01*
X223522522Y-111314945D02*
X223466198Y-111304109D01*
X225698984Y-112981891D02*
X225666779Y-112934705D01*
X225523492Y-112756878D02*
X225484015Y-112713331D01*
X225633092Y-112888565D02*
X225597958Y-112843517D01*
X223174147Y-111276961D02*
X223139300Y-111275718D01*
X222866376Y-111222495D02*
X222833615Y-111210555D01*
X225762834Y-113082181D02*
X225729676Y-113030076D01*
X223979612Y-111448948D02*
X223638999Y-111341254D01*
X222677130Y-111134167D02*
X222647564Y-111115682D01*
X222833615Y-111210555D02*
X222801291Y-111197479D01*
X223295556Y-111282436D02*
X223238311Y-111278848D01*
X223104517Y-111273260D02*
X223069841Y-111269591D01*
X225561413Y-112799607D02*
X225523492Y-112756878D01*
X217729459Y-102974092D02*
X217705891Y-102910614D01*
X224295053Y-111614400D02*
X223979612Y-111448948D01*
X185695478Y-123141022D02*
X185751345Y-123141889D01*
X185111857Y-123047181D02*
X185169539Y-123062312D01*
X226100148Y-114196253D02*
X226097992Y-114134509D01*
X226101345Y-120078889D02*
X226101345Y-114261889D01*
X223269171Y-123129745D02*
X223327965Y-123122496D01*
X226101345Y-114261889D02*
X226100148Y-114196253D01*
X225523492Y-121583900D02*
X225729676Y-121310702D01*
X223386489Y-123113317D02*
X223444679Y-123102217D01*
X226100148Y-120144525D02*
X226101345Y-120078889D01*
X226082161Y-120373101D02*
X226089388Y-120316201D01*
X226035980Y-120602542D02*
X226049664Y-120542016D01*
X185054707Y-123030147D02*
X185111857Y-123047181D01*
X224587903Y-122523559D02*
X224630137Y-122482681D01*
X225990604Y-120775527D02*
X226007637Y-120718378D01*
X224219053Y-122802377D02*
X224271159Y-122769220D01*
X225762834Y-121258597D02*
X225928286Y-120943156D01*
X223903612Y-122967830D02*
X224219053Y-122802377D01*
X225971687Y-120832082D02*
X225990604Y-120775527D01*
X225729676Y-121310702D02*
X225762834Y-121258597D01*
X226003158Y-113606683D02*
X225986869Y-113553576D01*
X226093778Y-114072870D02*
X226087512Y-114011407D01*
X224271159Y-122769220D02*
X224544356Y-122563035D01*
X223039345Y-123141889D02*
X223095213Y-123141022D01*
X185227692Y-123075523D02*
X185288218Y-123089208D01*
X223562999Y-123075523D02*
X223903612Y-122967830D01*
X223210170Y-123135055D02*
X223269171Y-123129745D01*
X223327965Y-123122496D02*
X223386489Y-123113317D01*
X226030782Y-113714278D02*
X226017800Y-113660267D01*
X226042091Y-113768664D02*
X226030782Y-113714278D01*
X226068850Y-113889278D02*
X226056477Y-113828748D01*
X226087512Y-114011407D02*
X226079199Y-113950187D01*
X226049664Y-120542016D02*
X226062289Y-120486066D01*
X224544356Y-122563035D02*
X224587903Y-122523559D01*
X185288218Y-123089208D02*
X185639664Y-123138421D01*
X225484015Y-121627446D02*
X225523492Y-121583900D01*
X185751345Y-123141889D02*
X223039345Y-123141889D01*
X185639664Y-123138421D02*
X185695478Y-123141022D01*
X226007637Y-120718378D02*
X226022768Y-120660695D01*
X226022768Y-120660695D02*
X226035980Y-120602542D01*
X225928286Y-113397622D02*
X225905105Y-113342866D01*
X226097992Y-114134509D02*
X226093778Y-114072870D01*
X226089388Y-120316201D02*
X226094798Y-120259100D01*
X223502472Y-123089208D02*
X223562999Y-123075523D01*
X225443137Y-121669681D02*
X225484015Y-121627446D01*
X226079199Y-113950187D02*
X226068850Y-113889278D01*
X226062289Y-120486066D02*
X226073125Y-120429742D01*
X226073125Y-120429742D02*
X226082161Y-120373101D01*
X226098386Y-120201855D02*
X226100148Y-120144525D01*
X223095213Y-123141022D02*
X223151026Y-123138421D01*
X185169539Y-123062312D02*
X185227692Y-123075523D01*
X225853382Y-113235799D02*
X225824897Y-113183605D01*
X225880128Y-113288905D02*
X225853382Y-113235799D01*
X225986869Y-113553576D02*
X225968949Y-113500997D01*
X225905105Y-113342866D02*
X225880128Y-113288905D01*
X223151026Y-123138421D02*
X223210170Y-123135055D01*
X225949415Y-113448995D02*
X225928286Y-113397622D01*
X225968949Y-113500997D02*
X225949415Y-113448995D01*
X226017800Y-113660267D02*
X226003158Y-113606683D01*
X226094798Y-120259100D02*
X226098386Y-120201855D01*
X225928286Y-120943156D02*
X225950907Y-120887978D01*
X226056477Y-113828748D02*
X226042091Y-113768664D01*
X224630137Y-122482681D02*
X225443137Y-121669681D01*
X225950907Y-120887978D02*
X225971687Y-120832082D01*
X223444679Y-123102217D02*
X223502472Y-123089208D01*
X182832015Y-121081702D02*
X182865849Y-121134635D01*
X182236116Y-107456770D02*
X182266495Y-107517934D01*
X182487236Y-120187195D02*
X182497521Y-120243000D01*
X184887078Y-122967830D02*
X184942256Y-122990450D01*
X182865849Y-121134635D02*
X182901509Y-121186354D01*
X182633404Y-120714156D02*
X182798857Y-121029597D01*
X182509560Y-120298453D02*
X182522718Y-120358980D01*
X182497521Y-120243000D02*
X182509560Y-120298453D01*
X182366635Y-107771871D02*
X182386180Y-107837307D01*
X181967771Y-107062493D02*
X182011768Y-107114725D01*
X182466998Y-120018225D02*
X182471967Y-120074752D01*
X182455683Y-108240416D02*
X182459179Y-108308618D01*
X182094285Y-107223540D02*
X182132710Y-107279997D01*
X182441717Y-108104567D02*
X182449860Y-108172372D01*
X182403479Y-107903372D02*
X182418513Y-107969988D01*
X181623131Y-106751469D02*
X181651999Y-106769707D01*
X182459179Y-108308618D02*
X182460345Y-108376900D01*
X181593658Y-106734228D02*
X181623131Y-106751469D01*
X184246335Y-122563035D02*
X184519532Y-122769220D01*
X181786100Y-106875053D02*
X181810654Y-106898782D01*
X181563612Y-106718004D02*
X181593658Y-106734228D01*
X182053956Y-107168428D02*
X182094285Y-107223540D01*
X184571637Y-122802377D02*
X184887078Y-122967830D01*
X182471967Y-120074752D02*
X182478715Y-120131094D01*
X182203666Y-107396680D02*
X182236116Y-107456770D01*
X182344867Y-107707141D02*
X182366635Y-107771871D01*
X181810654Y-106898782D02*
X181874559Y-106962687D01*
X181734635Y-106830178D02*
X181760751Y-106852176D01*
X182478715Y-120131094D02*
X182487236Y-120187195D01*
X182461212Y-119905756D02*
X182463813Y-119961570D01*
X183019005Y-121333614D02*
X183061516Y-121379868D01*
X182266495Y-107517934D02*
X182294768Y-107580098D01*
X182431264Y-108037080D02*
X182441717Y-108104567D01*
X184519532Y-122769220D02*
X184571637Y-122802377D01*
X183061516Y-121379868D02*
X183118942Y-121440070D01*
X181533031Y-106702814D02*
X181563612Y-106718004D01*
X184159942Y-122482070D02*
X184202472Y-122523263D01*
X182901509Y-121186354D02*
X182938953Y-121236798D01*
X183118942Y-121440070D02*
X184159942Y-122482070D01*
X182460345Y-108376900D02*
X182460345Y-119849889D01*
X182938953Y-121236798D02*
X182978134Y-121285905D01*
X182798857Y-121029597D02*
X182832015Y-121081702D01*
X182449860Y-108172372D02*
X182455683Y-108240416D01*
X182418513Y-107969988D02*
X182431264Y-108037080D01*
X181760751Y-106852176D02*
X181786100Y-106875053D01*
X182978134Y-121285905D02*
X183019005Y-121333614D01*
X181680228Y-106788919D02*
X181707784Y-106809084D01*
X182169184Y-107337733D02*
X182203666Y-107396680D01*
X182522718Y-120358980D02*
X182633404Y-120714156D01*
X182320902Y-107643192D02*
X182344867Y-107707141D01*
X184998152Y-123011230D02*
X185054707Y-123030147D01*
X184942256Y-122990450D02*
X184998152Y-123011230D01*
X182011768Y-107114725D02*
X182053956Y-107168428D01*
X182463813Y-119961570D02*
X182466998Y-120018225D01*
X181501948Y-106688678D02*
X181533031Y-106702814D01*
X182386180Y-107837307D02*
X182403479Y-107903372D01*
X182294768Y-107580098D02*
X182320902Y-107643192D01*
X182132710Y-107279997D02*
X182169184Y-107337733D01*
X181922017Y-107011794D02*
X181967771Y-107062493D01*
X181874559Y-106962687D02*
X181922017Y-107011794D01*
X181651999Y-106769707D02*
X181680228Y-106788919D01*
X181707784Y-106809084D02*
X181734635Y-106830178D01*
X184202472Y-122523263D02*
X184246335Y-122563035D01*
X182460345Y-119849889D02*
X182461212Y-119905756D01*
X181438427Y-106663628D02*
X181470402Y-106675610D01*
X181406062Y-106652744D02*
X181438427Y-106663628D01*
X181373344Y-106642972D02*
X181406062Y-106652744D01*
X181307003Y-106626805D02*
X181340312Y-106634322D01*
X172785923Y-104023695D02*
X172801053Y-104081378D01*
X181273458Y-106620429D02*
X181307003Y-106626805D01*
X181239714Y-106615203D02*
X181273458Y-106620429D01*
X181171790Y-106608220D02*
X181205811Y-106611132D01*
X172880404Y-104306156D02*
X172903586Y-104360912D01*
X181137688Y-106606472D02*
X181171790Y-106608220D01*
X175759664Y-106602421D02*
X175815478Y-106605022D01*
X175703009Y-106599236D02*
X175759664Y-106602421D01*
X172928563Y-104414873D02*
X172955309Y-104467979D01*
X175007078Y-106432830D02*
X175362255Y-106543516D01*
X174649087Y-106240162D02*
X174692027Y-106267634D01*
X172818087Y-104138527D02*
X172837004Y-104195082D01*
X174375311Y-106035477D02*
X174427199Y-106080116D01*
X173141912Y-104769072D02*
X173175598Y-104815213D01*
X173079015Y-104673702D02*
X173109706Y-104721886D01*
X172983794Y-104520173D02*
X173013988Y-104571398D01*
X175871345Y-106605889D02*
X181103547Y-106605889D01*
X173109706Y-104721886D02*
X173141912Y-104769072D01*
X172707212Y-103497756D02*
X172709813Y-103553570D01*
X175362255Y-106543516D02*
X175422781Y-106556674D01*
X175534039Y-106578998D02*
X175590140Y-106587519D01*
X175815478Y-106605022D02*
X175871345Y-106605889D01*
X181205811Y-106611132D02*
X181239714Y-106615203D01*
X175646482Y-106594267D02*
X175703009Y-106599236D01*
X174281249Y-105947377D02*
X174324981Y-105989090D01*
X175590140Y-106587519D02*
X175646482Y-106594267D01*
X172706345Y-92501575D02*
X172706345Y-103441889D01*
X173210732Y-104860261D02*
X173247278Y-104904171D01*
X172772711Y-103965542D02*
X172785923Y-104023695D01*
X172709813Y-103553570D02*
X172759027Y-103905016D01*
X175478234Y-106568713D02*
X175534039Y-106578998D01*
X174952393Y-106409680D02*
X175007078Y-106432830D01*
X174480584Y-106122952D02*
X174535403Y-106163937D01*
X173247278Y-104904171D02*
X173285199Y-104946900D01*
X175422781Y-106556674D02*
X175478234Y-106568713D01*
X174898501Y-106384739D02*
X174952393Y-106409680D01*
X174793332Y-106329594D02*
X174845462Y-106358034D01*
X174427199Y-106080116D02*
X174480584Y-106122952D01*
X173366249Y-105033377D02*
X174281249Y-105947377D01*
X173175598Y-104815213D02*
X173210732Y-104860261D01*
X172759027Y-103905016D02*
X172772711Y-103965542D01*
X172837004Y-104195082D02*
X172857784Y-104250978D01*
X174742168Y-106299450D02*
X174793332Y-106329594D01*
X174692027Y-106267634D02*
X174742168Y-106299450D01*
X174324981Y-105989090D02*
X174375311Y-106035477D01*
X173045857Y-104621597D02*
X173079015Y-104673702D01*
X172903586Y-104360912D02*
X172928563Y-104414873D01*
X172955309Y-104467979D02*
X172983794Y-104520173D01*
X172706345Y-103441889D02*
X172707212Y-103497756D01*
X174845462Y-106358034D02*
X174898501Y-106384739D01*
X174591593Y-106203022D02*
X174649087Y-106240162D01*
X172857784Y-104250978D02*
X172880404Y-104306156D01*
X173325012Y-104990805D02*
X173366249Y-105033377D01*
X181470402Y-106675610D02*
X181501948Y-106688678D01*
X181340312Y-106634322D02*
X181373344Y-106642972D01*
X174535403Y-106163937D02*
X174591593Y-106203022D01*
X181103547Y-106605889D02*
X181137688Y-106606472D01*
X173013988Y-104571398D02*
X173045857Y-104621597D01*
X172801053Y-104081378D02*
X172818087Y-104138527D01*
X173285199Y-104946900D02*
X173325012Y-104990805D01*
X171029431Y-89996137D02*
X172120621Y-91087424D01*
X170929623Y-89902916D02*
X170980323Y-89948674D01*
X170220217Y-89504010D02*
X170284950Y-89525780D01*
X153813490Y-89508994D02*
X153844804Y-89494602D01*
X170980323Y-89948674D02*
X171029431Y-89996137D01*
X170712113Y-89737960D02*
X170768572Y-89776389D01*
X169954995Y-89439373D02*
X170022090Y-89452125D01*
X170474167Y-89604161D02*
X170535333Y-89634543D01*
X154212237Y-89410883D02*
X154246696Y-89410289D01*
X170022090Y-89452125D02*
X170088710Y-89467161D01*
X154075222Y-89425100D02*
X154109271Y-89419777D01*
X153908827Y-89469096D02*
X153941460Y-89458012D01*
X153941460Y-89458012D02*
X153974455Y-89448060D01*
X154007773Y-89439250D02*
X154041375Y-89431594D01*
X170823686Y-89816723D02*
X170877390Y-89858915D01*
X170768572Y-89776389D02*
X170823686Y-89816723D01*
X170411999Y-89575885D02*
X170474167Y-89604161D01*
X153722779Y-89558519D02*
X153752441Y-89540972D01*
X170348903Y-89549747D02*
X170411999Y-89575885D01*
X172701683Y-92365098D02*
X172705179Y-92433297D01*
X169615155Y-89410289D02*
X169683441Y-89411455D01*
X154143484Y-89415629D02*
X154177820Y-89412664D01*
X153782690Y-89524457D02*
X153813490Y-89508994D01*
X172695861Y-92297058D02*
X172701683Y-92365098D01*
X172677268Y-92161773D02*
X172687719Y-92229257D01*
X172632188Y-91962011D02*
X172649486Y-92028072D01*
X172649486Y-92028072D02*
X172664518Y-92094685D01*
X172257816Y-91239458D02*
X172299999Y-91293160D01*
X169887504Y-89428919D02*
X169954995Y-89439373D01*
X172168075Y-91136530D02*
X172213824Y-91187228D01*
X169819695Y-89420775D02*
X169887504Y-89428919D01*
X170654375Y-89701482D02*
X170712113Y-89737960D01*
X154246696Y-89410289D02*
X169615155Y-89410289D01*
X170154778Y-89484463D02*
X170220217Y-89504010D01*
X154041375Y-89431594D02*
X154075222Y-89425100D01*
X154109271Y-89419777D02*
X154143484Y-89415629D01*
X170535333Y-89634543D02*
X170595426Y-89666996D01*
X172120621Y-91087424D02*
X172168075Y-91136530D01*
X169751648Y-89414952D02*
X169819695Y-89420775D01*
X170284950Y-89525780D02*
X170348903Y-89549747D01*
X172612645Y-91896579D02*
X172632188Y-91962011D01*
X172415216Y-91462459D02*
X172449694Y-91521405D01*
X170595426Y-89666996D02*
X170654375Y-89701482D01*
X170088710Y-89467161D02*
X170154778Y-89484463D01*
X172664518Y-92094685D02*
X172677268Y-92161773D01*
X172299999Y-91293160D02*
X172340325Y-91348271D01*
X172340325Y-91348271D02*
X172378745Y-91404726D01*
X172482140Y-91581492D02*
X172512516Y-91642653D01*
X154177820Y-89412664D02*
X154212237Y-89410883D01*
X172705179Y-92433297D02*
X172706345Y-92501575D01*
X172687719Y-92229257D02*
X172695861Y-92297058D01*
X169683441Y-89411455D02*
X169751648Y-89414952D01*
X172590880Y-91831852D02*
X172612645Y-91896579D01*
X172566918Y-91767906D02*
X172590880Y-91831852D01*
X172540786Y-91704815D02*
X172566918Y-91767906D01*
X172449694Y-91521405D02*
X172482140Y-91581492D01*
X170877390Y-89858915D02*
X170929623Y-89902916D01*
X153974455Y-89448060D02*
X154007773Y-89439250D01*
X153844804Y-89494602D02*
X153876596Y-89481297D01*
X153752441Y-89540972D02*
X153782690Y-89524457D01*
X153876596Y-89481297D02*
X153908827Y-89469096D01*
X172512516Y-91642653D02*
X172540786Y-91704815D01*
X172378745Y-91404726D02*
X172415216Y-91462459D01*
X172213824Y-91187228D02*
X172257816Y-91239458D01*
X132159155Y-106456970D02*
X132226246Y-106469721D01*
X134536184Y-108396733D02*
X134570666Y-108455680D01*
X134461285Y-108282540D02*
X134499710Y-108338997D01*
X125317278Y-104828171D02*
X125355199Y-104870900D01*
X125179706Y-104645886D02*
X125211912Y-104693072D01*
X134420956Y-108227428D02*
X134461285Y-108282540D01*
X134378768Y-108173725D02*
X134420956Y-108227428D01*
X134289017Y-108070794D02*
X134334771Y-108121493D01*
X132916237Y-106755525D02*
X132972694Y-106793949D01*
X126607532Y-106056220D02*
X126659637Y-106089377D01*
X126377063Y-105887956D02*
X126420973Y-105924502D01*
X127030256Y-106277450D02*
X127086152Y-106298230D01*
X125211912Y-104693072D02*
X125245598Y-104739213D01*
X126248553Y-105769681D02*
X126290788Y-105810559D01*
X125245598Y-104739213D02*
X125280732Y-104784261D01*
X126559348Y-106025528D02*
X126607532Y-106056220D01*
X132023862Y-106438374D02*
X132091667Y-106446517D01*
X132972694Y-106793949D02*
X133027807Y-106834279D01*
X131887616Y-106429055D02*
X131955819Y-106432551D01*
X132616136Y-106593466D02*
X132678301Y-106621739D01*
X131955819Y-106432551D02*
X132023862Y-106438374D01*
X134334771Y-108121493D02*
X134378768Y-108173725D01*
X126466021Y-105959636D02*
X126512162Y-105993322D01*
X134241559Y-108021687D02*
X134289017Y-108070794D01*
X133184440Y-106966217D02*
X133233547Y-107013675D01*
X133027807Y-106834279D02*
X133081510Y-106876466D01*
X132799554Y-106684568D02*
X132858502Y-106719050D01*
X126975078Y-106254830D02*
X127030256Y-106277450D01*
X132292863Y-106484755D02*
X132358927Y-106502054D01*
X125435553Y-104956681D02*
X126248553Y-105769681D01*
X126420973Y-105924502D02*
X126466021Y-105959636D01*
X125355199Y-104870900D02*
X125394676Y-104914446D01*
X126512162Y-105993322D02*
X126559348Y-106025528D01*
X127376218Y-106376208D02*
X127773709Y-106426692D01*
X132424363Y-106521599D02*
X132489093Y-106543367D01*
X127315692Y-106362523D02*
X127376218Y-106376208D01*
X126334335Y-105850035D02*
X126377063Y-105887956D01*
X132489093Y-106543367D02*
X132553042Y-106567332D01*
X126290788Y-105810559D02*
X126334335Y-105850035D01*
X132739464Y-106652118D02*
X132799554Y-106684568D01*
X132678301Y-106621739D02*
X132739464Y-106652118D01*
X125280732Y-104784261D02*
X125317278Y-104828171D01*
X127257539Y-106349312D02*
X127315692Y-106362523D01*
X132358927Y-106502054D02*
X132424363Y-106521599D01*
X132226246Y-106469721D02*
X132292863Y-106484755D01*
X127199857Y-106334181D02*
X127257539Y-106349312D01*
X126659637Y-106089377D02*
X126975078Y-106254830D01*
X125394676Y-104914446D02*
X125435553Y-104956681D01*
X133133741Y-106920463D02*
X133184440Y-106966217D01*
X133081510Y-106876466D02*
X133133741Y-106920463D01*
X132553042Y-106567332D02*
X132616136Y-106593466D01*
X132091667Y-106446517D02*
X132159155Y-106456970D01*
X131819334Y-106427889D02*
X131887616Y-106429055D01*
X127839345Y-106427889D02*
X131819334Y-106427889D01*
X127086152Y-106298230D02*
X127142707Y-106317147D01*
X134499710Y-108338997D02*
X134536184Y-108396733D01*
X134633495Y-108576934D02*
X134661768Y-108639098D01*
X134603116Y-108515770D02*
X134633495Y-108576934D01*
X132858502Y-106719050D02*
X132916237Y-106755525D01*
X127142707Y-106317147D02*
X127199857Y-106334181D01*
X127773709Y-106426692D02*
X127839345Y-106427889D01*
X134570666Y-108455680D02*
X134603116Y-108515770D01*
X133233547Y-107013675D02*
X134241559Y-108021687D01*
X124370784Y-90404784D02*
X124411130Y-90459903D01*
X124089687Y-90097432D02*
X124191316Y-90199026D01*
X122947990Y-89530509D02*
X123015463Y-89540957D01*
X124809840Y-103738500D02*
X124822214Y-103799030D01*
X124799491Y-103677591D02*
X124809840Y-103738500D01*
X124777345Y-103365889D02*
X124778542Y-103431525D01*
X124637842Y-90879622D02*
X124661817Y-90943583D01*
X124583411Y-90754341D02*
X124611696Y-90816516D01*
X124791179Y-103616371D02*
X124799491Y-103677591D01*
X124040582Y-90049993D02*
X124089687Y-90097432D01*
X123280617Y-89605559D02*
X123345335Y-89627317D01*
X123215195Y-89586022D02*
X123280617Y-89605559D01*
X124766855Y-91408910D02*
X124772681Y-91476968D01*
X124780699Y-103493269D02*
X124784913Y-103554907D01*
X124735495Y-91206483D02*
X124748252Y-91273589D01*
X124778542Y-103431525D02*
X124780699Y-103493269D01*
X124720455Y-91139852D02*
X124735495Y-91206483D01*
X123149143Y-89568730D02*
X123215195Y-89586022D01*
X123082541Y-89553702D02*
X123149143Y-89568730D01*
X123714680Y-89802926D02*
X123772408Y-89839385D01*
X123989887Y-90004257D02*
X124040582Y-90049993D01*
X124748252Y-91273589D02*
X124758709Y-91341090D01*
X124449570Y-90516367D02*
X124486060Y-90574111D01*
X124238793Y-90248136D02*
X124284565Y-90298839D01*
X124703148Y-91073774D02*
X124720455Y-91139852D01*
X124553019Y-90693167D02*
X124583411Y-90754341D01*
X124611696Y-90816516D02*
X124637842Y-90879622D01*
X123828857Y-89877794D02*
X123883963Y-89918107D01*
X124777345Y-91613483D02*
X124777345Y-103365889D01*
X124758709Y-91341090D02*
X124766855Y-91408910D01*
X124284565Y-90298839D02*
X124328579Y-90351075D01*
X123409272Y-89651272D02*
X123472354Y-89677395D01*
X123883963Y-89918107D02*
X123937660Y-89960278D01*
X122880200Y-89522370D02*
X122947990Y-89530509D01*
X123472354Y-89677395D02*
X123534508Y-89705656D01*
X124411130Y-90459903D02*
X124449570Y-90516367D01*
X124328579Y-90351075D02*
X124370784Y-90404784D01*
X124776179Y-91545186D02*
X124777345Y-91613483D01*
X124683594Y-91008326D02*
X124703148Y-91073774D01*
X123015463Y-89540957D02*
X123082541Y-89553702D01*
X123534508Y-89705656D02*
X123595661Y-89736022D01*
X123772408Y-89839385D02*
X123828857Y-89877794D01*
X123595661Y-89736022D02*
X123655741Y-89768458D01*
X122812171Y-89516549D02*
X122880200Y-89522370D01*
X125149015Y-104597702D02*
X125179706Y-104645886D01*
X124875533Y-104021095D02*
X124891822Y-104074202D01*
X124891822Y-104074202D02*
X124909742Y-104126781D01*
X125115857Y-104545597D02*
X125149015Y-104597702D01*
X124486060Y-90574111D02*
X124520556Y-90633067D01*
X124191316Y-90199026D02*
X124238793Y-90248136D01*
X124950404Y-104230156D02*
X125115857Y-104545597D01*
X124929275Y-104178782D02*
X124950404Y-104230156D01*
X124909742Y-104126781D02*
X124929275Y-104178782D01*
X124860890Y-103967510D02*
X124875533Y-104021095D01*
X124520556Y-90633067D02*
X124553019Y-90693167D01*
X124847908Y-103913500D02*
X124860890Y-103967510D01*
X124836599Y-103859114D02*
X124847908Y-103913500D01*
X124822214Y-103799030D02*
X124836599Y-103859114D01*
X123937660Y-89960278D02*
X123989887Y-90004257D01*
X124784913Y-103554907D02*
X124791179Y-103616371D01*
X124772681Y-91476968D02*
X124776179Y-91545186D01*
X124661817Y-90943583D02*
X124683594Y-91008326D01*
X123345335Y-89627317D02*
X123409272Y-89651272D01*
X123655741Y-89768458D02*
X123714680Y-89802926D01*
X113368316Y-89967922D02*
X113422236Y-89925061D01*
X112655014Y-91264065D02*
X112664725Y-91195872D01*
X113964299Y-89629346D02*
X114029525Y-89607208D01*
X113773730Y-89709039D02*
X113836325Y-89680292D01*
X113651694Y-89772912D02*
X113712162Y-89739924D01*
X112392821Y-93484136D02*
X112391734Y-93449562D01*
X113592398Y-89807962D02*
X113651694Y-89772912D01*
X113036439Y-90316116D02*
X113078566Y-90261620D01*
X112921654Y-90487848D02*
X112957936Y-90429297D01*
X112393149Y-93380406D02*
X112395649Y-93345906D01*
X113168324Y-90157140D02*
X113215848Y-90107280D01*
X112726837Y-90927652D02*
X112748089Y-90862132D01*
X112395649Y-93345906D02*
X112399341Y-93311513D01*
X112409086Y-93621435D02*
X112403241Y-93587342D01*
X112403241Y-93587342D02*
X112398578Y-93553067D01*
X112707853Y-90993865D02*
X112726837Y-90927652D01*
X112444133Y-93755179D02*
X112433641Y-93722218D01*
X112455759Y-93787757D02*
X112444133Y-93755179D01*
X113315903Y-90012614D02*
X113368316Y-89967922D01*
X112887410Y-90547613D02*
X112921654Y-90487848D01*
X112691160Y-91060692D02*
X112707853Y-90993865D01*
X113122545Y-90208607D02*
X113168324Y-90157140D01*
X112391734Y-93449562D02*
X112391843Y-93414972D01*
X112424296Y-93688913D02*
X112416107Y-93655306D01*
X112497293Y-93882810D02*
X112482355Y-93851611D01*
X112433641Y-93722218D02*
X112424296Y-93688913D01*
X114639601Y-89511889D02*
X122675716Y-89511889D01*
X112825195Y-90670502D02*
X112855244Y-90608522D01*
X114364935Y-89530839D02*
X114433316Y-89522556D01*
X112395103Y-93518651D02*
X112392821Y-93484136D01*
X122743984Y-89513054D02*
X122812171Y-89516549D01*
X113422236Y-89925061D02*
X113477601Y-89884081D01*
X113899873Y-89653717D02*
X113964299Y-89629346D01*
X122675716Y-89511889D02*
X122743984Y-89513054D01*
X112676778Y-91128055D02*
X112691160Y-91060692D01*
X112399341Y-93311513D02*
X112655014Y-91264065D01*
X114570730Y-89513075D02*
X114639601Y-89511889D01*
X114501942Y-89516632D02*
X114570730Y-89513075D01*
X114433316Y-89522556D02*
X114501942Y-89516632D01*
X114229232Y-89554442D02*
X114296880Y-89541472D01*
X114029525Y-89607208D02*
X114095475Y-89587330D01*
X113836325Y-89680292D02*
X113899873Y-89653717D01*
X112855244Y-90608522D02*
X112887410Y-90547613D01*
X112398578Y-93553067D02*
X112395103Y-93518651D01*
X112468505Y-93819914D02*
X112455759Y-93787757D01*
X114296880Y-89541472D02*
X114364935Y-89530839D01*
X112771586Y-90797382D02*
X112797298Y-90733481D01*
X113265060Y-90059085D02*
X113315903Y-90012614D01*
X114162070Y-89569734D02*
X114229232Y-89554442D01*
X113534344Y-89845033D02*
X113592398Y-89807962D01*
X113712162Y-89739924D02*
X113773730Y-89709039D01*
X112513301Y-93913473D02*
X112497293Y-93882810D01*
X113078566Y-90261620D02*
X113122545Y-90208607D01*
X113477601Y-89884081D02*
X113534344Y-89845033D01*
X112664725Y-91195872D02*
X112676778Y-91128055D01*
X113215848Y-90107280D02*
X113265060Y-90059085D01*
X112482355Y-93851611D02*
X112468505Y-93819914D01*
X112996213Y-90372031D02*
X113036439Y-90316116D01*
X112957936Y-90429297D02*
X112996213Y-90372031D01*
X112391843Y-93414972D02*
X112393149Y-93380406D01*
X112748089Y-90862132D02*
X112771586Y-90797382D01*
X112797298Y-90733481D02*
X112825195Y-90670502D01*
X112416107Y-93655306D02*
X112409086Y-93621435D01*
X114095475Y-89587330D02*
X114162070Y-89569734D01*
X165001228Y-94387152D02*
X164952305Y-94385155D01*
X156249431Y-94190622D02*
X156188266Y-94160240D01*
X156311598Y-94218897D02*
X156249431Y-94190622D01*
X156374694Y-94245034D02*
X156311598Y-94218897D01*
X156438646Y-94269001D02*
X156374694Y-94245034D01*
X156568817Y-94310317D02*
X156503378Y-94290770D01*
X156634884Y-94327618D02*
X156568817Y-94310317D01*
X156701504Y-94342653D02*
X156634884Y-94327618D01*
X156768598Y-94355405D02*
X156701504Y-94342653D01*
X166457930Y-95008291D02*
X166421001Y-94974340D01*
X168289455Y-103846936D02*
X168272168Y-103780895D01*
X166330967Y-94895680D02*
X166284041Y-94858635D01*
X168233959Y-103579773D02*
X168225823Y-103511994D01*
X165418271Y-94448145D02*
X165357744Y-94434777D01*
X168354683Y-104040985D02*
X168330736Y-103977057D01*
X166493898Y-95043257D02*
X166457930Y-95008291D01*
X165771539Y-94559340D02*
X165418271Y-94448145D01*
X165825794Y-94582451D02*
X165771539Y-94559340D01*
X168380798Y-104104059D02*
X168354683Y-104040985D01*
X168196953Y-97414516D02*
X168188386Y-97358173D01*
X168152766Y-97186072D02*
X168044311Y-96836656D01*
X156903896Y-94374003D02*
X156836088Y-94365859D01*
X168225823Y-103511994D02*
X168220004Y-103443976D01*
X156971942Y-94379826D02*
X156903896Y-94374003D01*
X157040148Y-94383323D02*
X156971942Y-94379826D01*
X157108433Y-94384489D02*
X157040148Y-94383323D01*
X164903345Y-94384489D02*
X157108433Y-94384489D01*
X166376637Y-94934262D02*
X166330967Y-94895680D01*
X168208716Y-97527875D02*
X168203732Y-97471102D01*
X166034384Y-94692269D02*
X165983614Y-94662265D01*
X166084144Y-94723919D02*
X166034384Y-94692269D01*
X168216510Y-103375799D02*
X168215345Y-103307543D01*
X167555898Y-96104857D02*
X166493898Y-95043257D01*
X167844117Y-96464694D02*
X167612060Y-96163592D01*
X168178039Y-97302129D02*
X168165924Y-97246441D01*
X168215345Y-103307543D02*
X168215345Y-97696089D01*
X168272168Y-103780895D02*
X168257145Y-103714302D01*
X168330736Y-103977057D02*
X168308985Y-103912349D01*
X168308985Y-103912349D02*
X168289455Y-103846936D01*
X166136249Y-94757129D02*
X166084144Y-94723919D01*
X168044311Y-96836656D02*
X167877275Y-96516852D01*
X166186628Y-94789322D02*
X166136249Y-94757129D01*
X168211900Y-97584777D02*
X168208716Y-97527875D01*
X168188386Y-97358173D02*
X168178039Y-97302129D01*
X168220004Y-103443976D02*
X168216510Y-103375799D01*
X168257145Y-103714302D02*
X168244404Y-103647236D01*
X168244404Y-103647236D02*
X168233959Y-103579773D01*
X164952305Y-94385155D02*
X164903345Y-94384489D01*
X166421001Y-94974340D02*
X166376637Y-94934262D01*
X165357744Y-94434777D02*
X165001228Y-94387152D01*
X168203732Y-97471102D02*
X168196953Y-97414516D01*
X165879263Y-94607327D02*
X165825794Y-94582451D01*
X165931889Y-94633941D02*
X165879263Y-94607327D01*
X167877275Y-96516852D02*
X167844117Y-96464694D01*
X166284041Y-94858635D02*
X166235910Y-94823170D01*
X156836088Y-94365859D02*
X156768598Y-94355405D01*
X168214484Y-97640406D02*
X168211900Y-97584777D01*
X156503378Y-94290770D02*
X156438646Y-94269001D01*
X165983614Y-94662265D02*
X165931889Y-94633941D01*
X168165924Y-97246441D02*
X168152766Y-97186072D01*
X166235910Y-94823170D02*
X166186628Y-94789322D01*
X167612060Y-96163592D02*
X167555898Y-96104857D01*
X156188266Y-94160240D02*
X156128174Y-94127788D01*
X168215345Y-97696089D02*
X168214484Y-97640406D01*
X170017478Y-106815021D02*
X170014877Y-106759208D01*
X170864985Y-110705829D02*
X170809873Y-110665499D01*
X170345981Y-110168793D02*
X170309506Y-110111057D01*
X168753283Y-104672231D02*
X168707560Y-104621539D01*
X169577181Y-105534423D02*
X169539738Y-105483979D01*
X169646676Y-105639076D02*
X169612842Y-105586143D01*
X170510919Y-110386296D02*
X170466923Y-110334065D01*
X170018345Y-106870889D02*
X170017478Y-106815021D01*
X170183923Y-109868691D02*
X170157788Y-109805597D01*
X171038125Y-110815210D02*
X170979177Y-110780728D01*
X170466923Y-110334065D02*
X170424735Y-110280362D01*
X170212196Y-109930856D02*
X170183923Y-109868691D01*
X168800709Y-104721334D02*
X168753283Y-104672231D01*
X169359518Y-105280477D02*
X168800709Y-104721334D01*
X170979177Y-110780728D02*
X170921442Y-110744253D01*
X169417175Y-105340910D02*
X169359518Y-105280477D01*
X169459686Y-105387164D02*
X169417175Y-105340910D01*
X170242575Y-109992019D02*
X170212196Y-109930856D01*
X170275024Y-110052109D02*
X170242575Y-109992019D01*
X170047426Y-109411710D02*
X170036973Y-109344222D01*
X170018345Y-109071889D02*
X170018345Y-106870889D01*
X169612842Y-105586143D02*
X169577181Y-105534423D01*
X169890330Y-106122371D02*
X169868807Y-106064108D01*
X169969131Y-106422325D02*
X169955973Y-106361798D01*
X169679834Y-105691181D02*
X169646676Y-105639076D01*
X169909830Y-106181343D02*
X169890330Y-106122371D01*
X169955973Y-106361798D02*
X169942671Y-106301127D01*
X170028831Y-109276417D02*
X170023008Y-109208374D01*
X170556673Y-110436995D02*
X170510919Y-110386296D01*
X170756169Y-110623311D02*
X170703938Y-110579315D01*
X170604132Y-110486102D02*
X170556673Y-110436995D01*
X170133823Y-109741648D02*
X170112056Y-109676918D01*
X170023008Y-109208374D02*
X170019511Y-109140171D01*
X170384405Y-110225250D02*
X170345981Y-110168793D01*
X170112056Y-109676918D02*
X170092511Y-109611482D01*
X170921442Y-110744253D02*
X170864985Y-110705829D01*
X169942671Y-106301127D02*
X169927284Y-106240952D01*
X168621436Y-104515622D02*
X168581136Y-104460521D01*
X169500556Y-105434873D02*
X169459686Y-105387164D01*
X170309506Y-110111057D02*
X170275024Y-110052109D01*
X170092511Y-109611482D02*
X170075211Y-109545418D01*
X170036973Y-109344222D02*
X170028831Y-109276417D01*
X170075211Y-109545418D02*
X170060177Y-109478801D01*
X170424735Y-110280362D02*
X170384405Y-110225250D01*
X168409051Y-104166205D02*
X168380798Y-104104059D01*
X168439407Y-104227350D02*
X168409051Y-104166205D01*
X168471833Y-104287423D02*
X168439407Y-104227350D01*
X168506290Y-104346355D02*
X168471833Y-104287423D01*
X169868807Y-106064108D02*
X169845286Y-106006622D01*
X170014877Y-106759208D02*
X169969131Y-106422325D01*
X168542739Y-104404077D02*
X168506290Y-104346355D01*
X168581136Y-104460521D02*
X168542739Y-104404077D01*
X168663594Y-104569315D02*
X168621436Y-104515622D01*
X168707560Y-104621539D02*
X168663594Y-104569315D01*
X169845286Y-106006622D02*
X169679834Y-105691181D01*
X170703938Y-110579315D02*
X170653239Y-110533561D01*
X170019511Y-109140171D02*
X170018345Y-109071889D01*
X170653239Y-110533561D02*
X170604132Y-110486102D01*
X170809873Y-110665499D02*
X170756169Y-110623311D01*
X171098215Y-110847659D02*
X171038125Y-110815210D01*
X169539738Y-105483979D02*
X169500556Y-105434873D01*
X169927284Y-106240952D02*
X169909830Y-106181343D01*
X170157788Y-109805597D02*
X170133823Y-109741648D01*
X170060177Y-109478801D02*
X170047426Y-109411710D01*
X176117343Y-111475250D02*
X176069159Y-111444558D01*
X171221543Y-110906311D02*
X171159378Y-110878038D01*
X171284637Y-110932446D02*
X171221543Y-110906311D01*
X171348586Y-110956411D02*
X171284637Y-110932446D01*
X171413316Y-110978178D02*
X171348586Y-110956411D01*
X171478752Y-110997723D02*
X171413316Y-110978178D01*
X171611433Y-111030057D02*
X171544816Y-111015023D01*
X171678525Y-111042808D02*
X171611433Y-111030057D01*
X171746012Y-111053261D02*
X171678525Y-111042808D01*
X171813817Y-111061403D02*
X171746012Y-111053261D01*
X177629834Y-113024181D02*
X177596676Y-112972076D01*
X177533779Y-112876705D02*
X177500092Y-112830565D01*
X175008170Y-111078723D02*
X174949026Y-111075357D01*
X175419151Y-111151466D02*
X175360999Y-111138254D01*
X175476834Y-111166597D02*
X175419151Y-111151466D01*
X177661703Y-113074380D02*
X177629834Y-113024181D01*
X176210669Y-111541142D02*
X176164529Y-111507455D01*
X175756369Y-111269129D02*
X175701612Y-111245948D01*
X176299628Y-111612822D02*
X176255717Y-111576276D01*
X176255717Y-111576276D02*
X176210669Y-111541142D01*
X177816415Y-113390995D02*
X177795286Y-113339622D01*
X171881860Y-111067226D02*
X171813817Y-111061403D01*
X172018345Y-111071889D02*
X171950063Y-111070723D01*
X174949026Y-111075357D02*
X174893213Y-111072756D01*
X174837345Y-111071889D02*
X172018345Y-111071889D01*
X174893213Y-111072756D02*
X174837345Y-111071889D01*
X175067171Y-111084033D02*
X175008170Y-111078723D01*
X177565984Y-112923891D02*
X177533779Y-112876705D01*
X175184489Y-111100461D02*
X175125965Y-111091281D01*
X175242679Y-111111561D02*
X175184489Y-111100461D01*
X176017053Y-111411400D02*
X175966854Y-111379531D01*
X175300472Y-111124570D02*
X175242679Y-111111561D01*
X177691897Y-113125605D02*
X177661703Y-113074380D01*
X177310137Y-112613097D02*
X176428137Y-111731097D01*
X177747128Y-113230905D02*
X177720382Y-113177799D01*
X177351015Y-112655331D02*
X177310137Y-112613097D01*
X177853869Y-113495576D02*
X177835949Y-113442997D01*
X175915629Y-111349337D02*
X175863436Y-111320852D01*
X175646435Y-111223328D02*
X175590538Y-111202547D01*
X175863436Y-111320852D02*
X175810329Y-111294106D01*
X177795286Y-113339622D02*
X177772105Y-113284866D01*
X175701612Y-111245948D02*
X175646435Y-111223328D01*
X177390492Y-112698878D02*
X177351015Y-112655331D01*
X175360999Y-111138254D02*
X175300472Y-111124570D01*
X175590538Y-111202547D02*
X175533984Y-111183630D01*
X175966854Y-111379531D02*
X175915629Y-111349337D01*
X177428413Y-112741607D02*
X177390492Y-112698878D01*
X176069159Y-111444558D02*
X176017053Y-111411400D01*
X177596676Y-112972076D02*
X177565984Y-112923891D01*
X175810329Y-111294106D02*
X175756369Y-111269129D01*
X176164529Y-111507455D02*
X176117343Y-111475250D01*
X176342356Y-111650742D02*
X176299628Y-111612822D01*
X176385903Y-111690219D02*
X176342356Y-111650742D01*
X177772105Y-113284866D02*
X177747128Y-113230905D01*
X177500092Y-112830565D02*
X177464958Y-112785517D01*
X171159378Y-110878038D02*
X171098215Y-110847659D01*
X171950063Y-111070723D02*
X171881860Y-111067226D01*
X175533984Y-111183630D02*
X175476834Y-111166597D01*
X176428137Y-111731097D02*
X176385903Y-111690219D01*
X177835949Y-113442997D02*
X177816415Y-113390995D01*
X177464958Y-112785517D02*
X177428413Y-112741607D01*
X177720382Y-113177799D02*
X177691897Y-113125605D01*
X171544816Y-111015023D02*
X171478752Y-110997723D01*
X175125965Y-111091281D02*
X175067171Y-111084033D01*
X177968345Y-120263889D02*
X177968345Y-114203889D01*
X177949161Y-120558101D02*
X177956388Y-120501201D01*
X177747128Y-121236873D02*
X177772105Y-121182912D01*
X176764256Y-122371946D02*
X176807072Y-122339013D01*
X176587411Y-122520426D02*
X176629996Y-122481406D01*
X177929289Y-120671066D02*
X177940125Y-120614742D01*
X173905682Y-124430236D02*
X173962208Y-124425267D01*
X177795286Y-121128156D02*
X177902980Y-120787542D01*
X177351015Y-121812446D02*
X177390492Y-121768900D01*
X176929324Y-122232718D02*
X176990137Y-122174681D01*
X174969159Y-124065220D02*
X175022091Y-124031385D01*
X176629996Y-122481406D02*
X176673689Y-122443632D01*
X175173361Y-123919100D02*
X175221070Y-123878229D01*
X176673689Y-122443632D02*
X176718455Y-122407135D01*
X174246436Y-124374516D02*
X174601612Y-124263830D01*
X176545971Y-122560659D02*
X176587411Y-122520426D01*
X174018550Y-124418519D02*
X174074652Y-124409998D01*
X174185910Y-124387674D02*
X174246436Y-124374516D01*
X173962208Y-124425267D02*
X174018550Y-124418519D01*
X177961798Y-120444100D02*
X177965386Y-120386855D01*
X177897782Y-113656278D02*
X177884800Y-113602267D01*
X177968345Y-114203889D02*
X177967148Y-114138253D01*
X177629834Y-121443597D02*
X177661703Y-121393398D01*
X177909091Y-113710664D02*
X177897782Y-113656278D01*
X177923476Y-113770748D02*
X177909091Y-113710664D01*
X177954512Y-113953407D02*
X177946199Y-113892187D01*
X177960778Y-114014870D02*
X177954512Y-113953407D01*
X177720382Y-121289979D02*
X177747128Y-121236873D01*
X174130457Y-124399713D02*
X174185910Y-124387674D01*
X176889643Y-122269368D02*
X176929324Y-122232718D01*
X177390492Y-121768900D02*
X177596676Y-121495702D01*
X177661703Y-121393398D02*
X177691897Y-121342173D01*
X176807072Y-122339013D02*
X176848880Y-122304810D01*
X177310137Y-121854681D02*
X177351015Y-121812446D01*
X176990137Y-122174681D02*
X177310137Y-121854681D01*
X173849026Y-124433421D02*
X173905682Y-124430236D01*
X175022091Y-124031385D02*
X175073811Y-123995725D01*
X174601612Y-124263830D02*
X174917053Y-124098377D01*
X174917053Y-124098377D02*
X174969159Y-124065220D01*
X177964992Y-114076509D02*
X177960778Y-114014870D01*
X177902980Y-120787542D02*
X177916664Y-120727016D01*
X176718455Y-122407135D02*
X176764256Y-122371946D01*
X175221070Y-123878229D02*
X175267324Y-123835718D01*
X173793213Y-124436022D02*
X173849026Y-124433421D01*
X177691897Y-121342173D02*
X177720382Y-121289979D01*
X175073811Y-123995725D02*
X175124255Y-123958281D01*
X175124255Y-123958281D02*
X175173361Y-123919100D01*
X176848880Y-122304810D02*
X176889643Y-122269368D01*
X175327713Y-123778105D02*
X176545971Y-122560659D01*
X177967148Y-120329525D02*
X177968345Y-120263889D01*
X177940125Y-120614742D02*
X177949161Y-120558101D01*
X177956388Y-120501201D02*
X177961798Y-120444100D01*
X177596676Y-121495702D02*
X177629834Y-121443597D01*
X177870158Y-113548683D02*
X177853869Y-113495576D01*
X177884800Y-113602267D02*
X177870158Y-113548683D01*
X177916664Y-120727016D02*
X177929289Y-120671066D01*
X177935850Y-113831278D02*
X177923476Y-113770748D01*
X177946199Y-113892187D02*
X177935850Y-113831278D01*
X175267324Y-123835718D02*
X175327713Y-123778105D01*
X174074652Y-124409998D02*
X174130457Y-124399713D01*
X177965386Y-120386855D02*
X177967148Y-120329525D01*
X173737345Y-124436889D02*
X173793213Y-124436022D01*
X177772105Y-121182912D02*
X177795286Y-121128156D01*
X177967148Y-114138253D02*
X177964992Y-114076509D01*
X137303062Y-124098657D02*
X137353198Y-124130468D01*
X134827345Y-109435900D02*
X134827345Y-120781889D01*
X137260133Y-124071192D02*
X137303062Y-124098657D01*
X135405199Y-122286900D02*
X135444894Y-122330680D01*
X137146387Y-123994926D02*
X137202607Y-124034033D01*
X134785513Y-109028988D02*
X134798264Y-109096080D01*
X137038127Y-123911055D02*
X137091539Y-123953917D01*
X134979275Y-121594782D02*
X135000404Y-121646156D01*
X134925533Y-121437095D02*
X134941822Y-121490202D01*
X134816860Y-109231372D02*
X134822683Y-109299416D01*
X136935860Y-123819971D02*
X136986213Y-123866388D01*
X136892006Y-123778134D02*
X136935860Y-123819971D01*
X134822683Y-109299416D02*
X134826179Y-109367618D01*
X134711867Y-108766141D02*
X134733635Y-108830871D01*
X134733635Y-108830871D02*
X134753180Y-108896307D01*
X134841179Y-121032371D02*
X134849491Y-121093591D01*
X135295598Y-122155213D02*
X135330732Y-122200261D01*
X134834913Y-120970907D02*
X134841179Y-121032371D01*
X135367278Y-122244171D02*
X135405199Y-122286900D01*
X134910890Y-121383510D02*
X134925533Y-121437095D01*
X134830699Y-120909269D02*
X134834913Y-120970907D01*
X135165857Y-121961597D02*
X135199015Y-122013702D01*
X134798264Y-109096080D02*
X134808717Y-109163567D01*
X134661768Y-108639098D02*
X134687902Y-108702192D01*
X137563399Y-124240683D02*
X137618078Y-124263830D01*
X135229706Y-122061886D02*
X135261912Y-122109072D01*
X137973255Y-124374516D02*
X138033781Y-124387674D01*
X134886599Y-121275114D02*
X134897908Y-121329500D01*
X138482345Y-124436889D02*
X173737345Y-124436889D01*
X134770479Y-108962372D02*
X134785513Y-109028988D01*
X138426478Y-124436022D02*
X138482345Y-124436889D01*
X137353198Y-124130468D02*
X137404356Y-124160608D01*
X137202607Y-124034033D02*
X137260133Y-124071192D01*
X137091539Y-123953917D02*
X137146387Y-123994926D01*
X134828542Y-120847525D02*
X134830699Y-120909269D01*
X134826179Y-109367618D02*
X134827345Y-109435900D01*
X138370664Y-124433421D02*
X138426478Y-124436022D01*
X138314009Y-124430236D02*
X138370664Y-124433421D01*
X138257482Y-124425267D02*
X138314009Y-124430236D01*
X135199015Y-122013702D02*
X135229706Y-122061886D01*
X138201140Y-124418519D02*
X138257482Y-124425267D01*
X138145039Y-124409998D02*
X138201140Y-124418519D01*
X138089234Y-124399713D02*
X138145039Y-124409998D01*
X134897908Y-121329500D02*
X134910890Y-121383510D01*
X134753180Y-108896307D02*
X134770479Y-108962372D01*
X138033781Y-124387674D02*
X138089234Y-124399713D01*
X134859840Y-121154500D02*
X134872214Y-121215030D01*
X137618078Y-124263830D02*
X137973255Y-124374516D01*
X137509514Y-124215745D02*
X137563399Y-124240683D01*
X137456480Y-124189044D02*
X137509514Y-124215745D01*
X135261912Y-122109072D02*
X135295598Y-122155213D01*
X136986213Y-123866388D02*
X137038127Y-123911055D01*
X135000404Y-121646156D02*
X135165857Y-121961597D01*
X135486006Y-122373134D02*
X136892006Y-123778134D01*
X134827345Y-120781889D02*
X134828542Y-120847525D01*
X135444894Y-122330680D02*
X135486006Y-122373134D01*
X135330732Y-122200261D02*
X135367278Y-122244171D01*
X134959742Y-121542781D02*
X134979275Y-121594782D01*
X134941822Y-121490202D02*
X134959742Y-121542781D01*
X134808717Y-109163567D02*
X134816860Y-109231372D01*
X134849491Y-121093591D02*
X134859840Y-121154500D01*
X134872214Y-121215030D02*
X134886599Y-121275114D01*
X134687902Y-108702192D02*
X134711867Y-108766141D01*
X137404356Y-124160608D02*
X137456480Y-124189044D01*
X137762896Y-89796527D02*
X137817152Y-89819638D01*
X142023762Y-90487033D02*
X142074460Y-90532785D01*
X141971531Y-90443039D02*
X142023762Y-90487033D01*
X141806262Y-90322105D02*
X141862718Y-90360527D01*
X138685345Y-89994489D02*
X140709388Y-89994489D01*
X138230946Y-89944201D02*
X138289593Y-89957081D01*
X137709427Y-89771651D02*
X137762896Y-89796527D01*
X137605076Y-89716712D02*
X137656802Y-89745036D01*
X141862718Y-90360527D02*
X141917829Y-90400854D01*
X141506167Y-90160056D02*
X141568330Y-90188327D01*
X141248966Y-90068650D02*
X141314399Y-90088194D01*
X138467652Y-89983897D02*
X138527491Y-89988861D01*
X137094553Y-89335481D02*
X137130638Y-89370571D01*
X141049199Y-90023568D02*
X141116288Y-90036318D01*
X138289593Y-89957081D02*
X138348637Y-89967999D01*
X141917829Y-90400854D02*
X141971531Y-90443039D01*
X141748527Y-90285632D02*
X141806262Y-90322105D01*
X140981713Y-90013116D02*
X141049199Y-90023568D01*
X140709388Y-89994489D02*
X140777668Y-89995655D01*
X141629492Y-90218705D02*
X141689581Y-90251152D01*
X137554306Y-89686709D02*
X137605076Y-89716712D01*
X141314399Y-90088194D02*
X141379128Y-90109960D01*
X137167690Y-89404638D02*
X137452441Y-89621848D01*
X135477653Y-87713077D02*
X135514631Y-87752986D01*
X138170420Y-89930832D02*
X138230946Y-89944201D01*
X138348637Y-89967999D02*
X138408012Y-89976941D01*
X137656802Y-89745036D02*
X137709427Y-89771651D01*
X149721472Y-98184611D02*
X149766198Y-98237876D01*
X140913910Y-90004974D02*
X140981713Y-90013116D01*
X149626602Y-98082907D02*
X149674922Y-98132934D01*
X142074460Y-90532785D02*
X142123567Y-90580241D01*
X138408012Y-89976941D02*
X138467652Y-89983897D01*
X135514631Y-87752986D02*
X135570553Y-87811481D01*
X141182903Y-90051351D02*
X141248966Y-90068650D01*
X137130638Y-89370571D02*
X137167690Y-89404638D01*
X138636386Y-89993823D02*
X138685345Y-89994489D01*
X135570553Y-87811481D02*
X137094553Y-89335481D01*
X141116288Y-90036318D02*
X141182903Y-90051351D01*
X149888895Y-98406539D02*
X149925803Y-98465491D01*
X140777668Y-89995655D02*
X140845869Y-89999151D01*
X149766198Y-98237876D02*
X149809044Y-98292663D01*
X137817152Y-89819638D02*
X138170420Y-89930832D01*
X140845869Y-89999151D02*
X140913910Y-90004974D01*
X141568330Y-90188327D02*
X141629492Y-90218705D01*
X141443075Y-90133923D02*
X141506167Y-90160056D01*
X141379128Y-90109960D02*
X141443075Y-90133923D01*
X142123567Y-90580241D02*
X149626602Y-98082907D01*
X141689581Y-90251152D02*
X141748527Y-90285632D01*
X135441898Y-87672069D02*
X135477653Y-87713077D01*
X137452441Y-89621848D02*
X137504546Y-89655059D01*
X150102351Y-98842805D02*
X150123960Y-98908915D01*
X150078456Y-98777486D02*
X150102351Y-98842805D01*
X138587463Y-89991826D02*
X138636386Y-89993823D01*
X150052304Y-98713038D02*
X150078456Y-98777486D01*
X150023927Y-98649539D02*
X150052304Y-98713038D01*
X149993360Y-98587064D02*
X150023927Y-98649539D01*
X149960638Y-98525690D02*
X149993360Y-98587064D01*
X137504546Y-89655059D02*
X137554306Y-89686709D01*
X149925803Y-98465491D02*
X149960638Y-98525690D01*
X149849960Y-98348907D02*
X149888895Y-98406539D01*
X149809044Y-98292663D02*
X149849960Y-98348907D01*
X138527491Y-89988861D02*
X138587463Y-89991826D01*
X149674922Y-98132934D02*
X149721472Y-98184611D01*
X152338078Y-106254830D02*
X152393256Y-106277450D01*
X152283322Y-106231649D02*
X152338078Y-106254830D01*
X151970532Y-106056220D02*
X152022637Y-106089377D01*
X151922348Y-106025528D02*
X151970532Y-106056220D01*
X151783973Y-105924502D02*
X151829021Y-105959636D01*
X150526236Y-104062195D02*
X150536521Y-104118000D01*
X151653064Y-105809880D02*
X151697335Y-105850035D01*
X151610151Y-105768277D02*
X151653064Y-105809880D01*
X150160221Y-99043187D02*
X150174827Y-99111188D01*
X150837857Y-104904597D02*
X150871015Y-104956702D01*
X150536521Y-104118000D02*
X150548560Y-104173453D01*
X150499345Y-103724889D02*
X150500212Y-103780756D01*
X150187061Y-99179656D02*
X150196907Y-99248507D01*
X150672404Y-104589156D02*
X150837857Y-104904597D01*
X150434243Y-103371171D02*
X150453962Y-103429601D01*
X150350402Y-102886547D02*
X150353569Y-102948134D01*
X150387244Y-103192312D02*
X150400864Y-103252457D01*
X150349345Y-102824889D02*
X150350402Y-102886547D01*
X150348587Y-101924910D02*
X150349345Y-101979994D01*
X150204353Y-99317659D02*
X150209389Y-99387028D01*
X152229361Y-106206671D02*
X152283322Y-106231649D01*
X151829021Y-105959636D02*
X151875162Y-105993322D01*
X150349345Y-101979994D02*
X150349345Y-102824889D01*
X152562857Y-106334181D02*
X152620539Y-106349312D01*
X152505707Y-106317147D02*
X152562857Y-106334181D01*
X150871015Y-104956702D02*
X151100516Y-105254868D01*
X152449152Y-106298230D02*
X152505707Y-106317147D01*
X150209389Y-99387028D02*
X150346311Y-101869867D01*
X150400864Y-103252457D02*
X150416537Y-103312100D01*
X152393256Y-106277450D02*
X152449152Y-106298230D01*
X151100516Y-105254868D02*
X151157151Y-105314277D01*
X150353569Y-102948134D02*
X150358845Y-103009575D01*
X150517715Y-104006094D02*
X150526236Y-104062195D01*
X152176255Y-106179926D02*
X152229361Y-106206671D01*
X150505998Y-103893225D02*
X150510967Y-103949752D01*
X152022637Y-106089377D02*
X152072837Y-106121247D01*
X150475672Y-103487321D02*
X150499345Y-103544264D01*
X150358845Y-103009575D02*
X150366222Y-103070800D01*
X152124061Y-106151440D02*
X152176255Y-106179926D01*
X152072837Y-106121247D02*
X152124061Y-106151440D01*
X150500212Y-103780756D02*
X150502813Y-103836570D01*
X151875162Y-105993322D02*
X151922348Y-106025528D01*
X151697335Y-105850035D02*
X151740063Y-105887956D01*
X150648884Y-104531670D02*
X150672404Y-104589156D01*
X150453962Y-103429601D02*
X150475672Y-103487321D01*
X150123960Y-98908915D02*
X150143258Y-98975736D01*
X150575019Y-104294650D02*
X150590406Y-104354826D01*
X150561718Y-104233980D02*
X150575019Y-104294650D01*
X150548560Y-104173453D02*
X150561718Y-104233980D01*
X150416537Y-103312100D02*
X150434243Y-103371171D01*
X150174827Y-99111188D02*
X150187061Y-99179656D01*
X150346311Y-101869867D02*
X150348587Y-101924910D01*
X150196907Y-99248507D02*
X150204353Y-99317659D01*
X150502813Y-103836570D02*
X150505998Y-103893225D01*
X150627361Y-104473406D02*
X150648884Y-104531670D01*
X150143258Y-98975736D02*
X150160221Y-99043187D01*
X150375692Y-103131736D02*
X150387244Y-103192312D01*
X151740063Y-105887956D02*
X151783973Y-105924502D01*
X150590406Y-104354826D02*
X150607860Y-104414435D01*
X150499345Y-103544264D02*
X150499345Y-103724889D01*
X150607860Y-104414435D02*
X150627361Y-104473406D01*
X150510967Y-103949752D02*
X150517715Y-104006094D01*
X151157151Y-105314277D02*
X151610151Y-105768277D01*
X150366222Y-103070800D02*
X150375692Y-103131736D01*
X135407400Y-87630000D02*
X135441898Y-87672069D01*
M02*
