  0
SECTION
  2
HEADER
  9
$ANGBASE
  50
0.0
  9
$ANGDIR
  70
  1
  9
$MEASUREMENT
  70
0
  0
ENDSEC
  0
SECTION
  2
TABLES
  0
TABLE
  2
LTYPE
  70
1
  0
LTYPE
  2
CONTINUOUS
  70
0
  3
Solid line
  72
65
  73
0
  40
0.0
  0
ENDTAB
  0
TABLE
  2
STYLE
  70
4
  0
STYLE
  2
KICAD
  70
0
  40
0
  41
1
  42
1
  50
0
  71
0
  3
isocp.shx
  0
STYLE
  2
KICADB
  70
0
  40
0
  41
1
  42
1
  50
0
  71
0
  3
isocp.shx
  0
STYLE
  2
KICADI
  70
0
  40
0
  41
1
  42
1
  50
15
  71
0
  3
isocp.shx
  0
STYLE
  2
KICADBI
  70
0
  40
0
  41
1
  42
1
  50
15
  71
0
  3
isocp.shx
  0
ENDTAB
  0
TABLE
  2
LAYER
  70
30
  0
LAYER
  2
BLACK
  70
0
  62
7
  6
CONTINUOUS
  0
LAYER
  2
GRAY1
  70
0
  62
251
  6
CONTINUOUS
  0
LAYER
  2
GRAY2
  70
0
  62
8
  6
CONTINUOUS
  0
LAYER
  2
GRAY3
  70
0
  62
9
  6
CONTINUOUS
  0
LAYER
  2
WHITE
  70
0
  62
7
  6
CONTINUOUS
  0
LAYER
  2
LYELLOW
  70
0
  62
51
  6
CONTINUOUS
  0
LAYER
  2
BLUE1
  70
0
  62
178
  6
CONTINUOUS
  0
LAYER
  2
GREEN1
  70
0
  62
98
  6
CONTINUOUS
  0
LAYER
  2
CYAN1
  70
0
  62
138
  6
CONTINUOUS
  0
LAYER
  2
RED1
  70
0
  62
18
  6
CONTINUOUS
  0
LAYER
  2
MAGENTA1
  70
0
  62
228
  6
CONTINUOUS
  0
LAYER
  2
BROWN1
  70
0
  62
58
  6
CONTINUOUS
  0
LAYER
  2
BLUE2
  70
0
  62
5
  6
CONTINUOUS
  0
LAYER
  2
GREEN2
  70
0
  62
3
  6
CONTINUOUS
  0
LAYER
  2
CYAN2
  70
0
  62
4
  6
CONTINUOUS
  0
LAYER
  2
RED2
  70
0
  62
1
  6
CONTINUOUS
  0
LAYER
  2
MAGENTA2
  70
0
  62
6
  6
CONTINUOUS
  0
LAYER
  2
BROWN2
  70
0
  62
54
  6
CONTINUOUS
  0
LAYER
  2
BLUE3
  70
0
  62
171
  6
CONTINUOUS
  0
LAYER
  2
GREEN3
  70
0
  62
91
  6
CONTINUOUS
  0
LAYER
  2
CYAN3
  70
0
  62
131
  6
CONTINUOUS
  0
LAYER
  2
RED3
  70
0
  62
11
  6
CONTINUOUS
  0
LAYER
  2
MAGENTA3
  70
0
  62
221
  6
CONTINUOUS
  0
LAYER
  2
YELLOW3
  70
0
  62
2
  6
CONTINUOUS
  0
LAYER
  2
BLUE4
  70
0
  62
5
  6
CONTINUOUS
  0
LAYER
  2
GREEN4
  70
0
  62
3
  6
CONTINUOUS
  0
LAYER
  2
CYAN4
  70
0
  62
4
  6
CONTINUOUS
  0
LAYER
  2
RED4
  70
0
  62
1
  6
CONTINUOUS
  0
LAYER
  2
MAGENTA4
  70
0
  62
6
  6
CONTINUOUS
  0
LAYER
  2
YELLOW4
  70
0
  62
2
  6
CONTINUOUS
  0
ENDTAB
  0
ENDSEC
  0
SECTION
  2
ENTITIES
0
LINE
8
Black
10
197.76
20
-75.6808
11
197.765
21
-75.6808
0
LINE
8
Black
10
197.765
20
-75.6808
11
198.449
21
-75.8014
0
LINE
8
Black
10
198.449
20
-75.8014
11
198.456
21
-75.804
0
LINE
8
Black
10
198.456
20
-75.804
11
198.463
21
-75.8063
0
LINE
8
Black
10
198.463
20
-75.8063
11
198.938
21
-76.0553
0
LINE
8
Black
10
198.938
20
-76.0553
11
198.944
21
-76.06
0
LINE
8
Black
10
198.944
20
-76.06
11
198.95
21
-76.0644
0
LINE
8
Black
10
198.95
20
-76.0644
11
224.559
21
-102.024
0
LINE
8
Black
10
224.559
20
-102.024
11
224.562
21
-102.029
0
LINE
8
Black
10
224.562
20
-102.029
11
224.566
21
-102.033
0
LINE
8
Black
10
224.566
20
-102.033
11
232.074
21
-114.738
0
LINE
8
Black
10
232.074
20
-114.738
11
232.076
21
-114.743
0
LINE
8
Black
10
232.076
20
-114.743
11
232.079
21
-114.749
0
LINE
8
Black
10
232.079
20
-114.749
11
232.277
21
-115.415
0
LINE
8
Black
10
232.277
20
-115.415
11
232.277
21
-115.415
0
LINE
8
Black
10
232.277
20
-115.415
11
232.278
21
-115.423
0
LINE
8
Black
10
232.278
20
-115.423
11
232.279
21
-115.432
0
LINE
8
Black
10
232.279
20
-115.432
11
232.279
21
-115.432
0
LINE
8
Black
10
232.279
20
-115.432
11
232.237
21
-116.125
0
LINE
8
Black
10
232.237
20
-116.125
11
232.237
21
-116.125
0
LINE
8
Black
10
232.237
20
-116.125
11
232.233
21
-116.142
0
LINE
8
Black
10
232.233
20
-116.142
11
231.956
21
-116.779
0
LINE
8
Black
10
231.956
20
-116.779
11
231.953
21
-116.784
0
LINE
8
Black
10
231.953
20
-116.784
11
231.951
21
-116.789
0
LINE
8
Black
10
231.951
20
-116.789
11
231.83
21
-116.953
0
LINE
8
Black
10
231.83
20
-116.953
11
231.829
21
-116.954
0
LINE
8
Black
10
231.829
20
-116.954
11
231.828
21
-116.955
0
LINE
8
Black
10
231.828
20
-116.955
11
225.223
21
-125.028
0
LINE
8
Black
10
225.223
20
-125.028
11
225.22
21
-125.031
0
LINE
8
Black
10
225.22
20
-125.031
11
225.217
21
-125.034
0
LINE
8
Black
10
225.217
20
-125.034
11
224.691
21
-125.487
0
LINE
8
Black
10
224.691
20
-125.487
11
224.676
21
-125.496
0
LINE
8
Black
10
224.676
20
-125.496
11
224.676
21
-125.496
0
LINE
8
Black
10
224.676
20
-125.496
11
224.026
21
-125.742
0
LINE
8
Black
10
224.026
20
-125.742
11
224.02
21
-125.743
0
LINE
8
Black
10
224.02
20
-125.743
11
224.013
21
-125.745
0
LINE
8
Black
10
224.013
20
-125.745
11
223.641
21
-125.78
0
LINE
8
Black
10
223.641
20
-125.78
11
223.639
21
-125.78
0
LINE
8
Black
10
223.639
20
-125.78
11
223.637
21
-125.78
0
LINE
8
Black
10
223.637
20
-125.78
11
95.8076
21
-125.78
0
LINE
8
Black
10
95.8076
20
-125.78
11
95.8033
21
-125.779
0
LINE
8
Black
10
95.8033
20
-125.779
11
95.7989
21
-125.779
0
LINE
8
Black
10
95.7989
20
-125.779
11
95.1152
21
-125.659
0
LINE
8
Black
10
95.1152
20
-125.659
11
95.1152
21
-125.659
0
LINE
8
Black
10
95.1152
20
-125.659
11
95.1152
21
-125.659
0
LINE
8
Black
10
95.1152
20
-125.659
11
95.1149
21
-125.659
0
LINE
8
Black
10
95.1149
20
-125.659
11
95.1069
21
-125.656
0
LINE
8
Black
10
95.1069
20
-125.656
11
95.0988
21
-125.653
0
LINE
8
Black
10
95.0988
20
-125.653
11
94.5164
21
-125.321
0
LINE
8
Black
10
94.5164
20
-125.321
11
94.5132
21
-125.319
0
LINE
8
Black
10
94.5132
20
-125.319
11
94.5095
21
-125.317
0
LINE
8
Black
10
94.5095
20
-125.317
11
85.6945
21
-118.104
0
LINE
8
Black
10
85.6945
20
-118.104
11
85.6917
21
-118.101
0
LINE
8
Black
10
85.6917
20
-118.101
11
85.6883
21
-118.098
0
LINE
8
Black
10
85.6883
20
-118.098
11
85.2353
21
-117.572
0
LINE
8
Black
10
85.2353
20
-117.572
11
85.2264
21
-117.557
0
LINE
8
Black
10
85.2264
20
-117.557
11
85.2264
21
-117.557
0
LINE
8
Black
10
85.2264
20
-117.557
11
84.9807
21
-116.907
0
LINE
8
Black
10
84.9807
20
-116.907
11
84.9795
21
-116.901
0
LINE
8
Black
10
84.9795
20
-116.901
11
84.9777
21
-116.894
0
LINE
8
Black
10
84.9777
20
-116.894
11
84.9429
21
-116.522
0
LINE
8
Black
10
84.9429
20
-116.522
11
84.9431
21
-116.52
0
LINE
8
Black
10
84.9431
20
-116.52
11
84.9427
21
-116.518
0
LINE
8
Black
10
84.9427
20
-116.518
11
84.9427
21
-111.369
0
LINE
8
Black
10
84.9427
20
-111.369
11
84.913
21
-111.03
0
LINE
8
Black
10
84.913
20
-111.03
11
84.6807
21
-110.392
0
LINE
8
Black
10
84.6807
20
-110.392
11
84.2456
21
-109.874
0
LINE
8
Black
10
84.2456
20
-109.874
11
83.6593
21
-109.535
0
LINE
8
Black
10
83.6593
20
-109.535
11
82.9883
21
-109.417
0
LINE
8
Black
10
82.9883
20
-109.417
11
77.0942
21
-109.417
0
LINE
8
Black
10
77.0942
20
-109.417
11
77.0899
21
-109.416
0
LINE
8
Black
10
77.0899
20
-109.416
11
77.0855
21
-109.416
0
LINE
8
Black
10
77.0855
20
-109.416
11
76.4015
21
-109.295
0
LINE
8
Black
10
76.4015
20
-109.295
11
76.4015
21
-109.295
0
LINE
8
Black
10
76.4015
20
-109.295
11
76.3933
21
-109.292
0
LINE
8
Black
10
76.3933
20
-109.292
11
76.3851
21
-109.289
0
LINE
8
Black
10
76.3851
20
-109.289
11
76.3851
21
-109.289
0
LINE
8
Black
10
76.3851
20
-109.289
11
75.7836
21
-108.942
0
LINE
8
Black
10
75.7836
20
-108.942
11
75.7703
21
-108.931
0
LINE
8
Black
10
75.7703
20
-108.931
11
75.7703
21
-108.931
0
LINE
8
Black
10
75.7703
20
-108.931
11
75.3238
21
-108.399
0
LINE
8
Black
10
75.3238
20
-108.399
11
75.3238
21
-108.399
0
LINE
8
Black
10
75.3238
20
-108.399
11
75.3152
21
-108.384
0
LINE
8
Black
10
75.3152
20
-108.384
11
75.0776
21
-107.731
0
LINE
8
Black
10
75.0776
20
-107.731
11
75.0765
21
-107.725
0
LINE
8
Black
10
75.0765
20
-107.725
11
75.0748
21
-107.718
0
LINE
8
Black
10
75.0748
20
-107.718
11
75.0444
21
-107.371
0
LINE
8
Black
10
75.0444
20
-107.371
11
75.0446
21
-107.369
0
LINE
8
Black
10
75.0446
20
-107.369
11
75.0442
21
-107.367
0
LINE
8
Black
10
75.0442
20
-107.367
11
75.0442
21
-93.5068
0
LINE
8
Black
10
75.0442
20
-93.5068
11
75.0449
21
-93.5025
0
LINE
8
Black
10
75.0449
20
-93.5025
11
75.0449
21
-93.4981
0
LINE
8
Black
10
75.0449
20
-93.4981
11
75.1656
21
-92.8141
0
LINE
8
Black
10
75.1656
20
-92.8141
11
75.1656
21
-92.8141
0
LINE
8
Black
10
75.1656
20
-92.8141
11
75.169
21
-92.8046
0
LINE
8
Black
10
75.169
20
-92.8046
11
75.1715
21
-92.7977
0
LINE
8
Black
10
75.1715
20
-92.7977
11
75.1715
21
-92.7977
0
LINE
8
Black
10
75.1715
20
-92.7977
11
75.5188
21
-92.1962
0
LINE
8
Black
10
75.5188
20
-92.1962
11
75.5188
21
-92.1962
0
LINE
8
Black
10
75.5188
20
-92.1962
11
75.5227
21
-92.1915
0
LINE
8
Black
10
75.5227
20
-92.1915
11
75.53
21
-92.1829
0
LINE
8
Black
10
75.53
20
-92.1829
11
75.53
21
-92.1829
0
LINE
8
Black
10
75.53
20
-92.1829
11
76.062
21
-91.7364
0
LINE
8
Black
10
76.062
20
-91.7364
11
76.062
21
-91.7364
0
LINE
8
Black
10
76.062
20
-91.7364
11
76.0771
21
-91.7277
0
LINE
8
Black
10
76.0771
20
-91.7277
11
76.7298
21
-91.4902
0
LINE
8
Black
10
76.7298
20
-91.4902
11
76.7362
21
-91.489
0
LINE
8
Black
10
76.7362
20
-91.489
11
76.7425
21
-91.4874
0
LINE
8
Black
10
76.7425
20
-91.4874
11
77.0898
21
-91.457
0
LINE
8
Black
10
77.0898
20
-91.457
11
77.092
21
-91.4572
0
LINE
8
Black
10
77.092
20
-91.4572
11
77.0942
21
-91.4568
0
LINE
8
Black
10
77.0942
20
-91.4568
11
82.9905
21
-91.4568
0
LINE
8
Black
10
82.9905
20
-91.4568
11
83.329
21
-91.4272
0
LINE
8
Black
10
83.329
20
-91.4272
11
83.9673
21
-91.1949
0
LINE
8
Black
10
83.9673
20
-91.1949
11
84.4859
21
-90.7597
0
LINE
8
Black
10
84.4859
20
-90.7597
11
84.8243
21
-90.1735
0
LINE
8
Black
10
84.8243
20
-90.1735
11
84.9427
21
-89.5024
0
LINE
8
Black
10
84.9427
20
-89.5024
11
84.9427
21
-77.73
0
LINE
8
Black
10
84.9427
20
-77.73
11
84.9434
21
-77.7257
0
LINE
8
Black
10
84.9434
20
-77.7257
11
84.9434
21
-77.7213
0
LINE
8
Black
10
84.9434
20
-77.7213
11
85.064
21
-77.0373
0
LINE
8
Black
10
85.064
20
-77.0373
11
85.064
21
-77.0373
0
LINE
8
Black
10
85.064
20
-77.0373
11
85.0675
21
-77.0279
0
LINE
8
Black
10
85.0675
20
-77.0279
11
85.07
21
-77.021
0
LINE
8
Black
10
85.07
20
-77.021
11
85.07
21
-77.021
0
LINE
8
Black
10
85.07
20
-77.021
11
85.4173
21
-76.4194
0
LINE
8
Black
10
85.4173
20
-76.4194
11
85.4173
21
-76.4194
0
LINE
8
Black
10
85.4173
20
-76.4194
11
85.4212
21
-76.4147
0
LINE
8
Black
10
85.4212
20
-76.4147
11
85.4284
21
-76.4061
0
LINE
8
Black
10
85.4284
20
-76.4061
11
85.4284
21
-76.4061
0
LINE
8
Black
10
85.4284
20
-76.4061
11
85.9605
21
-75.9597
0
LINE
8
Black
10
85.9605
20
-75.9597
11
85.9605
21
-75.9596
0
LINE
8
Black
10
85.9605
20
-75.9596
11
85.9756
21
-75.951
0
LINE
8
Black
10
85.9756
20
-75.951
11
86.6283
21
-75.7134
0
LINE
8
Black
10
86.6283
20
-75.7134
11
86.6347
21
-75.7123
0
LINE
8
Black
10
86.6347
20
-75.7123
11
86.641
21
-75.7106
0
LINE
8
Black
10
86.641
20
-75.7106
11
86.9883
21
-75.6802
0
LINE
8
Black
10
86.9883
20
-75.6802
11
86.9905
21
-75.6804
0
LINE
8
Black
10
86.9905
20
-75.6804
11
86.9927
21
-75.68
0
LINE
8
Black
10
86.9927
20
-75.68
11
197.756
21
-75.68
0
LINE
8
Black
10
197.756
20
-75.68
11
197.76
21
-75.6808
0
LINE
8
Black
10
86.9949
20
-75.78
11
86.6563
21
-75.8096
0
LINE
8
Black
10
86.6563
20
-75.8096
11
86.0181
21
-76.0419
0
LINE
8
Black
10
86.0181
20
-76.0419
11
85.4995
21
-76.4771
0
LINE
8
Black
10
85.4995
20
-76.4771
11
85.161
21
-77.0633
0
LINE
8
Black
10
85.161
20
-77.0633
11
85.0427
21
-77.7344
0
LINE
8
Black
10
85.0427
20
-77.7344
11
85.0427
21
-89.5068
0
LINE
8
Black
10
85.0427
20
-89.5068
11
85.0419
21
-89.5111
0
LINE
8
Black
10
85.0419
20
-89.5111
11
85.0419
21
-89.5155
0
LINE
8
Black
10
85.0419
20
-89.5155
11
84.9213
21
-90.1995
0
LINE
8
Black
10
84.9213
20
-90.1995
11
84.9213
21
-90.1995
0
LINE
8
Black
10
84.9213
20
-90.1995
11
84.9183
21
-90.2077
0
LINE
8
Black
10
84.9183
20
-90.2077
11
84.9154
21
-90.2158
0
LINE
8
Black
10
84.9154
20
-90.2158
11
84.9154
21
-90.2158
0
LINE
8
Black
10
84.9154
20
-90.2158
11
84.5681
21
-90.8174
0
LINE
8
Black
10
84.5681
20
-90.8174
11
84.5569
21
-90.8307
0
LINE
8
Black
10
84.5569
20
-90.8307
11
84.5569
21
-90.8307
0
LINE
8
Black
10
84.5569
20
-90.8307
11
84.0248
21
-91.2771
0
LINE
8
Black
10
84.0248
20
-91.2771
11
84.0248
21
-91.2771
0
LINE
8
Black
10
84.0248
20
-91.2771
11
84.0098
21
-91.2858
0
LINE
8
Black
10
84.0098
20
-91.2858
11
83.3571
21
-91.5234
0
LINE
8
Black
10
83.3571
20
-91.5234
11
83.3506
21
-91.5245
0
LINE
8
Black
10
83.3506
20
-91.5245
11
83.3443
21
-91.5262
0
LINE
8
Black
10
83.3443
20
-91.5262
11
82.997
21
-91.5566
0
LINE
8
Black
10
82.997
20
-91.5566
11
82.9948
21
-91.5564
0
LINE
8
Black
10
82.9948
20
-91.5564
11
82.9927
21
-91.5568
0
LINE
8
Black
10
82.9927
20
-91.5568
11
77.0964
21
-91.5568
0
LINE
8
Black
10
77.0964
20
-91.5568
11
76.7578
21
-91.5864
0
LINE
8
Black
10
76.7578
20
-91.5864
11
76.1196
21
-91.8187
0
LINE
8
Black
10
76.1196
20
-91.8187
11
75.601
21
-92.2538
0
LINE
8
Black
10
75.601
20
-92.2538
11
75.2625
21
-92.8401
0
LINE
8
Black
10
75.2625
20
-92.8401
11
75.1442
21
-93.5112
0
LINE
8
Black
10
75.1442
20
-93.5112
11
75.1442
21
-107.365
0
LINE
8
Black
10
75.1442
20
-107.365
11
75.1738
21
-107.703
0
LINE
8
Black
10
75.1738
20
-107.703
11
75.4061
21
-108.341
0
LINE
8
Black
10
75.4061
20
-108.341
11
75.8412
21
-108.86
0
LINE
8
Black
10
75.8412
20
-108.86
11
76.4275
21
-109.198
0
LINE
8
Black
10
76.4275
20
-109.198
11
77.0986
21
-109.317
0
LINE
8
Black
10
77.0986
20
-109.317
11
82.9927
21
-109.317
0
LINE
8
Black
10
82.9927
20
-109.317
11
82.997
21
-109.318
0
LINE
8
Black
10
82.997
20
-109.318
11
83.0014
21
-109.318
0
LINE
8
Black
10
83.0014
20
-109.318
11
83.6854
21
-109.438
0
LINE
8
Black
10
83.6854
20
-109.438
11
83.6854
21
-109.438
0
LINE
8
Black
10
83.6854
20
-109.438
11
83.6948
21
-109.442
0
LINE
8
Black
10
83.6948
20
-109.442
11
83.7017
21
-109.444
0
LINE
8
Black
10
83.7017
20
-109.444
11
83.7017
21
-109.444
0
LINE
8
Black
10
83.7017
20
-109.444
11
84.3032
21
-109.791
0
LINE
8
Black
10
84.3032
20
-109.791
11
84.3032
21
-109.791
0
LINE
8
Black
10
84.3032
20
-109.791
11
84.3079
21
-109.795
0
LINE
8
Black
10
84.3079
20
-109.795
11
84.3165
21
-109.803
0
LINE
8
Black
10
84.3165
20
-109.803
11
84.3166
21
-109.803
0
LINE
8
Black
10
84.3166
20
-109.803
11
84.763
21
-110.335
0
LINE
8
Black
10
84.763
20
-110.335
11
84.763
21
-110.335
0
LINE
8
Black
10
84.763
20
-110.335
11
84.7717
21
-110.35
0
LINE
8
Black
10
84.7717
20
-110.35
11
85.0093
21
-111.002
0
LINE
8
Black
10
85.0093
20
-111.002
11
85.0104
21
-111.009
0
LINE
8
Black
10
85.0104
20
-111.009
11
85.0121
21
-111.015
0
LINE
8
Black
10
85.0121
20
-111.015
11
85.0425
21
-111.362
0
LINE
8
Black
10
85.0425
20
-111.362
11
85.0423
21
-111.365
0
LINE
8
Black
10
85.0423
20
-111.365
11
85.0427
21
-111.367
0
LINE
8
Black
10
85.0427
20
-111.367
11
85.0427
21
-116.515
0
LINE
8
Black
10
85.0427
20
-116.515
11
85.0767
21
-116.878
0
LINE
8
Black
10
85.0767
20
-116.878
11
85.3168
21
-117.513
0
LINE
8
Black
10
85.3168
20
-117.513
11
85.7612
21
-118.03
0
LINE
8
Black
10
85.7612
20
-118.03
11
94.5695
21
-125.237
0
LINE
8
Black
10
94.5695
20
-125.237
11
95.1408
21
-125.562
0
LINE
8
Black
10
95.1408
20
-125.562
11
95.812
21
-125.68
0
LINE
8
Black
10
95.812
20
-125.68
11
223.634
21
-125.68
0
LINE
8
Black
10
223.634
20
-125.68
11
223.997
21
-125.646
0
LINE
8
Black
10
223.997
20
-125.646
11
224.632
21
-125.406
0
LINE
8
Black
10
224.632
20
-125.406
11
225.149
21
-124.961
0
LINE
8
Black
10
225.149
20
-124.961
11
231.75
21
-116.893
0
LINE
8
Black
10
231.75
20
-116.893
11
231.867
21
-116.734
0
LINE
8
Black
10
231.867
20
-116.734
11
232.138
21
-116.11
0
LINE
8
Black
10
232.138
20
-116.11
11
232.178
21
-115.435
0
LINE
8
Black
10
232.178
20
-115.435
11
231.985
21
-114.783
0
LINE
8
Black
10
231.985
20
-114.783
11
224.483
21
-102.09
0
LINE
8
Black
10
224.483
20
-102.09
11
198.884
21
-76.1402
0
LINE
8
Black
10
198.884
20
-76.1402
11
198.424
21
-75.8985
0
LINE
8
Black
10
198.424
20
-75.8985
11
197.752
21
-75.78
0
LINE
8
Black
10
197.752
20
-75.78
11
86.9949
21
-75.78
  0
ENDSEC
  0
EOF
