G04 #@! TF.FileFunction,Copper,L1,Top,Signal*
%FSLAX46Y46*%
G04 Gerber Fmt 4.6, Leading zero omitted, Abs format (unit mm)*
G04 Created by KiCad (PCBNEW 4.0.4-stable) date 12/18/16 15:48:06*
%MOMM*%
%LPD*%
G01*
G04 APERTURE LIST*
%ADD10C,0.100000*%
%ADD11R,1.800000X1.100000*%
%ADD12R,1.200000X0.900000*%
%ADD13R,1.500000X1.300000*%
%ADD14R,2.032000X1.727200*%
%ADD15C,0.900000*%
G04 APERTURE END LIST*
D10*
D11*
X119505800Y-115396400D03*
X125705800Y-115396400D03*
X119505800Y-119096400D03*
X125705800Y-119096400D03*
D12*
X116974800Y-119253000D03*
X114774800Y-119253000D03*
X91828800Y-85394800D03*
X89628800Y-85394800D03*
D13*
X88370400Y-97612200D03*
X85670400Y-97612200D03*
D12*
X85844200Y-102793800D03*
X88044200Y-102793800D03*
X187688400Y-85445600D03*
X185488400Y-85445600D03*
X202928400Y-102489000D03*
X200728400Y-102489000D03*
X212936000Y-119151400D03*
X210736000Y-119151400D03*
X188907600Y-119227600D03*
X186707600Y-119227600D03*
X178950800Y-102387400D03*
X176750800Y-102387400D03*
X163863200Y-85344000D03*
X161663200Y-85344000D03*
X139326800Y-85445600D03*
X137126800Y-85445600D03*
X154897000Y-102362000D03*
X152697000Y-102362000D03*
X164701400Y-119176800D03*
X162501400Y-119176800D03*
X140774600Y-119253000D03*
X138574600Y-119253000D03*
X130843200Y-102412800D03*
X128643200Y-102412800D03*
X115450800Y-85572600D03*
X113250800Y-85572600D03*
X107068800Y-102387400D03*
X104868800Y-102387400D03*
D11*
X190448000Y-81665200D03*
X196648000Y-81665200D03*
X190448000Y-85365200D03*
X196648000Y-85365200D03*
X205662600Y-98607000D03*
X211862600Y-98607000D03*
X205662600Y-102307000D03*
X211862600Y-102307000D03*
X215517800Y-115396400D03*
X221717800Y-115396400D03*
X215517800Y-119096400D03*
X221717800Y-119096400D03*
X191514800Y-115371000D03*
X197714800Y-115371000D03*
X191514800Y-119071000D03*
X197714800Y-119071000D03*
X181659600Y-98581600D03*
X187859600Y-98581600D03*
X181659600Y-102281600D03*
X187859600Y-102281600D03*
X166445000Y-81589000D03*
X172645000Y-81589000D03*
X166445000Y-85289000D03*
X172645000Y-85289000D03*
X142467400Y-81665200D03*
X148667400Y-81665200D03*
X142467400Y-85365200D03*
X148667400Y-85365200D03*
X157656600Y-98607000D03*
X163856600Y-98607000D03*
X157656600Y-102307000D03*
X163856600Y-102307000D03*
X167486400Y-115371000D03*
X173686400Y-115371000D03*
X167486400Y-119071000D03*
X173686400Y-119071000D03*
X143508800Y-115396400D03*
X149708800Y-115396400D03*
X143508800Y-119096400D03*
X149708800Y-119096400D03*
X133653600Y-98581600D03*
X139853600Y-98581600D03*
X133653600Y-102281600D03*
X139853600Y-102281600D03*
X118464400Y-81665200D03*
X124664400Y-81665200D03*
X118464400Y-85365200D03*
X124664400Y-85365200D03*
X94461400Y-81639800D03*
X100661400Y-81639800D03*
X94461400Y-85339800D03*
X100661400Y-85339800D03*
X109676000Y-98581600D03*
X115876000Y-98581600D03*
X109676000Y-102281600D03*
X115876000Y-102281600D03*
D14*
X78206600Y-105384600D03*
X78206600Y-102844600D03*
X78206600Y-100304600D03*
X78206600Y-97764600D03*
X78206600Y-95224600D03*
D15*
X104868800Y-102387400D02*
X104868800Y-103344800D01*
X104868800Y-103344800D02*
X106375200Y-104851200D01*
X122656600Y-115945600D02*
X119505800Y-119096400D01*
X106375200Y-104851200D02*
X114808000Y-104851200D01*
X114808000Y-104851200D02*
X122656600Y-112699800D01*
X122656600Y-112699800D02*
X122656600Y-115945600D01*
X119505800Y-119096400D02*
X125705800Y-119096400D01*
X116974800Y-119253000D02*
X119349200Y-119253000D01*
X119349200Y-119253000D02*
X119505800Y-119096400D01*
X114774800Y-119253000D02*
X95454486Y-119253000D01*
X95454486Y-119253000D02*
X91233790Y-115032304D01*
X91233790Y-115032304D02*
X91233790Y-103276190D01*
X91233790Y-103276190D02*
X88262200Y-100304600D01*
X88262200Y-100304600D02*
X84528000Y-100304600D01*
X78206600Y-100304600D02*
X84528000Y-100304600D01*
X84528000Y-100304600D02*
X85670400Y-99162200D01*
X85670400Y-99162200D02*
X85670400Y-97612200D01*
X113250800Y-85572600D02*
X100894200Y-85572600D01*
X100894200Y-85572600D02*
X100661400Y-85339800D01*
X91828800Y-85394800D02*
X94406400Y-85394800D01*
X94406400Y-85394800D02*
X94461400Y-85339800D01*
X107068800Y-92438400D02*
X107068800Y-101037400D01*
X89628800Y-86744800D02*
X91352200Y-88468200D01*
X103098600Y-88468200D02*
X107068800Y-92438400D01*
X89628800Y-85394800D02*
X89628800Y-86744800D01*
X107068800Y-101037400D02*
X107068800Y-102387400D01*
X91352200Y-88468200D02*
X103098600Y-88468200D01*
X109676000Y-102281600D02*
X115876000Y-102281600D01*
X107068800Y-102387400D02*
X109570200Y-102387400D01*
X109570200Y-102387400D02*
X109676000Y-102281600D01*
X143508800Y-115396400D02*
X143504600Y-115392200D01*
X143504600Y-115392200D02*
X141020800Y-115392200D01*
X141020800Y-115392200D02*
X139877800Y-114249200D01*
X142138400Y-99066400D02*
X141653600Y-98581600D01*
X139877800Y-114249200D02*
X139877800Y-105892600D01*
X139877800Y-105892600D02*
X142138400Y-103632000D01*
X142138400Y-103632000D02*
X142138400Y-99066400D01*
X141653600Y-98581600D02*
X139853600Y-98581600D01*
X221367800Y-115396400D02*
X221717800Y-115396400D01*
X212212600Y-98607000D02*
X213890390Y-100284790D01*
X211862600Y-98607000D02*
X212212600Y-98607000D01*
X219917800Y-113946400D02*
X221367800Y-115396400D01*
X219917800Y-113617514D02*
X219917800Y-113946400D01*
X213890390Y-100284790D02*
X213890390Y-107590104D01*
X213890390Y-107590104D02*
X219917800Y-113617514D01*
X197714800Y-115371000D02*
X199869600Y-117525800D01*
X199869600Y-117525800D02*
X213766400Y-117525800D01*
X213766400Y-117525800D02*
X215517800Y-115774400D01*
X215517800Y-115774400D02*
X215517800Y-115396400D01*
X187629800Y-114274600D02*
X188726200Y-115371000D01*
X188726200Y-115371000D02*
X191514800Y-115371000D01*
X187629800Y-106045000D02*
X187629800Y-114274600D01*
X190017400Y-103657400D02*
X187629800Y-106045000D01*
X190017400Y-100389400D02*
X190017400Y-103657400D01*
X187859600Y-98581600D02*
X188209600Y-98581600D01*
X188209600Y-98581600D02*
X190017400Y-100389400D01*
X196648000Y-81665200D02*
X196998000Y-81665200D01*
X205662600Y-90329800D02*
X205662600Y-97157000D01*
X196998000Y-81665200D02*
X205662600Y-90329800D01*
X205662600Y-97157000D02*
X205662600Y-98607000D01*
X211862600Y-98607000D02*
X212653000Y-98607000D01*
X181659600Y-98581600D02*
X180115600Y-98581600D01*
X177749200Y-96215200D02*
X177749200Y-86343200D01*
X180115600Y-98581600D02*
X177749200Y-96215200D01*
X177749200Y-86343200D02*
X172995000Y-81589000D01*
X172995000Y-81589000D02*
X172645000Y-81589000D01*
X142467400Y-81665200D02*
X142817400Y-81665200D01*
X142817400Y-81665200D02*
X144856200Y-83704000D01*
X144856200Y-83704000D02*
X144856200Y-88188800D01*
X144856200Y-88188800D02*
X155274400Y-98607000D01*
X155274400Y-98607000D02*
X155856600Y-98607000D01*
X155856600Y-98607000D02*
X157656600Y-98607000D01*
X167486400Y-115371000D02*
X166116000Y-114000600D01*
X166116000Y-114000600D02*
X166116000Y-107786398D01*
X166116000Y-107786398D02*
X159456600Y-101126998D01*
X159456600Y-101126998D02*
X159456600Y-100057000D01*
X159456600Y-100057000D02*
X158006600Y-98607000D01*
X158006600Y-98607000D02*
X157656600Y-98607000D01*
X167836400Y-115371000D02*
X167486400Y-115371000D01*
X169336401Y-116871001D02*
X167836400Y-115371000D01*
X147040600Y-117714600D02*
X147040600Y-119408202D01*
X148406387Y-120773989D02*
X168943413Y-120773989D01*
X147040600Y-119408202D02*
X148406387Y-120773989D01*
X149358800Y-115396400D02*
X147040600Y-117714600D01*
X149708800Y-115396400D02*
X149358800Y-115396400D01*
X169336401Y-120381001D02*
X169336401Y-116871001D01*
X168943413Y-120773989D02*
X169336401Y-120381001D01*
X124664400Y-81665200D02*
X124718200Y-81665200D01*
X124718200Y-81665200D02*
X129870200Y-86817200D01*
X129870200Y-86817200D02*
X129870200Y-97485200D01*
X129870200Y-97485200D02*
X130966600Y-98581600D01*
X130966600Y-98581600D02*
X133653600Y-98581600D01*
X108483400Y-95939000D02*
X109676000Y-97131600D01*
X94811400Y-81639800D02*
X97612200Y-84440600D01*
X97612200Y-84440600D02*
X97612200Y-86182200D01*
X94461400Y-81639800D02*
X94811400Y-81639800D01*
X98498189Y-87068189D02*
X103678504Y-87068190D01*
X97612200Y-86182200D02*
X98498189Y-87068189D01*
X103678504Y-87068190D02*
X108483400Y-91873086D01*
X108483400Y-91873086D02*
X108483400Y-95939000D01*
X109676000Y-97131600D02*
X109676000Y-98581600D01*
X88370400Y-97612200D02*
X88470400Y-97612200D01*
X88470400Y-97612200D02*
X92633800Y-101775600D01*
X92633800Y-101775600D02*
X92633800Y-114452400D01*
X92633800Y-114452400D02*
X95834200Y-117652800D01*
X95834200Y-117652800D02*
X115449400Y-117652800D01*
X115449400Y-117652800D02*
X117705800Y-115396400D01*
X117705800Y-115396400D02*
X119505800Y-115396400D01*
X78206600Y-95224600D02*
X87532800Y-95224600D01*
X87532800Y-95224600D02*
X88370400Y-96062200D01*
X88370400Y-96062200D02*
X88370400Y-97612200D01*
X125705800Y-113664914D02*
X125705800Y-113946400D01*
X118056190Y-100411790D02*
X118056190Y-106015304D01*
X115876000Y-98581600D02*
X116226000Y-98581600D01*
X118056190Y-106015304D02*
X125705800Y-113664914D01*
X125705800Y-113946400D02*
X125705800Y-115396400D01*
X116226000Y-98581600D02*
X118056190Y-100411790D01*
X94461400Y-81639800D02*
X100661400Y-81639800D01*
X149708800Y-115396400D02*
X143508800Y-115396400D01*
X133653600Y-98581600D02*
X139853600Y-98581600D01*
X205662600Y-98607000D02*
X211862600Y-98607000D01*
X190448000Y-81665200D02*
X196648000Y-81665200D01*
X191514800Y-115371000D02*
X197714800Y-115371000D01*
X187859600Y-98581600D02*
X181659600Y-98581600D01*
X118464400Y-81665200D02*
X124664400Y-81665200D01*
X115876000Y-98581600D02*
X109676000Y-98581600D01*
X167486400Y-115371000D02*
X173686400Y-115371000D01*
X157656600Y-98607000D02*
X163856600Y-98607000D01*
X166445000Y-81589000D02*
X172645000Y-81589000D01*
X148667400Y-81665200D02*
X166368800Y-81665200D01*
X166368800Y-81665200D02*
X166445000Y-81589000D01*
X142467400Y-81665200D02*
X148667400Y-81665200D01*
X100661400Y-81639800D02*
X118439000Y-81639800D01*
X118439000Y-81639800D02*
X118464400Y-81665200D01*
X85844200Y-102793800D02*
X78257400Y-102793800D01*
X78257400Y-102793800D02*
X78206600Y-102844600D01*
X215290400Y-99212400D02*
X215290400Y-107010200D01*
X187688400Y-85445600D02*
X187688400Y-80865800D01*
X215290400Y-107010200D02*
X221792800Y-113512600D01*
X109931200Y-87249000D02*
X109042200Y-88138000D01*
X127838200Y-113817400D02*
X127838200Y-120243600D01*
X187688400Y-80865800D02*
X188671200Y-79883000D01*
X223799400Y-114249200D02*
X223799400Y-120065800D01*
X188671200Y-79883000D02*
X198025802Y-79883000D01*
X109956600Y-90474800D02*
X109956600Y-95351600D01*
X171323000Y-87147400D02*
X150723600Y-87147400D01*
X127838200Y-120243600D02*
X127279400Y-120802400D01*
X223062800Y-113512600D02*
X223799400Y-114249200D01*
X137024599Y-107662199D02*
X133527800Y-104165400D01*
X127279400Y-120802400D02*
X95023972Y-120802400D01*
X198025802Y-79883000D02*
X207086200Y-88943398D01*
X150723600Y-87147400D02*
X149199600Y-88671400D01*
X207086200Y-88943398D02*
X207086200Y-95072200D01*
X185699400Y-120878600D02*
X184658000Y-119837200D01*
X138430000Y-122174000D02*
X137024599Y-120768599D01*
X165912800Y-97683198D02*
X165912800Y-105054400D01*
X175346401Y-120571001D02*
X175288199Y-120571001D01*
X207086200Y-95072200D02*
X208737200Y-96723200D01*
X149199600Y-90525600D02*
X155295600Y-96621600D01*
X208737200Y-96723200D02*
X212801200Y-96723200D01*
X212801200Y-96723200D02*
X215290400Y-99212400D01*
X174904400Y-90728800D02*
X171323000Y-87147400D01*
X221792800Y-113512600D02*
X223062800Y-113512600D01*
X223799400Y-120065800D02*
X222986600Y-120878600D01*
X222986600Y-120878600D02*
X185699400Y-120878600D01*
X174784802Y-113309400D02*
X175666400Y-114190998D01*
X182397400Y-104343200D02*
X175818800Y-104343200D01*
X184658000Y-119837200D02*
X184658000Y-106603800D01*
X175818800Y-104343200D02*
X174904400Y-103428800D01*
X184658000Y-106603800D02*
X182397400Y-104343200D01*
X119456200Y-98526600D02*
X119456200Y-105435400D01*
X174904400Y-103428800D02*
X174904400Y-90728800D01*
X88044200Y-113822628D02*
X88044200Y-104143800D01*
X149199600Y-88671400D02*
X149199600Y-90525600D01*
X175288199Y-120571001D02*
X173685200Y-122174000D01*
X117602000Y-96672400D02*
X119456200Y-98526600D01*
X155295600Y-96621600D02*
X164851202Y-96621600D01*
X109042200Y-88138000D02*
X109042200Y-89560400D01*
X164851202Y-96621600D02*
X165912800Y-97683198D01*
X165912800Y-105054400D02*
X167716200Y-106857800D01*
X109042200Y-89560400D02*
X109956600Y-90474800D01*
X167716200Y-106857800D02*
X167716200Y-112903000D01*
X167716200Y-112903000D02*
X168122600Y-113309400D01*
X168122600Y-113309400D02*
X174784802Y-113309400D01*
X126974600Y-103352600D02*
X126974600Y-89839800D01*
X124383800Y-87249000D02*
X109931200Y-87249000D01*
X111277400Y-96672400D02*
X117602000Y-96672400D01*
X175666400Y-114190998D02*
X175666400Y-120251002D01*
X175666400Y-120251002D02*
X175346401Y-120571001D01*
X126974600Y-89839800D02*
X124383800Y-87249000D01*
X173685200Y-122174000D02*
X138430000Y-122174000D01*
X137024599Y-120768599D02*
X137024599Y-107662199D01*
X133527800Y-104165400D02*
X127787400Y-104165400D01*
X127787400Y-104165400D02*
X126974600Y-103352600D01*
X109956600Y-95351600D02*
X111277400Y-96672400D01*
X119456200Y-105435400D02*
X127838200Y-113817400D01*
X95023972Y-120802400D02*
X88044200Y-113822628D01*
X88044200Y-104143800D02*
X88044200Y-102793800D01*
X190448000Y-85365200D02*
X196648000Y-85365200D01*
X187688400Y-85445600D02*
X190367600Y-85445600D01*
X190367600Y-85445600D02*
X190448000Y-85365200D01*
X185488400Y-85445600D02*
X185488400Y-86809400D01*
X203403200Y-102014200D02*
X202928400Y-102489000D01*
X185488400Y-86809400D02*
X185953400Y-87274400D01*
X185953400Y-87274400D02*
X200406000Y-87274400D01*
X200406000Y-87274400D02*
X203403200Y-90271600D01*
X203403200Y-90271600D02*
X203403200Y-102014200D01*
X205662600Y-102307000D02*
X211862600Y-102307000D01*
X202928400Y-102489000D02*
X205480600Y-102489000D01*
X205480600Y-102489000D02*
X205662600Y-102307000D01*
X215517800Y-119096400D02*
X215867800Y-119096400D01*
X215867800Y-119096400D02*
X217627200Y-117337000D01*
X217627200Y-117337000D02*
X217627200Y-113309400D01*
X200728400Y-103839000D02*
X200728400Y-102489000D01*
X217627200Y-113309400D02*
X209296000Y-104978200D01*
X209296000Y-104978200D02*
X201867600Y-104978200D01*
X201867600Y-104978200D02*
X200728400Y-103839000D01*
X215517800Y-119096400D02*
X221717800Y-119096400D01*
X214436000Y-119151400D02*
X212936000Y-119151400D01*
X220942802Y-119151400D02*
X214436000Y-119151400D01*
X212936000Y-119151400D02*
X215462800Y-119151400D01*
X215462800Y-119151400D02*
X215517800Y-119096400D01*
X210655600Y-119071000D02*
X210736000Y-119151400D01*
X191514800Y-119071000D02*
X210655600Y-119071000D01*
X191514800Y-119071000D02*
X197714800Y-119071000D01*
X188907600Y-119227600D02*
X191358200Y-119227600D01*
X191358200Y-119227600D02*
X191514800Y-119071000D01*
X186059600Y-103731600D02*
X187509600Y-102281600D01*
X186707600Y-117877600D02*
X186059600Y-117229600D01*
X187509600Y-102281600D02*
X187859600Y-102281600D01*
X186707600Y-119227600D02*
X186707600Y-117877600D01*
X186059600Y-117229600D02*
X186059600Y-103731600D01*
X181659600Y-102281600D02*
X187859600Y-102281600D01*
X178950800Y-102387400D02*
X181553800Y-102387400D01*
X181553800Y-102387400D02*
X181659600Y-102281600D01*
X176349189Y-88643189D02*
X172995000Y-85289000D01*
X176349189Y-100635789D02*
X176349189Y-88643189D01*
X176750800Y-101037400D02*
X176349189Y-100635789D01*
X176750800Y-102387400D02*
X176750800Y-101037400D01*
X172995000Y-85289000D02*
X172645000Y-85289000D01*
X166445000Y-85289000D02*
X172645000Y-85289000D01*
X163863200Y-85344000D02*
X166390000Y-85344000D01*
X166390000Y-85344000D02*
X166445000Y-85289000D01*
X161663200Y-85344000D02*
X148688600Y-85344000D01*
X148688600Y-85344000D02*
X148667400Y-85365200D01*
X139326800Y-85445600D02*
X142387000Y-85445600D01*
X142387000Y-85445600D02*
X142467400Y-85365200D01*
X137126800Y-85445600D02*
X137126800Y-86005602D01*
X137126800Y-86005602D02*
X137109200Y-86023202D01*
X137109200Y-86023202D02*
X137109200Y-86207600D01*
X137109200Y-86207600D02*
X138633200Y-87731600D01*
X138633200Y-87731600D02*
X142417800Y-87731600D01*
X154897000Y-100210800D02*
X154897000Y-101012000D01*
X142417800Y-87731600D02*
X154897000Y-100210800D01*
X154897000Y-101012000D02*
X154897000Y-102362000D01*
X154897000Y-102362000D02*
X157601600Y-102362000D01*
X157601600Y-102362000D02*
X157656600Y-102307000D01*
X152697000Y-102362000D02*
X152697000Y-103712000D01*
X152697000Y-103712000D02*
X153150400Y-104165400D01*
X164701400Y-108516600D02*
X164701400Y-117826800D01*
X153150400Y-104165400D02*
X160350200Y-104165400D01*
X160350200Y-104165400D02*
X164701400Y-108516600D01*
X164701400Y-117826800D02*
X164701400Y-119176800D01*
X164701400Y-119176800D02*
X167380600Y-119176800D01*
X167380600Y-119176800D02*
X167486400Y-119071000D01*
X162501400Y-119176800D02*
X149789200Y-119176800D01*
X149789200Y-119176800D02*
X149708800Y-119096400D01*
X140774600Y-119253000D02*
X143352200Y-119253000D01*
X143352200Y-119253000D02*
X143508800Y-119096400D01*
X138477789Y-106755789D02*
X134003600Y-102281600D01*
X138574600Y-119253000D02*
X138574600Y-117903000D01*
X134003600Y-102281600D02*
X133653600Y-102281600D01*
X138574600Y-117903000D02*
X138477789Y-117806189D01*
X138477789Y-117806189D02*
X138477789Y-106755789D01*
X133653600Y-102281600D02*
X139853600Y-102281600D01*
X130843200Y-102412800D02*
X133522400Y-102412800D01*
X133522400Y-102412800D02*
X133653600Y-102281600D01*
X128470189Y-88820989D02*
X125014400Y-85365200D01*
X128470189Y-100889789D02*
X128470189Y-88820989D01*
X128643200Y-101062800D02*
X128470189Y-100889789D01*
X128643200Y-102412800D02*
X128643200Y-101062800D01*
X125014400Y-85365200D02*
X124664400Y-85365200D01*
X124664400Y-85365200D02*
X118464400Y-85365200D01*
X115450800Y-85572600D02*
X118257000Y-85572600D01*
X118257000Y-85572600D02*
X118464400Y-85365200D01*
M02*
