  0
SECTION
  2
HEADER
  9
$ACADVER
  1
AC1009
  9
$DWGCODEPAGE
  3
ansi_1252
  9
$INSBASE
 10
0.0
 20
0.0
 30
0.0
  9
$EXTMIN
 10
-50.00000000000005
 20
-15.07581371642285
 30
0.0
  9
$EXTMAX
 10
41.9767788732701
 20
142.0717916926836
 30
0.0
  9
$LIMMIN
 10
0.0
 20
0.0
  9
$LIMMAX
 10
12.0
 20
9.0
  9
$ORTHOMODE
 70
     0
  9
$REGENMODE
 70
     1
  9
$FILLMODE
 70
     1
  9
$QTEXTMODE
 70
     0
  9
$MIRRTEXT
 70
     1
  9
$DRAGMODE
 70
     2
  9
$LTSCALE
 40
1.0
  9
$OSMODE
 70
    37
  9
$ATTMODE
 70
     1
  9
$TEXTSIZE
 40
0.2
  9
$TRACEWID
 40
0.05
  9
$TEXTSTYLE
  7
STANDARD
  9
$CLAYER
  8
DEFAULT
  9
$CELTYPE
  6
BYLAYER
  9
$CECOLOR
 62
   256
  9
$DIMSCALE
 40
1.0
  9
$DIMASZ
 40
0.18
  9
$DIMEXO
 40
0.0625
  9
$DIMDLI
 40
0.38
  9
$DIMRND
 40
0.0
  9
$DIMDLE
 40
0.0
  9
$DIMEXE
 40
0.18
  9
$DIMTP
 40
0.0
  9
$DIMTM
 40
0.0
  9
$DIMTXT
 40
0.18
  9
$DIMCEN
 40
0.09
  9
$DIMTSZ
 40
0.0
  9
$DIMTOL
 70
     0
  9
$DIMLIM
 70
     0
  9
$DIMTIH
 70
     1
  9
$DIMTOH
 70
     1
  9
$DIMSE1
 70
     0
  9
$DIMSE2
 70
     0
  9
$DIMTAD
 70
     0
  9
$DIMZIN
 70
     0
  9
$DIMBLK
  1

  9
$DIMASO
 70
     1
  9
$DIMSHO
 70
     1
  9
$DIMPOST
  1

  9
$DIMAPOST
  1

  9
$DIMALT
 70
     0
  9
$DIMALTD
 70
     2
  9
$DIMALTF
 40
25.4
  9
$DIMLFAC
 40
1.0
  9
$DIMTOFL
 70
     0
  9
$DIMTVP
 40
0.0
  9
$DIMTIX
 70
     0
  9
$DIMSOXD
 70
     0
  9
$DIMSAH
 70
     0
  9
$DIMBLK1
  1

  9
$DIMBLK2
  1

  9
$DIMSTYLE
  2
STANDARD
  9
$DIMCLRD
 70
     0
  9
$DIMCLRE
 70
     0
  9
$DIMCLRT
 70
     0
  9
$DIMTFAC
 40
1.0
  9
$DIMGAP
 40
0.09
  9
$LUNITS
 70
     2
  9
$LUPREC
 70
     3
  9
$SKETCHINC
 40
0.1
  9
$FILLETRAD
 40
0.5
  9
$AUNITS
 70
     0
  9
$AUPREC
 70
     0
  9
$MENU
  1
.
  9
$ELEVATION
 40
0.0
  9
$PELEVATION
 40
0.0
  9
$THICKNESS
 40
0.0
  9
$LIMCHECK
 70
     0
  9
$CHAMFERA
 40
0.0
  9
$CHAMFERB
 40
0.0
  9
$SKPOLY
 70
     0
  9
$TDCREATE
 40
2457740.852125185
  9
$TDUPDATE
 40
2457740.852138623
  9
$TDINDWG
 40
0.0000000116
  9
$TDUSRTIMER
 40
0.0000000116
  9
$USRTIMER
 70
     1
  9
$ANGBASE
 50
0.0
  9
$ANGDIR
 70
     0
  9
$PDMODE
 70
     0
  9
$PDSIZE
 40
0.0
  9
$PLINEWID
 40
0.0
  9
$COORDS
 70
     1
  9
$SPLFRAME
 70
     0
  9
$SPLINETYPE
 70
     6
  9
$SPLINESEGS
 70
     8
  9
$ATTDIA
 70
     0
  9
$ATTREQ
 70
     1
  9
$HANDLING
 70
     1
  9
$HANDSEED
  5
205
  9
$SURFTAB1
 70
     6
  9
$SURFTAB2
 70
     6
  9
$SURFTYPE
 70
     6
  9
$SURFU
 70
     6
  9
$SURFV
 70
     6
  9
$UCSNAME
  2

  9
$UCSORG
 10
0.0
 20
0.0
 30
0.0
  9
$UCSXDIR
 10
1.0
 20
0.0
 30
0.0
  9
$UCSYDIR
 10
0.0
 20
1.0
 30
0.0
  9
$PUCSNAME
  2

  9
$PUCSORG
 10
0.0
 20
0.0
 30
0.0
  9
$PUCSXDIR
 10
1.0
 20
0.0
 30
0.0
  9
$PUCSYDIR
 10
0.0
 20
1.0
 30
0.0
  9
$USERI1
 70
     0
  9
$USERI2
 70
     0
  9
$USERI3
 70
     0
  9
$USERI4
 70
     0
  9
$USERI5
 70
     0
  9
$USERR1
 40
0.0
  9
$USERR2
 40
0.0
  9
$USERR3
 40
0.0
  9
$USERR4
 40
0.0
  9
$USERR5
 40
0.0
  9
$WORLDVIEW
 70
     1
  9
$SHADEDGE
 70
     3
  9
$SHADEDIF
 70
    70
  9
$TILEMODE
 70
     1
  9
$MAXACTVP
 70
    64
  9
$PLIMCHECK
 70
     0
  9
$PEXTMIN
 10
1.000000000000000E+20
 20
1.000000000000000E+20
 30
1.000000000000000E+20
  9
$PEXTMAX
 10
-1.000000000000000E+20
 20
-1.000000000000000E+20
 30
-1.000000000000000E+20
  9
$PLIMMIN
 10
0.0
 20
0.0
  9
$PLIMMAX
 10
12.0
 20
9.0
  9
$UNITMODE
 70
     0
  9
$VISRETAIN
 70
     1
  9
$PLINEGEN
 70
     0
  9
$PSLTSCALE
 70
     1
  0
ENDSEC
  0
SECTION
  2
TABLES
  0
TABLE
  2
VPORT
 70
     1
  0
VPORT
  2
*ACTIVE
 70
     0
 10
0.0
 20
0.0
 11
1.0
 21
1.0
 12
-4.011610563364975
 22
63.49798898813039
 13
0.0
 23
0.0
 14
0.5
 24
0.5
 15
0.5
 25
0.5
 16
0.0
 26
0.0
 36
1.0
 17
0.0
 27
0.0
 37
0.0
 40
160.2905575172886
 41
0.5852890894126233
 42
50.0
 43
0.0
 44
0.0
 50
0.0
 51
0.0
 71
     0
 72
   100
 73
     1
 74
     3
 75
     0
 76
     0
 77
     0
 78
     0
  0
ENDTAB
  0
TABLE
  2
LTYPE
 70
     1
  0
LTYPE
  2
CONTINUOUS
 70
     0
  3
Solid line
 72
    65
 73
     0
 40
0.0
  0
ENDTAB
  0
TABLE
  2
LAYER
 70
     2
  0
LAYER
  2
0
 70
     0
 62
     7
  6
CONTINUOUS
  0
LAYER
  2
DEFAULT
 70
     0
 62
     7
  6
CONTINUOUS
  0
ENDTAB
  0
TABLE
  2
STYLE
 70
     1
  0
STYLE
  2
STANDARD
 70
     0
 40
0.0
 41
1.0
 50
0.0
 71
     0
 42
0.2
  3
txt
  4

  0
ENDTAB
  0
TABLE
  2
VIEW
 70
     0
  0
ENDTAB
  0
TABLE
  2
UCS
 70
     0
  0
ENDTAB
  0
TABLE
  2
APPID
 70
     1
  0
APPID
  2
ACAD
 70
     0
  0
ENDTAB
  0
TABLE
  2
DIMSTYLE
 70
     1
  0
DIMSTYLE
  2
STANDARD
 70
     0
  3

  4

  5

  6

  7

 40
1.0
 41
0.18
 42
0.0625
 43
0.38
 44
0.18
 45
0.0
 46
0.0
 47
0.0
 48
0.0
140
0.18
141
0.09
142
0.0
143
25.4
144
1.0
145
0.0
146
1.0
147
0.09
 71
     0
 72
     0
 73
     1
 74
     1
 75
     0
 76
     0
 77
     0
 78
     0
170
     0
171
     2
172
     0
173
     0
174
     0
175
     0
176
     0
177
     0
178
     0
  0
ENDTAB
  0
ENDSEC
  0
SECTION
  2
BLOCKS
  0
BLOCK
  8
0
  2
$MODEL_SPACE
 70
     0
 10
0.0
 20
0.0
 30
0.0
  3
$MODEL_SPACE
  1

  0
ENDBLK
  5
21
  8
0
  0
BLOCK
 67
     1
  8
0
  2
$PAPER_SPACE
 70
     0
 10
0.0
 20
0.0
 30
0.0
  3
$PAPER_SPACE
  1

  0
ENDBLK
  5
1D
 67
     1
  8
0
  0
ENDSEC
  0
SECTION
  2
ENTITIES
  0
LINE
  5
6F
  8
DEFAULT
 10
16.5767788732701
 20
-15.07581371642285
 30
0.0
 11
41.9767788732701
 21
-15.07581371642285
 31
0.0
  0
LINE
  5
70
  8
DEFAULT
 10
41.9767788732701
 20
-15.07581371642285
 30
0.0
 11
41.9767788732701
 21
10.32418628357715
 31
0.0
  0
LINE
  5
71
  8
DEFAULT
 10
41.9767788732701
 20
10.32418628357715
 30
0.0
 11
16.5767788732701
 21
10.32418628357715
 31
0.0
  0
LINE
  5
72
  8
DEFAULT
 10
16.5767788732701
 20
10.32418628357715
 30
0.0
 11
16.5767788732701
 21
-15.07581371642285
 31
0.0
  0
LINE
  5
73
  8
DEFAULT
 10
-11.05434703294967
 20
125.8793932174752
 30
0.0
 11
-5.954347032949666
 21
125.8793932174752
 31
0.0
  0
LINE
  5
74
  8
DEFAULT
 10
-11.05434703294967
 20
125.8793932174752
 30
0.0
 11
-5.954347032949666
 21
125.8793932174752
 31
0.0
  0
LINE
  5
75
  8
DEFAULT
 10
-5.954347032949666
 20
125.8793932174752
 30
0.0
 11
-5.954347032949666
 21
130.9793932174752
 31
0.0
  0
LINE
  5
76
  8
DEFAULT
 10
-5.954347032949666
 20
125.8793932174752
 30
0.0
 11
-5.954347032949666
 21
130.9793932174752
 31
0.0
  0
LINE
  5
77
  8
DEFAULT
 10
-5.954347032949666
 20
130.9793932174752
 30
0.0
 11
-11.05434703294967
 21
130.9793932174752
 31
0.0
  0
LINE
  5
78
  8
DEFAULT
 10
-5.954347032949666
 20
130.9793932174752
 30
0.0
 11
-11.05434703294967
 21
130.9793932174752
 31
0.0
  0
LINE
  5
79
  8
DEFAULT
 10
-11.05434703294967
 20
130.9793932174752
 30
0.0
 11
-11.05434703294967
 21
125.8793932174752
 31
0.0
  0
LINE
  5
7A
  8
DEFAULT
 10
-11.05434703294967
 20
130.9793932174752
 30
0.0
 11
-11.05434703294967
 21
125.8793932174752
 31
0.0
  0
CIRCLE
  5
7B
  8
DEFAULT
 10
-8.504347032949665
 20
128.4293932174752
 30
0.0
 40
0.9999999999999982
  0
CIRCLE
  5
7C
  8
DEFAULT
 10
-8.504347032949665
 20
128.4293932174752
 30
0.0
 40
0.9999999999999982
  0
CIRCLE
  5
7D
  8
DEFAULT
 10
-8.504347032949665
 20
128.4293932174752
 30
0.0
 40
0.9999999999999982
  0
LINE
  5
7E
  8
DEFAULT
 10
-11.05434703294967
 20
125.8793932174752
 30
0.0
 11
-5.954347032949666
 21
125.8793932174752
 31
0.0
  0
LINE
  5
7F
  8
DEFAULT
 10
-5.954347032949666
 20
125.8793932174752
 30
0.0
 11
-5.954347032949666
 21
130.9793932174752
 31
0.0
  0
LINE
  5
80
  8
DEFAULT
 10
-5.954347032949666
 20
130.9793932174752
 30
0.0
 11
-11.05434703294967
 21
130.9793932174752
 31
0.0
  0
LINE
  5
81
  8
DEFAULT
 10
-11.05434703294967
 20
130.9793932174752
 30
0.0
 11
-11.05434703294967
 21
125.8793932174752
 31
0.0
  0
LINE
  5
82
  8
DEFAULT
 10
-11.05434703294967
 20
128.4293932174752
 30
0.0
 11
-9.504347032949667
 21
128.4293932174752
 31
0.0
  0
LINE
  5
83
  8
DEFAULT
 10
-7.504347032949667
 20
128.4293932174752
 30
0.0
 11
-5.954347032949666
 21
128.4293932174752
 31
0.0
  0
LINE
  5
84
  8
DEFAULT
 10
-8.504347032949667
 20
125.8793932174752
 30
0.0
 11
-8.504347032949667
 21
127.4293932174752
 31
0.0
  0
LINE
  5
85
  8
DEFAULT
 10
-8.504347032949667
 20
129.4293932174752
 30
0.0
 11
-8.504347032949667
 21
130.9793932174752
 31
0.0
  0
LINE
  5
86
  8
DEFAULT
 10
-11.05434703294967
 20
128.4293932174752
 30
0.0
 11
-9.504347032949667
 21
128.4293932174752
 31
0.0
  0
LINE
  5
87
  8
DEFAULT
 10
-7.504347032949667
 20
128.4293932174752
 30
0.0
 11
-5.954347032949666
 21
128.4293932174752
 31
0.0
  0
LINE
  5
88
  8
DEFAULT
 10
-8.504347032949667
 20
125.8793932174752
 30
0.0
 11
-8.504347032949667
 21
127.4293932174752
 31
0.0
  0
LINE
  5
89
  8
DEFAULT
 10
-8.504347032949667
 20
129.4293932174752
 30
0.0
 11
-8.504347032949667
 21
130.9793932174752
 31
0.0
  0
LINE
  5
8A
  8
DEFAULT
 10
-27.84322112672988
 20
116.0388997520803
 30
0.0
 11
-22.74322112672988
 21
116.0388997520803
 31
0.0
  0
LINE
  5
8B
  8
DEFAULT
 10
-27.84322112672988
 20
116.0388997520803
 30
0.0
 11
-22.74322112672988
 21
116.0388997520803
 31
0.0
  0
LINE
  5
8C
  8
DEFAULT
 10
-22.74322112672988
 20
116.0388997520803
 30
0.0
 11
-22.74322112672988
 21
121.1388997520803
 31
0.0
  0
LINE
  5
8D
  8
DEFAULT
 10
-22.74322112672988
 20
116.0388997520803
 30
0.0
 11
-22.74322112672988
 21
121.1388997520803
 31
0.0
  0
LINE
  5
8E
  8
DEFAULT
 10
-22.74322112672988
 20
121.1388997520803
 30
0.0
 11
-27.84322112672988
 21
121.1388997520803
 31
0.0
  0
LINE
  5
8F
  8
DEFAULT
 10
-22.74322112672988
 20
121.1388997520803
 30
0.0
 11
-27.84322112672988
 21
121.1388997520803
 31
0.0
  0
LINE
  5
90
  8
DEFAULT
 10
-27.84322112672988
 20
121.1388997520803
 30
0.0
 11
-27.84322112672988
 21
116.0388997520803
 31
0.0
  0
LINE
  5
91
  8
DEFAULT
 10
-27.84322112672988
 20
121.1388997520803
 30
0.0
 11
-27.84322112672988
 21
116.0388997520803
 31
0.0
  0
CIRCLE
  5
92
  8
DEFAULT
 10
-25.29322112672988
 20
118.5888997520803
 30
0.0
 40
1.0
  0
CIRCLE
  5
93
  8
DEFAULT
 10
-25.29322112672988
 20
118.5888997520803
 30
0.0
 40
1.0
  0
CIRCLE
  5
94
  8
DEFAULT
 10
-25.29322112672988
 20
118.5888997520803
 30
0.0
 40
1.0
  0
LINE
  5
95
  8
DEFAULT
 10
-27.84322112672988
 20
116.0388997520803
 30
0.0
 11
-22.74322112672988
 21
116.0388997520803
 31
0.0
  0
LINE
  5
96
  8
DEFAULT
 10
-22.74322112672988
 20
116.0388997520803
 30
0.0
 11
-22.74322112672988
 21
121.1388997520803
 31
0.0
  0
LINE
  5
97
  8
DEFAULT
 10
-22.74322112672988
 20
121.1388997520803
 30
0.0
 11
-27.84322112672988
 21
121.1388997520803
 31
0.0
  0
LINE
  5
98
  8
DEFAULT
 10
-27.84322112672988
 20
121.1388997520803
 30
0.0
 11
-27.84322112672988
 21
116.0388997520803
 31
0.0
  0
LINE
  5
99
  8
DEFAULT
 10
-27.84322112672988
 20
118.5888997520803
 30
0.0
 11
-26.29322112672988
 21
118.5888997520803
 31
0.0
  0
LINE
  5
9A
  8
DEFAULT
 10
-24.29322112672988
 20
118.5888997520803
 30
0.0
 11
-22.74322112672988
 21
118.5888997520803
 31
0.0
  0
LINE
  5
9B
  8
DEFAULT
 10
-25.29322112672988
 20
116.0388997520803
 30
0.0
 11
-25.29322112672988
 21
117.5888997520803
 31
0.0
  0
LINE
  5
9C
  8
DEFAULT
 10
-25.29322112672988
 20
119.5888997520803
 30
0.0
 11
-25.29322112672988
 21
121.1388997520803
 31
0.0
  0
LINE
  5
9D
  8
DEFAULT
 10
-27.84322112672988
 20
118.5888997520803
 30
0.0
 11
-26.29322112672988
 21
118.5888997520803
 31
0.0
  0
LINE
  5
9E
  8
DEFAULT
 10
-24.29322112672988
 20
118.5888997520803
 30
0.0
 11
-22.74322112672988
 21
118.5888997520803
 31
0.0
  0
LINE
  5
9F
  8
DEFAULT
 10
-25.29322112672988
 20
116.0388997520803
 30
0.0
 11
-25.29322112672988
 21
117.5888997520803
 31
0.0
  0
LINE
  5
A0
  8
DEFAULT
 10
-25.29322112672988
 20
119.5888997520803
 30
0.0
 11
-25.29322112672988
 21
121.1388997520803
 31
0.0
  0
LINE
  5
A1
  8
DEFAULT
 10
-44.77145048758189
 20
100.8436709647942
 30
0.0
 11
-39.67145048758189
 21
100.8436709647942
 31
0.0
  0
LINE
  5
A2
  8
DEFAULT
 10
-44.77145048758189
 20
100.8436709647942
 30
0.0
 11
-39.67145048758189
 21
100.8436709647942
 31
0.0
  0
LINE
  5
A3
  8
DEFAULT
 10
-39.67145048758189
 20
100.8436709647942
 30
0.0
 11
-39.67145048758189
 21
105.9436709647942
 31
0.0
  0
LINE
  5
A4
  8
DEFAULT
 10
-39.67145048758189
 20
100.8436709647942
 30
0.0
 11
-39.67145048758189
 21
105.9436709647942
 31
0.0
  0
LINE
  5
A5
  8
DEFAULT
 10
-39.67145048758189
 20
105.9436709647942
 30
0.0
 11
-44.77145048758189
 21
105.9436709647942
 31
0.0
  0
LINE
  5
A6
  8
DEFAULT
 10
-39.67145048758189
 20
105.9436709647942
 30
0.0
 11
-44.77145048758189
 21
105.9436709647942
 31
0.0
  0
LINE
  5
A7
  8
DEFAULT
 10
-44.77145048758189
 20
105.9436709647942
 30
0.0
 11
-44.77145048758189
 21
100.8436709647942
 31
0.0
  0
LINE
  5
A8
  8
DEFAULT
 10
-44.77145048758189
 20
105.9436709647942
 30
0.0
 11
-44.77145048758189
 21
100.8436709647942
 31
0.0
  0
CIRCLE
  5
A9
  8
DEFAULT
 10
-42.22145048758189
 20
103.3936709647942
 30
0.0
 40
1.0
  0
CIRCLE
  5
AA
  8
DEFAULT
 10
-42.22145048758189
 20
103.3936709647942
 30
0.0
 40
1.0
  0
CIRCLE
  5
AB
  8
DEFAULT
 10
-42.22145048758189
 20
103.3936709647942
 30
0.0
 40
1.0
  0
LINE
  5
AC
  8
DEFAULT
 10
-44.77145048758189
 20
100.8436709647942
 30
0.0
 11
-39.67145048758189
 21
100.8436709647942
 31
0.0
  0
LINE
  5
AD
  8
DEFAULT
 10
-39.67145048758189
 20
100.8436709647942
 30
0.0
 11
-39.67145048758189
 21
105.9436709647942
 31
0.0
  0
LINE
  5
AE
  8
DEFAULT
 10
-39.67145048758189
 20
105.9436709647942
 30
0.0
 11
-44.77145048758189
 21
105.9436709647942
 31
0.0
  0
LINE
  5
AF
  8
DEFAULT
 10
-44.77145048758189
 20
105.9436709647942
 30
0.0
 11
-44.77145048758189
 21
100.8436709647942
 31
0.0
  0
LINE
  5
B0
  8
DEFAULT
 10
-44.77145048758189
 20
103.3936709647942
 30
0.0
 11
-43.22145048758189
 21
103.3936709647942
 31
0.0
  0
LINE
  5
B1
  8
DEFAULT
 10
-41.22145048758189
 20
103.3936709647942
 30
0.0
 11
-39.67145048758189
 21
103.3936709647942
 31
0.0
  0
LINE
  5
B2
  8
DEFAULT
 10
-42.22145048758189
 20
100.8436709647942
 30
0.0
 11
-42.22145048758189
 21
102.3936709647942
 31
0.0
  0
LINE
  5
B3
  8
DEFAULT
 10
-42.22145048758189
 20
104.3936709647942
 30
0.0
 11
-42.22145048758189
 21
105.9436709647942
 31
0.0
  0
LINE
  5
B4
  8
DEFAULT
 10
-44.77145048758189
 20
103.3936709647942
 30
0.0
 11
-43.22145048758189
 21
103.3936709647942
 31
0.0
  0
LINE
  5
B5
  8
DEFAULT
 10
-41.22145048758189
 20
103.3936709647942
 30
0.0
 11
-39.67145048758189
 21
103.3936709647942
 31
0.0
  0
LINE
  5
B6
  8
DEFAULT
 10
-42.22145048758189
 20
100.8436709647942
 30
0.0
 11
-42.22145048758189
 21
102.3936709647942
 31
0.0
  0
LINE
  5
B7
  8
DEFAULT
 10
-42.22145048758189
 20
104.3936709647942
 30
0.0
 11
-42.22145048758189
 21
105.9436709647942
 31
0.0
  0
LINE
  5
B8
  8
DEFAULT
 10
-44.77145048758189
 20
76.84367096479417
 30
0.0
 11
-39.67145048758189
 21
76.84367096479417
 31
0.0
  0
LINE
  5
B9
  8
DEFAULT
 10
-44.77145048758189
 20
76.84367096479417
 30
0.0
 11
-39.67145048758189
 21
76.84367096479417
 31
0.0
  0
LINE
  5
BA
  8
DEFAULT
 10
-39.67145048758189
 20
76.84367096479417
 30
0.0
 11
-39.67145048758189
 21
81.94367096479417
 31
0.0
  0
LINE
  5
BB
  8
DEFAULT
 10
-39.67145048758189
 20
76.84367096479417
 30
0.0
 11
-39.67145048758189
 21
81.94367096479417
 31
0.0
  0
LINE
  5
BC
  8
DEFAULT
 10
-39.67145048758189
 20
81.94367096479417
 30
0.0
 11
-44.77145048758189
 21
81.94367096479417
 31
0.0
  0
LINE
  5
BD
  8
DEFAULT
 10
-39.67145048758189
 20
81.94367096479417
 30
0.0
 11
-44.77145048758189
 21
81.94367096479417
 31
0.0
  0
LINE
  5
BE
  8
DEFAULT
 10
-44.77145048758189
 20
81.94367096479417
 30
0.0
 11
-44.77145048758189
 21
76.84367096479417
 31
0.0
  0
LINE
  5
BF
  8
DEFAULT
 10
-44.77145048758189
 20
81.94367096479417
 30
0.0
 11
-44.77145048758189
 21
76.84367096479417
 31
0.0
  0
CIRCLE
  5
C0
  8
DEFAULT
 10
-42.22145048758189
 20
79.39367096479417
 30
0.0
 40
1.0
  0
CIRCLE
  5
C1
  8
DEFAULT
 10
-42.22145048758189
 20
79.39367096479417
 30
0.0
 40
1.0
  0
CIRCLE
  5
C2
  8
DEFAULT
 10
-42.22145048758189
 20
79.39367096479417
 30
0.0
 40
1.0
  0
LINE
  5
C3
  8
DEFAULT
 10
-44.77145048758189
 20
76.84367096479417
 30
0.0
 11
-39.67145048758189
 21
76.84367096479417
 31
0.0
  0
LINE
  5
C4
  8
DEFAULT
 10
-39.67145048758189
 20
76.84367096479417
 30
0.0
 11
-39.67145048758189
 21
81.94367096479417
 31
0.0
  0
LINE
  5
C5
  8
DEFAULT
 10
-39.67145048758189
 20
81.94367096479417
 30
0.0
 11
-44.77145048758189
 21
81.94367096479417
 31
0.0
  0
LINE
  5
C6
  8
DEFAULT
 10
-44.77145048758189
 20
81.94367096479417
 30
0.0
 11
-44.77145048758189
 21
76.84367096479417
 31
0.0
  0
LINE
  5
C7
  8
DEFAULT
 10
-44.77145048758189
 20
79.39367096479417
 30
0.0
 11
-43.22145048758189
 21
79.39367096479417
 31
0.0
  0
LINE
  5
C8
  8
DEFAULT
 10
-41.22145048758189
 20
79.39367096479417
 30
0.0
 11
-39.67145048758189
 21
79.39367096479417
 31
0.0
  0
LINE
  5
C9
  8
DEFAULT
 10
-42.22145048758189
 20
76.84367096479417
 30
0.0
 11
-42.22145048758189
 21
78.39367096479417
 31
0.0
  0
LINE
  5
CA
  8
DEFAULT
 10
-42.22145048758189
 20
80.39367096479417
 30
0.0
 11
-42.22145048758189
 21
81.94367096479417
 31
0.0
  0
LINE
  5
CB
  8
DEFAULT
 10
-44.77145048758189
 20
79.39367096479417
 30
0.0
 11
-43.22145048758189
 21
79.39367096479417
 31
0.0
  0
LINE
  5
CC
  8
DEFAULT
 10
-41.22145048758189
 20
79.39367096479417
 30
0.0
 11
-39.67145048758189
 21
79.39367096479417
 31
0.0
  0
LINE
  5
CD
  8
DEFAULT
 10
-42.22145048758189
 20
76.84367096479417
 30
0.0
 11
-42.22145048758189
 21
78.39367096479417
 31
0.0
  0
LINE
  5
CE
  8
DEFAULT
 10
-42.22145048758189
 20
80.39367096479417
 30
0.0
 11
-42.22145048758189
 21
81.94367096479417
 31
0.0
  0
LINE
  5
CF
  8
DEFAULT
 10
-27.84322112672983
 20
92.03889975208035
 30
0.0
 11
-22.74322112672982
 21
92.03889975208035
 31
0.0
  0
LINE
  5
D0
  8
DEFAULT
 10
-27.84322112672983
 20
92.03889975208035
 30
0.0
 11
-22.74322112672982
 21
92.03889975208035
 31
0.0
  0
LINE
  5
D1
  8
DEFAULT
 10
-22.74322112672982
 20
92.03889975208035
 30
0.0
 11
-22.74322112672982
 21
97.13889975208036
 31
0.0
  0
LINE
  5
D2
  8
DEFAULT
 10
-22.74322112672982
 20
92.03889975208035
 30
0.0
 11
-22.74322112672982
 21
97.13889975208036
 31
0.0
  0
LINE
  5
D3
  8
DEFAULT
 10
-22.74322112672982
 20
97.13889975208036
 30
0.0
 11
-27.84322112672983
 21
97.13889975208036
 31
0.0
  0
LINE
  5
D4
  8
DEFAULT
 10
-22.74322112672982
 20
97.13889975208036
 30
0.0
 11
-27.84322112672983
 21
97.13889975208036
 31
0.0
  0
LINE
  5
D5
  8
DEFAULT
 10
-27.84322112672983
 20
97.13889975208036
 30
0.0
 11
-27.84322112672983
 21
92.03889975208035
 31
0.0
  0
LINE
  5
D6
  8
DEFAULT
 10
-27.84322112672983
 20
97.13889975208036
 30
0.0
 11
-27.84322112672983
 21
92.03889975208035
 31
0.0
  0
CIRCLE
  5
D7
  8
DEFAULT
 10
-25.29322112672983
 20
94.58889975208035
 30
0.0
 40
1.0
  0
CIRCLE
  5
D8
  8
DEFAULT
 10
-25.29322112672983
 20
94.58889975208035
 30
0.0
 40
1.0
  0
CIRCLE
  5
D9
  8
DEFAULT
 10
-25.29322112672983
 20
94.58889975208035
 30
0.0
 40
1.0
  0
LINE
  5
DA
  8
DEFAULT
 10
-27.84322112672983
 20
92.03889975208035
 30
0.0
 11
-22.74322112672982
 21
92.03889975208035
 31
0.0
  0
LINE
  5
DB
  8
DEFAULT
 10
-22.74322112672982
 20
92.03889975208035
 30
0.0
 11
-22.74322112672982
 21
97.13889975208036
 31
0.0
  0
LINE
  5
DC
  8
DEFAULT
 10
-22.74322112672982
 20
97.13889975208036
 30
0.0
 11
-27.84322112672983
 21
97.13889975208036
 31
0.0
  0
LINE
  5
DD
  8
DEFAULT
 10
-27.84322112672983
 20
97.13889975208036
 30
0.0
 11
-27.84322112672983
 21
92.03889975208035
 31
0.0
  0
LINE
  5
DE
  8
DEFAULT
 10
-27.84322112672983
 20
94.58889975208035
 30
0.0
 11
-26.29322112672983
 21
94.58889975208035
 31
0.0
  0
LINE
  5
DF
  8
DEFAULT
 10
-24.29322112672983
 20
94.58889975208035
 30
0.0
 11
-22.74322112672982
 21
94.58889975208035
 31
0.0
  0
LINE
  5
E0
  8
DEFAULT
 10
-25.29322112672983
 20
92.03889975208035
 30
0.0
 11
-25.29322112672983
 21
93.58889975208035
 31
0.0
  0
LINE
  5
E1
  8
DEFAULT
 10
-25.29322112672983
 20
95.58889975208035
 30
0.0
 11
-25.29322112672983
 21
97.13889975208036
 31
0.0
  0
LINE
  5
E2
  8
DEFAULT
 10
-27.84322112672983
 20
94.58889975208035
 30
0.0
 11
-26.29322112672983
 21
94.58889975208035
 31
0.0
  0
LINE
  5
E3
  8
DEFAULT
 10
-24.29322112672983
 20
94.58889975208035
 30
0.0
 11
-22.74322112672982
 21
94.58889975208035
 31
0.0
  0
LINE
  5
E4
  8
DEFAULT
 10
-25.29322112672983
 20
92.03889975208035
 30
0.0
 11
-25.29322112672983
 21
93.58889975208035
 31
0.0
  0
LINE
  5
E5
  8
DEFAULT
 10
-25.29322112672983
 20
95.58889975208035
 30
0.0
 11
-25.29322112672983
 21
97.13889975208036
 31
0.0
  0
LINE
  5
E6
  8
DEFAULT
 10
-11.05434703294966
 20
101.8793932174752
 30
0.0
 11
-5.954347032949656
 21
101.8793932174752
 31
0.0
  0
LINE
  5
E7
  8
DEFAULT
 10
-11.05434703294966
 20
101.8793932174752
 30
0.0
 11
-5.954347032949656
 21
101.8793932174752
 31
0.0
  0
LINE
  5
E8
  8
DEFAULT
 10
-5.954347032949656
 20
101.8793932174752
 30
0.0
 11
-5.954347032949656
 21
106.9793932174751
 31
0.0
  0
LINE
  5
E9
  8
DEFAULT
 10
-5.954347032949656
 20
101.8793932174752
 30
0.0
 11
-5.954347032949656
 21
106.9793932174751
 31
0.0
  0
LINE
  5
EA
  8
DEFAULT
 10
-5.954347032949656
 20
106.9793932174751
 30
0.0
 11
-11.05434703294966
 21
106.9793932174751
 31
0.0
  0
LINE
  5
EB
  8
DEFAULT
 10
-5.954347032949656
 20
106.9793932174751
 30
0.0
 11
-11.05434703294966
 21
106.9793932174751
 31
0.0
  0
LINE
  5
EC
  8
DEFAULT
 10
-11.05434703294966
 20
106.9793932174751
 30
0.0
 11
-11.05434703294966
 21
101.8793932174752
 31
0.0
  0
LINE
  5
ED
  8
DEFAULT
 10
-11.05434703294966
 20
106.9793932174751
 30
0.0
 11
-11.05434703294966
 21
101.8793932174752
 31
0.0
  0
CIRCLE
  5
EE
  8
DEFAULT
 10
-8.504347032949655
 20
104.4293932174752
 30
0.0
 40
0.9999999999999982
  0
CIRCLE
  5
EF
  8
DEFAULT
 10
-8.504347032949655
 20
104.4293932174752
 30
0.0
 40
0.9999999999999982
  0
CIRCLE
  5
F0
  8
DEFAULT
 10
-8.504347032949655
 20
104.4293932174752
 30
0.0
 40
0.9999999999999982
  0
LINE
  5
F1
  8
DEFAULT
 10
-11.05434703294966
 20
101.8793932174752
 30
0.0
 11
-5.954347032949656
 21
101.8793932174752
 31
0.0
  0
LINE
  5
F2
  8
DEFAULT
 10
-5.954347032949656
 20
101.8793932174752
 30
0.0
 11
-5.954347032949656
 21
106.9793932174751
 31
0.0
  0
LINE
  5
F3
  8
DEFAULT
 10
-5.954347032949656
 20
106.9793932174751
 30
0.0
 11
-11.05434703294966
 21
106.9793932174751
 31
0.0
  0
LINE
  5
F4
  8
DEFAULT
 10
-11.05434703294966
 20
106.9793932174751
 30
0.0
 11
-11.05434703294966
 21
101.8793932174752
 31
0.0
  0
LINE
  5
F5
  8
DEFAULT
 10
-11.05434703294966
 20
104.4293932174752
 30
0.0
 11
-9.504347032949656
 21
104.4293932174752
 31
0.0
  0
LINE
  5
F6
  8
DEFAULT
 10
-7.504347032949656
 20
104.4293932174752
 30
0.0
 11
-5.954347032949656
 21
104.4293932174752
 31
0.0
  0
LINE
  5
F7
  8
DEFAULT
 10
-8.504347032949656
 20
101.8793932174752
 30
0.0
 11
-8.504347032949656
 21
103.4293932174752
 31
0.0
  0
LINE
  5
F8
  8
DEFAULT
 10
-8.504347032949656
 20
105.4293932174752
 30
0.0
 11
-8.504347032949656
 21
106.9793932174751
 31
0.0
  0
LINE
  5
F9
  8
DEFAULT
 10
-11.05434703294966
 20
104.4293932174752
 30
0.0
 11
-9.504347032949656
 21
104.4293932174752
 31
0.0
  0
LINE
  5
FA
  8
DEFAULT
 10
-7.504347032949656
 20
104.4293932174752
 30
0.0
 11
-5.954347032949656
 21
104.4293932174752
 31
0.0
  0
LINE
  5
FB
  8
DEFAULT
 10
-8.504347032949656
 20
101.8793932174752
 30
0.0
 11
-8.504347032949656
 21
103.4293932174752
 31
0.0
  0
LINE
  5
FC
  8
DEFAULT
 10
-8.504347032949656
 20
105.4293932174752
 30
0.0
 11
-8.504347032949656
 21
106.9793932174751
 31
0.0
  0
LINE
  5
FD
  8
DEFAULT
 10
-11.05434703294964
 20
77.87939321747517
 30
0.0
 11
-5.954347032949634
 21
77.87939321747517
 31
0.0
  0
LINE
  5
FE
  8
DEFAULT
 10
-11.05434703294964
 20
77.87939321747517
 30
0.0
 11
-5.954347032949634
 21
77.87939321747517
 31
0.0
  0
LINE
  5
FF
  8
DEFAULT
 10
-5.954347032949634
 20
77.87939321747517
 30
0.0
 11
-5.954347032949634
 21
82.97939321747518
 31
0.0
  0
LINE
  5
100
  8
DEFAULT
 10
-5.954347032949634
 20
77.87939321747517
 30
0.0
 11
-5.954347032949634
 21
82.97939321747518
 31
0.0
  0
LINE
  5
101
  8
DEFAULT
 10
-5.954347032949634
 20
82.97939321747518
 30
0.0
 11
-11.05434703294964
 21
82.97939321747518
 31
0.0
  0
LINE
  5
102
  8
DEFAULT
 10
-5.954347032949634
 20
82.97939321747518
 30
0.0
 11
-11.05434703294964
 21
82.97939321747518
 31
0.0
  0
LINE
  5
103
  8
DEFAULT
 10
-11.05434703294964
 20
82.97939321747518
 30
0.0
 11
-11.05434703294964
 21
77.87939321747517
 31
0.0
  0
LINE
  5
104
  8
DEFAULT
 10
-11.05434703294964
 20
82.97939321747518
 30
0.0
 11
-11.05434703294964
 21
77.87939321747517
 31
0.0
  0
CIRCLE
  5
105
  8
DEFAULT
 10
-8.504347032949639
 20
80.42939321747517
 30
0.0
 40
1.000000000000004
  0
CIRCLE
  5
106
  8
DEFAULT
 10
-8.504347032949639
 20
80.42939321747517
 30
0.0
 40
1.000000000000004
  0
CIRCLE
  5
107
  8
DEFAULT
 10
-8.504347032949639
 20
80.42939321747517
 30
0.0
 40
1.000000000000004
  0
LINE
  5
108
  8
DEFAULT
 10
-11.05434703294964
 20
77.87939321747517
 30
0.0
 11
-5.954347032949634
 21
77.87939321747517
 31
0.0
  0
LINE
  5
109
  8
DEFAULT
 10
-5.954347032949634
 20
77.87939321747517
 30
0.0
 11
-5.954347032949634
 21
82.97939321747518
 31
0.0
  0
LINE
  5
10A
  8
DEFAULT
 10
-5.954347032949634
 20
82.97939321747518
 30
0.0
 11
-11.05434703294964
 21
82.97939321747518
 31
0.0
  0
LINE
  5
10B
  8
DEFAULT
 10
-11.05434703294964
 20
82.97939321747518
 30
0.0
 11
-11.05434703294964
 21
77.87939321747517
 31
0.0
  0
LINE
  5
10C
  8
DEFAULT
 10
-11.05434703294964
 20
80.42939321747517
 30
0.0
 11
-9.504347032949635
 21
80.42939321747517
 31
0.0
  0
LINE
  5
10D
  8
DEFAULT
 10
-7.504347032949635
 20
80.42939321747517
 30
0.0
 11
-5.954347032949634
 21
80.42939321747517
 31
0.0
  0
LINE
  5
10E
  8
DEFAULT
 10
-8.504347032949635
 20
77.87939321747517
 30
0.0
 11
-8.504347032949635
 21
79.42939321747517
 31
0.0
  0
LINE
  5
10F
  8
DEFAULT
 10
-8.504347032949635
 20
81.42939321747517
 30
0.0
 11
-8.504347032949635
 21
82.97939321747518
 31
0.0
  0
LINE
  5
110
  8
DEFAULT
 10
-11.05434703294964
 20
80.42939321747517
 30
0.0
 11
-9.504347032949635
 21
80.42939321747517
 31
0.0
  0
LINE
  5
111
  8
DEFAULT
 10
-7.504347032949635
 20
80.42939321747517
 30
0.0
 11
-5.954347032949634
 21
80.42939321747517
 31
0.0
  0
LINE
  5
112
  8
DEFAULT
 10
-8.504347032949635
 20
77.87939321747517
 30
0.0
 11
-8.504347032949635
 21
79.42939321747517
 31
0.0
  0
LINE
  5
113
  8
DEFAULT
 10
-8.504347032949635
 20
81.42939321747517
 30
0.0
 11
-8.504347032949635
 21
82.97939321747518
 31
0.0
  0
LINE
  5
114
  8
DEFAULT
 10
-27.84322112672988
 20
68.03889975208033
 30
0.0
 11
-22.74322112672987
 21
68.03889975208033
 31
0.0
  0
LINE
  5
115
  8
DEFAULT
 10
-27.84322112672988
 20
68.03889975208033
 30
0.0
 11
-22.74322112672987
 21
68.03889975208033
 31
0.0
  0
LINE
  5
116
  8
DEFAULT
 10
-22.74322112672987
 20
68.03889975208033
 30
0.0
 11
-22.74322112672987
 21
73.13889975208033
 31
0.0
  0
LINE
  5
117
  8
DEFAULT
 10
-22.74322112672987
 20
68.03889975208033
 30
0.0
 11
-22.74322112672987
 21
73.13889975208033
 31
0.0
  0
LINE
  5
118
  8
DEFAULT
 10
-22.74322112672987
 20
73.13889975208033
 30
0.0
 11
-27.84322112672988
 21
73.13889975208033
 31
0.0
  0
LINE
  5
119
  8
DEFAULT
 10
-22.74322112672987
 20
73.13889975208033
 30
0.0
 11
-27.84322112672988
 21
73.13889975208033
 31
0.0
  0
LINE
  5
11A
  8
DEFAULT
 10
-27.84322112672988
 20
73.13889975208033
 30
0.0
 11
-27.84322112672988
 21
68.03889975208033
 31
0.0
  0
LINE
  5
11B
  8
DEFAULT
 10
-27.84322112672988
 20
73.13889975208033
 30
0.0
 11
-27.84322112672988
 21
68.03889975208033
 31
0.0
  0
CIRCLE
  5
11C
  8
DEFAULT
 10
-25.29322112672988
 20
70.58889975208032
 30
0.0
 40
1.0
  0
CIRCLE
  5
11D
  8
DEFAULT
 10
-25.29322112672988
 20
70.58889975208032
 30
0.0
 40
1.0
  0
CIRCLE
  5
11E
  8
DEFAULT
 10
-25.29322112672988
 20
70.58889975208032
 30
0.0
 40
1.0
  0
LINE
  5
11F
  8
DEFAULT
 10
-27.84322112672988
 20
68.03889975208033
 30
0.0
 11
-22.74322112672987
 21
68.03889975208033
 31
0.0
  0
LINE
  5
120
  8
DEFAULT
 10
-22.74322112672987
 20
68.03889975208033
 30
0.0
 11
-22.74322112672987
 21
73.13889975208033
 31
0.0
  0
LINE
  5
121
  8
DEFAULT
 10
-22.74322112672987
 20
73.13889975208033
 30
0.0
 11
-27.84322112672988
 21
73.13889975208033
 31
0.0
  0
LINE
  5
122
  8
DEFAULT
 10
-27.84322112672988
 20
73.13889975208033
 30
0.0
 11
-27.84322112672988
 21
68.03889975208033
 31
0.0
  0
LINE
  5
123
  8
DEFAULT
 10
-27.84322112672988
 20
70.58889975208032
 30
0.0
 11
-26.29322112672988
 21
70.58889975208032
 31
0.0
  0
LINE
  5
124
  8
DEFAULT
 10
-24.29322112672988
 20
70.58889975208032
 30
0.0
 11
-22.74322112672987
 21
70.58889975208032
 31
0.0
  0
LINE
  5
125
  8
DEFAULT
 10
-25.29322112672988
 20
68.03889975208033
 30
0.0
 11
-25.29322112672988
 21
69.58889975208032
 31
0.0
  0
LINE
  5
126
  8
DEFAULT
 10
-25.29322112672988
 20
71.58889975208032
 30
0.0
 11
-25.29322112672988
 21
73.13889975208033
 31
0.0
  0
LINE
  5
127
  8
DEFAULT
 10
-27.84322112672988
 20
70.58889975208032
 30
0.0
 11
-26.29322112672988
 21
70.58889975208032
 31
0.0
  0
LINE
  5
128
  8
DEFAULT
 10
-24.29322112672988
 20
70.58889975208032
 30
0.0
 11
-22.74322112672987
 21
70.58889975208032
 31
0.0
  0
LINE
  5
129
  8
DEFAULT
 10
-25.29322112672988
 20
68.03889975208033
 30
0.0
 11
-25.29322112672988
 21
69.58889975208032
 31
0.0
  0
LINE
  5
12A
  8
DEFAULT
 10
-25.29322112672988
 20
71.58889975208032
 30
0.0
 11
-25.29322112672988
 21
73.13889975208033
 31
0.0
  0
LINE
  5
12B
  8
DEFAULT
 10
-44.77145048758187
 20
52.84367096479417
 30
0.0
 11
-39.67145048758188
 21
52.84367096479417
 31
0.0
  0
LINE
  5
12C
  8
DEFAULT
 10
-44.77145048758187
 20
52.84367096479417
 30
0.0
 11
-39.67145048758188
 21
52.84367096479417
 31
0.0
  0
LINE
  5
12D
  8
DEFAULT
 10
-39.67145048758188
 20
52.84367096479417
 30
0.0
 11
-39.67145048758188
 21
57.94367096479417
 31
0.0
  0
LINE
  5
12E
  8
DEFAULT
 10
-39.67145048758188
 20
52.84367096479417
 30
0.0
 11
-39.67145048758188
 21
57.94367096479417
 31
0.0
  0
LINE
  5
12F
  8
DEFAULT
 10
-39.67145048758188
 20
57.94367096479417
 30
0.0
 11
-44.77145048758187
 21
57.94367096479417
 31
0.0
  0
LINE
  5
130
  8
DEFAULT
 10
-39.67145048758188
 20
57.94367096479417
 30
0.0
 11
-44.77145048758187
 21
57.94367096479417
 31
0.0
  0
LINE
  5
131
  8
DEFAULT
 10
-44.77145048758187
 20
57.94367096479417
 30
0.0
 11
-44.77145048758187
 21
52.84367096479417
 31
0.0
  0
LINE
  5
132
  8
DEFAULT
 10
-44.77145048758187
 20
57.94367096479417
 30
0.0
 11
-44.77145048758187
 21
52.84367096479417
 31
0.0
  0
CIRCLE
  5
133
  8
DEFAULT
 10
-42.22145048758188
 20
55.39367096479417
 30
0.0
 40
1.0
  0
CIRCLE
  5
134
  8
DEFAULT
 10
-42.22145048758188
 20
55.39367096479417
 30
0.0
 40
1.0
  0
CIRCLE
  5
135
  8
DEFAULT
 10
-42.22145048758188
 20
55.39367096479417
 30
0.0
 40
1.0
  0
LINE
  5
136
  8
DEFAULT
 10
-44.77145048758187
 20
52.84367096479417
 30
0.0
 11
-39.67145048758188
 21
52.84367096479417
 31
0.0
  0
LINE
  5
137
  8
DEFAULT
 10
-39.67145048758188
 20
52.84367096479417
 30
0.0
 11
-39.67145048758188
 21
57.94367096479417
 31
0.0
  0
LINE
  5
138
  8
DEFAULT
 10
-39.67145048758188
 20
57.94367096479417
 30
0.0
 11
-44.77145048758187
 21
57.94367096479417
 31
0.0
  0
LINE
  5
139
  8
DEFAULT
 10
-44.77145048758187
 20
57.94367096479417
 30
0.0
 11
-44.77145048758187
 21
52.84367096479417
 31
0.0
  0
LINE
  5
13A
  8
DEFAULT
 10
-44.77145048758187
 20
55.39367096479418
 30
0.0
 11
-43.22145048758188
 21
55.39367096479418
 31
0.0
  0
LINE
  5
13B
  8
DEFAULT
 10
-41.22145048758188
 20
55.39367096479418
 30
0.0
 11
-39.67145048758188
 21
55.39367096479418
 31
0.0
  0
LINE
  5
13C
  8
DEFAULT
 10
-42.22145048758188
 20
52.84367096479417
 30
0.0
 11
-42.22145048758188
 21
54.39367096479418
 31
0.0
  0
LINE
  5
13D
  8
DEFAULT
 10
-42.22145048758188
 20
56.39367096479418
 30
0.0
 11
-42.22145048758188
 21
57.94367096479417
 31
0.0
  0
LINE
  5
13E
  8
DEFAULT
 10
-44.77145048758187
 20
55.39367096479418
 30
0.0
 11
-43.22145048758188
 21
55.39367096479418
 31
0.0
  0
LINE
  5
13F
  8
DEFAULT
 10
-41.22145048758188
 20
55.39367096479418
 30
0.0
 11
-39.67145048758188
 21
55.39367096479418
 31
0.0
  0
LINE
  5
140
  8
DEFAULT
 10
-42.22145048758188
 20
52.84367096479417
 30
0.0
 11
-42.22145048758188
 21
54.39367096479418
 31
0.0
  0
LINE
  5
141
  8
DEFAULT
 10
-42.22145048758188
 20
56.39367096479418
 30
0.0
 11
-42.22145048758188
 21
57.94367096479417
 31
0.0
  0
LINE
  5
142
  8
DEFAULT
 10
-44.7714504875819
 20
28.84367096479417
 30
0.0
 11
-39.67145048758191
 21
28.84367096479417
 31
0.0
  0
LINE
  5
143
  8
DEFAULT
 10
-44.7714504875819
 20
28.84367096479417
 30
0.0
 11
-39.67145048758191
 21
28.84367096479417
 31
0.0
  0
LINE
  5
144
  8
DEFAULT
 10
-39.67145048758191
 20
28.84367096479417
 30
0.0
 11
-39.67145048758191
 21
33.94367096479417
 31
0.0
  0
LINE
  5
145
  8
DEFAULT
 10
-39.67145048758191
 20
28.84367096479417
 30
0.0
 11
-39.67145048758191
 21
33.94367096479417
 31
0.0
  0
LINE
  5
146
  8
DEFAULT
 10
-39.67145048758191
 20
33.94367096479417
 30
0.0
 11
-44.7714504875819
 21
33.94367096479417
 31
0.0
  0
LINE
  5
147
  8
DEFAULT
 10
-39.67145048758191
 20
33.94367096479417
 30
0.0
 11
-44.7714504875819
 21
33.94367096479417
 31
0.0
  0
LINE
  5
148
  8
DEFAULT
 10
-44.7714504875819
 20
33.94367096479417
 30
0.0
 11
-44.7714504875819
 21
28.84367096479417
 31
0.0
  0
LINE
  5
149
  8
DEFAULT
 10
-44.7714504875819
 20
33.94367096479417
 30
0.0
 11
-44.7714504875819
 21
28.84367096479417
 31
0.0
  0
CIRCLE
  5
14A
  8
DEFAULT
 10
-42.2214504875819
 20
31.39367096479417
 30
0.0
 40
1.0
  0
CIRCLE
  5
14B
  8
DEFAULT
 10
-42.2214504875819
 20
31.39367096479417
 30
0.0
 40
1.0
  0
CIRCLE
  5
14C
  8
DEFAULT
 10
-42.2214504875819
 20
31.39367096479417
 30
0.0
 40
1.0
  0
LINE
  5
14D
  8
DEFAULT
 10
-44.7714504875819
 20
28.84367096479417
 30
0.0
 11
-39.67145048758191
 21
28.84367096479417
 31
0.0
  0
LINE
  5
14E
  8
DEFAULT
 10
-39.67145048758191
 20
28.84367096479417
 30
0.0
 11
-39.67145048758191
 21
33.94367096479417
 31
0.0
  0
LINE
  5
14F
  8
DEFAULT
 10
-39.67145048758191
 20
33.94367096479417
 30
0.0
 11
-44.7714504875819
 21
33.94367096479417
 31
0.0
  0
LINE
  5
150
  8
DEFAULT
 10
-44.7714504875819
 20
33.94367096479417
 30
0.0
 11
-44.7714504875819
 21
28.84367096479417
 31
0.0
  0
LINE
  5
151
  8
DEFAULT
 10
-44.7714504875819
 20
31.39367096479417
 30
0.0
 11
-43.2214504875819
 21
31.39367096479417
 31
0.0
  0
LINE
  5
152
  8
DEFAULT
 10
-41.2214504875819
 20
31.39367096479417
 30
0.0
 11
-39.67145048758191
 21
31.39367096479417
 31
0.0
  0
LINE
  5
153
  8
DEFAULT
 10
-42.2214504875819
 20
28.84367096479417
 30
0.0
 11
-42.2214504875819
 21
30.39367096479417
 31
0.0
  0
LINE
  5
154
  8
DEFAULT
 10
-42.2214504875819
 20
32.39367096479417
 30
0.0
 11
-42.2214504875819
 21
33.94367096479417
 31
0.0
  0
LINE
  5
155
  8
DEFAULT
 10
-44.7714504875819
 20
31.39367096479417
 30
0.0
 11
-43.2214504875819
 21
31.39367096479417
 31
0.0
  0
LINE
  5
156
  8
DEFAULT
 10
-41.2214504875819
 20
31.39367096479417
 30
0.0
 11
-39.67145048758191
 21
31.39367096479417
 31
0.0
  0
LINE
  5
157
  8
DEFAULT
 10
-42.2214504875819
 20
28.84367096479417
 30
0.0
 11
-42.2214504875819
 21
30.39367096479417
 31
0.0
  0
LINE
  5
158
  8
DEFAULT
 10
-42.2214504875819
 20
32.39367096479417
 30
0.0
 11
-42.2214504875819
 21
33.94367096479417
 31
0.0
  0
LINE
  5
159
  8
DEFAULT
 10
-27.84322112672984
 20
44.03889975208035
 30
0.0
 11
-22.74322112672984
 21
44.03889975208035
 31
0.0
  0
LINE
  5
15A
  8
DEFAULT
 10
-27.84322112672984
 20
44.03889975208035
 30
0.0
 11
-22.74322112672984
 21
44.03889975208035
 31
0.0
  0
LINE
  5
15B
  8
DEFAULT
 10
-22.74322112672984
 20
44.03889975208035
 30
0.0
 11
-22.74322112672984
 21
49.13889975208035
 31
0.0
  0
LINE
  5
15C
  8
DEFAULT
 10
-22.74322112672984
 20
44.03889975208035
 30
0.0
 11
-22.74322112672984
 21
49.13889975208035
 31
0.0
  0
LINE
  5
15D
  8
DEFAULT
 10
-22.74322112672984
 20
49.13889975208035
 30
0.0
 11
-27.84322112672984
 21
49.13889975208035
 31
0.0
  0
LINE
  5
15E
  8
DEFAULT
 10
-22.74322112672984
 20
49.13889975208035
 30
0.0
 11
-27.84322112672984
 21
49.13889975208035
 31
0.0
  0
LINE
  5
15F
  8
DEFAULT
 10
-27.84322112672984
 20
49.13889975208035
 30
0.0
 11
-27.84322112672984
 21
44.03889975208035
 31
0.0
  0
LINE
  5
160
  8
DEFAULT
 10
-27.84322112672984
 20
49.13889975208035
 30
0.0
 11
-27.84322112672984
 21
44.03889975208035
 31
0.0
  0
CIRCLE
  5
161
  8
DEFAULT
 10
-25.29322112672984
 20
46.58889975208035
 30
0.0
 40
1.0
  0
CIRCLE
  5
162
  8
DEFAULT
 10
-25.29322112672984
 20
46.58889975208035
 30
0.0
 40
1.0
  0
CIRCLE
  5
163
  8
DEFAULT
 10
-25.29322112672984
 20
46.58889975208035
 30
0.0
 40
1.0
  0
LINE
  5
164
  8
DEFAULT
 10
-27.84322112672984
 20
44.03889975208035
 30
0.0
 11
-22.74322112672984
 21
44.03889975208035
 31
0.0
  0
LINE
  5
165
  8
DEFAULT
 10
-22.74322112672984
 20
44.03889975208035
 30
0.0
 11
-22.74322112672984
 21
49.13889975208035
 31
0.0
  0
LINE
  5
166
  8
DEFAULT
 10
-22.74322112672984
 20
49.13889975208035
 30
0.0
 11
-27.84322112672984
 21
49.13889975208035
 31
0.0
  0
LINE
  5
167
  8
DEFAULT
 10
-27.84322112672984
 20
49.13889975208035
 30
0.0
 11
-27.84322112672984
 21
44.03889975208035
 31
0.0
  0
LINE
  5
168
  8
DEFAULT
 10
-27.84322112672984
 20
46.58889975208035
 30
0.0
 11
-26.29322112672984
 21
46.58889975208035
 31
0.0
  0
LINE
  5
169
  8
DEFAULT
 10
-24.29322112672984
 20
46.58889975208035
 30
0.0
 11
-22.74322112672984
 21
46.58889975208035
 31
0.0
  0
LINE
  5
16A
  8
DEFAULT
 10
-25.29322112672984
 20
44.03889975208035
 30
0.0
 11
-25.29322112672984
 21
45.58889975208035
 31
0.0
  0
LINE
  5
16B
  8
DEFAULT
 10
-25.29322112672984
 20
47.58889975208035
 30
0.0
 11
-25.29322112672984
 21
49.13889975208035
 31
0.0
  0
LINE
  5
16C
  8
DEFAULT
 10
-27.84322112672984
 20
46.58889975208035
 30
0.0
 11
-26.29322112672984
 21
46.58889975208035
 31
0.0
  0
LINE
  5
16D
  8
DEFAULT
 10
-24.29322112672984
 20
46.58889975208035
 30
0.0
 11
-22.74322112672984
 21
46.58889975208035
 31
0.0
  0
LINE
  5
16E
  8
DEFAULT
 10
-25.29322112672984
 20
44.03889975208035
 30
0.0
 11
-25.29322112672984
 21
45.58889975208035
 31
0.0
  0
LINE
  5
16F
  8
DEFAULT
 10
-25.29322112672984
 20
47.58889975208035
 30
0.0
 11
-25.29322112672984
 21
49.13889975208035
 31
0.0
  0
LINE
  5
170
  8
DEFAULT
 10
-11.05434703294959
 20
53.87939321747518
 30
0.0
 11
-5.954347032949588
 21
53.87939321747518
 31
0.0
  0
LINE
  5
171
  8
DEFAULT
 10
-11.05434703294959
 20
53.87939321747518
 30
0.0
 11
-5.954347032949588
 21
53.87939321747518
 31
0.0
  0
LINE
  5
172
  8
DEFAULT
 10
-5.954347032949588
 20
53.87939321747518
 30
0.0
 11
-5.954347032949588
 21
58.97939321747518
 31
0.0
  0
LINE
  5
173
  8
DEFAULT
 10
-5.954347032949588
 20
53.87939321747518
 30
0.0
 11
-5.954347032949588
 21
58.97939321747518
 31
0.0
  0
LINE
  5
174
  8
DEFAULT
 10
-5.954347032949588
 20
58.97939321747518
 30
0.0
 11
-11.05434703294959
 21
58.97939321747518
 31
0.0
  0
LINE
  5
175
  8
DEFAULT
 10
-5.954347032949588
 20
58.97939321747518
 30
0.0
 11
-11.05434703294959
 21
58.97939321747518
 31
0.0
  0
LINE
  5
176
  8
DEFAULT
 10
-11.05434703294959
 20
58.97939321747518
 30
0.0
 11
-11.05434703294959
 21
53.87939321747518
 31
0.0
  0
LINE
  5
177
  8
DEFAULT
 10
-11.05434703294959
 20
58.97939321747518
 30
0.0
 11
-11.05434703294959
 21
53.87939321747518
 31
0.0
  0
CIRCLE
  5
178
  8
DEFAULT
 10
-8.504347032949589
 20
56.42939321747519
 30
0.0
 40
1.0
  0
CIRCLE
  5
179
  8
DEFAULT
 10
-8.504347032949589
 20
56.42939321747519
 30
0.0
 40
1.0
  0
CIRCLE
  5
17A
  8
DEFAULT
 10
-8.504347032949589
 20
56.42939321747519
 30
0.0
 40
1.0
  0
LINE
  5
17B
  8
DEFAULT
 10
-11.05434703294959
 20
53.87939321747518
 30
0.0
 11
-5.954347032949588
 21
53.87939321747518
 31
0.0
  0
LINE
  5
17C
  8
DEFAULT
 10
-5.954347032949588
 20
53.87939321747518
 30
0.0
 11
-5.954347032949588
 21
58.97939321747518
 31
0.0
  0
LINE
  5
17D
  8
DEFAULT
 10
-5.954347032949588
 20
58.97939321747518
 30
0.0
 11
-11.05434703294959
 21
58.97939321747518
 31
0.0
  0
LINE
  5
17E
  8
DEFAULT
 10
-11.05434703294959
 20
58.97939321747518
 30
0.0
 11
-11.05434703294959
 21
53.87939321747518
 31
0.0
  0
LINE
  5
17F
  8
DEFAULT
 10
-11.05434703294959
 20
56.42939321747519
 30
0.0
 11
-9.504347032949589
 21
56.42939321747519
 31
0.0
  0
LINE
  5
180
  8
DEFAULT
 10
-7.504347032949589
 20
56.42939321747519
 30
0.0
 11
-5.954347032949588
 21
56.42939321747519
 31
0.0
  0
LINE
  5
181
  8
DEFAULT
 10
-8.504347032949589
 20
53.87939321747518
 30
0.0
 11
-8.504347032949589
 21
55.42939321747519
 31
0.0
  0
LINE
  5
182
  8
DEFAULT
 10
-8.504347032949589
 20
57.42939321747519
 30
0.0
 11
-8.504347032949589
 21
58.97939321747518
 31
0.0
  0
LINE
  5
183
  8
DEFAULT
 10
-11.05434703294959
 20
56.42939321747519
 30
0.0
 11
-9.504347032949589
 21
56.42939321747519
 31
0.0
  0
LINE
  5
184
  8
DEFAULT
 10
-7.504347032949589
 20
56.42939321747519
 30
0.0
 11
-5.954347032949588
 21
56.42939321747519
 31
0.0
  0
LINE
  5
185
  8
DEFAULT
 10
-8.504347032949589
 20
53.87939321747518
 30
0.0
 11
-8.504347032949589
 21
55.42939321747519
 31
0.0
  0
LINE
  5
186
  8
DEFAULT
 10
-8.504347032949589
 20
57.42939321747519
 30
0.0
 11
-8.504347032949589
 21
58.97939321747518
 31
0.0
  0
LINE
  5
187
  8
DEFAULT
 10
-11.05434703294961
 20
29.87939321747519
 30
0.0
 11
-5.954347032949606
 21
29.87939321747519
 31
0.0
  0
LINE
  5
188
  8
DEFAULT
 10
-11.05434703294961
 20
29.87939321747519
 30
0.0
 11
-5.954347032949606
 21
29.87939321747519
 31
0.0
  0
LINE
  5
189
  8
DEFAULT
 10
-5.954347032949606
 20
29.87939321747519
 30
0.0
 11
-5.954347032949606
 21
34.97939321747519
 31
0.0
  0
LINE
  5
18A
  8
DEFAULT
 10
-5.954347032949606
 20
29.87939321747519
 30
0.0
 11
-5.954347032949606
 21
34.97939321747519
 31
0.0
  0
LINE
  5
18B
  8
DEFAULT
 10
-5.954347032949606
 20
34.97939321747519
 30
0.0
 11
-11.05434703294961
 21
34.97939321747519
 31
0.0
  0
LINE
  5
18C
  8
DEFAULT
 10
-5.954347032949606
 20
34.97939321747519
 30
0.0
 11
-11.05434703294961
 21
34.97939321747519
 31
0.0
  0
LINE
  5
18D
  8
DEFAULT
 10
-11.05434703294961
 20
34.97939321747519
 30
0.0
 11
-11.05434703294961
 21
29.87939321747519
 31
0.0
  0
LINE
  5
18E
  8
DEFAULT
 10
-11.05434703294961
 20
34.97939321747519
 30
0.0
 11
-11.05434703294961
 21
29.87939321747519
 31
0.0
  0
CIRCLE
  5
18F
  8
DEFAULT
 10
-8.504347032949607
 20
32.42939321747519
 30
0.0
 40
1.0
  0
CIRCLE
  5
190
  8
DEFAULT
 10
-8.504347032949607
 20
32.42939321747519
 30
0.0
 40
1.0
  0
CIRCLE
  5
191
  8
DEFAULT
 10
-8.504347032949607
 20
32.42939321747519
 30
0.0
 40
1.0
  0
LINE
  5
192
  8
DEFAULT
 10
-11.05434703294961
 20
29.87939321747519
 30
0.0
 11
-5.954347032949606
 21
29.87939321747519
 31
0.0
  0
LINE
  5
193
  8
DEFAULT
 10
-5.954347032949606
 20
29.87939321747519
 30
0.0
 11
-5.954347032949606
 21
34.97939321747519
 31
0.0
  0
LINE
  5
194
  8
DEFAULT
 10
-5.954347032949606
 20
34.97939321747519
 30
0.0
 11
-11.05434703294961
 21
34.97939321747519
 31
0.0
  0
LINE
  5
195
  8
DEFAULT
 10
-11.05434703294961
 20
34.97939321747519
 30
0.0
 11
-11.05434703294961
 21
29.87939321747519
 31
0.0
  0
LINE
  5
196
  8
DEFAULT
 10
-11.05434703294961
 20
32.42939321747519
 30
0.0
 11
-9.504347032949607
 21
32.42939321747519
 31
0.0
  0
LINE
  5
197
  8
DEFAULT
 10
-7.504347032949607
 20
32.42939321747519
 30
0.0
 11
-5.954347032949606
 21
32.42939321747519
 31
0.0
  0
LINE
  5
198
  8
DEFAULT
 10
-8.504347032949607
 20
29.87939321747519
 30
0.0
 11
-8.504347032949607
 21
31.42939321747519
 31
0.0
  0
LINE
  5
199
  8
DEFAULT
 10
-8.504347032949607
 20
33.42939321747519
 30
0.0
 11
-8.504347032949607
 21
34.97939321747519
 31
0.0
  0
LINE
  5
19A
  8
DEFAULT
 10
-11.05434703294961
 20
32.42939321747519
 30
0.0
 11
-9.504347032949607
 21
32.42939321747519
 31
0.0
  0
LINE
  5
19B
  8
DEFAULT
 10
-7.504347032949607
 20
32.42939321747519
 30
0.0
 11
-5.954347032949606
 21
32.42939321747519
 31
0.0
  0
LINE
  5
19C
  8
DEFAULT
 10
-8.504347032949607
 20
29.87939321747519
 30
0.0
 11
-8.504347032949607
 21
31.42939321747519
 31
0.0
  0
LINE
  5
19D
  8
DEFAULT
 10
-8.504347032949607
 20
33.42939321747519
 30
0.0
 11
-8.504347032949607
 21
34.97939321747519
 31
0.0
  0
LINE
  5
19E
  8
DEFAULT
 10
-27.84322112672985
 20
20.03889975208035
 30
0.0
 11
-22.74322112672985
 21
20.03889975208035
 31
0.0
  0
LINE
  5
19F
  8
DEFAULT
 10
-27.84322112672985
 20
20.03889975208035
 30
0.0
 11
-22.74322112672985
 21
20.03889975208035
 31
0.0
  0
LINE
  5
1A0
  8
DEFAULT
 10
-22.74322112672985
 20
20.03889975208035
 30
0.0
 11
-22.74322112672985
 21
25.13889975208035
 31
0.0
  0
LINE
  5
1A1
  8
DEFAULT
 10
-22.74322112672985
 20
20.03889975208035
 30
0.0
 11
-22.74322112672985
 21
25.13889975208035
 31
0.0
  0
LINE
  5
1A2
  8
DEFAULT
 10
-22.74322112672985
 20
25.13889975208035
 30
0.0
 11
-27.84322112672985
 21
25.13889975208035
 31
0.0
  0
LINE
  5
1A3
  8
DEFAULT
 10
-22.74322112672985
 20
25.13889975208035
 30
0.0
 11
-27.84322112672985
 21
25.13889975208035
 31
0.0
  0
LINE
  5
1A4
  8
DEFAULT
 10
-27.84322112672985
 20
25.13889975208035
 30
0.0
 11
-27.84322112672985
 21
20.03889975208035
 31
0.0
  0
LINE
  5
1A5
  8
DEFAULT
 10
-27.84322112672985
 20
25.13889975208035
 30
0.0
 11
-27.84322112672985
 21
20.03889975208035
 31
0.0
  0
CIRCLE
  5
1A6
  8
DEFAULT
 10
-25.29322112672985
 20
22.58889975208035
 30
0.0
 40
1.0
  0
CIRCLE
  5
1A7
  8
DEFAULT
 10
-25.29322112672985
 20
22.58889975208035
 30
0.0
 40
1.0
  0
CIRCLE
  5
1A8
  8
DEFAULT
 10
-25.29322112672985
 20
22.58889975208035
 30
0.0
 40
1.0
  0
LINE
  5
1A9
  8
DEFAULT
 10
-27.84322112672985
 20
20.03889975208035
 30
0.0
 11
-22.74322112672985
 21
20.03889975208035
 31
0.0
  0
LINE
  5
1AA
  8
DEFAULT
 10
-22.74322112672985
 20
20.03889975208035
 30
0.0
 11
-22.74322112672985
 21
25.13889975208035
 31
0.0
  0
LINE
  5
1AB
  8
DEFAULT
 10
-22.74322112672985
 20
25.13889975208035
 30
0.0
 11
-27.84322112672985
 21
25.13889975208035
 31
0.0
  0
LINE
  5
1AC
  8
DEFAULT
 10
-27.84322112672985
 20
25.13889975208035
 30
0.0
 11
-27.84322112672985
 21
20.03889975208035
 31
0.0
  0
LINE
  5
1AD
  8
DEFAULT
 10
-27.84322112672985
 20
22.58889975208035
 30
0.0
 11
-26.29322112672985
 21
22.58889975208035
 31
0.0
  0
LINE
  5
1AE
  8
DEFAULT
 10
-24.29322112672985
 20
22.58889975208035
 30
0.0
 11
-22.74322112672985
 21
22.58889975208035
 31
0.0
  0
LINE
  5
1AF
  8
DEFAULT
 10
-25.29322112672985
 20
20.03889975208035
 30
0.0
 11
-25.29322112672985
 21
21.58889975208035
 31
0.0
  0
LINE
  5
1B0
  8
DEFAULT
 10
-25.29322112672985
 20
23.58889975208035
 30
0.0
 11
-25.29322112672985
 21
25.13889975208035
 31
0.0
  0
LINE
  5
1B1
  8
DEFAULT
 10
-27.84322112672985
 20
22.58889975208035
 30
0.0
 11
-26.29322112672985
 21
22.58889975208035
 31
0.0
  0
LINE
  5
1B2
  8
DEFAULT
 10
-24.29322112672985
 20
22.58889975208035
 30
0.0
 11
-22.74322112672985
 21
22.58889975208035
 31
0.0
  0
LINE
  5
1B3
  8
DEFAULT
 10
-25.29322112672985
 20
20.03889975208035
 30
0.0
 11
-25.29322112672985
 21
21.58889975208035
 31
0.0
  0
LINE
  5
1B4
  8
DEFAULT
 10
-25.29322112672985
 20
23.58889975208035
 30
0.0
 11
-25.29322112672985
 21
25.13889975208035
 31
0.0
  0
LINE
  5
1B5
  8
DEFAULT
 10
-44.77145048758192
 20
4.843670964794168
 30
0.0
 11
-39.67145048758192
 21
4.843670964794168
 31
0.0
  0
LINE
  5
1B6
  8
DEFAULT
 10
-44.77145048758192
 20
4.843670964794168
 30
0.0
 11
-39.67145048758192
 21
4.843670964794168
 31
0.0
  0
LINE
  5
1B7
  8
DEFAULT
 10
-39.67145048758192
 20
4.843670964794168
 30
0.0
 11
-39.67145048758192
 21
9.943670964794165
 31
0.0
  0
LINE
  5
1B8
  8
DEFAULT
 10
-39.67145048758192
 20
4.843670964794168
 30
0.0
 11
-39.67145048758192
 21
9.943670964794165
 31
0.0
  0
LINE
  5
1B9
  8
DEFAULT
 10
-39.67145048758192
 20
9.943670964794165
 30
0.0
 11
-44.77145048758192
 21
9.943670964794165
 31
0.0
  0
LINE
  5
1BA
  8
DEFAULT
 10
-39.67145048758192
 20
9.943670964794165
 30
0.0
 11
-44.77145048758192
 21
9.943670964794165
 31
0.0
  0
LINE
  5
1BB
  8
DEFAULT
 10
-44.77145048758192
 20
9.943670964794165
 30
0.0
 11
-44.77145048758192
 21
4.843670964794168
 31
0.0
  0
LINE
  5
1BC
  8
DEFAULT
 10
-44.77145048758192
 20
9.943670964794165
 30
0.0
 11
-44.77145048758192
 21
4.843670964794168
 31
0.0
  0
CIRCLE
  5
1BD
  8
DEFAULT
 10
-42.22145048758192
 20
7.393670964794161
 30
0.0
 40
0.9999999999999929
  0
CIRCLE
  5
1BE
  8
DEFAULT
 10
-42.22145048758192
 20
7.393670964794161
 30
0.0
 40
0.9999999999999929
  0
CIRCLE
  5
1BF
  8
DEFAULT
 10
-42.22145048758192
 20
7.393670964794161
 30
0.0
 40
0.9999999999999929
  0
LINE
  5
1C0
  8
DEFAULT
 10
-44.77145048758192
 20
4.843670964794168
 30
0.0
 11
-39.67145048758192
 21
4.843670964794168
 31
0.0
  0
LINE
  5
1C1
  8
DEFAULT
 10
-39.67145048758192
 20
4.843670964794168
 30
0.0
 11
-39.67145048758192
 21
9.943670964794165
 31
0.0
  0
LINE
  5
1C2
  8
DEFAULT
 10
-39.67145048758192
 20
9.943670964794165
 30
0.0
 11
-44.77145048758192
 21
9.943670964794165
 31
0.0
  0
LINE
  5
1C3
  8
DEFAULT
 10
-44.77145048758192
 20
9.943670964794165
 30
0.0
 11
-44.77145048758192
 21
4.843670964794168
 31
0.0
  0
LINE
  5
1C4
  8
DEFAULT
 10
-44.77145048758192
 20
7.393670964794167
 30
0.0
 11
-43.22145048758193
 21
7.393670964794167
 31
0.0
  0
LINE
  5
1C5
  8
DEFAULT
 10
-41.22145048758193
 20
7.393670964794167
 30
0.0
 11
-39.67145048758192
 21
7.393670964794167
 31
0.0
  0
LINE
  5
1C6
  8
DEFAULT
 10
-42.22145048758193
 20
4.843670964794168
 30
0.0
 11
-42.22145048758193
 21
6.393670964794167
 31
0.0
  0
LINE
  5
1C7
  8
DEFAULT
 10
-42.22145048758193
 20
8.393670964794167
 30
0.0
 11
-42.22145048758193
 21
9.943670964794165
 31
0.0
  0
LINE
  5
1C8
  8
DEFAULT
 10
-44.77145048758192
 20
7.393670964794167
 30
0.0
 11
-43.22145048758193
 21
7.393670964794167
 31
0.0
  0
LINE
  5
1C9
  8
DEFAULT
 10
-41.22145048758193
 20
7.393670964794167
 30
0.0
 11
-39.67145048758192
 21
7.393670964794167
 31
0.0
  0
LINE
  5
1CA
  8
DEFAULT
 10
-42.22145048758193
 20
4.843670964794168
 30
0.0
 11
-42.22145048758193
 21
6.393670964794167
 31
0.0
  0
LINE
  5
1CB
  8
DEFAULT
 10
-42.22145048758193
 20
8.393670964794167
 30
0.0
 11
-42.22145048758193
 21
9.943670964794165
 31
0.0
  0
CIRCLE
  5
1CC
  8
DEFAULT
 10
-25.29322112672988
 20
70.58889975208032
 30
0.0
 40
6.0
  0
CIRCLE
  5
1CD
  8
DEFAULT
 10
-25.29322112672988
 20
70.58889975208032
 30
0.0
 40
6.0
  0
CIRCLE
  5
1CE
  8
DEFAULT
 10
-42.22145048758188
 20
55.39367096479417
 30
0.0
 40
5.999999999999993
  0
CIRCLE
  5
1CF
  8
DEFAULT
 10
-42.22145048758188
 20
55.39367096479417
 30
0.0
 40
5.999999999999993
  0
CIRCLE
  5
1D0
  8
DEFAULT
 10
-8.504347032949635
 20
80.42939321747517
 30
0.0
 40
6.000000000000004
  0
CIRCLE
  5
1D1
  8
DEFAULT
 10
-8.504347032949635
 20
80.42939321747517
 30
0.0
 40
6.000000000000004
  0
CIRCLE
  5
1D2
  8
DEFAULT
 10
-42.22145048758189
 20
79.39367096479417
 30
0.0
 40
6.0
  0
CIRCLE
  5
1D3
  8
DEFAULT
 10
-42.22145048758189
 20
79.39367096479417
 30
0.0
 40
6.0
  0
CIRCLE
  5
1D4
  8
DEFAULT
 10
-25.29322112672983
 20
94.58889975208035
 30
0.0
 40
5.999999999999996
  0
CIRCLE
  5
1D5
  8
DEFAULT
 10
-25.29322112672983
 20
94.58889975208035
 30
0.0
 40
5.999999999999996
  0
CIRCLE
  5
1D6
  8
DEFAULT
 10
-8.504347032949655
 20
104.4293932174752
 30
0.0
 40
5.999999999999995
  0
CIRCLE
  5
1D7
  8
DEFAULT
 10
-8.504347032949655
 20
104.4293932174752
 30
0.0
 40
5.999999999999995
  0
CIRCLE
  5
1D8
  8
DEFAULT
 10
-8.504347032949665
 20
128.4293932174752
 30
0.0
 40
6.000000000000005
  0
CIRCLE
  5
1D9
  8
DEFAULT
 10
-8.504347032949665
 20
128.4293932174752
 30
0.0
 40
6.000000000000005
  0
CIRCLE
  5
1DA
  8
DEFAULT
 10
-25.29322112672988
 20
118.5888997520803
 30
0.0
 40
5.999999999999993
  0
CIRCLE
  5
1DB
  8
DEFAULT
 10
-25.29322112672988
 20
118.5888997520803
 30
0.0
 40
5.999999999999993
  0
CIRCLE
  5
1DC
  8
DEFAULT
 10
-42.22145048758189
 20
103.3936709647942
 30
0.0
 40
6.0
  0
CIRCLE
  5
1DD
  8
DEFAULT
 10
-42.22145048758189
 20
103.3936709647942
 30
0.0
 40
6.0
  0
CIRCLE
  5
1DE
  8
DEFAULT
 10
-42.2214504875819
 20
31.39367096479417
 30
0.0
 40
6.0
  0
CIRCLE
  5
1DF
  8
DEFAULT
 10
-42.2214504875819
 20
31.39367096479417
 30
0.0
 40
6.0
  0
CIRCLE
  5
1E0
  8
DEFAULT
 10
-25.29322112672984
 20
46.58889975208035
 30
0.0
 40
6.0
  0
CIRCLE
  5
1E1
  8
DEFAULT
 10
-25.29322112672984
 20
46.58889975208035
 30
0.0
 40
6.0
  0
CIRCLE
  5
1E2
  8
DEFAULT
 10
-8.504347032949589
 20
56.42939321747519
 30
0.0
 40
6.0
  0
CIRCLE
  5
1E3
  8
DEFAULT
 10
-8.504347032949589
 20
56.42939321747519
 30
0.0
 40
6.0
  0
CIRCLE
  5
1E4
  8
DEFAULT
 10
-42.22145048758193
 20
7.393670964794166
 30
0.0
 40
6.000000000000007
  0
CIRCLE
  5
1E5
  8
DEFAULT
 10
-42.22145048758193
 20
7.393670964794166
 30
0.0
 40
6.000000000000007
  0
CIRCLE
  5
1E6
  8
DEFAULT
 10
-25.29322112672985
 20
22.58889975208035
 30
0.0
 40
6.0
  0
CIRCLE
  5
1E7
  8
DEFAULT
 10
-25.29322112672985
 20
22.58889975208035
 30
0.0
 40
6.0
  0
CIRCLE
  5
1E8
  8
DEFAULT
 10
-8.504347032949605
 20
32.42939321747519
 30
0.0
 40
6.000000000000002
  0
CIRCLE
  5
1E9
  8
DEFAULT
 10
-8.504347032949605
 20
32.42939321747519
 30
0.0
 40
6.000000000000002
  0
ARC
  5
1EA
  8
DEFAULT
 10
-14.36322112672986
 20
-7.177331329207489
 30
0.0
 40
2.0
 50
90.00000000000006
 51
179.9999999999999
  0
LINE
  5
1EB
  8
DEFAULT
 10
-16.36322112672986
 20
-7.177331329207487
 30
0.0
 11
-16.36322112672986
 21
-13.07581371642282
 31
0.0
  0
ARC
  5
1EC
  8
DEFAULT
 10
-18.36322112672986
 20
-13.07581371642283
 30
0.0
 40
2.0
 50
270.0
 51
0.0000000000003053
  0
LINE
  5
1ED
  8
DEFAULT
 10
-18.36322112672986
 20
-15.07581371642283
 30
0.0
 11
-32.22322112672985
 21
-15.07581371642284
 31
0.0
  0
ARC
  5
1EE
  8
DEFAULT
 10
-32.22322112672985
 20
-13.07581371642283
 30
0.0
 40
2.0
 50
180.0
 51
270.0
  0
LINE
  5
1EF
  8
DEFAULT
 10
-34.22322112672985
 20
-13.07581371642283
 30
0.0
 11
-34.22322112672985
 21
-7.177331329207485
 31
0.0
  0
ARC
  5
1F0
  8
DEFAULT
 10
-36.22322112672986
 20
-7.177331329207497
 30
0.0
 40
2.000000000000011
 50
0.0000000000003562
 51
90.0
  0
LINE
  5
1F1
  8
DEFAULT
 10
-36.22322112672986
 20
-5.177331329207487
 30
0.0
 11
-47.99999999999996
 21
-5.177331329207494
 31
0.0
  0
ARC
  5
1F2
  8
DEFAULT
 10
-47.99999999999996
 20
-3.177331329207494
 30
0.0
 40
2.0
 50
180.0000000000002
 51
270.0
  0
LINE
  5
1F3
  8
DEFAULT
 10
-49.99999999999996
 20
-3.1773313292075
 30
0.0
 11
-50.00000000000004
 21
107.5861767950293
 31
0.0
  0
ARC
  5
1F4
  8
DEFAULT
 10
-48.00000000000007
 20
107.5861767950293
 30
0.0
 40
1.999999999999975
 50
144.6105608598474
 51
179.9999999999996
  0
ARC
  5
1F5
  8
DEFAULT
 10
35.96671140335447
 20
47.93743130395935
 30
0.0
 40
104.9969973472657
 50
116.5513086208707
 51
144.6105608598477
  0
ARC
  5
1F6
  8
DEFAULT
 10
-10.07284874130084
 20
140.0717916926837
 30
0.0
 40
1.999999999999917
 50
50.71059313749967
 51
116.5513086208736
  0
LINE
  5
1F7
  8
DEFAULT
 10
-8.80637316078637
 20
141.6197062910903
 30
0.0
 11
-0.7335244194855226
 21
135.014648230026
 31
0.0
  0
ARC
  5
1F8
  8
DEFAULT
 10
-2.000000000000063
 20
133.4667336316194
 30
0.0
 40
2.00000000000001
 50
0.0
 51
50.7105931374991
  0
LINE
  5
1F9
  8
DEFAULT
 10
-0.0000000000000524
 20
133.4667336316194
 30
0.0
 11
0.0000000000000127
 21
5.637605528147416
 31
0.0
  0
ARC
  5
1FA
  8
DEFAULT
 10
-1.999999999999986
 20
5.637605528147439
 30
0.0
 40
1.999999999999998
 50
320.7105931375003
 51
359.9999999999993
  0
LINE
  5
1FB
  8
DEFAULT
 10
-0.4520854015933304
 20
4.371129947632934
 30
0.0
 11
-7.66430646670194
 21
-4.443806909722035
 31
0.0
  0
ARC
  5
1FC
  8
DEFAULT
 10
-9.21222106510857
 20
-3.177331329207493
 30
0.0
 40
2.000000000000001
 50
270.0000000000006
 51
320.7105931374991
  0
LINE
  5
1FD
  8
DEFAULT
 10
-9.21222106510855
 20
-5.177331329207494
 30
0.0
 11
-14.36322112672987
 21
-5.177331329207489
 31
0.0
  0
ENDSEC
  0
EOF
